<svg width="100" height="100" viewBox="0 0 100 100" fill="none" xmlns="http://www.w3.org/2000/svg">
<g filter="url(#filter0_d)">
<circle cx="50" cy="46" r="30" transform="rotate(-180 50 46)" fill="white"/>
</g>
<path d="M44.2929 45.2929C43.9024 45.6834 43.9024 46.3166 44.2929 46.7071L50.6569 53.0711C51.0474 53.4616 51.6805 53.4616 52.0711 53.0711C52.4616 52.6805 52.4616 52.0474 52.0711 51.6569L46.4142 46L52.0711 40.3431C52.4616 39.9526 52.4616 39.3195 52.0711 38.9289C51.6805 38.5384 51.0474 38.5384 50.6569 38.9289L44.2929 45.2929ZM46 45L45 45L45 47L46 47L46 45Z" fill="#373F4F"/>
<defs>
<filter id="filter0_d" x="0" y="0" width="100" height="100" filterUnits="userSpaceOnUse" color-interpolation-filters="sRGB">
<feFlood flood-opacity="0" result="BackgroundImageFix"/>
<feColorMatrix in="SourceAlpha" type="matrix" values="0 0 0 0 0 0 0 0 0 0 0 0 0 0 0 0 0 0 127 0"/>
<feOffset dy="4"/>
<feGaussianBlur stdDeviation="10"/>
<feColorMatrix type="matrix" values="0 0 0 0 0 0 0 0 0 0 0 0 0 0 0 0 0 0 0.1 0"/>
<feBlend mode="normal" in2="BackgroundImageFix" result="effect1_dropShadow"/>
<feBlend mode="normal" in="SourceGraphic" in2="effect1_dropShadow" result="shape"/>
</filter>
</defs>
</svg>
