<svg width="100" height="100" viewBox="0 0 100 100" fill="none" xmlns="http://www.w3.org/2000/svg">
<path d="M2.73632 66.2515C0.870647 61.0211 0 55.5416 0 50.0622C0 41.4694 2.23881 32.8766 6.46766 25.4046C8.20895 22.4159 10.199 19.5516 12.4378 16.9364L14.3035 18.5553C12.0647 21.046 10.199 23.7857 8.58209 26.65C4.60199 33.7484 2.48756 41.843 2.48756 50.0622C2.48756 55.2926 3.35821 60.5229 5.0995 65.5043L2.73632 66.2515Z" fill="#E3F1FF"/>
<path d="M10.6963 80.9464C9.20374 79.0784 7.83558 77.0859 6.5918 74.9688L8.70622 73.7235C9.82563 75.716 11.1938 77.584 12.5619 79.452L10.6963 80.9464Z" fill="#E3F1FF"/>
<path d="M50.0002 100C41.2937 100 32.7116 97.7584 25.1246 93.3997L26.3683 91.2827C33.4579 95.3923 41.6668 97.5093 50.0002 97.5093C76.1196 97.5093 97.5126 76.2142 97.5126 49.9377C97.5126 23.6613 76.1196 2.49066 50.0002 2.49066C44.1544 2.49066 38.5574 3.48692 33.2091 5.47945C30.5972 6.47572 27.9852 7.72105 25.4977 9.21544L24.2539 7.09838C26.8658 5.47945 29.6022 4.23412 32.3385 3.11332C37.9355 1.1208 43.9056 0 50.0002 0C77.4877 0 100 22.4159 100 50.0623C100 77.7086 77.4877 100 50.0002 100Z" fill="#E3F1FF"/>
<path d="M50.0001 83.6862C68.5469 83.6862 83.5821 68.6322 83.5821 50.0623C83.5821 31.4923 68.5469 16.4384 50.0001 16.4384C31.4532 16.4384 16.418 31.4923 16.418 50.0623C16.418 68.6322 31.4532 83.6862 50.0001 83.6862Z" fill="#E3F1FF"/>
<path d="M50.124 100V97.5094C76.2434 97.5094 97.3877 76.2143 97.3877 50.1869H99.8753C99.8753 77.7087 77.6116 100 50.124 100Z" fill="#036FF5"/>
<path d="M40.8646 44.5936L36.4053 54.4648L38.6717 55.4912L43.131 45.62L40.8646 44.5936Z" fill="#036FF5"/>
<path d="M49.5114 40.5674L48.6719 42.9119L57.3356 46.0221L58.1751 43.6776L49.5114 40.5674Z" fill="#036FF5"/>
<path d="M78.579 26.7235L64.8057 42.7877L66.6932 44.4101L80.4666 28.3459L78.579 26.7235Z" fill="#036FF5"/>
<path d="M48.8805 57.2852H47.6367V72.7273H48.8805V57.2852Z" fill="#79B5FD"/>
<path d="M61.069 65.7533H59.8252V72.7271H61.069V65.7533Z" fill="#79B5FD"/>
<path d="M73.3834 47.3225H72.1396V72.7272H73.3834V47.3225Z" fill="#79B5FD"/>
<path d="M36.566 70.1119H35.3223V72.7271H36.566V70.1119Z" fill="#79B5FD"/>
<path d="M27.86 26.899H25.248V28.1444H27.86V26.899Z" fill="#79B5FD"/>
<path d="M27.86 41.4694H25.248V42.7147H27.86V41.4694Z" fill="#79B5FD"/>
<path d="M27.86 34.2466H25.248V35.4919H27.86V34.2466Z" fill="#79B5FD"/>
<path d="M27.86 48.6924H25.248V49.9377H27.86V48.6924Z" fill="#79B5FD"/>
<path d="M27.86 56.0398H25.248V57.2851H27.86V56.0398Z" fill="#79B5FD"/>
<path d="M27.86 63.2627H25.248V64.508H27.86V63.2627Z" fill="#79B5FD"/>
<path d="M27.86 70.4856H25.248V71.7309H27.86V70.4856Z" fill="#79B5FD"/>
<path d="M76.1193 77.4595H22.6367V23.9103H25.1243V74.9688H76.1193V77.4595Z" fill="#036FF5"/>
<path d="M80.8461 34.9938H78.3586V28.7671H72.1396V26.2765H80.8461V34.9938Z" fill="#036FF5"/>
<path d="M35.9455 55.7908C38.0599 55.7908 39.6768 57.4098 39.6768 59.5268C39.6768 61.6439 38.0599 63.2628 35.9455 63.2628C33.831 63.2628 32.2141 61.6439 32.2141 59.5268C32.2141 57.4098 33.831 55.7908 35.9455 55.7908ZM35.9455 53.3002C32.4629 53.3002 29.7266 56.0399 29.7266 59.5268C29.7266 63.0137 32.4629 65.7535 35.9455 65.7535C39.4281 65.7535 42.1644 63.0137 42.1644 59.5268C42.1644 56.0399 39.4281 53.3002 35.9455 53.3002Z" fill="#036FF5"/>
<path d="M43.6564 37.4844C45.7708 37.4844 47.3877 39.1034 47.3877 41.2204C47.3877 43.3375 45.7708 44.9564 43.6564 44.9564C41.542 44.9564 39.9251 43.3375 39.9251 41.2204C39.9251 39.1034 41.542 37.4844 43.6564 37.4844ZM43.6564 34.9938C40.1738 34.9938 37.4375 37.7335 37.4375 41.2204C37.4375 44.7073 40.1738 47.4471 43.6564 47.4471C47.139 47.4471 49.8753 44.7073 49.8753 41.2204C49.8753 37.7335 47.0146 34.9938 43.6564 34.9938Z" fill="#036FF5"/>
<path d="M62.6867 43.0884C64.8011 43.0884 66.418 44.7074 66.418 46.8244C66.418 48.9415 64.8011 50.5604 62.6867 50.5604C60.5723 50.5604 58.9553 48.9415 58.9553 46.8244C58.9553 44.7074 60.6966 43.0884 62.6867 43.0884ZM62.6867 40.5978C59.2041 40.5978 56.4678 43.3375 56.4678 46.8244C56.4678 50.3114 59.2041 53.0511 62.6867 53.0511C66.1693 53.0511 68.9056 50.3114 68.9056 46.8244C68.9056 43.3375 66.1693 40.5978 62.6867 40.5978Z" fill="#036FF5"/>
<path d="M50.0007 7.84558C49.8764 7.84558 49.8764 7.84558 50.0007 7.84558C49.8764 7.84558 49.8764 7.84558 50.0007 7.84558C49.8764 7.84558 49.8764 7.84558 50.0007 7.84558C49.8764 7.84558 49.8764 7.84558 50.0007 7.84558C49.8764 7.84558 49.8764 7.84558 50.0007 7.84558C49.8764 7.84558 49.8764 7.84558 50.0007 7.84558C49.8764 7.84558 49.8764 7.84558 50.0007 7.84558C49.8764 7.84558 49.8764 7.84558 50.0007 7.84558C49.8764 7.84558 49.8764 7.84558 50.0007 7.84558C49.8764 7.84558 49.8764 7.84558 50.0007 7.84558C49.8764 7.84558 49.8764 7.84558 50.0007 7.84558C49.8764 7.84558 49.8764 7.84558 49.8764 7.84558C49.8764 7.84558 49.8764 7.84558 49.752 7.84558H49.6276C49.5032 7.84558 49.3788 7.84558 49.2545 7.84558V9.09091C49.6276 9.09091 50.0007 9.09091 50.4982 9.09091V7.84558H50.0007ZM45.0256 8.21918C44.6525 8.21918 44.2793 8.34371 43.7818 8.34371L43.9062 9.58904C44.2793 9.58904 44.6525 9.46451 45.15 9.46451L45.0256 8.21918ZM40.0505 9.09091C39.9261 9.09091 39.8017 9.09091 39.6774 9.21544C39.553 9.21544 39.4286 9.33998 39.3042 9.33998L39.6774 10.5853C40.0505 10.4608 40.4236 10.3362 40.7968 10.3362L40.0505 9.09091ZM35.3241 10.4608C35.1997 10.5853 34.951 10.5853 34.8266 10.7098C34.7022 10.8344 34.4535 10.8344 34.3291 10.9589L34.8266 12.0797C35.1997 11.9552 35.5729 11.8306 35.946 11.5816L35.3241 10.4608ZM30.8465 12.4533C30.7221 12.4533 30.7221 12.5778 30.5978 12.5778C30.5978 12.5778 30.5978 12.5778 30.4734 12.5778C30.4734 12.5778 30.4734 12.5778 30.349 12.5778C30.349 12.5778 30.349 12.5778 30.2246 12.5778C30.2246 12.5778 30.2246 12.5778 30.1002 12.5778C30.1002 12.5778 30.1002 12.5778 29.9759 12.5778C29.9759 12.5778 29.9759 12.5778 29.8515 12.5778C29.7271 12.5778 29.7271 12.7024 29.6027 12.7024C29.6027 12.7024 29.6027 12.7024 29.4784 12.7024L30.1002 13.8232C30.4734 13.5741 30.8465 13.4496 31.2196 13.2005L30.8465 12.4533ZM26.4933 15.0685C26.1201 15.3176 25.747 15.5666 25.4983 15.8157L26.2445 16.812C26.6177 16.5629 26.8664 16.3138 27.2395 16.0648L26.4933 15.0685ZM22.5132 18.0573C22.5132 18.1818 22.5132 18.1818 22.5132 18.0573C22.5132 18.1818 22.5132 18.1818 22.5132 18.0573C22.3888 18.1818 22.3888 18.1818 22.5132 18.0573C22.3888 18.1818 22.3888 18.1818 22.5132 18.0573C22.3888 18.1818 22.3888 18.1818 22.3888 18.1818C22.14 18.4309 21.8913 18.68 21.6425 18.929L22.5132 19.8007C22.7619 19.5517 23.1351 19.3026 23.3838 19.0536L22.5132 18.0573ZM19.0306 21.5442C18.7818 21.7933 18.6575 21.9178 18.4087 22.1669C18.2843 22.2914 18.2843 22.2914 18.1599 22.4159L19.155 23.2877C19.4037 23.0386 19.6525 22.665 19.9012 22.4159L19.0306 21.5442ZM15.7968 25.4047C15.6724 25.5293 15.548 25.6538 15.548 25.7783C15.4236 25.9029 15.4236 26.0274 15.2992 26.0274L16.2943 26.7746C16.543 26.401 16.7918 26.1519 17.0405 25.7783L15.7968 25.4047ZM13.1848 29.5143C13.1848 29.6389 13.1848 29.6389 13.1848 29.5143C13.0604 29.6389 13.0604 29.6389 13.1848 29.5143C13.0604 29.6389 13.0604 29.6389 13.1848 29.5143C13.0604 29.6389 13.0604 29.6389 13.1848 29.5143C13.0604 29.6389 13.0604 29.6389 13.1848 29.5143C13.0604 29.6389 13.0604 29.6389 13.1848 29.5143C13.0604 29.6389 13.0604 29.6389 13.1848 29.5143C13.0604 29.6389 13.0604 29.6389 13.0604 29.6389C13.0604 29.7634 12.9361 29.7634 12.9361 29.8879C12.8117 30.0125 12.8117 30.2615 12.6873 30.3861L13.8067 31.0087C13.9311 30.6351 14.1798 30.2615 14.4286 29.8879L13.1848 29.5143ZM10.946 33.9975C10.946 34.122 10.8216 34.2466 10.8216 34.4956C10.6973 34.7447 10.6973 34.8692 10.5729 35.1183L11.6923 35.6164C11.8167 35.2428 11.941 34.8692 12.1898 34.4956L10.946 33.9975ZM9.45347 38.7298C9.3291 39.1034 9.20472 39.477 9.08034 39.9751L10.3241 40.2242C10.4485 39.8506 10.5729 39.477 10.5729 39.1034L9.45347 38.7298ZM8.33407 43.5866C8.33407 43.8356 8.20969 44.2092 8.20969 44.4583C8.20969 44.5828 8.20969 44.5828 8.20969 44.7074L9.45347 44.8319C9.45347 44.4583 9.57785 44.0847 9.57785 43.5866H8.33407ZM7.96094 48.5679C7.96094 48.9415 7.96094 49.3151 7.96094 49.6887H9.20472C9.20472 49.3151 9.20472 48.9415 9.20472 48.4433L7.96094 48.5679ZM9.20472 53.4247L7.96094 53.5492C7.96094 53.5492 7.96094 53.5492 7.96094 53.6737C7.96094 53.6737 7.96094 53.6737 7.96094 53.7983C7.96094 53.9228 7.96094 54.0473 7.96094 54.2964L9.20472 54.1719C9.3291 54.2964 9.3291 53.9228 9.20472 53.4247ZM9.95099 58.2814L8.70721 58.5305C8.83158 58.9041 8.83158 59.1532 8.95596 59.5268L10.1997 59.2777C10.0754 59.0286 10.0754 58.655 9.95099 58.2814ZM11.1948 62.8892L9.95099 63.2628C10.0754 63.5118 10.0754 63.7609 10.1997 63.8854C10.1997 64.01 10.1997 64.01 10.3241 64.1345L11.4435 63.7609C11.4435 63.6364 11.3191 63.2628 11.1948 62.8892ZM12.9361 67.3724L11.8167 67.8705C11.8167 67.8705 11.8167 67.8705 11.8167 67.995C11.8167 68.1196 11.941 68.2441 11.941 68.3686L13.0604 67.746C13.3092 68.1196 13.1848 67.746 12.9361 67.3724ZM15.2992 71.6065L14.3042 72.2291C14.3042 72.2291 14.3042 72.2291 14.3042 72.3537C14.4286 72.6027 14.6774 72.8518 14.8017 73.1009L15.7968 72.3537C15.6724 72.3537 15.548 71.9801 15.2992 71.6065ZM18.0356 75.5915L17.0405 76.3387C17.1649 76.4633 17.1649 76.4633 17.2893 76.5878C17.4137 76.7123 17.5381 76.9614 17.7868 77.0859L18.7818 76.3387C18.5331 76.2142 18.2843 75.8406 18.0356 75.5915ZM21.2694 79.203L20.3987 80.0747C20.6475 80.3238 20.7719 80.4483 21.0206 80.6974L21.145 80.8219L22.0157 79.9502C21.8913 79.7011 21.6425 79.4521 21.2694 79.203ZM25.0007 82.3163L24.2545 83.3126L24.3788 83.4371C24.6276 83.6862 24.8764 83.8107 25.1251 84.0598L25.8714 83.0635C25.6226 82.8144 25.2495 82.5654 25.0007 82.3163ZM28.9808 85.056L28.3589 86.1768L28.4833 86.3014C28.7321 86.4259 28.9808 86.675 29.2296 86.7995L29.8515 85.6787C29.6027 85.4296 29.2296 85.3051 28.9808 85.056ZM33.2097 87.2976L32.7122 88.4184C32.7122 88.4184 32.8366 88.4184 32.8366 88.543C32.8366 88.543 32.8366 88.543 32.9609 88.543C32.9609 88.543 32.9609 88.543 33.0853 88.543C33.3341 88.6675 33.4585 88.6675 33.7072 88.792L34.2047 87.6712C33.956 87.6712 33.5828 87.5467 33.2097 87.2976ZM37.6873 89.0411L37.3142 90.2864H37.4386C37.4386 90.2864 37.4386 90.2864 37.5629 90.2864C37.8117 90.2864 37.9361 90.4109 38.1848 90.4109L38.558 89.1656C38.4336 89.2902 38.0604 89.1656 37.6873 89.0411ZM42.4137 90.1619L42.1649 91.4072C42.2893 91.4072 42.4137 91.4072 42.5381 91.4072C42.5381 91.4072 42.5381 91.4072 42.6624 91.4072C42.7868 91.4072 43.0356 91.4072 43.1599 91.5318L43.4087 90.2864C43.1599 90.411 42.7868 90.2864 42.4137 90.1619ZM47.14 90.7846L47.0157 92.0299C47.14 92.0299 47.2644 92.0299 47.3888 92.0299C47.6376 92.0299 47.8863 92.0299 48.2594 92.0299V90.7846C48.0107 90.9091 47.6376 90.7846 47.14 90.7846ZM53.2346 90.7846C52.8614 90.7846 52.4883 90.7846 51.9908 90.9091V92.1544C52.3639 92.1544 52.7371 92.1544 53.1102 92.0299L53.2346 90.7846ZM57.9609 90.1619C57.5878 90.2864 57.2147 90.2864 56.7172 90.4109L56.9659 91.6563C57.339 91.5318 57.7122 91.5318 58.2097 91.4072L57.9609 90.1619ZM62.6873 88.9166C62.3142 89.0411 61.941 89.1656 61.5679 89.2902L61.941 90.5355C62.0654 90.5355 62.3142 90.4109 62.4385 90.4109C62.6873 90.4109 62.8117 90.2864 63.0604 90.1619L62.6873 88.9166ZM67.1649 87.1731C66.7918 87.2976 66.4186 87.5467 66.0455 87.6712L66.543 88.792C66.6674 88.792 66.6674 88.6675 66.7918 88.6675C67.0405 88.543 67.1649 88.4184 67.4137 88.4184L67.1649 87.1731ZM71.3938 84.807C71.0206 85.056 70.6475 85.1806 70.3987 85.4296L71.0206 86.5504C71.145 86.4259 71.2694 86.4259 71.3938 86.3014H71.5182L71.3938 84.807ZM75.3739 82.0673C75.0007 82.3163 74.752 82.5654 74.3788 82.8144L75.1251 83.8107C75.2495 83.6862 75.3739 83.6862 75.4983 83.5616C75.6226 83.4371 75.6226 83.4371 75.747 83.3126L75.3739 82.0673ZM78.9808 78.8294C78.7321 79.0785 78.3589 79.4521 78.1102 79.7011L78.9808 80.5728V78.8294ZM82.0903 75.2179C81.8415 75.5915 81.5928 75.8406 81.344 76.2142L82.339 76.9614C82.4634 76.8369 82.5878 76.5878 82.8366 76.4633C82.9609 76.3387 82.9609 76.2142 83.0853 76.0897L82.0903 75.2179ZM84.8266 71.2329C84.5779 71.6065 84.4535 71.9801 84.2047 72.2291L85.1997 72.8518C85.1997 72.7273 85.3241 72.7273 85.3241 72.6027C85.4485 72.3537 85.5729 72.1046 85.8216 71.8555L84.8266 71.2329ZM87.1898 66.9988C87.0654 67.3724 86.8167 67.746 86.6923 68.1196L87.8117 68.6177C87.9361 68.2441 88.1848 67.8705 88.3092 67.4969L87.1898 66.9988ZM88.9311 62.5156C88.8067 62.8892 88.6823 63.2628 88.5579 63.6364L89.6774 64.01C89.6774 63.8854 89.8017 63.7609 89.8017 63.5118C89.8017 63.3873 89.9261 63.2628 89.9261 63.1382L88.9311 62.5156ZM90.0505 57.7833C89.9261 58.1569 89.9261 58.5305 89.8017 58.9041L91.0455 59.1532C91.0455 59.0286 91.1699 58.9041 91.1699 58.655C91.1699 58.5305 91.1699 58.406 91.2943 58.2814L90.0505 57.7833ZM90.6724 52.9265C90.6724 53.3001 90.548 53.6737 90.548 54.1719L91.7918 54.2964C91.7918 53.9228 91.9162 53.4247 91.9162 53.0511L90.6724 52.9265ZM92.0405 48.0697H90.7968C90.7968 48.4433 90.7968 48.8169 90.7968 49.3151H92.0405C92.0405 49.066 92.0405 48.8169 92.0405 48.4433C92.0405 48.1943 92.0405 48.1943 92.0405 48.0697C92.0405 48.1943 92.0405 48.1943 92.0405 48.0697C92.0405 48.1943 92.0405 48.1943 92.0405 48.0697C92.0405 48.1943 92.0405 48.1943 92.0405 48.0697ZM91.543 43.0884L90.2992 43.3375C90.4236 43.7111 90.4236 44.0847 90.4236 44.5828L91.6674 44.4583C91.6674 43.9602 91.543 43.5866 91.543 43.0884C91.543 43.213 91.543 43.213 91.543 43.0884C91.543 43.213 91.543 43.213 91.543 43.0884C91.543 43.213 91.543 43.213 91.543 43.0884C91.543 43.213 91.543 43.213 91.543 43.0884C91.543 43.213 91.543 43.213 91.543 43.0884C91.543 43.213 91.543 43.213 91.543 43.0884C91.543 43.213 91.543 43.213 91.543 43.0884C91.543 43.213 91.543 43.213 91.543 43.0884C91.543 43.213 91.543 43.213 91.543 43.0884C91.543 43.213 91.543 43.213 91.543 43.0884C91.543 43.213 91.543 43.213 91.543 43.0884ZM90.4236 38.2316L89.1798 38.6052C89.3042 38.9788 89.4286 39.3524 89.553 39.726L90.7968 39.477C90.6724 39.1034 90.548 38.7298 90.4236 38.2316ZM88.6823 33.6239L87.5629 34.122C87.6873 34.4956 87.8117 34.8692 88.0604 35.2428L89.1798 34.7447C89.1798 34.6202 89.0555 34.4956 89.0555 34.2466C88.9311 33.9975 88.8067 33.873 88.6823 33.6239ZM86.5679 29.1407L85.4485 29.7634C85.6973 30.137 85.8216 30.5106 86.0704 30.7597L87.1898 30.137C86.941 29.8879 86.6923 29.5143 86.5679 29.1407ZM83.8316 24.9066L82.8366 25.6538C83.0853 26.0274 83.3341 26.2765 83.5828 26.6501L84.5779 25.9029C84.4535 25.6538 84.3291 25.5293 84.0803 25.2802C83.956 25.1557 83.8316 25.0311 83.8316 24.9066ZM80.5978 21.1706L79.7271 22.0423C79.9759 22.2914 80.2246 22.665 80.5978 22.9141L81.4684 22.0423C81.2196 21.7933 80.8465 21.4197 80.5978 21.1706ZM76.9908 17.6837L76.2445 18.68C76.4933 18.929 76.8664 19.1781 77.1152 19.4271L77.9858 18.5554C77.6127 18.1818 77.2395 17.9328 76.9908 17.6837ZM73.0107 14.8194L72.3888 15.8157C72.7619 16.0648 73.0107 16.3138 73.3838 16.4384L74.1301 15.4421C73.2594 14.944 73.1351 14.8194 73.0107 14.8194ZM68.6575 12.3288L68.1599 13.4496C68.5331 13.5741 68.9062 13.8232 69.2793 13.9477L69.9012 12.8269C69.7769 12.7024 69.5281 12.5778 69.4037 12.5778C68.9062 12.4533 68.7818 12.3288 68.6575 12.3288C68.7818 12.3288 68.7818 12.3288 68.6575 12.3288C68.7818 12.3288 68.7818 12.3288 68.6575 12.3288ZM64.0555 10.3362L63.6823 11.457C64.0555 11.5816 64.4286 11.7061 64.8017 11.8306L65.2992 10.7098C64.9261 10.5853 64.553 10.4608 64.0555 10.3362ZM59.3291 8.96638L59.0803 10.2117C59.4535 10.3362 59.8266 10.3362 60.1997 10.4608L60.5729 9.21544C60.1997 9.09091 59.951 9.09091 59.5779 8.96638C59.4535 8.96638 59.4535 8.96638 59.3291 8.96638C59.4535 8.96638 59.4535 8.96638 59.3291 8.96638C59.4535 8.96638 59.4535 8.96638 59.3291 8.96638C59.4535 8.96638 59.4535 8.96638 59.3291 8.96638C59.4535 8.96638 59.4535 8.96638 59.3291 8.96638C59.4535 8.96638 59.3291 8.96638 59.3291 8.96638ZM54.4783 8.09465L54.354 9.33998C54.7271 9.33998 55.1002 9.46451 55.5978 9.46451L55.7221 8.21918C55.4734 8.21918 55.2246 8.09465 54.9759 8.09465C54.6027 8.09465 54.6027 8.09465 54.4783 8.09465C54.6027 8.09465 54.4783 8.09465 54.4783 8.09465ZM50.0007 7.84558V9.09091C50.2495 9.09091 50.4982 9.09091 50.747 9.09091V7.84558C50.6226 7.84558 50.4982 7.84558 50.3739 7.84558C50.1251 7.84558 50.1251 7.84558 50.0007 7.84558C50.1251 7.84558 50.1251 7.84558 50.0007 7.84558C50.1251 7.84558 50.0007 7.84558 50.0007 7.84558Z" fill="#489BFD"/>
</svg>
