<svg width="100" height="100" viewBox="0 0 100 100" fill="none" xmlns="http://www.w3.org/2000/svg">
<path d="M6.99168 29.1045L4.74414 27.9851C7.11654 23.0099 10.363 18.5323 14.3586 14.5522C20.4769 8.45771 28.0936 3.9801 36.4594 1.74129C39.8308 0.870646 43.2021 0.248756 46.6982 0L46.8231 2.48756C43.5767 2.73632 40.2053 3.23383 37.0838 4.10448C29.2174 6.2189 21.9753 10.4478 16.1067 16.2935C12.3608 20.1492 9.23922 24.3781 6.99168 29.1045Z" fill="#E3F1FF"/>
<path d="M2.49727 44.403L0 44.1542C0.249727 41.7911 0.74918 39.4279 1.3735 37.0647L3.7459 37.6866C3.24645 39.801 2.74699 42.1642 2.49727 44.403Z" fill="#E3F1FF"/>
<path d="M49.82 99.8755C36.9591 99.8755 24.0982 95.0247 14.3588 85.3232C8.11567 79.1043 3.74545 71.5173 1.37305 63.0596L3.74545 62.4377C5.86813 70.3979 10.1135 77.7362 15.9821 83.5819C34.7116 102.114 64.9285 102.114 83.5332 83.5819C102.138 65.0496 102.138 34.9501 83.5332 16.4178C79.4127 12.3133 74.6678 9.07949 69.4236 6.71631C66.8015 5.59691 64.0545 4.60188 61.3075 3.85561L61.9318 1.49243C64.9285 2.2387 67.8004 3.23372 70.5474 4.4775C76.0414 6.96507 81.0359 10.4476 85.4061 14.6765C104.885 34.0795 104.885 65.7959 85.2812 85.3232C75.5419 95.0247 62.681 99.8755 49.82 99.8755Z" fill="#E3F1FF"/>
<path d="M49.8205 83.582C68.4398 83.582 83.5336 68.5468 83.5336 49.9999C83.5336 31.453 68.4398 16.4178 49.8205 16.4178C31.2013 16.4178 16.1074 31.453 16.1074 49.9999C16.1074 68.5468 31.2013 83.582 49.8205 83.582Z" fill="#E3F1FF"/>
<path d="M49.8197 100C37.0837 100 24.2227 95.1492 14.4834 85.4477L16.2315 83.7064C34.7113 102.114 64.9282 102.114 83.408 83.7064L85.1561 85.4477C75.4167 95.1492 62.5558 100 49.8197 100Z" fill="#036FF5"/>
<path d="M49.82 7.96021C49.82 7.96021 49.6952 7.96021 49.82 7.96021C49.6952 7.96021 49.6952 7.96021 49.82 7.96021C49.6952 7.96021 49.6952 7.96021 49.82 7.96021C49.6952 7.96021 49.6952 7.96021 49.82 7.96021C49.6952 7.96021 49.6952 7.96021 49.82 7.96021C49.6952 7.96021 49.6952 7.96021 49.82 7.96021C49.6952 7.96021 49.6952 7.96021 49.82 7.96021C49.6952 7.96021 49.6952 7.96021 49.82 7.96021C49.6952 7.96021 49.6952 7.96021 49.6952 7.96021C49.6952 7.96021 49.6952 7.96021 49.5703 7.96021C49.5703 7.96021 49.5703 7.96021 49.4454 7.96021C49.3206 7.96021 49.1957 7.96021 49.0709 7.96021V9.20399C49.4454 9.20399 49.82 9.20399 50.3195 9.20399V7.96021H49.82ZM44.8255 8.20896C44.7006 8.20896 44.5758 8.20896 44.5758 8.20896C44.5758 8.20896 44.5758 8.20896 44.4509 8.20896L44.5758 9.45274C44.9504 9.45274 45.325 9.32836 45.8244 9.32836L44.8255 8.20896ZM39.9558 9.07961C39.5812 9.20398 39.2066 9.32836 38.7072 9.32836L39.0818 10.5721C39.4564 10.4478 39.831 10.3234 40.2056 10.3234L39.9558 9.07961ZM35.0862 10.5721C34.8364 10.6965 34.5867 10.6965 34.4618 10.8209C34.337 10.8209 34.337 10.8209 34.2121 10.9453L34.7116 12.0647C35.0862 11.9403 35.4607 11.8159 35.8353 11.5672L35.0862 10.5721ZM30.5911 12.5622C30.4662 12.5622 30.3413 12.6866 30.2165 12.6866C30.2165 12.6866 30.2165 12.6866 30.0916 12.6866C30.0916 12.6866 30.0916 12.6866 29.9668 12.6866C29.9668 12.6866 29.9668 12.6866 29.8419 12.6866L30.4662 13.806C30.8408 13.5572 31.2154 13.4328 31.59 13.1841L30.5911 12.5622ZM26.2209 15.0498C25.8463 15.2985 25.4717 15.5473 25.2219 15.796L25.9711 16.791C26.3457 16.5423 26.5954 16.2935 26.97 16.0448L26.2209 15.0498ZM22.3501 18.0348C22.2252 18.1592 22.2252 18.1592 22.1004 18.2836L22.9744 19.1542C23.2241 18.9055 23.5987 18.6567 23.8485 18.408L22.3501 18.0348ZM18.7291 21.5174C18.4793 21.7662 18.2296 22.1393 17.855 22.3881L18.8539 23.2587C19.1036 23.0099 19.3534 22.6368 19.6031 22.3881L18.7291 21.5174ZM15.6075 25.3731C15.6075 25.4975 15.4826 25.4975 15.4826 25.6219C15.3577 25.7463 15.3577 25.8706 15.2329 25.995C15.2329 25.995 15.2329 25.995 15.2329 26.1194L16.2318 26.8657C16.4815 26.4925 16.7312 26.2438 16.981 25.8706L15.6075 25.3731ZM12.8605 29.602C12.7356 29.8507 12.6107 29.9751 12.6107 30.2239C12.6107 30.2239 12.6107 30.2239 12.6107 30.3482C12.4859 30.4726 12.4859 30.597 12.361 30.8458L13.4848 31.4677C13.6097 31.0945 13.8594 30.7214 14.1091 30.3482L12.8605 29.602ZM10.7378 34.0796C10.7378 34.204 10.6129 34.3283 10.6129 34.3283C10.4881 34.5771 10.3632 34.8259 10.3632 35.0746L11.487 35.5721C11.6118 35.199 11.7367 34.8259 11.9864 34.4527L10.7378 34.0796ZM9.11457 38.6816C8.98971 39.0547 8.86484 39.4278 8.73998 39.9254L9.98862 40.1741C10.1135 39.801 10.2383 39.4278 10.2383 39.0547L9.11457 38.6816ZM7.9908 43.6567C7.9908 43.9055 7.86594 44.2786 7.86594 44.5273C7.86594 44.6517 7.86594 44.6517 7.86594 44.7761L9.11457 44.9005C9.11457 44.5273 9.23944 44.1542 9.23944 43.6567H7.9908ZM7.61621 48.5074C7.61621 48.8806 7.61621 49.2537 7.61621 49.6268H8.86484C8.86484 49.2537 8.86484 48.8806 8.86484 48.3831L7.61621 48.5074ZM8.98971 53.4826L7.74107 53.6069C7.74107 53.6069 7.74107 53.6069 7.74107 53.7313C7.74107 53.8557 7.74107 53.9801 7.74107 54.1045C7.74107 54.2288 7.74107 54.3532 7.74107 54.4776L8.98971 54.3532C8.98971 54.2288 8.98971 53.8557 8.98971 53.4826ZM9.61402 58.2089L8.36539 58.4577C8.36539 58.7064 8.49025 58.9552 8.49025 59.0796C8.49025 59.0796 8.49025 59.0796 8.49025 59.204C8.49025 59.3283 8.49025 59.4527 8.61512 59.5771L9.86375 59.3283C9.86375 58.9552 9.73889 58.5821 9.61402 58.2089ZM10.8627 62.8109L9.73889 63.1841C9.86375 63.5572 9.98862 63.9303 10.1135 64.3035L11.2372 64.0547C11.1124 63.6816 10.9875 63.1841 10.8627 62.8109ZM12.7356 67.2885L11.6118 67.786C11.6118 67.9104 11.7367 68.0348 11.7367 68.1592V68.2835L12.8605 67.6617C12.9853 68.0348 12.8605 67.6617 12.7356 67.2885ZM14.9832 71.5174L13.9842 72.2636C14.1091 72.5124 14.234 72.6368 14.3588 72.8855L15.3577 72.1393C15.4826 72.2636 15.2329 71.8905 14.9832 71.5174ZM17.855 75.4975L16.8561 76.2437C16.981 76.4925 17.1058 76.6169 17.3556 76.7412L18.3545 75.995C18.3545 76.1194 18.1047 75.8706 17.855 75.4975ZM21.1015 79.1044L20.2274 79.9751L20.3523 80.0995C20.4771 80.2238 20.602 80.3482 20.8517 80.597L21.7258 79.7263C21.6009 79.602 21.3512 79.3532 21.1015 79.1044ZM24.7225 82.2139L23.9733 83.2089C24.0982 83.2089 24.0982 83.3333 24.223 83.3333C24.4728 83.4577 24.7225 83.7064 24.9722 83.8308L25.7214 82.8358C25.3468 82.7114 24.9722 82.4626 24.7225 82.2139ZM28.7181 84.9502L28.0938 86.0696C28.0938 86.0696 28.0938 86.0696 28.2187 86.0696C28.3435 86.194 28.4684 86.194 28.5933 86.3184C28.5933 86.3184 28.7181 86.3184 28.7181 86.4427L29.3424 85.3233C29.3424 85.4477 29.0927 85.199 28.7181 84.9502ZM32.9635 87.189L32.464 88.4328C32.464 88.4328 32.5889 88.4328 32.5889 88.5572C32.8386 88.6815 33.2132 88.8059 33.4629 88.9303L33.9624 87.8109C33.7127 87.5621 33.3381 87.4378 32.9635 87.189ZM37.4586 88.9303L37.084 90.1741C37.3337 90.2985 37.5834 90.2985 37.8331 90.4228C37.958 90.4228 38.0829 90.4228 38.0829 90.5472L38.4575 89.3034C38.3326 89.179 37.958 89.0547 37.4586 88.9303ZM42.2034 90.1741L41.9536 91.4179C42.0785 91.4179 42.0785 91.4179 42.2034 91.4179C42.2034 91.4179 42.2034 91.4179 42.3282 91.4179C42.4531 91.4179 42.4531 91.4179 42.578 91.4179L42.8277 90.1741C42.9525 90.2985 42.578 90.1741 42.2034 90.1741ZM47.073 90.6716L46.9482 91.9154C47.073 91.9154 47.1979 91.9154 47.3228 91.9154H47.4476C47.4476 91.9154 47.4476 91.9154 47.5725 91.9154C47.6974 91.9154 47.8222 91.9154 47.9471 91.9154V90.6716C47.8222 90.796 47.4476 90.796 47.073 90.6716ZM53.0665 90.6716C52.6919 90.6716 52.3173 90.6716 51.8179 90.796V92.0397C52.1924 92.0397 52.6919 92.0397 53.0665 91.9154V90.6716ZM57.8113 90.0497C57.4367 90.1741 57.0621 90.1741 56.5627 90.2985L56.8124 91.5422C56.9372 91.5422 57.187 91.5422 57.3118 91.4179C57.5616 91.4179 57.6864 91.2935 57.9362 91.2935L57.8113 90.0497ZM62.5561 88.8059C62.1815 88.9303 61.8069 89.0547 61.4323 89.1791L61.8069 90.4228C61.9318 90.4228 62.0567 90.2985 62.3064 90.2985C62.5561 90.1741 62.8058 90.1741 62.9307 90.0497L62.5561 88.8059ZM67.0512 87.0646C66.6766 87.189 66.302 87.4378 65.9274 87.5621L66.4269 88.6815C66.5517 88.5572 66.8015 88.5572 66.9263 88.4328C67.0512 88.4328 67.176 88.3084 67.176 88.3084L67.0512 87.0646ZM71.2965 84.7014C70.9219 84.9502 70.5474 85.0746 70.2976 85.3233L70.9219 86.4427C71.0468 86.3184 71.1717 86.3184 71.4214 86.194C71.4214 86.194 71.4214 86.194 71.5463 86.194C71.5463 86.194 71.5463 86.194 71.6711 86.194C71.6711 86.194 71.6711 86.194 71.796 86.194C71.796 86.194 71.796 86.194 71.9209 86.194H72.0457L71.2965 84.7014ZM75.2922 81.9651C74.9176 82.2139 74.6678 82.4626 74.2933 82.7114L75.0424 83.7064C75.2922 83.4577 75.6668 83.3333 75.9165 83.0845L75.2922 81.9651ZM78.9132 78.7313C78.6635 78.9801 78.2889 79.3532 78.0392 79.602L78.9132 80.4726C79.0381 80.3482 79.1629 80.3482 79.1629 80.2238C79.2878 80.0995 79.5375 79.8507 79.6624 79.7263L78.9132 78.7313ZM82.1597 75.1243C81.9099 75.4975 81.6602 75.7462 81.4105 76.1194L82.4094 76.8656C82.4094 76.7413 82.5342 76.7413 82.5342 76.6169L82.1597 75.1243ZM84.9066 71.1442C84.6569 71.5174 84.5321 71.8905 84.2823 72.1393L85.2812 72.7612C85.4061 72.6368 85.531 72.388 85.6558 72.2636L84.9066 71.1442ZM87.1542 66.9154C87.0293 67.2885 86.7796 67.6617 86.6547 68.0348L87.7785 68.5323C87.9034 68.1592 88.1531 67.786 88.278 67.4129L87.1542 66.9154ZM88.9023 62.4378C88.7774 62.8109 88.6525 63.1841 88.5277 63.5572L89.6515 63.9303C89.7763 63.5572 89.9012 63.1841 90.026 62.8109L88.9023 62.4378ZM90.026 57.7114C89.9012 58.0845 89.9012 58.4577 89.7763 58.8308L91.025 59.0796C91.1498 58.7064 91.1498 58.2089 91.2747 57.8358L90.026 57.7114ZM90.6504 52.9851C90.6504 53.3582 90.5255 53.7313 90.5255 54.2288L91.7741 54.3532C91.7741 54.2288 91.7741 54.1045 91.7741 53.9801C91.7741 53.9801 91.7741 53.9801 91.7741 53.8557C91.7741 53.8557 91.7741 53.8557 91.7741 53.7313L90.6504 52.9851ZM92.0239 48.0099H90.7752C90.7752 48.3831 90.7752 48.7562 90.7752 49.2537H92.0239C92.0239 49.005 92.0239 48.7562 92.0239 48.5074C92.0239 48.1343 92.0239 48.1343 92.0239 48.0099C92.0239 48.1343 92.0239 48.1343 92.0239 48.0099C92.0239 48.1343 92.0239 48.1343 92.0239 48.0099C92.0239 48.1343 92.0239 48.1343 92.0239 48.0099C92.0239 48.1343 92.0239 48.1343 92.0239 48.0099C92.0239 48.1343 92.0239 48.1343 92.0239 48.0099C92.0239 48.1343 92.0239 48.1343 92.0239 48.0099C92.0239 48.1343 92.0239 48.1343 92.0239 48.0099C92.0239 48.1343 92.0239 48.1343 92.0239 48.0099C92.0239 48.1343 92.0239 48.1343 92.0239 48.0099C92.0239 48.1343 92.0239 48.1343 92.0239 48.0099C92.0239 48.1343 92.0239 48.1343 92.0239 48.0099C92.0239 48.1343 92.0239 48.0099 92.0239 48.0099ZM91.5244 43.1592L90.2758 43.4079C90.4006 43.7811 90.4006 44.1542 90.4006 44.6517L91.6493 44.5273C91.5244 43.2836 91.5244 43.1592 91.5244 43.1592ZM90.4006 38.3084L89.152 38.6816C89.2769 39.0547 89.4017 39.4278 89.5266 39.801L90.7752 39.5522C90.7752 39.4278 90.7752 39.4278 90.7752 39.3035C90.7752 39.3035 90.7752 39.3035 90.7752 39.1791C90.5255 38.5572 90.4006 38.4328 90.4006 38.3084ZM88.7774 33.5821L87.6536 34.0796C87.7785 34.4527 87.9034 34.8259 88.1531 35.199L89.2769 34.7015V34.5771C89.2769 34.4527 89.152 34.3283 89.152 34.204C88.7774 33.7065 88.7774 33.5821 88.7774 33.5821ZM86.5299 29.1045L85.4061 29.7264C85.6558 30.0995 85.7807 30.4726 86.0304 30.7214L87.1542 30.0995C87.1542 29.9751 87.0293 29.9751 87.0293 29.8507C86.7796 29.7264 86.6547 29.3532 86.5299 29.1045ZM83.7829 25L82.784 25.7463C83.0337 26.1194 83.2834 26.3682 83.5331 26.7413L84.5321 25.995L84.4072 25.8706C84.2823 25.7463 84.1575 25.4975 84.0326 25.3731C83.9077 25.1244 83.9077 25.1244 83.7829 25C83.9077 25.1244 83.9077 25.1244 83.7829 25C83.9077 25 83.7829 25 83.7829 25ZM80.5364 21.1443L79.6624 22.0149C79.9121 22.2637 80.1618 22.6368 80.5364 22.8856L81.4105 22.0149C81.2856 21.8905 81.1607 21.7662 81.1607 21.6418C80.6613 21.2687 80.6613 21.1443 80.5364 21.1443ZM76.9154 17.7861L76.1662 18.6567C76.4159 18.9055 76.7905 19.1542 77.0403 19.403L77.9143 18.5323C77.5397 18.2836 77.29 18.0348 76.9154 17.7861ZM72.9198 14.801L72.2954 15.796C72.67 16.0448 72.9198 16.2935 73.2944 16.4179L74.0435 15.4229C74.0435 15.4229 73.9187 15.4229 73.9187 15.2985C73.5441 15.1741 73.1695 14.9254 72.9198 14.801ZM68.5495 12.3134L68.0501 13.4328C68.4247 13.5572 68.7993 13.806 69.1739 13.9304L69.7982 12.8109C69.6733 12.8109 69.5485 12.6866 69.4236 12.6866C68.7993 12.4378 68.6744 12.3134 68.5495 12.3134ZM64.0545 10.3234L63.6799 11.4428C64.0545 11.5672 64.4291 11.6915 64.8036 11.8159L65.3031 10.6965C65.3031 10.6965 65.3031 10.6965 65.1782 10.6965C64.6788 10.5721 64.4291 10.4478 64.0545 10.3234ZM59.1848 8.95523L58.9351 10.199C59.3097 10.3234 59.6842 10.3234 60.0588 10.4478L60.4334 9.20399C60.0588 9.20399 59.6842 9.07961 59.1848 8.95523ZM54.3151 8.08458L54.1903 9.32836C54.5648 9.32836 54.9394 9.45274 55.4389 9.45274L55.5638 8.20896C55.1892 8.20896 54.6897 8.20896 54.3151 8.08458ZM49.82 7.96021V9.20399C50.0698 9.20399 50.3195 9.20399 50.5692 9.20399V7.96021C50.4444 7.96021 50.3195 7.96021 50.1946 7.96021C49.9449 7.96021 49.9449 7.96021 49.82 7.96021C49.9449 7.96021 49.9449 7.96021 49.82 7.96021C49.9449 7.96021 49.9449 7.96021 49.82 7.96021C49.9449 7.96021 49.9449 7.96021 49.82 7.96021C49.9449 7.96021 49.9449 7.96021 49.82 7.96021Z" fill="#489BFD"/>
<path d="M20.2282 30.97C21.4768 30.97 22.4757 31.965 22.4757 33.2088C22.4757 34.4526 21.4768 35.4476 20.2282 35.4476C18.9796 35.4476 17.9807 34.4526 17.9807 33.2088C17.9807 31.965 18.9796 30.97 20.2282 30.97ZM20.2282 28.4824C17.6061 28.4824 15.4834 30.5968 15.4834 33.2088C15.4834 35.8207 17.6061 37.9352 20.2282 37.9352C22.8503 37.9352 24.973 35.8207 24.973 33.2088C24.973 30.5968 22.8503 28.4824 20.2282 28.4824Z" fill="#79B5FD"/>
<path d="M32.0905 22.6367C33.3391 22.6367 34.3381 23.6318 34.3381 24.8755C34.3381 26.1193 33.3391 27.1143 32.0905 27.1143C30.8419 27.1143 29.843 26.1193 29.843 24.8755C29.843 23.6318 30.8419 22.6367 32.0905 22.6367ZM32.0905 20.1492C29.4684 20.1492 27.3457 22.2636 27.3457 24.8755C27.3457 27.4875 29.4684 29.6019 32.0905 29.6019C34.7126 29.6019 36.8353 27.4875 36.8353 24.8755C36.8353 22.2636 34.7126 20.1492 32.0905 20.1492Z" fill="#79B5FD"/>
<path d="M23.1012 32.0895C22.7266 32.0895 22.352 31.9651 22.1023 31.592C21.7277 31.0944 21.7277 30.2238 22.352 29.8507L28.0958 25.3731C28.5952 24.9999 29.4693 24.9999 29.8439 25.6218C30.2184 26.1193 30.2184 26.99 29.5941 27.3631L23.8504 31.8407C23.7255 31.9651 23.351 32.0895 23.1012 32.0895Z" fill="#79B5FD"/>
<path d="M37.7094 31.592C37.3348 31.592 37.085 31.4676 36.8353 31.2189L33.9635 28.2338C33.464 27.7363 33.464 26.99 33.9635 26.4925C34.4629 25.995 35.2121 25.995 35.7115 26.4925L38.5834 29.4776C39.0829 29.9751 39.0829 30.7214 38.5834 31.2189C38.3337 31.4676 37.9591 31.592 37.7094 31.592Z" fill="#79B5FD"/>
<path d="M79.5388 30.97C80.7874 30.97 81.7863 31.965 81.7863 33.2088C81.7863 34.4526 80.7874 35.4476 79.5388 35.4476C78.2901 35.4476 77.2912 34.4526 77.2912 33.2088C77.2912 31.965 78.2901 30.97 79.5388 30.97ZM79.5388 28.4824C76.9166 28.4824 74.7939 30.5968 74.7939 33.2088C74.7939 35.8207 76.9166 37.9352 79.5388 37.9352C82.1609 37.9352 84.2836 35.8207 84.2836 33.2088C84.2836 30.5968 82.1609 28.4824 79.5388 28.4824Z" fill="#79B5FD"/>
<path d="M67.6764 22.6367C68.9251 22.6367 69.924 23.6318 69.924 24.8755C69.924 26.1193 68.9251 27.1143 67.6764 27.1143C66.4278 27.1143 65.4289 26.1193 65.4289 24.8755C65.4289 23.6318 66.4278 22.6367 67.6764 22.6367ZM67.6764 20.1492C65.0543 20.1492 62.9316 22.2636 62.9316 24.8755C62.9316 27.4875 65.0543 29.6019 67.6764 29.6019C70.2986 29.6019 72.4213 27.4875 72.4213 24.8755C72.4213 22.2636 70.2986 20.1492 67.6764 20.1492Z" fill="#79B5FD"/>
<path d="M76.6665 32.0894C76.4168 32.0894 76.167 31.965 75.9173 31.8406L70.1736 27.363C69.6741 26.9899 69.5493 26.1192 69.9239 25.6217C70.2984 25.1242 71.1725 24.9998 71.6719 25.373L77.4157 29.8506C77.9151 30.2237 78.04 31.0944 77.6654 31.5919C77.4157 31.8406 77.0411 32.0894 76.6665 32.0894Z" fill="#79B5FD"/>
<path d="M62.0572 31.592C61.6826 31.592 61.4329 31.4676 61.1832 31.2189C60.6837 30.7214 60.6837 29.9751 61.1832 29.4776L64.055 26.4925C64.5545 25.995 65.3037 25.995 65.8031 26.4925C66.3026 26.99 66.3026 27.7363 65.8031 28.2338L62.9313 31.2189C62.6815 31.4676 62.4318 31.592 62.0572 31.592Z" fill="#79B5FD"/>
<path d="M79.5388 55.7212C80.7874 55.7212 81.7863 56.7162 81.7863 57.96C81.7863 59.2038 80.7874 60.1988 79.5388 60.1988C78.2901 60.1988 77.2912 59.2038 77.2912 57.96C77.2912 56.7162 78.2901 55.7212 79.5388 55.7212ZM79.5388 53.2336C76.9166 53.2336 74.7939 55.3481 74.7939 57.96C74.7939 60.5719 76.9166 62.6864 79.5388 62.6864C82.1609 62.6864 84.2836 60.5719 84.2836 57.96C84.2836 55.3481 82.1609 53.2336 79.5388 53.2336Z" fill="#79B5FD"/>
<path d="M67.6764 64.0547C68.9251 64.0547 69.924 65.0497 69.924 66.2935C69.924 67.5373 68.9251 68.5323 67.6764 68.5323C66.4278 68.5323 65.4289 67.5373 65.4289 66.2935C65.4289 65.0497 66.4278 64.0547 67.6764 64.0547ZM67.6764 61.5671C65.0543 61.5671 62.9316 63.6816 62.9316 66.2935C62.9316 68.9054 65.0543 71.0199 67.6764 71.0199C70.2986 71.0199 72.4213 68.9054 72.4213 66.2935C72.4213 63.6816 70.2986 61.5671 67.6764 61.5671Z" fill="#79B5FD"/>
<path d="M70.9235 65.9204C70.5489 65.9204 70.1743 65.796 69.9246 65.4229C69.55 64.9254 69.55 64.0547 70.1743 63.6816L75.918 59.204C76.4175 58.8309 77.2915 58.8309 77.6661 59.4527C78.0407 60.0746 78.0407 60.8209 77.4164 61.194L71.6727 65.6716C71.4229 65.796 71.1732 65.9204 70.9235 65.9204Z" fill="#79B5FD"/>
<path d="M64.9291 64.9253C64.5545 64.9253 64.3048 64.8009 64.055 64.5521L61.1832 61.5671C60.6837 61.0696 60.6837 60.3233 61.1832 59.8258C61.6826 59.3283 62.4318 59.3283 62.9313 59.8258L65.8031 62.8108C66.3026 63.3084 66.3026 64.0546 65.8031 64.5521C65.5534 64.8009 65.3037 64.9253 64.9291 64.9253Z" fill="#79B5FD"/>
<path d="M20.2282 55.7212C21.4768 55.7212 22.4757 56.7162 22.4757 57.96C22.4757 59.2038 21.4768 60.1988 20.2282 60.1988C18.9796 60.1988 17.9807 59.2038 17.9807 57.96C17.9807 56.7162 18.9796 55.7212 20.2282 55.7212ZM20.2282 53.2336C17.6061 53.2336 15.4834 55.3481 15.4834 57.96C15.4834 60.5719 17.6061 62.6864 20.2282 62.6864C22.8503 62.6864 24.973 60.5719 24.973 57.96C24.973 55.3481 22.8503 53.2336 20.2282 53.2336Z" fill="#79B5FD"/>
<path d="M32.0905 64.0547C33.3391 64.0547 34.3381 65.0497 34.3381 66.2935C34.3381 67.5373 33.3391 68.5323 32.0905 68.5323C30.8419 68.5323 29.843 67.5373 29.843 66.2935C29.843 65.0497 30.8419 64.0547 32.0905 64.0547ZM32.0905 61.5671C29.4684 61.5671 27.3457 63.6816 27.3457 66.2935C27.3457 68.9054 29.4684 71.0199 32.0905 71.0199C34.7126 71.0199 36.8353 68.9054 36.8353 66.2935C36.8353 63.6816 34.7126 61.5671 32.0905 61.5671Z" fill="#79B5FD"/>
<path d="M28.8442 65.9203C28.5945 65.9203 28.3448 65.7959 28.095 65.6716L22.3513 61.1939C21.8519 60.8208 21.727 59.9502 22.1016 59.4527C22.4762 58.9551 23.3502 58.8308 23.8497 59.2039L29.5934 63.6815C30.0928 64.0546 30.2177 64.9253 29.8431 65.4228C29.5934 65.7959 29.2188 65.9203 28.8442 65.9203Z" fill="#79B5FD"/>
<path d="M34.7135 64.9253C34.3389 64.9253 34.0892 64.8009 33.8394 64.5521C33.34 64.0546 33.34 63.3084 33.8394 62.8108L36.7113 59.8258C37.2107 59.3283 37.9599 59.3283 38.4594 59.8258C38.9588 60.3233 38.9588 61.0696 38.4594 61.5671L35.5875 64.5521C35.4627 64.8009 35.0881 64.9253 34.7135 64.9253Z" fill="#79B5FD"/>
<path d="M49.821 64.4279C39.3325 64.4279 30.8418 55.9702 30.8418 45.5224C30.8418 35.0747 39.3325 26.6169 49.821 26.6169C60.3096 26.6169 68.8003 35.0747 68.8003 45.5224C68.8003 55.9702 60.3096 64.4279 49.821 64.4279ZM49.821 28.9801C40.5811 28.9801 33.2142 36.4428 33.2142 45.5224C33.2142 54.602 40.706 62.0647 49.821 62.0647C58.9361 62.0647 66.4279 54.602 66.4279 45.5224C66.4279 36.4428 59.0609 28.9801 49.821 28.9801Z" fill="#036FF5"/>
<path d="M53.4413 72.8854H46.1992V63.0596H53.4413V72.8854ZM48.8213 70.3979H51.0689V65.5471H48.8213V70.3979Z" fill="#036FF5"/>
<path d="M49.82 86.3183C47.1979 86.3183 45.0752 84.2039 45.0752 81.592V70.3979H54.6897V81.592C54.6897 84.0795 52.567 86.3183 49.82 86.3183ZM47.5725 72.8855V81.592C47.5725 82.8358 48.5714 83.8308 49.82 83.8308C51.0686 83.8308 52.0675 82.8358 52.0675 81.592V72.8855H47.5725Z" fill="#036FF5"/>
<path d="M48.9466 45.5224L39.457 54.9751C37.2094 52.4875 35.8359 49.1293 35.8359 45.5224C35.8359 38.0597 41.7045 31.9652 49.0715 31.592V45.5224H48.9466Z" fill="#79B5FD"/>
<path d="M50.4454 46.3931H63.8058C63.4312 53.7314 57.188 59.5771 49.8211 59.5771C46.3249 59.5771 43.0785 58.3334 40.7061 56.2189L50.4454 46.3931Z" fill="#79B5FD"/>
<path d="M63.806 44.6517H50.6953V31.592C57.6877 31.9652 63.4314 37.6866 63.806 44.6517Z" fill="#79B5FD"/>
</svg>
