<svg width="100" height="100" viewBox="0 0 100 100" fill="none" xmlns="http://www.w3.org/2000/svg">
<path d="M87.5467 83.0635L85.6787 81.4446C87.9203 78.9539 89.7883 76.2142 91.4072 73.3499C95.3923 66.2515 97.5093 58.1569 97.5093 49.9377C97.5093 44.7073 96.6376 39.4769 94.8941 34.4956L97.2603 33.7484C99.0037 38.9788 100 44.4582 100 49.9377C100 58.5305 97.7584 67.1233 93.5243 74.5952C91.9054 77.7086 89.7883 80.4483 87.5467 83.0635Z" fill="#E3F1FF"/>
<path d="M91.1574 26.2765C90.0366 24.284 88.6667 22.416 87.2969 20.548L89.2894 19.0536C90.7838 20.9216 92.1537 22.9141 93.399 25.0312L91.1574 26.2765Z" fill="#E3F1FF"/>
<path d="M50.0623 100C22.4159 100 0 77.5841 0 50.0623C0 22.5405 22.4159 0 50.0623 0C58.7796 0 67.3724 2.24159 74.9689 6.60025L73.7235 8.71731C66.6252 4.60772 58.406 2.49066 50.0623 2.49066C23.7858 2.49066 2.49066 23.7858 2.49066 50.0623C2.49066 76.3387 23.7858 97.6339 50.0623 97.6339C55.7908 97.6339 61.5193 96.6376 66.8742 94.6451C69.4894 93.6488 72.1046 92.4035 74.5953 90.9091L75.8406 93.0261C73.2254 94.6451 70.4857 95.8904 67.7459 97.0112C62.0174 99.0037 56.1644 100 50.0623 100Z" fill="#E3F1FF"/>
<path d="M50.0624 83.6862C68.6324 83.6862 83.6863 68.6322 83.6863 50.0623C83.6863 31.4923 68.6324 16.4384 50.0624 16.4384C31.4924 16.4384 16.4385 31.4923 16.4385 50.0623C16.4385 68.6322 31.4924 83.6862 50.0624 83.6862Z" fill="#E3F1FF"/>
<path d="M2.49066 49.8132H0C0 22.4159 22.4159 0 49.8132 0V2.49066C23.7858 2.49066 2.49066 23.7858 2.49066 49.8132Z" fill="#036FF5"/>
<path d="M50.0629 7.84558C49.9383 7.84558 49.9383 7.84558 50.0629 7.84558C49.9383 7.84558 49.9383 7.84558 50.0629 7.84558C49.9383 7.84558 49.9383 7.84558 50.0629 7.84558C49.9383 7.84558 49.9383 7.84558 50.0629 7.84558C49.9383 7.84558 49.9383 7.84558 50.0629 7.84558C49.9383 7.84558 49.9383 7.84558 50.0629 7.84558C49.9383 7.84558 49.9383 7.84558 50.0629 7.84558C49.9383 7.84558 49.9383 7.84558 50.0629 7.84558C49.9383 7.84558 49.9383 7.84558 50.0629 7.84558C49.9383 7.84558 49.9383 7.84558 50.0629 7.84558C49.9383 7.84558 49.9383 7.84558 50.0629 7.84558C49.9383 7.84558 49.9383 7.84558 49.9383 7.84558C49.9383 7.84558 49.9383 7.84558 49.8138 7.84558H49.6893C49.5647 7.84558 49.4402 7.84558 49.3157 7.84558V9.09091C49.6893 9.09091 50.0629 9.09091 50.561 9.09091V7.84558H50.0629ZM45.0815 8.21918C44.7079 8.21918 44.3343 8.34371 43.8362 8.34371L43.9607 9.58904C44.3343 9.58904 44.7079 9.46451 45.2061 9.46451L45.0815 8.21918ZM40.1002 9.09091C39.9757 9.09091 39.8512 9.21544 39.7266 9.21544C39.6021 9.21544 39.4776 9.21544 39.353 9.33998L39.7266 10.5853C40.1002 10.4608 40.4738 10.3362 40.8474 10.3362L40.1002 9.09091ZM35.368 10.4608C35.1189 10.5853 34.9944 10.5853 34.7453 10.7098C34.6208 10.7098 34.4962 10.8344 34.3717 10.8344L34.8698 11.9552C35.2434 11.8306 35.617 11.7061 35.9906 11.457L35.368 10.4608ZM30.8848 12.4533C30.5112 12.7024 30.1376 12.8269 29.764 13.076L30.3866 14.1968C30.7602 13.9477 31.1338 13.8232 31.5074 13.5741L30.8848 12.4533ZM26.5261 15.0685L26.4016 15.193C26.2771 15.3176 26.028 15.4421 25.9035 15.5666L26.6507 16.5629C27.0243 16.3138 27.2733 16.0648 27.6469 15.8157L26.5261 15.0685ZM22.5411 18.0573C22.4165 18.1818 22.1675 18.3064 22.0429 18.5554L22.9147 19.4271C23.1637 19.1781 23.5373 18.929 23.7864 18.68L22.5411 18.0573ZM19.0541 21.5442C18.9296 21.6687 18.6805 21.9178 18.556 22.0423L18.4315 22.1669L19.4277 23.0386C19.6768 22.7895 19.9259 22.4159 20.1749 22.1669L19.0541 21.5442ZM15.8163 25.4047L15.6917 25.5293C15.5672 25.6538 15.5672 25.7783 15.4427 25.9029L16.4389 26.6501C16.688 26.2765 16.9371 26.0274 17.1861 25.6538L15.8163 25.4047ZM13.2011 29.5143C13.2011 29.6389 13.0766 29.6389 13.0766 29.7634C12.952 30.0125 12.8275 30.137 12.703 30.3861L13.8238 31.0087C13.9483 30.6351 14.1974 30.2615 14.4464 29.8879L13.2011 29.5143ZM10.9595 33.9975C10.835 34.122 10.835 34.3711 10.7104 34.4956C10.7104 34.6202 10.5859 34.7447 10.5859 34.8692L11.7067 35.3674C11.8312 34.9938 11.9558 34.6202 12.2048 34.2466L10.9595 33.9975ZM9.4651 38.7298C9.34057 39.1034 9.21603 39.477 9.0915 39.9751L10.3368 40.2242C10.4614 39.8506 10.5859 39.477 10.5859 39.1034L9.4651 38.7298ZM8.3443 43.5866C8.3443 43.7111 8.3443 43.8356 8.3443 43.9602C8.3443 43.9602 8.3443 43.9602 8.3443 44.0847C8.3443 44.2092 8.3443 44.3338 8.3443 44.4583V44.5828L9.58963 44.7074C9.58963 44.3338 9.71417 43.9602 9.71417 43.462L8.3443 43.5866ZM7.9707 48.5679C7.9707 48.9415 7.9707 49.3151 7.9707 49.6887H9.21603C9.21603 49.3151 9.21603 48.9415 9.21603 48.4433L7.9707 48.5679ZM9.21603 53.4247L7.9707 53.5492C7.9707 53.5492 7.9707 53.5492 7.9707 53.6737C7.9707 53.6737 7.9707 53.6737 7.9707 53.7983C7.9707 54.0473 7.9707 54.2964 8.09524 54.5455L9.34057 54.4209C9.34057 54.2964 9.34057 53.9228 9.21603 53.4247ZM9.96323 58.2814L8.7179 58.5305C8.84243 58.9041 8.84243 59.2777 8.96697 59.6513L10.2123 59.4022C10.0878 59.0286 10.0878 58.655 9.96323 58.2814ZM11.2086 62.8892L9.96323 63.2628C9.96323 63.3873 9.96323 63.3873 10.0878 63.5118V63.6364L11.2086 63.2628C11.4576 63.6364 11.3331 63.2628 11.2086 62.8892ZM12.952 67.3724L11.8312 67.8705C11.8312 67.995 11.9558 68.1196 11.9558 68.1196C12.0803 68.2441 12.0803 68.3686 12.2048 68.4932L13.3256 67.8705C13.3256 68.1196 13.2011 67.746 12.952 67.3724ZM15.3182 71.6065L14.3219 72.2291C14.571 72.6027 14.82 72.9763 14.9446 73.2254L15.9408 72.4782C15.6917 72.3537 15.5672 71.9801 15.3182 71.6065ZM18.0579 75.5915L17.0616 76.3387C17.1861 76.5878 17.4352 76.8369 17.5597 76.9614L18.556 76.2142C18.556 76.2142 18.3069 75.8406 18.0579 75.5915ZM21.2957 79.203L20.424 80.0747C20.6731 80.3238 20.9221 80.5729 21.2957 80.8219L22.1675 79.9502C21.9184 79.7011 21.6693 79.4521 21.2957 79.203ZM25.0317 82.3163L24.2845 83.3126C24.5336 83.5616 24.9072 83.8107 25.1563 83.9352L25.9035 82.939C25.6544 82.8144 25.2808 82.5654 25.0317 82.3163ZM29.0168 85.056L28.3941 86.1768C28.3941 86.1768 28.5186 86.1768 28.5186 86.3014C28.5186 86.3014 28.5186 86.3014 28.6432 86.3014C28.7677 86.3014 28.8922 86.4259 28.8922 86.4259L29.5149 85.3051C29.6394 85.4296 29.2658 85.3051 29.0168 85.056ZM33.2509 87.2976L32.7528 88.4184C32.7528 88.4184 32.7528 88.4184 32.8773 88.4184C32.8773 88.4184 32.8773 88.4184 33.0018 88.4184C33.0018 88.4184 33.0018 88.4184 33.1264 88.4184H33.2509L33.749 87.2976C33.9981 87.6712 33.6245 87.5467 33.2509 87.2976ZM37.7341 89.0411L37.3605 90.2864C37.485 90.2864 37.6096 90.2864 37.6096 90.4109C37.6096 90.4109 37.6096 90.4109 37.7341 90.4109C37.7341 90.4109 37.7341 90.4109 37.8586 90.4109L38.2322 89.1656C38.4813 89.2902 38.1077 89.1656 37.7341 89.0411ZM42.4663 90.1619L42.2173 91.4072C42.4663 91.4072 42.7154 91.5318 42.9645 91.5318C42.9645 91.5318 42.9645 91.5318 43.089 91.5318L43.3381 90.2864C43.2135 90.411 42.8399 90.2864 42.4663 90.1619ZM47.1986 90.7846L47.0741 92.0299C47.1986 92.0299 47.3231 92.0299 47.5722 92.0299C47.8213 92.0299 48.0703 92.0299 48.3194 92.0299V90.7846C48.0703 90.9091 47.6967 90.7846 47.1986 90.7846ZM53.3007 90.7846C52.9271 90.7846 52.5535 90.7846 52.0554 90.9091V92.1544H52.1799H52.3044C52.3044 92.1544 52.3044 92.1544 52.429 92.1544C52.5535 92.1544 52.5535 92.1544 52.678 92.1544L53.3007 90.7846ZM58.033 90.1619C57.6594 90.2864 57.2858 90.2864 56.7876 90.4109L57.0367 91.6563C57.2858 91.6563 57.4103 91.5318 57.6594 91.5318C57.7839 91.5318 57.9084 91.5318 57.9084 91.5318L58.033 90.1619ZM62.7652 88.9166C62.3916 89.0411 62.018 89.1656 61.6444 89.2902L62.018 90.5355C62.3916 90.4109 62.6407 90.2864 63.0143 90.2864H63.1388L62.7652 88.9166ZM67.2484 87.1731C66.8748 87.2976 66.5012 87.5467 66.1276 87.6712L66.6257 88.792C66.9993 88.6675 67.3729 88.4184 67.7465 88.2939L67.2484 87.1731ZM71.4825 84.807C71.1089 85.056 70.7353 85.1806 70.4863 85.4296L71.1089 86.5504C71.358 86.4259 71.6071 86.3014 71.7316 86.1768C71.7316 86.1768 71.7316 86.1768 71.8561 86.1768C71.8561 86.1768 71.8561 86.1768 71.9807 86.1768L71.4825 84.807ZM75.4676 82.0673C75.094 82.3163 74.8449 82.5654 74.4713 82.8144L75.2185 83.8107C75.3431 83.6862 75.4676 83.5616 75.7167 83.4371L75.4676 82.0673ZM79.079 78.8294C78.83 79.0785 78.4564 79.4521 78.2073 79.7011L79.079 80.5728C79.3281 80.3238 79.4526 80.1992 79.7017 79.9502C79.8262 79.8257 79.8262 79.8257 79.9508 79.7011L79.079 78.8294ZM82.1924 75.2179C81.9433 75.5915 81.6942 75.8406 81.4452 76.2142L82.4414 76.9614C82.6905 76.5878 82.9396 76.3387 83.1886 75.9651L82.1924 75.2179ZM84.9321 71.2329C84.683 71.6065 84.5585 71.9801 84.3094 72.2291L85.3057 72.8518C85.5548 72.4782 85.8038 72.1046 85.9284 71.8555L84.9321 71.2329ZM87.2982 66.9988C87.1737 67.3724 86.9246 67.746 86.8001 68.1196L87.9209 68.6177C88.0454 68.2441 88.2945 67.8705 88.419 67.4969L87.2982 66.9988ZM89.0417 62.5156C88.9172 62.8892 88.7926 63.2628 88.6681 63.6364L89.7889 64.01C89.9134 63.6364 90.0379 63.2628 90.1625 62.8892L89.0417 62.5156ZM90.1625 57.7833C90.0379 58.1569 90.0379 58.5305 89.9134 58.9041L91.1587 59.1532C91.1587 59.0286 91.1587 59.0286 91.1587 58.9041C91.1587 58.7796 91.2833 58.5305 91.2833 58.406C91.2833 58.2814 91.2833 58.2814 91.2833 58.1569L90.1625 57.7833ZM90.7851 52.9265C90.7851 53.3001 90.6606 53.6737 90.6606 54.1719L91.9059 54.2964C91.9059 54.1719 91.9059 54.0473 91.9059 53.9228C91.9059 53.9228 91.9059 53.9228 91.9059 53.7983C91.9059 53.7983 91.9059 53.7983 91.9059 53.6737L90.7851 52.9265ZM92.155 48.0697H90.9097C90.9097 48.4433 90.9097 48.8169 90.9097 49.3151H92.155C92.155 49.066 92.155 48.8169 92.155 48.5679C92.155 48.1943 92.155 48.1943 92.155 48.0697C92.155 48.1943 92.155 48.1943 92.155 48.0697C92.155 48.1943 92.155 48.1943 92.155 48.0697C92.155 48.1943 92.155 48.1943 92.155 48.0697C92.155 48.1943 92.155 48.1943 92.155 48.0697C92.155 48.1943 92.155 48.1943 92.155 48.0697C92.155 48.1943 92.155 48.1943 92.155 48.0697C92.155 48.1943 92.155 48.1943 92.155 48.0697C92.155 48.1943 92.155 48.1943 92.155 48.0697C92.155 48.1943 92.155 48.1943 92.155 48.0697ZM91.6569 43.0884L90.4115 43.3375C90.5361 43.7111 90.5361 44.0847 90.5361 44.5828L91.7814 44.4583C91.6569 43.213 91.6569 43.213 91.6569 43.0884ZM90.5361 38.2316L89.2907 38.6052C89.4153 38.9788 89.5398 39.3524 89.6643 39.726L90.9097 39.477V39.3524C90.5361 38.6052 90.5361 38.3562 90.5361 38.2316ZM88.7926 33.6239L87.6718 34.122C87.7964 34.4956 87.9209 34.8692 88.17 35.2428L89.2907 34.7447C89.2907 34.6202 89.2907 34.6202 89.1662 34.4956C89.1662 34.4956 89.1662 34.4956 89.1662 34.3711C88.9171 33.7484 88.9172 33.7484 88.7926 33.6239ZM86.6756 29.1407L85.5548 29.7634C85.8038 30.137 85.9284 30.5106 86.1774 30.7597L87.2982 30.137C87.2982 30.0125 87.1737 29.8879 87.1737 29.8879C86.8001 29.5143 86.8001 29.3898 86.6756 29.1407ZM83.9358 24.9066L82.9396 25.6538C83.1886 26.0274 83.4377 26.2765 83.6868 26.6501L84.683 25.9029C84.5585 25.6538 84.3094 25.4047 84.1849 25.1557C83.9358 25.0311 83.9358 25.0311 83.9358 24.9066ZM80.698 21.1706L79.8262 22.0423C80.0753 22.2914 80.3244 22.665 80.698 22.9141L81.5697 22.0423C81.5697 22.0423 81.5697 22.0423 81.4452 21.9178C81.0716 21.5442 80.947 21.4197 80.698 21.1706C80.8225 21.1706 80.8225 21.1706 80.698 21.1706C80.8225 21.1706 80.698 21.1706 80.698 21.1706ZM77.0865 17.6837L76.3393 18.68C76.5884 18.929 76.962 19.1781 77.211 19.4271L78.0828 18.5554C77.8337 18.3064 77.5846 18.1818 77.3356 17.9328C77.211 17.8082 77.2111 17.8082 77.0865 17.6837C77.2111 17.8082 77.2111 17.8082 77.0865 17.6837C77.2111 17.8082 77.2111 17.8082 77.0865 17.6837C77.2111 17.8082 77.2111 17.8082 77.0865 17.6837C77.2111 17.8082 77.2111 17.8082 77.0865 17.6837C77.2111 17.8082 77.2111 17.8082 77.0865 17.6837C77.2111 17.8082 77.2111 17.8082 77.0865 17.6837C77.2111 17.8082 77.2111 17.8082 77.0865 17.6837C77.2111 17.8082 77.2111 17.8082 77.0865 17.6837C77.0865 17.8082 77.0865 17.8082 77.0865 17.6837C77.0865 17.8082 77.0865 17.8082 77.0865 17.6837C77.0865 17.8082 77.0865 17.8082 77.0865 17.6837C77.0865 17.8082 77.0865 17.8082 77.0865 17.6837C77.0865 17.8082 77.0865 17.8082 77.0865 17.6837C77.0865 17.8082 77.0865 17.8082 77.0865 17.6837ZM73.1015 14.8194L72.4788 15.8157C72.8524 16.0648 73.1015 16.3138 73.4751 16.4384L74.2223 15.4421C73.5996 15.0685 73.3505 14.944 73.1015 14.8194ZM68.7428 12.3288L68.2447 13.4496C68.6183 13.5741 68.9919 13.8232 69.3655 13.9477L69.9881 12.8269C69.49 12.7024 69.1164 12.4533 68.7428 12.3288ZM64.1351 10.3362L63.7615 11.457C64.1351 11.5816 64.5087 11.7061 64.8823 11.8306L65.3804 10.7098C65.2559 10.7098 65.2559 10.5853 65.1313 10.5853C64.7577 10.5853 64.5087 10.4608 64.1351 10.3362ZM59.4028 8.96638L59.1538 10.2117C59.5274 10.3362 59.901 10.3362 60.2746 10.4608L60.6482 9.21544C60.5236 9.21544 60.5236 9.21544 60.3991 9.21544C60.3991 9.21544 60.3991 9.21544 60.2746 9.21544C59.7764 9.09091 59.6519 8.96638 59.4028 8.96638ZM54.546 8.09465L54.4215 9.33998C54.7951 9.33998 55.1687 9.46451 55.6668 9.46451L55.7914 8.21918C55.7914 8.21918 55.7914 8.21918 55.6668 8.21918C54.7951 8.09465 54.6706 8.09465 54.546 8.09465ZM50.0629 7.84558V9.09091C50.3119 9.09091 50.561 9.09091 50.8101 9.09091V7.84558C50.6855 7.84558 50.561 7.84558 50.4365 7.84558C50.1874 7.84558 50.1874 7.84558 50.0629 7.84558C50.1874 7.84558 50.1874 7.84558 50.0629 7.84558C50.1874 7.84558 50.0629 7.84558 50.0629 7.84558Z" fill="#489BFD"/>
<path d="M50.4356 55.0436H50.062C41.9673 55.0436 37.4841 44.9564 36.2388 41.9676C35.9897 41.9676 35.4916 41.9676 34.9935 41.9676C32.0047 41.8431 31.5065 37.9826 31.382 36.1146C31.2575 35.4919 31.5065 34.8692 31.8801 34.3711C32.5028 33.6239 33.3745 33.2503 34.2463 33.1258C33.4991 29.5143 32.3783 20.2989 39.103 18.0573C39.103 18.0573 41.3446 17.1855 45.2052 17.1855C46.326 17.1855 46.575 16.8119 46.9486 15.8157C47.3222 14.944 48.0694 13.4496 50.1865 13.5741C53.6734 13.6986 57.0358 15.0685 61.519 17.8082C67.123 21.2951 66.6248 29.3898 66.1267 32.8767C66.8739 33.0012 67.6211 33.2503 68.2438 33.7484C68.7419 34.122 69.1155 34.8692 68.991 36.1146C68.6174 39.726 67.2475 41.8431 65.3795 41.9676C64.8814 41.9676 64.5078 41.9676 64.1342 41.9676C63.0134 44.9564 58.5302 55.0436 50.4356 55.0436ZM50.062 15.8157C49.8129 15.8157 49.6884 15.9402 49.3148 16.6874C48.8166 17.6837 48.0694 19.4271 45.3297 19.4271C41.9673 19.4271 40.0993 20.1743 40.0993 20.1743C34.2463 22.1669 36.986 33.1258 37.1105 33.4994L37.2351 34.122L36.4879 35.1183H35.8652C34.8689 35.2428 33.9972 35.4919 33.8727 35.741C33.9972 36.9863 34.3708 39.2279 35.2425 39.2279C35.7407 39.2279 36.1143 39.2279 36.3633 39.2279C37.3596 39.2279 38.3559 39.8506 38.7295 40.8468C39.7257 43.5865 43.7108 52.4284 50.1865 52.4284H50.5601C57.0358 52.4284 61.0209 43.5865 62.0171 40.8468C62.3907 39.8506 63.2625 39.2279 64.3832 39.2279C64.6323 39.2279 65.0059 39.2279 65.504 39.2279C65.7531 39.2279 66.5003 38.1071 66.7494 35.6164C66.7494 35.4919 66.7494 35.3674 66.7494 35.2428C66.5003 34.9938 65.7531 34.9938 65.0059 34.9938L64.3832 35.1183L63.387 34.122L63.5115 33.3748C63.636 33.0012 65.7531 22.9141 60.2737 19.4271C55.1678 16.1893 52.3035 15.6912 50.1865 15.5666C50.1865 15.8157 50.062 15.8157 50.062 15.8157Z" fill="#036FF5"/>
<path d="M42.9643 49.1906H40.4736V55.5417H42.9643V49.1906Z" fill="#036FF5"/>
<path d="M60.0248 49.1906H57.5342V55.5417H60.0248V49.1906Z" fill="#036FF5"/>
<path d="M57.9076 83.0636L55.5415 82.3164L62.3908 59.4023C62.3908 59.2778 62.3908 59.0287 62.3908 58.9042L61.021 56.0399L51.4319 62.2666H48.9413L39.3522 56.0399L37.9824 58.9042C37.9824 59.0287 37.8578 59.1532 37.9824 59.2778L44.8317 82.1918L42.4655 82.939L35.6162 60.025C35.3672 59.2778 35.4917 58.5306 35.7408 57.7834L37.1106 54.7946C37.3597 54.1719 37.9824 53.6738 38.605 53.5493C39.2277 53.3002 39.9749 53.4247 40.5975 53.7983L49.6885 59.6514H50.6847L59.7756 53.7983C60.3983 53.4247 61.021 53.3002 61.7682 53.5493C62.3908 53.7983 63.0135 54.1719 63.2626 54.7946L64.6324 57.7834C65.006 58.5306 65.006 59.2778 64.757 60.025L57.9076 83.0636Z" fill="#036FF5"/>
<path d="M45.0946 63.8259L39.7783 67.0681L41.0752 69.1946L46.3915 65.9524L45.0946 63.8259Z" fill="#036FF5"/>
<path d="M55.387 63.8246L54.0908 65.9517L59.4084 69.192L60.7045 67.065L55.387 63.8246Z" fill="#036FF5"/>
<path d="M53.5236 68.7605L51.0732 69.2073L53.5531 82.8065L56.0034 82.3597L53.5236 68.7605Z" fill="#036FF5"/>
<path d="M46.9743 68.8834L44.4902 82.4812L46.9403 82.9288L49.4243 69.3309L46.9743 68.8834Z" fill="#036FF5"/>
<path d="M50.8101 84.1843H49.6893C34.2472 84.1843 24.0355 79.5766 20.2995 76.7123C19.4278 76.0896 18.9297 74.9689 18.9297 73.8481V71.731C18.9297 67.1233 21.9185 62.8892 26.2771 61.3948L35.9907 58.655L36.6134 61.0212L26.8998 63.7609C23.5374 64.8817 21.2958 68.1195 21.2958 71.731V73.8481C21.2958 74.2217 21.4203 74.4707 21.6694 74.7198C22.043 74.9689 31.1339 81.6936 49.5648 81.6936H50.6856C69.1165 81.6936 78.2074 75.0934 78.581 74.7198C78.8301 74.4707 78.9546 74.2217 78.9546 73.8481V71.731C78.9546 68.1195 76.713 64.8817 73.3506 63.7609L64.0106 61.0212L64.7578 58.655L74.2223 61.3948C78.7055 62.8892 81.5698 67.1233 81.5698 71.731V73.8481C81.5698 74.9689 81.0717 75.9651 80.1999 76.7123C76.4639 79.5766 66.2522 84.1843 50.8101 84.1843Z" fill="#036FF5"/>
<path d="M50.3115 70.8593C47.3227 70.8593 44.832 68.3686 44.832 65.3798C44.832 62.3911 47.3227 59.9004 50.3115 59.9004C53.3003 59.9004 55.7909 62.3911 55.7909 65.3798C55.7909 68.3686 53.3003 70.8593 50.3115 70.8593ZM50.3115 62.3911C48.6926 62.3911 47.3227 63.7609 47.3227 65.3798C47.3227 66.9988 48.6926 68.3686 50.3115 68.3686C51.9304 68.3686 53.3003 66.9988 53.3003 65.3798C53.3003 63.7609 51.9304 62.3911 50.3115 62.3911Z" fill="#036FF5"/>
</svg>
