<svg width="100" height="100" viewBox="0 0 100 100" fill="none" xmlns="http://www.w3.org/2000/svg">
<path d="M81.2425 14.3213C78.758 12.0797 76.0251 10.2117 73.1679 8.59278C66.2114 4.60772 58.1369 2.49066 49.9381 2.49066C44.7207 2.49066 39.5033 3.36239 34.5344 5.10585L33.7891 2.73973C39.0065 0.996264 44.4723 0 49.9381 0C58.5096 0 67.081 2.24159 74.5344 6.47572C77.5158 8.21918 80.3729 10.2117 82.9816 12.4533L81.2425 14.3213Z" fill="#E3F1FF"/>
<path d="M20.4965 12.7025L19.0059 10.7099C20.8692 9.21553 22.8568 7.84567 24.9686 6.60034L26.2108 8.7174C24.2233 9.96273 22.3599 11.3326 20.4965 12.7025Z" fill="#E3F1FF"/>
<path d="M49.9379 100C22.3602 100 0 77.5841 0 50.0623C0 41.345 2.23603 32.7522 6.58385 25.1557L8.69565 26.401C4.59627 33.4994 2.48447 41.7186 2.48447 50.0623C2.48447 76.2142 23.7267 97.6339 49.9379 97.6339C76.1491 97.6339 97.3913 76.3387 97.3913 50.0623C97.3913 44.3337 96.3975 38.6052 94.4099 33.2503C93.4161 30.6351 92.1739 28.0199 90.6832 25.5293L92.795 24.2839C94.4099 26.8991 95.6522 29.6389 96.7702 32.3786C98.882 37.9826 100 43.9601 100 50.0623C99.7515 77.5841 77.3913 100 49.9379 100Z" fill="#E3F1FF"/>
<path d="M49.9378 83.6862C68.4617 83.6862 83.4782 68.6322 83.4782 50.0623C83.4782 31.4923 68.4617 16.4384 49.9378 16.4384C31.414 16.4384 16.3975 31.4923 16.3975 50.0623C16.3975 68.6322 31.414 83.6862 49.9378 83.6862Z" fill="#E3F1FF"/>
<path d="M49.6894 100C22.236 100 0 77.5841 0 50.1869H2.48447C2.48447 76.3388 23.7267 97.5094 49.6894 97.5094V100Z" fill="#036FF5"/>
<path d="M49.9387 7.84558C49.8145 7.84558 49.8145 7.84558 49.9387 7.84558C49.8145 7.84558 49.8145 7.84558 49.9387 7.84558C49.8145 7.84558 49.8145 7.84558 49.9387 7.84558C49.8145 7.84558 49.8145 7.84558 49.9387 7.84558C49.8145 7.84558 49.8145 7.84558 49.9387 7.84558C49.8145 7.84558 49.8145 7.84558 49.9387 7.84558C49.8145 7.84558 49.8145 7.84558 49.9387 7.84558C49.8145 7.84558 49.8145 7.84558 49.9387 7.84558C49.8145 7.84558 49.8145 7.84558 49.9387 7.84558C49.8145 7.84558 49.8145 7.84558 49.9387 7.84558C49.8145 7.84558 49.8145 7.84558 49.9387 7.84558C49.8145 7.84558 49.8145 7.84558 49.8145 7.84558C49.8145 7.84558 49.8145 7.84558 49.6903 7.84558H49.5661C49.4419 7.84558 49.3176 7.84558 49.1934 7.84558V9.09091C49.5661 9.09091 49.9387 9.09091 50.4356 9.09091V7.84558H49.9387ZM44.9698 8.21918C44.5971 8.21918 44.2245 8.34371 43.976 8.34371H43.8518L43.976 9.58904C44.3487 9.58904 44.7214 9.46451 45.2183 9.46451L44.9698 8.21918ZM40.0009 9.09091C39.8766 9.09091 39.7524 9.09091 39.7524 9.21544C39.6282 9.21544 39.504 9.33998 39.3797 9.33998L39.7524 10.5853C40.1251 10.4608 40.4978 10.3362 40.8704 10.3362L40.0009 9.09091ZM35.2804 10.4608C35.0319 10.5853 34.9077 10.5853 34.6592 10.7098C34.535 10.8344 34.2866 10.8344 34.1624 10.9589L34.6592 12.0797C35.0319 11.9552 35.4046 11.8306 35.7773 11.5816L35.2804 10.4608ZM30.8083 12.4533C30.6841 12.4533 30.5599 12.5778 30.5599 12.5778C30.3114 12.7024 30.1872 12.8269 29.9388 12.9514C29.9388 12.9514 29.9387 12.9514 29.8145 12.9514L30.4356 14.0722C30.8083 13.8232 31.181 13.6986 31.5537 13.4496L30.8083 12.4533ZM26.4605 15.0685C26.3363 15.0685 26.3363 15.0685 26.4605 15.0685C26.3363 15.0685 26.3363 15.0685 26.4605 15.0685C26.3363 15.193 26.3363 15.193 26.3363 15.193C26.212 15.3176 26.212 15.3176 26.0878 15.4421C25.9636 15.5666 25.7151 15.6912 25.5909 15.8157L26.3363 16.812C26.7089 16.5629 26.9574 16.3138 27.3301 16.0648L26.4605 15.0685ZM22.4853 18.0573C22.3611 18.1818 22.2369 18.3064 22.1127 18.3064C21.9884 18.4309 21.8642 18.5554 21.6158 18.68L22.4853 19.5517C22.7338 19.3026 23.1065 19.0536 23.3549 18.8045L22.4853 18.0573ZM19.0071 21.5442C18.7586 21.7933 18.6344 21.9178 18.386 22.1669C18.2617 22.2914 18.2617 22.2914 18.1375 22.4159L19.1313 23.2877C19.3797 23.0386 19.6282 22.665 19.8766 22.4159L19.0071 21.5442ZM15.7773 25.4047C15.7773 25.5293 15.653 25.5293 15.653 25.6538C15.5288 25.9029 15.2804 26.1519 15.1561 26.2765L16.1499 27.0237C16.3984 26.6501 16.6468 26.401 16.8953 26.0274L15.7773 25.4047ZM13.1686 29.5143C13.1686 29.6389 13.0443 29.7634 13.0443 29.8879C12.9201 30.137 12.7959 30.2615 12.6717 30.5106L13.7897 31.1333C13.9139 30.7597 14.1624 30.3861 14.4108 30.0125L13.1686 29.5143ZM10.9325 33.9975V34.122C10.8083 34.3711 10.6841 34.6202 10.6841 34.8692L11.8021 35.3674C11.9263 34.9938 12.0505 34.6202 12.299 34.2466L10.9325 33.9975ZM9.44185 38.7298C9.31763 39.1034 9.19341 39.477 9.19341 39.8506L10.4356 40.0996C10.5599 39.726 10.6841 39.3524 10.6841 38.9788L9.44185 38.7298ZM8.32384 43.5866C8.32384 43.9602 8.19962 44.3338 8.19962 44.7074V44.8319L9.44185 44.9564C9.44185 44.5828 9.56608 44.2092 9.56608 43.7111L8.32384 43.5866ZM7.95117 48.5679C7.95117 48.9415 7.95117 49.3151 7.95117 49.6887H9.19341C9.19341 49.3151 9.19341 48.9415 9.19341 48.4433L7.95117 48.5679ZM9.19341 53.4247L7.95117 53.5492C7.95117 53.7983 7.95117 54.1719 8.0754 54.4209C8.0754 54.5455 8.0754 54.5455 8.0754 54.67L9.31763 54.5455C9.31763 54.2964 9.31763 53.9228 9.19341 53.4247ZM9.93875 58.2814L8.69651 58.5305C8.69651 58.655 8.69651 58.7796 8.82074 58.9041C8.82074 59.1532 8.94496 59.4022 8.94496 59.6513L10.1872 59.4022C10.063 59.0286 10.063 58.655 9.93875 58.2814ZM11.181 62.8892L9.93875 63.2628C9.93875 63.3873 9.93875 63.3873 10.063 63.5118C10.063 63.6364 10.1872 63.7609 10.1872 63.8854L11.3052 63.5118C11.4294 63.6364 11.3052 63.2628 11.181 62.8892ZM12.9201 67.3724L11.8021 67.8705C11.8021 67.995 11.9263 68.1196 11.9263 68.1196C11.9263 68.1196 11.9263 68.1196 11.9263 68.2441C12.0506 68.4932 12.0506 68.6177 12.1748 68.7422V68.8667L13.2928 68.2441C13.2928 68.1196 13.1686 67.746 12.9201 67.3724ZM15.2804 71.6065L14.2866 72.2291C14.4108 72.3537 14.4108 72.4782 14.535 72.6027C14.6592 72.7273 14.6592 72.8518 14.7835 72.9763L15.7773 72.2291C15.653 72.3537 15.5288 71.9801 15.2804 71.6065ZM18.0133 75.5915L17.0195 76.3387C17.2679 76.5878 17.5164 76.9614 17.7648 77.2105L18.7586 76.4633C18.5102 76.2142 18.2617 75.8406 18.0133 75.5915ZM21.2431 79.203L20.3735 80.0747C20.4978 80.1993 20.7462 80.3238 20.8704 80.5728C20.9946 80.6974 21.1189 80.8219 21.2431 80.9464L22.1127 80.0747C21.8642 79.7011 21.6158 79.4521 21.2431 79.203ZM24.9698 82.3163L24.2245 83.3126C24.3487 83.4371 24.3487 83.4371 24.4729 83.5616L24.5971 83.6862L25.3425 82.6899C25.5909 82.8144 25.2183 82.5654 24.9698 82.3163ZM28.945 85.056L28.3238 86.1768C28.4481 86.1768 28.4481 86.3014 28.5723 86.3014C28.6965 86.4259 28.8207 86.4259 29.0692 86.5504C29.0692 86.5504 29.0692 86.5504 29.1934 86.5504L29.8145 85.4296C29.5661 85.4296 29.1934 85.3051 28.945 85.056ZM33.1686 87.2976L32.6717 88.4184C32.7959 88.4184 32.9201 88.543 33.0443 88.543C33.0443 88.543 33.0443 88.543 33.1686 88.543C33.2928 88.543 33.2928 88.6675 33.417 88.6675C33.417 88.6675 33.417 88.6675 33.5412 88.6675L34.0381 87.5467C33.9139 87.6712 33.5412 87.5467 33.1686 87.2976ZM37.6406 89.0411L37.2679 90.2864C37.3922 90.2864 37.3922 90.2864 37.5164 90.4109C37.7648 90.5355 38.1375 90.5355 38.386 90.66L38.7586 89.4147C38.386 89.2902 38.0133 89.1656 37.6406 89.0411ZM42.3611 90.1619L42.1127 91.4072C42.4853 91.5318 42.9822 91.5318 43.3549 91.6563L43.6033 90.4109C43.1064 90.4109 42.7338 90.2864 42.3611 90.1619ZM47.0816 90.7846L46.9574 92.0299C47.0816 92.0299 47.2058 92.0299 47.3301 92.0299C47.3301 92.0299 47.3301 92.0299 47.4543 92.0299C47.5785 92.0299 47.8269 92.0299 47.9512 92.0299V90.7846C47.9512 90.9091 47.5785 90.7846 47.0816 90.7846ZM53.1686 90.7846C52.7959 90.7846 52.4232 90.7846 51.9263 90.9091V92.1544C52.0505 92.1544 52.0505 92.1544 52.1748 92.1544C52.4232 92.1544 52.7959 92.1544 53.0443 92.1544L53.1686 90.7846ZM57.8891 90.1619C57.5164 90.2864 57.1437 90.2864 56.6468 90.4109L56.8953 91.6563H57.0195C57.1437 91.6563 57.2679 91.6563 57.2679 91.6563C57.2679 91.6563 57.2679 91.6563 57.3922 91.6563L57.8891 90.1619ZM62.6096 88.9166C62.2369 89.0411 61.8642 89.1656 61.4915 89.2902L61.8642 90.5355C61.9884 90.5355 61.9884 90.5355 62.1127 90.4109C62.3611 90.2864 62.4853 90.2864 62.7338 90.1619C62.7338 90.1619 62.7338 90.1619 62.858 90.1619L62.6096 88.9166ZM67.0816 87.1731C66.7089 87.2976 66.3363 87.5467 65.9636 87.6712L66.4605 88.792C66.7089 88.6675 67.0816 88.543 67.3301 88.4184L67.0816 87.1731ZM71.3052 84.807C70.9325 85.056 70.5599 85.1806 70.3114 85.4296L70.9325 86.5504C71.181 86.4259 71.4294 86.3014 71.5537 86.1768C71.6779 86.1768 71.8021 86.0523 71.8021 86.0523L71.3052 84.807ZM75.2804 82.0673C74.9077 82.3163 74.6592 82.5654 74.2866 82.8144L75.0319 83.8107C75.2804 83.5616 75.653 83.3126 75.9015 83.188L75.2804 82.0673ZM78.8828 78.8294C78.6344 79.0785 78.2617 79.4521 78.0133 79.7011L78.8828 80.5728L79.0071 80.4483C79.2555 80.1992 79.3797 80.0747 79.6282 79.8257L78.8828 78.8294ZM81.9884 75.2179C81.74 75.5915 81.4915 75.8406 81.2431 76.2142L82.2369 76.9614C82.3611 76.8369 82.4853 76.7123 82.6096 76.5878L81.9884 75.2179ZM84.7214 71.2329C84.4729 71.6065 84.3487 71.9801 84.1002 72.2291L85.094 72.8518C85.2183 72.6027 85.4667 72.2291 85.5909 71.9801L84.7214 71.2329ZM87.0816 66.9988C86.9574 67.3724 86.7089 67.746 86.5847 68.1196L87.7027 68.6177C87.8269 68.2441 88.0754 67.8705 88.1996 67.4969L87.0816 66.9988ZM88.8207 62.5156C88.6965 62.8892 88.5723 63.2628 88.4481 63.6364L89.5661 64.01C89.6903 63.6364 89.8145 63.2628 89.9388 62.8892L88.8207 62.5156ZM89.9388 57.7833C89.8145 58.1569 89.8145 58.5305 89.6903 58.9041L90.9325 59.1532C90.9325 59.0286 90.9325 59.0286 90.9325 58.9041C90.9325 58.7796 91.0568 58.5305 91.0568 58.406C91.0568 58.2814 91.0568 58.2814 91.0568 58.1569L89.9388 57.7833ZM90.5599 52.9265C90.5599 53.3001 90.4356 53.6737 90.4356 54.1719L91.6779 54.2964C91.6779 54.2964 91.6779 54.2964 91.6779 54.1719C91.6779 53.7983 91.8021 53.4247 91.8021 53.0511L90.5599 52.9265ZM91.9263 48.0697H90.6841C90.6841 48.4433 90.6841 48.8169 90.6841 49.3151H91.9263C91.9263 49.066 91.9263 48.9415 91.9263 48.6924C91.9263 48.4433 91.9263 48.3188 91.9263 48.0697ZM91.4294 43.0884L90.1872 43.3375C90.3114 43.7111 90.3114 44.0847 90.3114 44.5828L91.5536 44.4583C91.5536 44.3338 91.5536 44.3338 91.5536 44.2092C91.5536 44.2092 91.5536 44.2092 91.5536 44.0847C91.4294 43.5866 91.4294 43.3375 91.4294 43.0884ZM90.3114 38.2316L89.0692 38.6052C89.1934 38.9788 89.3176 39.3524 89.4419 39.726L90.6841 39.477C90.6841 39.3524 90.6841 39.3524 90.6841 39.2279C90.6841 39.1034 90.5599 38.9788 90.5599 38.7298C90.3114 38.3562 90.3114 38.3562 90.3114 38.2316C90.3114 38.3562 90.3114 38.3562 90.3114 38.2316C90.3114 38.3562 90.3114 38.3562 90.3114 38.2316C90.3114 38.3562 90.3114 38.3562 90.3114 38.2316C90.3114 38.3562 90.3114 38.3562 90.3114 38.2316C90.3114 38.3562 90.3114 38.3562 90.3114 38.2316C90.3114 38.3562 90.3114 38.3562 90.3114 38.2316C90.3114 38.3562 90.3114 38.3562 90.3114 38.2316C90.3114 38.3562 90.3114 38.3562 90.3114 38.2316C90.3114 38.3562 90.3114 38.3562 90.3114 38.2316C90.3114 38.3562 90.3114 38.3562 90.3114 38.2316C90.3114 38.3562 90.3114 38.3562 90.3114 38.2316ZM88.5723 33.6239L87.4543 34.122C87.5785 34.4956 87.7027 34.8692 87.9512 35.2428L89.0692 34.7447C89.0692 34.6202 88.945 34.4956 88.945 34.4956C88.945 34.3711 88.8207 34.2466 88.8207 34.122C88.6965 33.7484 88.6965 33.6239 88.5723 33.6239ZM86.4605 29.1407L85.3425 29.7634C85.5909 30.137 85.7151 30.5106 85.9636 30.7597L87.0816 30.137C87.0816 30.137 87.0816 30.0125 86.9574 30.0125C86.9574 30.0125 86.9574 30.0125 86.9574 29.8879C86.5847 29.5143 86.4605 29.2653 86.4605 29.1407ZM83.7276 24.9066L82.7338 25.6538C82.9822 26.0274 83.2307 26.2765 83.4791 26.6501L84.4729 25.9029C84.3487 25.7783 84.2245 25.5293 84.1002 25.4047C83.8518 25.2802 83.8518 25.1557 83.7276 24.9066ZM80.4978 21.1706L79.6282 22.0423C79.8766 22.2914 80.1251 22.665 80.4978 22.9141L81.3673 22.0423C81.1189 21.7933 80.7462 21.4197 80.4978 21.1706ZM76.8953 17.6837L76.1499 18.68C76.3984 18.929 76.771 19.1781 77.0195 19.4271L77.8891 18.5554C77.7648 18.5554 77.7648 18.4309 77.6406 18.4309C77.3922 18.0573 77.1437 17.9328 76.8953 17.6837ZM72.9201 14.8194L72.299 15.8157C72.6717 16.0648 72.9201 16.3138 73.2928 16.4384L74.0381 15.4421C73.5412 15.193 73.2928 14.944 72.9201 14.8194ZM68.5723 12.3288L68.0754 13.4496C68.4481 13.5741 68.8207 13.8232 69.1934 13.9477L69.8145 12.8269C69.3176 12.7024 68.945 12.4533 68.5723 12.3288ZM63.976 10.3362L63.6033 11.457C63.976 11.5816 64.3487 11.7061 64.7214 11.8306L65.2183 10.7098C65.094 10.7098 65.094 10.7098 64.9698 10.5853C64.5971 10.5853 64.3487 10.4608 63.976 10.3362ZM59.2555 8.96638L59.0071 10.2117C59.3797 10.3362 59.7524 10.3362 60.1251 10.4608L60.4978 9.21544C60.4978 9.21544 60.4978 9.21544 60.3735 9.21544C60.2493 9.21544 60.0009 9.09091 59.8766 9.09091C59.8766 9.09091 59.8766 9.09091 59.7524 9.09091C59.3797 8.96638 59.3797 8.96638 59.2555 8.96638C59.3797 8.96638 59.3797 8.96638 59.2555 8.96638C59.3797 8.96638 59.3797 8.96638 59.2555 8.96638C59.3797 8.96638 59.3797 8.96638 59.2555 8.96638C59.3797 8.96638 59.3797 8.96638 59.2555 8.96638C59.3797 8.96638 59.3797 8.96638 59.2555 8.96638C59.3797 8.96638 59.2555 8.96638 59.2555 8.96638ZM54.4108 8.09465L54.2866 9.33998C54.6592 9.33998 55.0319 9.46451 55.5288 9.46451L55.653 8.21918C55.1561 8.21918 54.7835 8.21918 54.4108 8.09465ZM49.9387 7.84558V9.09091C50.1872 9.09091 50.4356 9.09091 50.6841 9.09091V7.84558C50.5599 7.84558 50.4356 7.84558 50.3114 7.84558C50.063 7.84558 50.063 7.84558 49.9387 7.84558C50.063 7.84558 50.063 7.84558 49.9387 7.84558C50.063 7.84558 49.9387 7.84558 49.9387 7.84558Z" fill="#489BFD"/>
<path d="M31.3043 70.9838C30.8074 70.9838 30.1863 70.7348 29.8136 70.3612C24.3478 64.8817 21.2422 57.6588 21.2422 49.9378C21.2422 34.7447 33.0434 22.2914 48.0745 21.2952C48.8198 21.2952 49.5652 21.5442 50.1863 22.0424C50.8074 22.5405 51.0558 23.2877 51.0558 24.0349V48.9415C51.0558 49.9378 50.6832 50.8095 49.9378 51.5567L40.3726 61.5193C39.8757 62.0175 39.1304 62.0175 38.6335 61.5193C38.1366 61.0212 38.1366 60.274 38.6335 59.7759L48.1987 49.8132C48.4472 49.5642 48.5714 49.1906 48.5714 48.9415V24.0349C48.5714 23.9104 48.5714 23.9104 48.4472 23.7858C48.4472 23.7858 48.3229 23.6613 48.1987 23.6613C34.4099 24.533 23.7267 35.9901 23.7267 49.8132C23.7267 56.7871 26.3354 63.2628 31.3043 68.1196L36.3975 62.7647C36.8944 62.2665 37.6397 62.2665 38.1366 62.7647C38.6335 63.2628 38.6335 64.01 38.1366 64.5081L32.795 70.1121C32.4223 70.7348 31.9254 70.9838 31.3043 70.9838Z" fill="#036FF5"/>
<path d="M49.938 78.7049C44.4721 78.7049 39.2547 77.2105 34.6585 74.3463C34.0374 73.9727 33.9131 73.2255 34.2858 72.6028C34.6585 71.9801 35.4038 71.8556 36.0249 72.2292C40.1243 74.8444 44.969 76.2142 49.938 76.2142C50.6833 76.2142 51.1802 76.7124 51.1802 77.4596C51.1802 78.2068 50.5591 78.7049 49.938 78.7049Z" fill="#036FF5"/>
<path d="M75.7765 60.0248C75.6522 60.0248 75.528 60.0248 75.4038 59.9002C74.7827 59.6512 74.41 59.0285 74.6585 58.2813C75.528 55.5416 76.0249 52.8019 76.0249 49.9376C76.0249 37.2352 67.0808 26.5254 54.6585 24.1593C54.0373 24.0348 53.5404 23.4121 53.6647 22.6649C53.7889 22.0422 54.41 21.5441 55.1554 21.6686C68.6957 24.1593 78.6336 35.9899 78.6336 49.8131C78.6336 52.9264 78.1367 56.0397 77.1429 59.0285C76.7703 59.7757 76.2734 60.0248 75.7765 60.0248Z" fill="#036FF5"/>
<path d="M46.5829 67.8705C46.086 67.8705 45.5891 67.7459 45.0922 67.3723L32.7941 57.1606C32.2972 56.6625 32.1729 55.9153 32.6698 55.4172C33.1667 54.919 33.9121 54.7945 34.409 55.2926L46.5829 65.3798L61.7382 50.4358C62.4835 49.6886 63.7257 49.5641 64.5953 50.1868L78.6326 60.1494L85.2164 51.0585C85.5891 50.5604 86.3344 50.4358 86.9556 50.8094C87.4524 51.183 87.5767 52.0548 87.204 52.5529L80.4959 61.8929C79.7506 62.8891 78.3841 63.1382 77.3903 62.391L63.3531 52.3038L48.1978 67.2478C47.8251 67.6214 47.204 67.8705 46.5829 67.8705Z" fill="#036FF5"/>
<path d="M88.1985 56.6626H85.714V52.9266H81.9873V50.4359H88.1985V56.6626Z" fill="#036FF5"/>
<path d="M55.3783 84.369H52.5637C51.9382 84.369 51.5212 83.9483 51.5212 83.3173C51.5212 82.6863 51.9382 82.2656 52.5637 82.2656H55.1698V70.0659H52.0425C51.417 70.0659 51 69.6452 51 69.0142C51 68.3832 51.417 67.9625 52.0425 67.9625H55.2741C56.3165 67.9625 57.2547 68.8039 57.2547 69.9607V82.4759C57.359 83.5276 56.525 84.369 55.3783 84.369Z" fill="#036FF5"/>
<path d="M60.3822 72.0641H57.0464C56.4209 72.0641 56.0039 71.6435 56.0039 71.0125C56.0039 70.3814 56.4209 69.9608 57.0464 69.9608H60.1737C61.2162 68.278 64.3436 62.1782 64.969 60.4955C65.6987 58.3921 67.5752 57.7611 69.0346 58.0766C69.9728 58.2869 70.494 58.8128 70.7025 59.2335C71.2238 60.0748 71.2238 61.2317 70.8068 62.7041C70.0771 65.3333 68.7219 69.4349 68.7219 69.6453C68.5134 70.1711 67.9922 70.4866 67.3667 70.2763C66.8454 70.0659 66.5327 69.5401 66.7412 68.9091C66.7412 68.9091 68.0964 64.7023 68.8261 62.073C69.1389 60.811 68.9304 60.3903 68.9304 60.2852C68.9304 60.2852 68.8261 60.18 68.6176 60.0748C68.3049 59.9697 67.3667 59.9696 66.9497 61.2317C66.22 63.1247 62.6756 69.8556 61.8417 71.2228C61.4247 71.7486 60.9035 72.0641 60.3822 72.0641Z" fill="#036FF5"/>
<path d="M75.0809 70.2763C75.4979 70.2763 75.9148 70.5918 75.9148 71.1177C75.9148 71.6435 75.6021 71.959 75.0809 71.959V74.1676C76.7488 74.1676 77.9998 72.8004 77.9998 71.2228C77.9998 69.5401 76.6446 68.2781 75.0809 68.2781H67.5752V70.4866L75.0809 70.2763Z" fill="#036FF5"/>
<path d="M74.6635 74.0624C75.0805 74.0624 75.4975 74.3779 75.4975 74.9038C75.4975 75.3245 75.1848 75.7451 74.6635 75.7451V77.9537C76.3315 77.9537 77.5824 76.5865 77.5824 75.009C77.5824 73.3262 76.2272 72.0642 74.6635 72.0642H73.8296C73.2041 72.0642 72.7871 72.5901 72.7871 73.1159C72.7871 73.7469 73.3083 74.1676 73.8296 74.1676H74.6635" fill="#036FF5"/>
<path d="M74.4555 81.6345C74.7682 81.6345 74.9767 81.8449 74.9767 82.1604C74.9767 82.4759 74.7682 82.6862 74.4555 82.6862L60.5908 82.0552V84.3689L74.4555 84.9999C76.0192 84.9999 77.1659 83.7379 77.1659 82.2655C77.1659 80.688 75.9149 79.5311 74.4555 79.5311H72.8918C72.2663 79.5311 71.8493 80.057 71.8493 80.5828C71.8493 81.2138 72.3706 81.6345 72.8918 81.6345H74.4555Z" fill="#036FF5"/>
<path d="M74.559 77.8487C74.976 77.8487 75.393 78.1642 75.393 78.69C75.393 79.1107 75.0803 79.5314 74.559 79.5314V81.74C76.227 81.74 77.4779 80.3728 77.4779 78.7952C77.4779 77.1125 76.1227 75.8505 74.559 75.8505H73.7251C73.0996 75.8505 72.6826 76.3763 72.6826 76.9022C72.6826 77.5332 73.2038 77.9539 73.7251 77.9539H74.559" fill="#036FF5"/>
</svg>
