<svg width="100" height="100" viewBox="0 0 100 100" fill="none" xmlns="http://www.w3.org/2000/svg">
<path d="M27.9851 95.2559C23.01 92.8839 18.5323 89.6379 14.5522 85.6429C8.45771 79.5256 3.9801 71.9101 1.74129 63.5455C0.870647 60.1747 0.248756 56.804 0 53.3083L2.48756 53.1835C2.73632 56.4294 3.23383 59.8002 4.10448 62.9213C6.21891 70.7865 10.4478 78.0274 16.2935 83.8951C20.0249 87.6404 24.2537 90.7615 28.9801 93.0087L27.9851 95.2559Z" fill="#E3F1FF"/>
<path d="M44.154 100C41.7908 99.7503 39.4276 99.2509 37.0645 98.6267L37.6863 96.2546C39.9251 96.8789 42.164 97.2534 44.4028 97.5031L44.154 100Z" fill="#E3F1FF"/>
<path d="M63.0603 98.5019L62.4384 96.1299C70.3986 94.0075 77.7369 89.7628 83.5827 83.8952C102.115 65.2934 102.115 35.0812 83.5827 16.4794C74.6275 7.49064 62.6872 2.49688 50.0006 2.49688C37.3141 2.49688 25.3738 7.49064 16.4185 16.4794C12.3141 20.5993 9.08023 25.3433 6.71704 30.5868C5.59764 33.0837 4.60262 35.8302 3.85635 38.7016L1.49316 38.0774C2.23943 35.206 3.23446 32.2098 4.47824 29.4632C6.9658 23.97 10.4484 18.9763 14.6772 14.6067C24.13 5.24345 36.6922 0 50.0006 0C63.3091 0 75.8713 5.24345 85.324 14.7316C104.851 34.3321 104.851 66.0425 85.324 85.643C79.1051 91.7603 71.518 96.2547 63.0603 98.5019Z" fill="#E3F1FF"/>
<path d="M50.0001 83.8951C68.5469 83.8951 83.5821 68.8036 83.5821 50.1872C83.5821 31.5709 68.5469 16.4794 50.0001 16.4794C31.4532 16.4794 16.418 31.5709 16.418 50.1872C16.418 68.8036 31.4532 83.8951 50.0001 83.8951Z" fill="#E3F1FF"/>
<path d="M85.4474 85.5181L83.7061 83.7703C102.114 65.1686 102.114 35.0812 83.7061 16.6043L85.4474 14.8564C104.85 34.3321 104.85 66.0425 85.4474 85.5181Z" fill="#036FF5"/>
<path d="M50.0007 7.86523C49.8764 7.86523 49.8764 7.86523 50.0007 7.86523C49.8764 7.86523 49.8764 7.86523 50.0007 7.86523C49.8764 7.86523 49.8764 7.86523 50.0007 7.86523C49.8764 7.86523 49.8764 7.86523 50.0007 7.86523C49.8764 7.86523 49.8764 7.86523 50.0007 7.86523C49.8764 7.86523 49.8764 7.86523 50.0007 7.86523C49.8764 7.86523 49.8764 7.86523 50.0007 7.86523C49.8764 7.86523 49.8764 7.86523 50.0007 7.86523C49.8764 7.86523 49.8764 7.86523 49.8764 7.86523C49.8764 7.86523 49.8764 7.86523 49.752 7.86523H49.6276C49.5032 7.86523 49.3788 7.86523 49.2545 7.86523V9.11367C49.6276 9.11367 50.0007 9.11367 50.4983 9.11367V7.86523H50.0007ZM45.0256 8.23977C44.6525 8.23977 44.155 8.36461 43.7818 8.36461L43.9062 9.61305C44.2793 9.61305 44.6525 9.48821 45.15 9.48821L45.0256 8.23977ZM40.1749 9.11367C40.0505 9.11367 39.9261 9.23852 39.8017 9.23852C39.8017 9.23852 39.8017 9.23852 39.6774 9.23852C39.553 9.23852 39.4286 9.23852 39.4286 9.36336L39.8017 10.6118C40.1749 10.487 40.548 10.3621 40.9211 10.3621L40.1749 9.11367ZM35.3241 10.487C35.0754 10.6118 34.951 10.6118 34.7022 10.7366C34.5779 10.7366 34.4535 10.8615 34.3291 10.8615L34.8266 11.9851C35.1997 11.8602 35.5729 11.7354 35.946 11.4857L35.3241 10.487ZM30.8465 12.4845C30.7221 12.4845 30.5978 12.6093 30.5978 12.6093C30.349 12.7341 30.2246 12.859 29.9759 12.9838C29.9759 12.9838 29.9759 12.9838 29.8515 12.9838L30.4734 14.1074C30.8465 13.8577 31.2196 13.7329 31.5928 13.4832L30.8465 12.4845ZM26.4933 15.1062L26.3689 15.231C26.2445 15.3559 25.9958 15.4807 25.8714 15.6056L26.6177 16.6043C26.9908 16.3546 27.2395 16.1049 27.6127 15.8552L26.4933 15.1062ZM22.6376 18.1024C22.5132 18.2273 22.3888 18.3521 22.2644 18.477C22.14 18.6018 22.0157 18.7267 21.8913 18.7267L22.7619 19.6006C23.0107 19.3509 23.3838 19.1012 23.6326 18.8515L22.6376 18.1024ZM19.0306 21.5981C18.9062 21.7229 18.7818 21.8478 18.6575 21.9726C18.5331 22.0974 18.4087 22.2223 18.2843 22.3471L19.2793 23.221C19.5281 22.9714 19.7769 22.5968 20.0256 22.3471L19.0306 21.5981ZM15.7968 25.4682C15.7968 25.5931 15.6724 25.5931 15.6724 25.7179C15.548 25.9676 15.2992 26.2173 15.1749 26.467L16.1699 27.216C16.4186 26.8415 16.6674 26.5918 16.9162 26.2173L15.7968 25.4682ZM13.1848 29.5881C13.1848 29.5881 13.1848 29.7129 13.0604 29.7129C12.9361 29.9626 12.8117 30.2123 12.6873 30.462L13.8067 31.0862C13.9311 30.7117 14.1798 30.3372 14.4286 29.9626L13.1848 29.5881ZM11.0704 34.0825C10.946 34.2073 10.946 34.3322 10.946 34.5818C10.946 34.7067 10.8216 34.8315 10.8216 34.9564L11.941 35.4558C12.0654 35.0812 12.1898 34.7067 12.4385 34.3322L11.0704 34.0825ZM9.45347 38.8265C9.3291 39.2011 9.20472 39.5756 9.08034 40.075L10.3241 40.3247C10.4485 39.9501 10.5729 39.5756 10.5729 39.2011L9.45347 38.8265ZM8.33407 43.6955C8.33407 43.8203 8.33407 43.8203 8.33407 43.9451C8.33407 44.1948 8.20969 44.4445 8.20969 44.6942L9.45347 44.8191C9.45347 44.4445 9.57785 44.07 9.57785 43.5706L8.33407 43.6955ZM7.96094 48.6892C7.96094 49.0637 7.96094 49.4383 7.96094 49.8128H9.20472C9.20472 49.4383 9.20472 49.0638 9.20472 48.5644L7.96094 48.6892ZM9.3291 53.5581L8.08532 53.683C8.08532 53.9327 8.08532 54.0575 8.08532 54.3072C8.08532 54.3072 8.08532 54.3072 8.08532 54.432C8.08532 54.5569 8.08532 54.6817 8.08532 54.8066L9.3291 54.6817C9.3291 54.432 9.3291 54.0575 9.3291 53.5581ZM9.95099 58.427L8.70721 58.6767C8.83158 58.8016 8.83158 58.9264 8.83158 59.0513C8.83158 59.1761 8.95596 59.4258 8.95596 59.5506L10.1997 59.301C10.1997 59.1761 10.0754 58.8016 9.95099 58.427ZM11.1948 63.0463L10.0754 63.4208C10.0754 63.5457 10.1997 63.7953 10.1997 63.9202C10.1997 64.045 10.3241 64.2947 10.3241 64.4196L11.4435 64.045C11.4435 63.7953 11.3191 63.4208 11.1948 63.0463ZM13.0604 67.5407L11.941 68.04C12.0654 68.4146 12.3142 68.6643 12.4385 69.0388L13.558 68.4146C13.3092 68.2897 13.1848 67.9152 13.0604 67.5407ZM15.2992 71.7854L14.3042 72.4096C14.3042 72.4096 14.3042 72.5344 14.4286 72.5344C14.4286 72.6593 14.553 72.6593 14.553 72.7841C14.553 72.7841 14.553 72.7841 14.553 72.909C14.553 73.0338 14.6774 73.1586 14.6774 73.1586L15.6724 72.4096C15.7968 72.5344 15.548 72.1599 15.2992 71.7854ZM18.1599 75.7804L17.1649 76.5294C17.2893 76.6543 17.4137 76.904 17.6624 77.0288C17.7868 77.1536 17.7868 77.1536 17.9112 77.2785L18.9062 76.5294C18.6575 76.4046 18.4087 76.0301 18.1599 75.7804ZM21.3938 79.4008L20.5231 80.2747L20.6475 80.3996C20.8963 80.5244 21.0206 80.7741 21.2694 80.899L21.3938 81.0238L22.2644 80.1499C21.8913 79.9002 21.6425 79.6505 21.3938 79.4008ZM25.0007 82.5219L24.2545 83.5207C24.6276 83.7704 24.8764 84.0201 25.2495 84.2698L25.9958 83.271C25.6226 83.0213 25.2495 82.7716 25.0007 82.5219ZM28.9808 85.2685L28.3589 86.3921C28.4833 86.5169 28.6077 86.5169 28.7321 86.6418C28.8565 86.6418 28.8565 86.7666 28.9808 86.7666L29.6027 85.643C29.6027 85.643 29.354 85.5182 28.9808 85.2685ZM33.2097 87.5157L32.7122 88.6393C32.8366 88.6393 32.8366 88.7641 32.9609 88.7641C33.2097 88.889 33.4585 89.0138 33.7072 89.0138L34.2047 87.8902C33.956 87.8902 33.5828 87.7654 33.2097 87.5157ZM37.6873 89.2635L37.3142 90.5119C37.4385 90.5119 37.5629 90.6368 37.6873 90.6368C37.9361 90.7616 38.1848 90.7616 38.4336 90.8865L38.8067 89.638C38.558 89.5132 38.0604 89.3884 37.6873 89.2635ZM42.4137 90.3871L42.1649 91.6355C42.2893 91.6355 42.2893 91.6355 42.4137 91.6355C42.5381 91.6355 42.7868 91.6355 42.9112 91.7604L43.1599 90.5119C43.1599 90.6368 42.7868 90.5119 42.4137 90.3871ZM47.2644 91.0113L47.14 92.2598C47.2644 92.2598 47.5132 92.2598 47.6376 92.2598C47.8863 92.2598 48.0107 92.2598 48.2594 92.2598V91.0113C48.0107 91.1362 47.6376 91.0113 47.2644 91.0113ZM53.2346 91.0113C52.8614 91.0113 52.4883 91.0113 51.9908 91.1362V92.3846C51.9908 92.3846 51.9908 92.3846 52.1152 92.3846C52.1152 92.3846 52.1152 92.3846 52.2395 92.3846C52.2395 92.3846 52.2395 92.3846 52.3639 92.3846H52.4883L53.2346 91.0113ZM57.9609 90.3871C57.5878 90.5119 57.2147 90.5119 56.7172 90.6368L56.9659 91.8852C56.9659 91.8852 56.9659 91.8852 57.0903 91.8852C57.2147 91.8852 57.4634 91.7604 57.5878 91.7604L57.9609 90.3871ZM62.6873 89.1387C62.3142 89.2635 61.941 89.3883 61.5679 89.5132L61.941 90.7616C62.0654 90.7616 62.1898 90.7616 62.1898 90.6368C62.1898 90.6368 62.1898 90.6368 62.3142 90.6368C62.4385 90.6368 62.6873 90.5119 62.8117 90.5119L62.6873 89.1387ZM67.1649 87.3908C66.7918 87.5157 66.4187 87.7654 66.0455 87.8902L66.543 89.0138C66.6674 89.0138 66.6674 88.889 66.7918 88.889C66.7918 88.889 66.7918 88.889 66.9162 88.889C66.9162 88.889 67.0405 88.889 67.0405 88.7641L67.1649 87.3908ZM71.3938 85.0188C71.0206 85.2685 70.6475 85.3933 70.3988 85.643L71.0206 86.7666C71.0206 86.7666 71.145 86.7666 71.145 86.6418C71.3938 86.5169 71.6425 86.2673 72.0157 86.1424L71.3938 85.0188ZM75.3739 82.2722C75.0007 82.5219 74.752 82.7716 74.3789 83.0213L75.1251 84.0201C75.4983 83.7704 75.747 83.5207 76.1201 83.271L75.3739 82.2722ZM78.9808 79.0263C78.7321 79.276 78.3589 79.6505 78.1102 79.9002L78.9808 80.7741C79.1052 80.6493 79.2296 80.5244 79.354 80.3996L78.9808 79.0263ZM82.2147 75.4058C81.9659 75.7804 81.7172 76.0301 81.4684 76.4046L82.4634 77.1536C82.7122 76.904 82.9609 76.5294 83.2097 76.2797L82.2147 75.4058ZM84.951 71.4108C84.7022 71.7854 84.5779 72.1599 84.3291 72.4096L85.3241 73.0338C85.4485 72.909 85.4485 72.7841 85.5729 72.6593C85.6973 72.5344 85.8216 72.2847 85.946 72.035L84.951 71.4108ZM87.1898 67.1661C87.0654 67.5407 86.8167 67.9152 86.6923 68.2897L87.8117 68.7891C87.9361 68.4146 88.1848 68.04 88.3092 67.6655L87.1898 67.1661ZM88.9311 62.6717C88.8067 63.0463 88.6823 63.4208 88.5579 63.7953L89.6774 64.1699C89.8017 63.7953 89.9261 63.4208 90.0505 63.0463L88.9311 62.6717ZM90.0505 57.9277C89.9261 58.3022 89.9261 58.6767 89.8017 59.0513L91.0455 59.301V59.1761C91.0455 59.0513 91.1699 58.9264 91.1699 58.6767C91.1699 58.5519 91.1699 58.5519 91.1699 58.427L90.0505 57.9277ZM90.6724 53.0588C90.6724 53.4333 90.548 53.8078 90.548 54.3072L91.7918 54.432C91.7918 54.3072 91.7918 54.1824 91.7918 54.1824C91.7918 54.1824 91.7918 54.1824 91.7918 54.0575C91.7918 54.0575 91.7918 54.0575 91.7918 53.9327L90.6724 53.0588ZM92.0405 48.1898H90.7968C90.7968 48.5644 90.7968 48.9389 90.7968 49.4383H92.0405C92.0405 49.1886 92.0405 48.9389 92.0405 48.6892C92.0405 48.3147 92.0405 48.3147 92.0405 48.1898C92.0405 48.3147 92.0405 48.3147 92.0405 48.1898C92.0405 48.3147 92.0405 48.3147 92.0405 48.1898C92.0405 48.3147 92.0405 48.3147 92.0405 48.1898C92.0405 48.3147 92.0405 48.3147 92.0405 48.1898C92.0405 48.3147 92.0405 48.3147 92.0405 48.1898C92.0405 48.3147 92.0405 48.3147 92.0405 48.1898C92.0405 48.3147 92.0405 48.3147 92.0405 48.1898C92.0405 48.3147 92.0405 48.3147 92.0405 48.1898C92.0405 48.3147 92.0405 48.3147 92.0405 48.1898ZM91.543 43.1961L90.2992 43.4458C90.4236 43.8203 90.4236 44.1948 90.4236 44.6942L91.6674 44.5694C91.6674 44.07 91.543 43.6955 91.543 43.1961ZM90.4236 38.3272L89.1798 38.7017C89.3042 39.0762 89.4286 39.4508 89.553 39.8253L90.7968 39.5756C90.6724 39.2011 90.548 38.8265 90.4236 38.3272ZM88.8067 33.7079L87.6873 34.2073C87.8117 34.5818 87.9361 34.9564 88.1848 35.3309L89.3042 34.8315C89.3042 34.7067 89.1798 34.5818 89.1798 34.3322C88.9311 34.0825 88.8067 33.8328 88.8067 33.7079ZM86.5679 29.2136L85.4485 29.8378C85.6973 30.2123 85.8216 30.5868 86.0704 30.8365L87.1898 30.2123C87.0654 30.0875 87.0654 29.9626 86.941 29.8378C86.5679 29.3384 86.5679 29.3384 86.5679 29.2136C86.5679 29.3384 86.5679 29.3384 86.5679 29.2136ZM83.8316 24.9689L82.8366 25.7179C83.0853 26.0925 83.3341 26.3421 83.5828 26.7167L84.5779 25.9676C84.2047 25.5931 84.0803 25.3434 83.8316 24.9689ZM80.5977 21.2235L79.7271 22.0974C79.9759 22.3471 80.2246 22.7217 80.5977 22.9714L81.4684 22.0974C81.344 21.9726 81.344 21.8478 81.2196 21.8478C80.7221 21.3484 80.7221 21.3484 80.5977 21.2235C80.7221 21.3484 80.7221 21.3484 80.5977 21.2235C80.7221 21.3484 80.7221 21.2235 80.5977 21.2235C80.7221 21.2235 80.7221 21.2235 80.5977 21.2235C80.7221 21.2235 80.7221 21.2235 80.5977 21.2235C80.7221 21.2235 80.7221 21.2235 80.5977 21.2235C80.7221 21.2235 80.7221 21.2235 80.5977 21.2235C80.7221 21.2235 80.7221 21.2235 80.5977 21.2235C80.7221 21.2235 80.7221 21.2235 80.5977 21.2235C80.7221 21.2235 80.7221 21.2235 80.5977 21.2235C80.7221 21.2235 80.5977 21.2235 80.5977 21.2235ZM76.9908 17.7279L76.2445 18.7267C76.4933 18.9763 76.8664 19.226 77.1152 19.4757L77.9858 18.6018C77.3639 18.1024 77.2395 17.9776 76.9908 17.7279ZM73.0107 14.8565L72.3888 15.8552C72.7619 16.1049 73.0107 16.3546 73.3838 16.4795L74.1301 15.4807L74.0057 15.3559C73.6326 15.231 73.2594 14.9813 73.0107 14.8565ZM68.6575 12.3596L68.1599 13.4832C68.5331 13.6081 68.9062 13.8577 69.2793 13.9826L69.9012 12.859C69.4037 12.6093 69.0306 12.4845 68.6575 12.3596C68.7818 12.3596 68.7818 12.3596 68.6575 12.3596C68.7818 12.3596 68.7818 12.3596 68.6575 12.3596C68.7818 12.3596 68.7818 12.3596 68.6575 12.3596C68.7818 12.3596 68.7818 12.3596 68.6575 12.3596C68.7818 12.3596 68.7818 12.3596 68.6575 12.3596C68.7818 12.3596 68.7818 12.3596 68.6575 12.3596C68.7818 12.3596 68.7818 12.3596 68.6575 12.3596C68.7818 12.3596 68.6575 12.3596 68.6575 12.3596ZM64.1798 10.3621L63.8067 11.4857C64.1798 11.6106 64.553 11.7354 64.9261 11.8602L65.4236 10.7366C64.8017 10.6118 64.553 10.487 64.1798 10.3621ZM59.3291 8.98883L59.0803 10.2373C59.4535 10.3621 59.8266 10.3621 60.1997 10.487L60.5729 9.23852C60.3241 9.23852 60.1997 9.11367 59.951 9.11367C59.5779 8.98883 59.4535 8.98883 59.3291 8.98883ZM54.4784 8.11492L54.354 9.36336C54.7271 9.36336 55.1002 9.48821 55.5978 9.48821L55.7221 8.23977C55.1002 8.23977 54.8515 8.23977 54.4784 8.11492ZM50.0007 7.86523V9.11367C50.2495 9.11367 50.4983 9.11367 50.747 9.11367V7.86523C50.6226 7.86523 50.4983 7.86523 50.3739 7.86523C50.1251 7.86523 50.1251 7.86523 50.0007 7.86523C50.1251 7.86523 50.1251 7.86523 50.0007 7.86523C50.1251 7.86523 50.1251 7.86523 50.0007 7.86523C50.1251 7.86523 50.1251 7.86523 50.0007 7.86523C50.1251 7.86523 50.1251 7.86523 50.0007 7.86523Z" fill="#489BFD"/>
<path d="M50.124 73.9076C37.0643 73.9076 26.4922 63.2959 26.4922 50.1873C26.4922 37.0787 37.0643 26.4669 50.124 26.4669C63.1837 26.4669 73.7559 37.0787 73.7559 50.1873C73.7559 63.2959 63.1837 73.9076 50.124 73.9076ZM50.124 28.9638C38.4325 28.9638 28.9797 38.4519 28.9797 50.1873C28.9797 61.9226 38.4325 71.4108 50.124 71.4108C61.8156 71.4108 71.2683 61.9226 71.2683 50.1873C71.2683 38.4519 61.8156 28.9638 50.124 28.9638Z" fill="#036FF5"/>
<path d="M50.1244 58.9263C45.2737 58.9263 41.418 55.0561 41.418 50.1872C41.418 45.3183 45.2737 41.4481 50.1244 41.4481C54.9752 41.4481 58.8309 45.3183 58.8309 50.1872C58.8309 55.0561 54.9752 58.9263 50.1244 58.9263ZM50.1244 43.945C46.6418 43.945 43.9055 46.6916 43.9055 50.1872C43.9055 53.6828 46.6418 56.4294 50.1244 56.4294C53.607 56.4294 56.3433 53.6828 56.3433 50.1872C56.3433 46.6916 53.607 43.945 50.1244 43.945Z" fill="#036FF5"/>
<path d="M50.1243 52.6841C51.4981 52.6841 52.6118 51.5662 52.6118 50.1872C52.6118 48.8082 51.4981 47.6903 50.1243 47.6903C48.7504 47.6903 47.6367 48.8082 47.6367 50.1872C47.6367 51.5662 48.7504 52.6841 50.1243 52.6841Z" fill="#036FF5"/>
<path d="M50.1248 33.9575C50.1248 33.9575 50.0004 33.9575 50.1248 33.9575C50.0004 33.9575 50.0004 33.9575 50.1248 33.9575C50.0004 33.9575 50.0004 33.9575 50.1248 33.9575C50.0004 33.9575 50.0004 33.9575 50.1248 33.9575C50.0004 33.9575 50.0004 33.9575 50.0004 33.9575C48.881 33.9575 47.7616 34.0824 46.6422 34.3321L47.2641 36.7041C48.2591 36.4544 49.3785 36.3296 50.3735 36.3296L50.1248 33.9575ZM40.7964 36.9538C40.0501 37.4532 39.4282 37.9525 38.682 38.7016C38.5576 38.8264 38.4332 38.9513 38.3088 39.0761L40.1745 40.6991C40.9208 39.95 41.6671 39.201 42.5377 38.5767L40.7964 36.9538ZM34.9506 44.6941C34.9506 44.8189 34.9506 44.8189 34.9506 44.6941C34.9506 44.8189 34.9506 44.8189 34.9506 44.6941C34.9506 44.8189 34.9506 44.8189 34.9506 44.6941C34.9506 44.8189 34.9506 44.8189 34.9506 44.6941C34.9506 44.8189 34.9506 44.8189 34.9506 44.6941C34.9506 44.8189 34.9506 44.8189 34.9506 44.6941C34.8263 44.8189 34.8263 44.8189 34.9506 44.6941C34.8263 44.8189 34.8263 44.8189 34.9506 44.6941C34.8263 44.8189 34.8263 44.8189 34.9506 44.6941C34.8263 44.8189 34.8263 44.8189 34.9506 44.6941C34.8263 44.8189 34.8263 44.8189 34.9506 44.6941C34.8263 44.8189 34.8263 44.8189 34.9506 44.6941C34.8263 44.8189 34.8263 44.8189 34.9506 44.6941C34.8263 44.8189 34.8263 44.8189 34.9506 44.6941C34.8263 44.8189 34.8263 44.8189 34.9506 44.6941C34.8263 44.8189 34.8263 44.8189 34.9506 44.6941C34.8263 44.8189 34.8263 44.8189 34.9506 44.6941C34.9506 44.8189 34.9506 44.8189 34.9506 44.8189C34.9506 44.8189 34.9506 44.8189 34.9506 44.9438C34.9506 45.0686 34.8263 45.3183 34.8263 45.4432V45.568C34.7019 45.9425 34.7019 46.1922 34.5775 46.5668C34.5775 46.5668 34.5775 46.5668 34.5775 46.6916C34.5775 46.9413 34.4531 47.191 34.4531 47.4407L36.9407 47.6904C36.9407 47.0661 37.0651 46.5668 37.1894 45.9425C37.3138 45.4432 37.4382 44.9438 37.5626 44.5693L34.9506 44.6941ZM36.9407 53.9326L34.5775 54.5568C34.7019 55.181 34.9506 55.6804 35.1994 56.3046C35.4482 56.804 35.5725 57.1785 35.8213 57.6779L37.9357 56.4294C37.687 55.9301 37.3138 54.9313 36.9407 53.9326ZM41.5427 60.799L39.9258 62.7965C40.7964 63.4207 41.6671 64.0449 42.6621 64.5443C42.6621 64.5443 42.6621 64.5443 42.7865 64.5443L43.9059 62.2971C43.284 62.0474 42.4133 61.548 41.5427 60.799ZM52.3636 63.6704C51.6173 63.7952 50.871 63.9201 50.1248 63.9201C49.876 63.9201 49.5029 63.9201 49.2541 63.9201L49.1297 66.417H49.2541C49.5029 66.417 49.7516 66.417 50.0004 66.417C50.7467 66.417 51.3685 66.2921 52.1148 66.1673L52.3636 63.6704ZM59.8263 59.9251C59.08 60.6741 58.2093 61.2983 57.3387 61.9226L58.5825 64.0449C59.3287 63.5455 59.9506 62.9213 60.6969 62.2971L59.8263 59.9251ZM63.682 52.5593C63.682 52.809 63.5576 53.0586 63.5576 53.3083C63.4332 54.0574 63.1845 54.8065 62.8113 55.5555L65.0501 56.5543C65.1745 56.1797 65.2989 55.9301 65.4233 55.5555C65.5477 55.3058 65.5476 54.9313 65.5476 54.6816L63.682 52.5593ZM64.8014 43.196L62.5626 44.3196C63.0601 45.3183 63.3088 46.3171 63.5576 47.3158L66.0452 46.8164C65.9208 46.4419 65.9208 46.0674 65.7964 45.6929C65.2989 44.5693 65.0501 43.8202 64.8014 43.196ZM58.085 35.955L56.8412 38.0774C57.7118 38.5767 58.5825 39.201 59.3287 39.95L61.07 38.0774C61.07 38.0774 61.07 38.0774 60.9457 38.0774C58.5825 36.3296 58.3337 36.0799 58.085 35.955ZM50.1248 33.9575V36.4544C50.7467 36.4544 51.3685 36.4544 51.8661 36.5792L52.2392 34.0824C51.4929 33.9575 50.871 33.9575 50.1248 33.9575Z" fill="#79B5FD"/>
<path d="M51.3674 21.3483H48.8799V30.0873H51.3674V21.3483Z" fill="#036FF5"/>
<path d="M51.3674 70.1622H48.8799V78.9013H51.3674V70.1622Z" fill="#036FF5"/>
<path d="M78.8549 48.9387H70.1484V51.4356H78.8549V48.9387Z" fill="#036FF5"/>
<path d="M30.224 48.9387H21.5176V51.4356H30.224V48.9387Z" fill="#036FF5"/>
<path d="M72.0153 35.3309L65.0502 35.2061L64.9258 28.2148L75.8711 17.2285L75.9954 24.2198L82.9606 24.3446L72.0153 35.3309ZM67.5377 32.7092H71.0203L77.1148 26.5918H73.6322V23.0962L67.5377 29.2135V32.7092Z" fill="#036FF5"/>
<path d="M73.8803 25.0938C73.5072 25.0938 73.2584 25.2186 73.0097 25.4683L50.1241 48.4396C49.6266 48.9389 49.6266 49.688 50.1241 50.1874C50.3729 50.4371 50.746 50.5619 50.9948 50.5619C51.2435 50.5619 51.6166 50.4371 51.8654 50.1874L74.751 27.2161C75.2485 26.7167 75.2485 25.9677 74.751 25.4683C74.6266 25.2186 74.2535 25.0938 73.8803 25.0938Z" fill="#036FF5"/>
</svg>
