<svg width="100" height="100" viewBox="0 0 100 100" fill="none" xmlns="http://www.w3.org/2000/svg">
<path d="M49.9986 100C41.4165 100 32.8345 97.7584 25.3718 93.5243C22.3867 91.7808 19.526 89.7883 16.9141 87.5467L18.531 85.6787C21.0185 87.9203 23.7549 89.7883 26.6156 91.4072C33.7051 95.3923 41.7897 97.5093 49.9986 97.5093C55.2225 97.5093 60.4464 96.6376 65.4215 94.8941L66.1678 97.2603C60.9439 99.1283 55.4713 100 49.9986 100Z" fill="#E3F1FF"/>
<path d="M74.8756 93.3997L73.6318 91.2826C75.6219 90.1619 77.4876 88.792 79.3532 87.4221L80.8458 89.4147C78.9801 90.7845 76.99 92.1544 74.8756 93.3997Z" fill="#E3F1FF"/>
<path d="M7.08955 75.8406C5.47264 73.2254 4.22886 70.4857 3.10945 67.7459C1.1194 62.0174 0 56.0398 0 50.0623C0 22.4159 22.3881 0 50 0C77.6119 0 100 22.4159 100 50.0623C100 58.7796 97.7612 67.3724 93.408 74.9689L91.2935 73.7235C95.398 66.6252 97.5124 58.406 97.5124 50.0623C97.3881 23.7858 76.1194 2.49066 50 2.49066C23.7562 2.49066 2.48756 23.7858 2.48756 50.0623C2.48756 55.7908 3.48259 61.5193 5.47264 66.8742C6.46766 69.4894 7.71144 72.1046 9.20398 74.5953L7.08955 75.8406Z" fill="#E3F1FF"/>
<path d="M50.0001 83.6862C68.5469 83.6862 83.5821 68.6322 83.5821 50.0623C83.5821 31.4923 68.5469 16.4384 50.0001 16.4384C31.4532 16.4384 16.418 31.4923 16.418 50.0623C16.418 68.6322 31.4532 83.6862 50.0001 83.6862Z" fill="#E3F1FF"/>
<path d="M99.8753 49.8132H97.3877C97.3877 23.6613 76.119 2.49066 50.124 2.49066V0C77.6116 0 99.8753 22.4159 99.8753 49.8132Z" fill="#036FF5"/>
<path d="M50.0007 7.84558C49.8764 7.84558 49.8764 7.84558 50.0007 7.84558C49.8764 7.84558 49.8764 7.84558 50.0007 7.84558C49.8764 7.84558 49.8764 7.84558 50.0007 7.84558C49.8764 7.84558 49.8764 7.84558 50.0007 7.84558C49.8764 7.84558 49.8764 7.84558 50.0007 7.84558C49.8764 7.84558 49.8764 7.84558 50.0007 7.84558C49.8764 7.84558 49.8764 7.84558 50.0007 7.84558C49.8764 7.84558 49.8764 7.84558 50.0007 7.84558C49.8764 7.84558 49.8764 7.84558 50.0007 7.84558C49.8764 7.84558 49.8764 7.84558 50.0007 7.84558C49.8764 7.84558 49.8764 7.84558 50.0007 7.84558C49.8764 7.84558 49.8764 7.84558 49.8764 7.84558C49.8764 7.84558 49.8764 7.84558 49.752 7.84558H49.6276C49.5032 7.84558 49.3788 7.84558 49.2545 7.84558V9.09091C49.6276 9.09091 50.0007 9.09091 50.4982 9.09091V7.84558H50.0007ZM45.0256 8.21918C44.6525 8.21918 44.2793 8.34371 44.0306 8.34371C44.0306 8.34371 44.0306 8.34371 43.9062 8.34371L44.0306 9.58904C44.4037 9.58904 44.7769 9.46451 45.2744 9.46451L45.0256 8.21918ZM40.0505 9.09091C39.9261 9.09091 39.9261 9.09091 39.8017 9.21544C39.8017 9.21544 39.8017 9.21544 39.6774 9.21544C39.553 9.21544 39.3042 9.33998 39.1798 9.33998L39.553 10.5853C39.9261 10.4608 40.2992 10.3362 40.6724 10.3362L40.0505 9.09091ZM35.3241 10.4608C35.1997 10.4608 34.951 10.5853 34.8266 10.5853C34.5779 10.7098 34.4535 10.7098 34.2047 10.8344L34.7022 11.9552C35.0754 11.8306 35.4485 11.7061 35.8216 11.457L35.3241 10.4608ZM30.8465 12.4533C30.7221 12.4533 30.7221 12.5778 30.8465 12.4533C30.7221 12.5778 30.7221 12.5778 30.8465 12.4533C30.7221 12.5778 30.7221 12.5778 30.8465 12.4533C30.7221 12.5778 30.7221 12.5778 30.8465 12.4533C30.7221 12.5778 30.7221 12.5778 30.8465 12.4533C30.7221 12.5778 30.7221 12.5778 30.8465 12.4533C30.7221 12.5778 30.7221 12.5778 30.8465 12.4533C30.7221 12.5778 30.7221 12.5778 30.8465 12.4533C30.7221 12.5778 30.7221 12.5778 30.7221 12.5778C30.4734 12.7024 30.2246 12.8269 29.9759 12.9514L30.5978 14.0722C30.9709 13.8232 31.344 13.6986 31.7172 13.4496L30.8465 12.4533ZM26.4933 15.0685C26.1201 15.3176 25.747 15.5666 25.4983 15.8157L26.2445 16.812C26.6177 16.5629 26.8664 16.3138 27.2395 16.0648L26.4933 15.0685ZM22.5132 18.0573C22.14 18.3064 21.8913 18.5554 21.6425 18.929L22.5132 19.8007C22.7619 19.5517 23.1351 19.3026 23.3838 19.0536L22.5132 18.0573ZM19.0306 21.5442C18.7818 21.7933 18.6575 21.9178 18.4087 22.1669C18.2843 22.2914 18.2843 22.2914 18.1599 22.4159L19.155 23.2877C19.4037 23.0386 19.6525 22.665 19.9012 22.4159L19.0306 21.5442ZM15.7968 25.4047C15.6724 25.5293 15.548 25.7783 15.4236 25.9029C15.2992 26.0274 15.2992 26.0274 15.1749 26.1519C15.1749 26.1519 15.1749 26.1519 15.1749 26.2765L16.1699 27.0237C16.4186 26.6501 16.6674 26.401 16.9162 26.0274L15.7968 25.4047ZM13.1848 29.5143C13.1848 29.6389 13.0604 29.7634 13.0604 29.8879C12.9361 30.137 12.8117 30.2615 12.6873 30.5106L13.8067 31.1333C13.9311 30.7597 14.1798 30.3861 14.4286 30.0125L13.1848 29.5143ZM10.946 33.9975C10.8216 34.122 10.8216 34.3711 10.6973 34.4956C10.6973 34.6202 10.5729 34.7447 10.5729 34.9938L11.6923 35.4919C11.8167 35.1183 11.941 34.7447 12.1898 34.3711L10.946 33.9975ZM9.45347 38.7298C9.3291 39.1034 9.20472 39.477 9.08034 39.9751L10.3241 40.2242C10.4485 39.8506 10.5729 39.477 10.5729 39.1034L9.45347 38.7298ZM8.33407 43.5866C8.33407 43.7111 8.33407 43.7111 8.33407 43.8356C8.33407 44.0847 8.20969 44.4583 8.20969 44.7074L9.45347 44.8319C9.45347 44.4583 9.57785 44.0847 9.57785 43.5866H8.33407ZM7.96094 48.5679C7.96094 48.9415 7.96094 49.3151 7.96094 49.6887H9.20472C9.20472 49.3151 9.20472 48.9415 9.20472 48.4433L7.96094 48.5679ZM9.20472 53.4247L7.96094 53.5492V53.6737V53.7983C7.96094 54.1719 7.96094 54.4209 8.08532 54.7945L9.3291 54.67C9.3291 54.2964 9.3291 53.9228 9.20472 53.4247ZM9.95099 58.2814L8.70721 58.5305C8.70721 58.7796 8.83158 59.0286 8.83158 59.2777C8.83158 59.4022 8.83158 59.5268 8.95596 59.6513L10.1997 59.4022C10.0754 59.0286 10.0754 58.655 9.95099 58.2814ZM11.1948 62.8892L9.95099 63.2628C10.0754 63.6364 10.1997 64.01 10.3241 64.3836L11.4435 64.01C11.4435 63.6364 11.3191 63.2628 11.1948 62.8892ZM12.9361 67.3724L11.8167 67.8705V67.995C11.941 68.2441 12.0654 68.6177 12.3142 68.8667L13.4336 68.2441C13.3092 68.1196 13.1848 67.746 12.9361 67.3724ZM15.2992 71.6065L14.3042 72.2291C14.4286 72.3537 14.4286 72.4782 14.553 72.6027C14.6774 72.7273 14.8017 72.9763 14.9261 73.1009L15.9211 72.3537C15.6724 72.3537 15.548 71.9801 15.2992 71.6065ZM18.0356 75.5915L17.0405 76.3387C17.1649 76.4633 17.2893 76.7123 17.4137 76.8369C17.5381 76.9614 17.6624 77.0859 17.6624 77.2105L18.6575 76.4633C18.5331 76.2142 18.2843 75.8406 18.0356 75.5915ZM21.2694 79.203L20.3987 80.0747C20.6475 80.3238 21.0206 80.6974 21.2694 80.9464L22.14 80.0747C21.8913 79.7011 21.6425 79.4521 21.2694 79.203ZM25.0007 82.3163L24.2545 83.3126C24.6276 83.5616 24.8764 83.8107 25.2495 84.0598L25.9958 83.0635C25.6226 82.8144 25.2495 82.5654 25.0007 82.3163ZM28.9808 85.056L28.3589 86.1768C28.4833 86.3014 28.6077 86.3014 28.7321 86.4259C28.8565 86.4259 28.9808 86.5504 28.9808 86.5504L29.6027 85.4296C29.6027 85.4296 29.2296 85.3051 28.9808 85.056ZM33.2097 87.2976L32.7122 88.4184C32.8366 88.4184 32.9609 88.543 32.9609 88.543C33.2097 88.6675 33.3341 88.6675 33.5828 88.792L34.0803 87.6712C33.956 87.6712 33.5828 87.5467 33.2097 87.2976ZM37.6873 89.0411L37.3142 90.2864C37.5629 90.411 37.6873 90.4109 37.9361 90.4109C37.9361 90.4109 37.9361 90.4109 38.0604 90.4109L38.4336 89.1656C38.4336 89.2902 38.0604 89.1656 37.6873 89.0411ZM42.4137 90.1619L42.1649 91.4072C42.2893 91.4072 42.5381 91.4072 42.6624 91.5318C42.6624 91.5318 42.6624 91.5318 42.7868 91.5318C42.9112 91.5318 43.0356 91.5318 43.1599 91.5318L43.4087 90.2864C43.1599 90.411 42.7868 90.2864 42.4137 90.1619ZM47.14 90.7846L47.0157 92.0299C47.14 92.0299 47.3888 92.0299 47.5132 92.0299C47.7619 92.0299 47.8863 92.0299 48.1351 92.0299V90.7846C48.0107 90.9091 47.6376 90.7846 47.14 90.7846ZM53.2346 90.7846C52.8614 90.7846 52.4883 90.7846 51.9908 90.9091V92.1544C51.9908 92.1544 51.9908 92.1544 52.1152 92.1544H52.2395L53.2346 90.7846ZM57.9609 90.1619C57.5878 90.2864 57.2147 90.2864 56.7172 90.4109L56.9659 91.6563H57.0903C57.2147 91.6563 57.339 91.6563 57.339 91.6563L57.9609 90.1619ZM62.6873 88.9166C62.3142 89.0411 61.941 89.1656 61.5679 89.2902L61.941 90.5355C62.0654 90.5355 62.3142 90.4109 62.4385 90.4109C62.4385 90.4109 62.4385 90.4109 62.5629 90.4109C62.6873 90.4109 62.8117 90.2864 62.9361 90.2864L62.6873 88.9166ZM67.1649 87.1731C66.7918 87.2976 66.4186 87.5467 66.0455 87.6712L66.543 88.792C66.7918 88.6675 67.0405 88.543 67.2893 88.4184C67.4137 88.4184 67.538 88.2939 67.538 88.2939L67.1649 87.1731ZM71.3938 84.807C71.0206 85.056 70.6475 85.1806 70.3987 85.4296L71.0206 86.5504C71.0206 86.5504 71.0206 86.5504 71.145 86.5504C71.3938 86.4259 71.6425 86.3014 71.8913 86.0523H72.0157L71.3938 84.807ZM75.3739 82.0673C75.0007 82.3163 74.752 82.5654 74.3788 82.8144L75.1251 83.8107C75.2495 83.6862 75.3739 83.5616 75.4983 83.5616C75.6226 83.4371 75.747 83.3126 75.8714 83.3126C75.8714 83.3126 75.8714 83.3126 75.9958 83.188L75.3739 82.0673ZM78.9808 78.8294C78.7321 79.0785 78.3589 79.4521 78.1102 79.7011L78.9808 80.5728C79.2296 80.3238 79.4783 80.0747 79.7271 79.8257C79.7271 79.8257 79.7271 79.8257 79.8515 79.7011L78.9808 78.8294ZM82.0903 75.2179C81.8415 75.5915 81.5928 75.8406 81.344 76.2142L82.339 76.9614C82.5878 76.5878 82.8366 76.3387 83.0853 75.9651L82.0903 75.2179ZM84.8266 71.2329C84.5779 71.6065 84.4535 71.9801 84.2047 72.2291L85.1997 72.8518C85.1997 72.8518 85.3241 72.7273 85.3241 72.6027C85.3241 72.4782 85.4485 72.4782 85.4485 72.3537L84.8266 71.2329ZM87.1898 66.9988C87.0654 67.3724 86.8167 67.746 86.6923 68.1196L87.8117 68.6177C87.9361 68.2441 88.1848 67.8705 88.3092 67.4969L87.1898 66.9988ZM88.9311 62.5156C88.8067 62.8892 88.6823 63.2628 88.5579 63.6364L89.6774 64.01C89.8017 63.7609 89.8017 63.5118 89.9261 63.2628C89.9261 63.1382 89.9261 63.1382 90.0505 63.0137L88.9311 62.5156ZM90.0505 57.7833C89.9261 58.1569 89.9261 58.5305 89.8017 58.9041L91.0455 59.1532C91.0455 58.9041 91.1699 58.7796 91.1699 58.5305C91.1699 58.406 91.2943 58.1569 91.2943 58.0324L90.0505 57.7833ZM90.6724 52.9265C90.6724 53.3001 90.548 53.6737 90.548 54.1719L91.7918 54.2964V54.1719C91.7918 54.0473 91.7918 53.9228 91.7918 53.9228L90.6724 52.9265ZM92.0405 48.0697H90.7968C90.7968 48.4433 90.7968 48.8169 90.7968 49.3151H92.0405C92.0405 49.066 92.0405 48.8169 92.0405 48.5679C92.0405 48.5679 92.0405 48.5679 92.0405 48.4433C92.0405 48.1943 92.0405 48.1943 92.0405 48.0697C92.0405 48.1943 92.0405 48.1943 92.0405 48.0697C92.0405 48.1943 92.0405 48.1943 92.0405 48.0697C92.0405 48.1943 92.0405 48.1943 92.0405 48.0697C92.0405 48.1943 92.0405 48.0697 92.0405 48.0697ZM91.543 43.0884L90.2992 43.3375C90.4236 43.7111 90.4236 44.0847 90.4236 44.5828L91.6674 44.4583C91.6674 43.9602 91.543 43.5866 91.543 43.0884ZM90.4236 38.2316L89.1798 38.6052C89.3042 38.9788 89.4286 39.3524 89.553 39.726L90.7968 39.477C90.6724 39.1034 90.548 38.7298 90.4236 38.2316ZM88.6823 33.6239L87.5629 34.122C87.6873 34.4956 87.8117 34.8692 88.0604 35.2428L89.1798 34.7447V34.6202C89.1798 34.4956 89.0555 34.3711 89.0555 34.2466C88.8067 33.873 88.8067 33.7484 88.6823 33.6239ZM86.5679 29.1407L85.4485 29.7634C85.6973 30.137 85.8216 30.5106 86.0704 30.7597L87.1898 30.137C86.8167 29.7634 86.6923 29.3898 86.5679 29.1407ZM83.8316 24.9066L82.8366 25.6538C83.0853 26.0274 83.3341 26.2765 83.5828 26.6501L84.5779 25.9029C84.4535 25.7783 84.4535 25.6538 84.3291 25.5293C84.0803 25.2802 83.956 25.1557 83.8316 24.9066ZM80.5978 21.1706L79.7271 22.0423C79.9759 22.2914 80.2246 22.665 80.5978 22.9141L81.4684 22.0423C81.2196 21.7933 80.8465 21.4197 80.5978 21.1706ZM76.9908 17.6837L76.2445 18.68C76.4933 18.929 76.8664 19.1781 77.1152 19.4271L77.9858 18.5554C77.8614 18.4309 77.7371 18.3064 77.4883 18.1818C77.1152 17.8082 77.1152 17.8082 76.9908 17.6837C77.1152 17.8082 77.1152 17.8082 76.9908 17.6837C77.1152 17.8082 77.1152 17.8082 76.9908 17.6837C77.1152 17.8082 77.1152 17.8082 76.9908 17.6837C77.1152 17.8082 77.1152 17.8082 76.9908 17.6837C77.1152 17.8082 77.1152 17.8082 76.9908 17.6837C76.9908 17.8082 76.9908 17.8082 76.9908 17.6837ZM73.0107 14.8194L72.3888 15.8157C72.7619 16.0648 73.0107 16.3138 73.3838 16.4384L74.1301 15.4421C73.5082 15.0685 73.2594 14.944 73.0107 14.8194ZM68.6575 12.3288L68.1599 13.4496C68.5331 13.5741 68.9062 13.8232 69.2793 13.9477L69.9012 12.8269C69.4037 12.7024 69.0306 12.4533 68.6575 12.3288ZM64.0555 10.3362L63.6823 11.457C64.0555 11.5816 64.4286 11.7061 64.8017 11.8306L65.2992 10.7098C65.2992 10.7098 65.2992 10.7098 65.1749 10.7098C64.6774 10.5853 64.4286 10.4608 64.0555 10.3362ZM59.3291 8.96638L59.0803 10.2117C59.4535 10.3362 59.8266 10.3362 60.1997 10.4608L60.5729 9.21544C60.4485 9.21544 60.3241 9.21544 60.1997 9.09091C60.0754 9.09091 59.951 8.96638 59.7022 8.96638C59.4535 8.96638 59.4535 8.96638 59.3291 8.96638ZM54.4783 8.09465L54.354 9.33998C54.7271 9.33998 55.1002 9.46451 55.5978 9.46451L55.7221 8.21918C55.2246 8.21918 54.8515 8.21918 54.4783 8.09465ZM50.0007 7.84558V9.09091C50.2495 9.09091 50.4982 9.09091 50.747 9.09091V7.84558C50.6226 7.84558 50.4982 7.84558 50.3739 7.84558C50.1251 7.84558 50.1251 7.84558 50.0007 7.84558C50.1251 7.84558 50.1251 7.84558 50.0007 7.84558C50.1251 7.84558 50.0007 7.84558 50.0007 7.84558Z" fill="#489BFD"/>
<path d="M80.4734 62.2666V65.3799L49.1301 83.4372L23.1351 68.4932L26.8664 66.3762L24.3789 65.2554L18.9062 68.4932L49.1301 85.9279L83.5829 66.0026V60.8967L80.4734 62.2666Z" fill="#036FF5"/>
<path d="M62.8105 38.6052C56.2185 38.6052 49.1289 36.3636 49.1289 32.3785H51.6165C51.6165 33.8729 55.9697 36.1145 62.8105 36.1145C69.6513 36.1145 74.0045 33.8729 74.0045 32.3785H76.4921C76.4921 36.3636 69.4025 38.6052 62.8105 38.6052Z" fill="#036FF5"/>
<path d="M62.8105 31.1332C56.2185 31.1332 49.1289 28.8916 49.1289 24.9066C49.1289 20.9215 56.2185 18.6799 62.8105 18.6799C69.4025 18.6799 76.4921 20.9215 76.4921 24.9066C76.4921 28.8916 69.4025 31.1332 62.8105 31.1332ZM62.8105 21.1706C55.9697 21.1706 51.6165 23.4122 51.6165 24.9066C51.6165 26.401 55.9697 28.6426 62.8105 28.6426C69.6513 28.6426 74.0045 26.401 74.0045 24.9066C74.0045 23.4122 69.6513 21.1706 62.8105 21.1706Z" fill="#036FF5"/>
<path d="M51.6165 24.7821H49.1289V32.3786H51.6165V24.7821Z" fill="#036FF5"/>
<path d="M76.4924 24.7821H74.0049V32.3786H76.4924V24.7821Z" fill="#036FF5"/>
<path d="M54.7259 44.9564C51.119 43.8356 49.1289 41.9676 49.1289 39.8506H51.6165C51.6165 40.5978 52.8602 41.7186 55.4722 42.5903L54.7259 44.9564Z" fill="#036FF5"/>
<path d="M71.2687 44.8319L70.5225 42.4658C73.01 41.594 74.1294 40.5978 74.1294 39.8506H76.617C76.4926 41.9676 74.6269 43.7111 71.2687 44.8319Z" fill="#036FF5"/>
<path d="M51.6165 32.3785H49.1289V39.9751H51.6165V32.3785Z" fill="#036FF5"/>
<path d="M76.4924 32.3785H74.0049V39.9751H76.4924V32.3785Z" fill="#036FF5"/>
<path d="M31.3427 50.1869C24.7507 50.1869 17.6611 47.9453 17.6611 43.9602H20.1487C20.1487 45.4546 24.5019 47.6962 31.3427 47.6962C38.1835 47.6962 42.5368 45.4546 42.5368 43.9602H45.0243C45.0243 48.0698 37.9348 50.1869 31.3427 50.1869Z" fill="#036FF5"/>
<path d="M31.3427 42.7149C24.7507 42.7149 17.6611 40.4733 17.6611 36.4882C17.6611 32.5032 24.7507 30.2616 31.3427 30.2616C37.9348 30.2616 45.0243 32.5032 45.0243 36.4882C45.0243 40.4733 37.9348 42.7149 31.3427 42.7149ZM31.3427 32.7523C24.5019 32.7523 20.1487 34.9939 20.1487 36.4882C20.1487 37.9826 24.5019 40.2242 31.3427 40.2242C38.1835 40.2242 42.5368 37.9826 42.5368 36.4882C42.5368 34.9939 38.0591 32.7523 31.3427 32.7523Z" fill="#036FF5"/>
<path d="M20.1487 36.4883H17.6611V44.0848H20.1487V36.4883Z" fill="#036FF5"/>
<path d="M45.0256 36.4883H42.5381V44.0848H45.0256V36.4883Z" fill="#036FF5"/>
<path d="M31.3427 57.7833C24.7507 57.7833 17.6611 55.5417 17.6611 51.5566H20.1487C20.1487 53.051 24.5019 55.2926 31.3427 55.2926C31.8402 55.2926 32.3377 55.2926 32.8353 55.2926H33.3328V57.7833H32.9596C32.3377 57.7833 31.8402 57.7833 31.3427 57.7833Z" fill="#036FF5"/>
<path d="M20.1487 43.9602H17.6611V51.5567H20.1487V43.9602Z" fill="#036FF5"/>
<path d="M45.0256 43.9602H42.5381V50.3114H45.0256V43.9602Z" fill="#036FF5"/>
<path d="M83.5829 49.8132L63.1849 37.9825L18.9062 63.5118L49.0058 80.9464L83.5829 61.0211V49.8132ZM80.349 57.9078L75.9958 55.4172L80.4734 52.802L80.349 57.9078ZM63.0605 40.3487L80.349 50.3113L71.7669 55.2926L80.349 60.274L49.0058 78.4558L23.1351 63.5118L63.0605 40.3487Z" fill="#036FF5"/>
<path d="M69.2792 60.5231L54.2295 51.8058L56.3439 50.5604L71.3937 59.2777L69.2792 60.5231Z" fill="#036FF5"/>
<path d="M64.9257 63.0137L49.876 54.2964L51.9904 53.051L67.0402 61.7683L64.9257 63.0137Z" fill="#036FF5"/>
</svg>
