<svg width="8" height="15" viewBox="0 0 8 15" fill="none" xmlns="http://www.w3.org/2000/svg">
<path d="M7.69874 0.0791002L5.77991 0.0761719C3.62416 0.0761719 2.23102 1.43567 2.23102 3.53985V5.13684H0.301718C0.135004 5.13684 -5.16759e-08 5.2654 -5.16759e-08 5.42397V7.73782C-5.16759e-08 7.8964 0.135158 8.0248 0.301718 8.0248H2.23102V13.8634C2.23102 14.022 2.36603 14.1504 2.53274 14.1504H5.04993C5.21665 14.1504 5.35165 14.0218 5.35165 13.8634V8.0248H7.60746C7.77417 8.0248 7.90918 7.8964 7.90918 7.73782L7.9101 5.42397C7.9101 5.34783 7.87823 5.27491 7.82174 5.22103C7.76524 5.16715 7.68828 5.13684 7.60823 5.13684H5.35165V3.78305C5.35165 3.13237 5.51467 2.80205 6.40582 2.80205L7.69844 2.80161C7.865 2.80161 8 2.67305 8 2.51463V0.366081C8 0.207802 7.86515 0.0793931 7.69874 0.0791002Z" fill="white"/>
</svg>
