<svg width="14" height="15" viewBox="0 0 14 15" fill="none" xmlns="http://www.w3.org/2000/svg">
<path d="M10.1364 0.0761719H3.86341C1.73313 0.0761719 0 1.81857 0 3.96014V10.2664C0 12.4081 1.73313 14.1504 3.86341 14.1504H10.1364C12.2669 14.1504 14 12.408 14 10.2664V3.96014C14.0001 1.81857 12.2669 0.0761719 10.1364 0.0761719ZM12.7579 10.2664C12.7579 11.7195 11.582 12.9016 10.1365 12.9016H3.86341C2.41805 12.9017 1.24215 11.7195 1.24215 10.2664V3.96014C1.24215 2.50712 2.41805 1.3249 3.86341 1.3249H10.1364C11.5819 1.3249 12.7579 2.50712 12.7579 3.96014V10.2664H12.7579Z" fill="white"/>
<path d="M7.00002 3.48633C5.01085 3.48633 3.39258 5.11318 3.39258 7.11289C3.39258 9.11253 5.01085 10.7393 7.00002 10.7393C8.9892 10.7393 10.6075 9.11253 10.6075 7.11289C10.6075 5.11318 8.9892 3.48633 7.00002 3.48633ZM7.00002 9.49048C5.69585 9.49048 4.63473 8.4239 4.63473 7.11281C4.63473 5.80164 5.69577 4.73498 7.00002 4.73498C8.30428 4.73498 9.36532 5.80164 9.36532 7.11281C9.36532 8.4239 8.3042 9.49048 7.00002 9.49048Z" fill="white"/>
<path d="M10.7586 2.42773C10.5192 2.42773 10.2841 2.52514 10.1151 2.6958C9.94529 2.86562 9.84766 3.10205 9.84766 3.34347C9.84766 3.58414 9.94537 3.82049 10.1151 3.99115C10.2841 4.16097 10.5192 4.25921 10.7586 4.25921C10.9987 4.25921 11.2331 4.16097 11.4028 3.99115C11.5726 3.82049 11.6695 3.58406 11.6695 3.34347C11.6695 3.10205 11.5726 2.86562 11.4028 2.6958C11.2339 2.52514 10.9987 2.42773 10.7586 2.42773Z" fill="white"/>
</svg>
