<svg width="16" height="11" viewBox="0 0 16 11" fill="none" xmlns="http://www.w3.org/2000/svg">
<path d="M15.9151 9.16393C15.8958 9.11794 15.8777 9.0798 15.8609 9.04925C15.5833 8.49866 15.0528 7.82285 14.2698 7.02163L14.2533 7.00329L14.245 6.99429L14.2366 6.98507H14.2282C13.8728 6.61198 13.6478 6.36112 13.5535 6.23269C13.3811 5.98804 13.3424 5.74039 13.4367 5.48947C13.5033 5.29989 13.7534 4.89952 14.1864 4.28782C14.4142 3.96364 14.5946 3.70382 14.7279 3.50807C15.6887 2.10131 16.1053 1.20238 15.9775 0.810914L15.9279 0.719433C15.8945 0.664358 15.8084 0.613975 15.6698 0.568026C15.5308 0.522173 15.3531 0.51459 15.1364 0.545148L12.7373 0.563399C12.6985 0.548232 12.643 0.549646 12.5707 0.568026C12.4984 0.586405 12.4623 0.595627 12.4623 0.595627L12.4206 0.618602L12.3874 0.646203C12.3596 0.664454 12.3291 0.696555 12.2957 0.74244C12.2626 0.788164 12.2348 0.841825 12.2126 0.902972C11.9514 1.64301 11.6545 2.33106 11.3212 2.96709C11.1157 3.34634 10.9269 3.67502 10.7546 3.95332C10.5825 4.23152 10.4381 4.4365 10.3215 4.56788C10.2048 4.6994 10.0995 4.80476 10.0049 4.88436C9.91044 4.96398 9.83834 4.99762 9.78842 4.98531C9.73838 4.97301 9.69125 4.9608 9.64664 4.94859C9.56894 4.89351 9.50644 4.81861 9.45932 4.72382C9.41199 4.62903 9.38013 4.50972 9.36347 4.366C9.3469 4.22217 9.33709 4.09846 9.33429 3.99445C9.33169 3.89057 9.33289 3.74363 9.33852 3.55405C9.3443 3.36437 9.3469 3.23603 9.3469 3.16875C9.3469 2.9363 9.35101 2.68403 9.35927 2.41187C9.36767 2.13971 9.37447 1.92407 9.38016 1.76521C9.38582 1.60619 9.38844 1.43794 9.38844 1.26057C9.38844 1.0832 9.37864 0.944102 9.35927 0.843142C9.34013 0.742311 9.31074 0.644436 9.27202 0.54955C9.23307 0.454759 9.17606 0.381434 9.10125 0.329379C9.02629 0.277389 8.93309 0.236131 8.82219 0.205477C8.52781 0.132119 8.15296 0.0924357 7.69747 0.0862663C6.66454 0.074056 6.00083 0.14751 5.70648 0.306533C5.58985 0.373722 5.48432 0.465523 5.38996 0.58165C5.28996 0.716252 5.27602 0.789706 5.3482 0.801788C5.68147 0.856767 5.91741 0.988284 6.05626 1.19621L6.1063 1.30639C6.14523 1.38589 6.18409 1.52663 6.22299 1.72842C6.26182 1.93021 6.28689 2.15343 6.29792 2.39796C6.32563 2.8445 6.32563 3.22675 6.29792 3.54473C6.27011 3.86284 6.24385 4.11048 6.21878 4.28785C6.19372 4.46522 6.15626 4.60895 6.1063 4.719C6.05626 4.82909 6.02297 4.89637 6.00628 4.92079C5.98962 4.94521 5.97573 4.96061 5.9647 4.96665C5.89252 4.99711 5.81744 5.01263 5.73974 5.01263C5.66192 5.01263 5.56756 4.96976 5.45651 4.8841C5.34549 4.79843 5.23027 4.68077 5.11084 4.5309C4.99141 4.381 4.85673 4.17153 4.70673 3.90246C4.55684 3.63338 4.40132 3.31537 4.24026 2.94842L4.107 2.6823C4.0237 2.5111 3.9099 2.26181 3.7655 1.93468C3.62101 1.60741 3.4933 1.29084 3.38228 0.985038C3.3379 0.856605 3.27123 0.758827 3.18238 0.691542L3.14069 0.66394C3.11297 0.63952 3.06847 0.613589 3.00743 0.585955C2.9463 0.558354 2.88252 0.53856 2.81582 0.526382L0.533256 0.544633C0.300008 0.544633 0.141747 0.602825 0.0584143 0.719047L0.0250639 0.774025C0.00840325 0.804648 0 0.853553 0 0.92087C0 0.988155 0.0166606 1.07074 0.050011 1.16851C0.383223 2.03094 0.745584 2.86269 1.13709 3.66387C1.5286 4.46506 1.86882 5.11044 2.15753 5.59943C2.44631 6.08877 2.74066 6.55061 3.04058 6.98471C3.3405 7.41898 3.53902 7.69728 3.63616 7.81954C3.73341 7.94203 3.80979 8.03361 3.86532 8.09476L4.07362 8.31489C4.20691 8.46171 4.40263 8.63753 4.66089 8.84238C4.9192 9.04735 5.20517 9.24914 5.51895 9.44807C5.83279 9.64668 6.19789 9.80876 6.61447 9.9341C7.03098 10.0596 7.43638 10.1099 7.83072 10.0856H8.78875C8.98305 10.0672 9.13025 9.99988 9.2303 9.88375L9.26345 9.83777C9.28574 9.80127 9.3066 9.74456 9.32586 9.66824C9.34535 9.5918 9.35504 9.50758 9.35504 9.41597C9.34935 9.15303 9.36752 8.91606 9.40907 8.70508C9.45059 8.49416 9.49792 8.33514 9.55085 8.22804C9.60375 8.12104 9.66345 8.03075 9.72989 7.95755C9.79647 7.88419 9.84391 7.83975 9.87175 7.82446C9.89941 7.80907 9.9215 7.79862 9.93816 7.79236C10.0714 7.74345 10.2283 7.79082 10.409 7.93467C10.5895 8.0784 10.7588 8.25587 10.9172 8.46678C11.0755 8.67789 11.2657 8.91474 11.4878 9.17768C11.71 9.44071 11.9043 9.63624 12.0709 9.76486L12.2374 9.87495C12.3487 9.9484 12.4931 10.0157 12.6708 10.0768C12.8483 10.138 13.0037 10.1532 13.1372 10.1227L15.2697 10.0861C15.4807 10.0861 15.6448 10.0476 15.7612 9.97128C15.8779 9.89484 15.9472 9.81062 15.9695 9.71901C15.9918 9.62731 15.993 9.52326 15.9737 9.40694C15.954 9.29091 15.9345 9.20978 15.9151 9.16393Z" fill="white"/>
</svg>
