<svg width="1920" height="902" viewBox="0 0 1920 902" fill="none" xmlns="http://www.w3.org/2000/svg">
<mask id="mask0" mask-type="alpha" maskUnits="userSpaceOnUse" x="0" y="0" width="1920" height="902">
<rect width="1920" height="902" fill="white"/>
</mask>
<g mask="url(#mask0)">
<path fill-rule="evenodd" clip-rule="evenodd" d="M-211 932.191L397.095 986.475C408.386 987.943 419.865 986.319 430.304 981.777C440.743 977.235 449.749 969.946 456.359 960.689L660.622 289.093C670.151 262.269 673.163 236.27 652.861 217.971L402.178 -8H-190.173L-211 932.191Z" fill="url(#paint0_radial)"/>
<path fill-rule="evenodd" clip-rule="evenodd" d="M2099 598.733L1680.46 561.361C1672.69 560.351 1664.79 561.469 1657.6 564.596C1650.42 567.723 1644.22 572.741 1639.67 579.114L1499.08 1041.47C1492.52 1059.94 1490.45 1077.83 1504.42 1090.43L1676.96 1246L2084.67 1246L2099 598.733Z" fill="#F3F8FF"/>
<g opacity="0.1">
<path d="M980.768 878.316H-360V879.168H980.768V878.316Z" fill="white"/>
<path d="M980.768 849.486H-360V850.338H980.768V849.486Z" fill="white"/>
<path d="M980.768 820.436H-360V821.288H980.768V820.436Z" fill="white"/>
<path d="M980.768 791.606H-360V792.458H980.768V791.606Z" fill="white"/>
<path d="M980.768 762.776H-360V763.628H980.768V762.776Z" fill="white"/>
<path d="M980.768 733.947H-360V734.799H980.768V733.947Z" fill="white"/>
<path d="M980.768 705.117H-360V705.969H980.768V705.117Z" fill="white"/>
<path d="M980.768 676.287H-360V677.139H980.768V676.287Z" fill="white"/>
<path d="M980.768 647.458H-360V648.31H980.768V647.458Z" fill="white"/>
<path d="M980.768 618.628H-360V619.48H980.768V618.628Z" fill="white"/>
<path d="M980.768 589.578H-360V590.43H980.768V589.578Z" fill="white"/>
<path d="M980.768 560.747H-360V561.599H980.768V560.747Z" fill="white"/>
<path d="M980.768 531.918H-360V532.77H980.768V531.918Z" fill="white"/>
<path d="M980.768 503.088H-360V503.94H980.768V503.088Z" fill="white"/>
<path d="M980.768 474.258H-360V475.11H980.768V474.258Z" fill="white"/>
<path d="M980.768 445.429H-360V446.281H980.768V445.429Z" fill="white"/>
<path d="M980.768 416.598H-360V417.45H980.768V416.598Z" fill="white"/>
<path d="M980.768 387.77H-360V388.622H980.768V387.77Z" fill="white"/>
<path d="M980.768 358.719H-360V359.571H980.768V358.719Z" fill="white"/>
<path d="M980.768 329.889H-360V330.741H980.768V329.889Z" fill="white"/>
<path d="M980.768 301.06H-360V301.912H980.768V301.06Z" fill="white"/>
<path d="M980.768 272.229H-360V273.082H980.768V272.229Z" fill="white"/>
<path d="M980.768 243.4H-360V244.252H980.768V243.4Z" fill="white"/>
<path d="M980.768 214.57H-360V215.422H980.768V214.57Z" fill="white"/>
<path d="M980.768 185.74H-360V186.592H980.768V185.74Z" fill="white"/>
<path d="M980.768 156.911H-360V157.763H980.768V156.911Z" fill="white"/>
<path d="M980.768 127.86H-360V128.712H980.768V127.86Z" fill="white"/>
<path d="M980.768 99.0303H-360V99.8824H980.768V99.0303Z" fill="white"/>
<path d="M980.768 70.2012H-360V71.0533H980.768V70.2012Z" fill="white"/>
<path d="M918.042 17.4312H917.19V949H918.042V17.4312Z" fill="white"/>
<path d="M854.196 17.4312H853.345V949H854.196V17.4312Z" fill="white"/>
<path d="M790.341 17.4312H789.489V949H790.341V17.4312Z" fill="white"/>
<path d="M726.484 17.4312H725.633V949H726.484V17.4312Z" fill="white"/>
<path d="M662.641 17.4312H661.789V949H662.641V17.4312Z" fill="white"/>
<path d="M598.779 17.4312H597.928V949H598.779V17.4312Z" fill="white"/>
<path d="M534.939 17.4312H534.087V949H534.939V17.4312Z" fill="white"/>
<path d="M471.081 17.4312H470.229V949H471.081V17.4312Z" fill="white"/>
<path d="M407.238 17.4312H406.387V949H407.238V17.4312Z" fill="white"/>
<path d="M343.395 17.4312H342.543V949H343.395V17.4312Z" fill="white"/>
<path d="M279.204 17.4312H278.353V949H279.204V17.4312Z" fill="white"/>
<path d="M215.361 17.4312H214.51V949H215.361V17.4312Z" fill="white"/>
<path d="M151.504 17.4312H150.652V949H151.504V17.4312Z" fill="white"/>
<path d="M87.6437 17.4312H86.792V949H87.6437V17.4312Z" fill="white"/>
<path d="M23.8028 17.4312H22.9512V949H23.8028V17.4312Z" fill="white"/>
</g>
<path opacity="0.2" d="M64.0581 844.11H32.7939V948.335H64.0581V844.11Z" fill="url(#paint1_linear)"/>
<path opacity="0.2" d="M193.34 854.706H162.076V948.335H193.34V854.706Z" fill="url(#paint2_linear)"/>
<path opacity="0.2" d="M322.612 714.733H291.348V948.335H322.612V714.733Z" fill="url(#paint3_linear)"/>
<path opacity="0.2" d="M451.893 671.115H420.629V948.335H451.893V671.115Z" fill="url(#paint4_linear)"/>
<path opacity="0.2" d="M581.175 615.275H549.911V948.095H581.175V615.275Z" fill="url(#paint5_linear)"/>
<path opacity="0.2" d="M710.447 557.573H679.183V948.118H710.447V557.573Z" fill="url(#paint6_linear)"/>
<path opacity="0.2" d="M839.729 400.05H808.465V948.095H839.729V400.05Z" fill="url(#paint7_linear)"/>
<path opacity="0.2" d="M969 377H937.736V948.095H969V377Z" fill="url(#paint8_linear)"/>
<g opacity="0.2">
<path d="M896.955 -3.53711H884.268V89.6985H896.955V-3.53711Z" fill="white"/>
<path d="M869.906 47.1531H857.218V188.797H869.906V47.1531Z" fill="white"/>
<path d="M842.83 51.6462H830.143V89.6987H842.83V51.6462Z" fill="white"/>
<path d="M815.781 -20H803.093V106.128H815.781V-20Z" fill="white"/>
<path d="M788.718 70.7781H776.03V141.477H788.718V70.7781Z" fill="white"/>
<path d="M761.642 106.269H748.954V247.912H761.642V106.269Z" fill="white"/>
<path d="M734.591 169.315H721.903V310.959H734.591V169.315Z" fill="white"/>
<path d="M707.528 125.961H694.84V267.605H707.528V125.961Z" fill="white"/>
<path d="M680.466 259.883H667.778V299.234H680.466V259.883Z" fill="white"/>
<path d="M653.404 181.144H640.716V322.788H653.404V181.144Z" fill="white"/>
<path d="M626.34 299.409H613.652V370.038H626.34V299.409Z" fill="white"/>
<path d="M599.279 279.681H586.591V421.324H599.279V279.681Z" fill="white"/>
<path d="M572.215 421.29H559.527V507.997H572.215V421.29Z" fill="white"/>
<path d="M545.154 512.068H532.466V653.711H545.154V512.068Z" fill="white"/>
<path d="M518.09 441.123H505.402V582.767H518.09V441.123Z" fill="white"/>
<path d="M491.039 397.489H478.352V429.258H491.039V397.489Z" fill="white"/>
<path d="M463.978 385.94H451.29V527.583H463.978V385.94Z" fill="white"/>
<path d="M436.916 259.707H424.229V370.073H436.916V259.707Z" fill="white"/>
<path d="M409.853 204.63H397.165V346.274H409.853V204.63Z" fill="white"/>
<path d="M382.778 322.753H370.103V417.358H382.778V322.753Z" fill="white"/>
<path d="M355.716 346.518H343.04V488.162H355.716V346.518Z" fill="white"/>
<path d="M328.663 437.156H315.976V578.8H328.663V437.156Z" fill="white"/>
<path d="M301.603 567.252H288.915V598.529H301.603V567.252Z" fill="white"/>
<path d="M274.54 555.42H261.853V697.064H274.54V555.42Z" fill="white"/>
<path d="M247.491 456.885H234.803V598.529H247.491V456.885Z" fill="white"/>
<path d="M220.414 469.381H207.727V530.883H220.414V469.381Z" fill="white"/>
<path d="M193.363 448.986H180.675V590.63H193.363V448.986Z" fill="white"/>
<path d="M166.301 385.94H153.613V527.583H166.301V385.94Z" fill="white"/>
<path d="M139.238 366.107H126.55V413.392H139.238V366.107Z" fill="white"/>
<path d="M112.176 303.166H99.4883V444.809H112.176V303.166Z" fill="white"/>
<path d="M85.1127 389.767H72.4248V500.133H85.1127V389.767Z" fill="white"/>
<path d="M58.0502 425.115H45.3623V456.884H58.0502V425.115Z" fill="white"/>
<path d="M30.9886 445.054H18.3008V586.698H30.9886V445.054Z" fill="white"/>
<path d="M3.93786 539.413H-8.75V626.365H3.93786V539.413Z" fill="white"/>
</g>
<g opacity="0.2">
<path d="M917 41.9304H904.312V69.8534H917V41.9304Z" fill="white"/>
<path d="M889.948 57.1113H877.26V99.532H889.948V57.1113Z" fill="white"/>
<path d="M862.872 58.4573H850.184V69.8536H862.872V58.4573Z" fill="white"/>
<path d="M835.82 37H823.132V74.7739H835.82V37Z" fill="white"/>
<path d="M808.756 64.1873H796.067V85.3608H808.756V64.1873Z" fill="white"/>
<path d="M781.68 74.8162H768.991V117.237H781.68V74.8162Z" fill="white"/>
<path d="M754.627 93.6978H741.938V136.118H754.627V93.6978Z" fill="white"/>
<path d="M727.563 80.7139H714.875V123.135H727.563V80.7139Z" fill="white"/>
<path d="M700.5 120.822H687.812V132.607H700.5V120.822Z" fill="white"/>
<path d="M673.436 97.2405H660.748V139.661H673.436V97.2405Z" fill="white"/>
<path d="M646.372 132.659H633.684V153.812H646.372V132.659Z" fill="white"/>
<path d="M619.309 126.751H606.621V169.172H619.309V126.751Z" fill="white"/>
<path d="M592.245 169.161H579.557V195.129H592.245V169.161Z" fill="white"/>
<path d="M565.182 196.348H552.493V238.769H565.182V196.348Z" fill="white"/>
<path d="M538.117 175.101H525.429V217.522H538.117V175.101Z" fill="white"/>
<path d="M511.065 162.033H498.377V171.548H511.065V162.033Z" fill="white"/>
<path d="M484.003 158.574H471.314V200.995H484.003V158.574Z" fill="white"/>
<path d="M456.938 120.769H444.25V153.822H456.938V120.769Z" fill="white"/>
<path d="M429.876 104.274H417.188V146.695H429.876V104.274Z" fill="white"/>
<path d="M402.799 139.651H390.123V167.984H402.799V139.651Z" fill="white"/>
<path d="M375.736 146.768H363.06V189.189H375.736V146.768Z" fill="white"/>
<path d="M348.683 173.913H335.994V216.334H348.683V173.913Z" fill="white"/>
<path d="M321.621 212.875H308.933V222.242H321.621V212.875Z" fill="white"/>
<path d="M294.558 209.332H281.869V251.752H294.558V209.332Z" fill="white"/>
<path d="M267.506 179.822H254.817V222.242H267.506V179.822Z" fill="white"/>
<path d="M240.429 183.564H227.74V201.983H240.429V183.564Z" fill="white"/>
<path d="M213.376 177.456H200.688V219.877H213.376V177.456Z" fill="white"/>
<path d="M186.313 158.574H173.625V200.995H186.313V158.574Z" fill="white"/>
<path d="M159.249 152.635H146.561V166.796H159.249V152.635Z" fill="white"/>
<path d="M132.185 133.784H119.497V176.205H132.185V133.784Z" fill="white"/>
<path d="M105.121 159.72H92.4326V192.774H105.121V159.72Z" fill="white"/>
<path d="M78.0575 170.307H65.3691V179.821H78.0575V170.307Z" fill="white"/>
<path d="M50.995 176.279H38.3066V218.699H50.995V176.279Z" fill="white"/>
<path d="M23.9433 204.538H11.2549V230.579H23.9433V204.538Z" fill="white"/>
</g>
</g>
<defs>
<radialGradient id="paint0_radial" cx="0" cy="0" r="1" gradientUnits="userSpaceOnUse" gradientTransform="translate(520.223 129.921) rotate(130.979) scale(1064.96 2598.94)">
<stop stop-color="#0DD0FB"/>
<stop offset="1" stop-color="#036FF5"/>
</radialGradient>
<linearGradient id="paint1_linear" x1="48.426" y1="844.11" x2="48.426" y2="948.335" gradientUnits="userSpaceOnUse">
<stop stop-color="white"/>
<stop offset="1" stop-color="white" stop-opacity="0"/>
</linearGradient>
<linearGradient id="paint2_linear" x1="177.708" y1="854.706" x2="177.708" y2="948.335" gradientUnits="userSpaceOnUse">
<stop stop-color="white"/>
<stop offset="1" stop-color="white" stop-opacity="0"/>
</linearGradient>
<linearGradient id="paint3_linear" x1="306.98" y1="714.733" x2="306.98" y2="948.335" gradientUnits="userSpaceOnUse">
<stop stop-color="white"/>
<stop offset="1" stop-color="white" stop-opacity="0"/>
</linearGradient>
<linearGradient id="paint4_linear" x1="436.261" y1="671.115" x2="436.261" y2="948.335" gradientUnits="userSpaceOnUse">
<stop stop-color="white"/>
<stop offset="1" stop-color="white" stop-opacity="0"/>
</linearGradient>
<linearGradient id="paint5_linear" x1="565.543" y1="615.275" x2="565.543" y2="948.095" gradientUnits="userSpaceOnUse">
<stop stop-color="white"/>
<stop offset="1" stop-color="white" stop-opacity="0"/>
</linearGradient>
<linearGradient id="paint6_linear" x1="694.815" y1="557.573" x2="694.815" y2="948.118" gradientUnits="userSpaceOnUse">
<stop stop-color="white"/>
<stop offset="1" stop-color="white" stop-opacity="0"/>
</linearGradient>
<linearGradient id="paint7_linear" x1="824.097" y1="400.05" x2="824.097" y2="948.095" gradientUnits="userSpaceOnUse">
<stop stop-color="white"/>
<stop offset="1" stop-color="white" stop-opacity="0"/>
</linearGradient>
<linearGradient id="paint8_linear" x1="953.368" y1="377" x2="953.368" y2="948.095" gradientUnits="userSpaceOnUse">
<stop stop-color="white"/>
<stop offset="1" stop-color="white" stop-opacity="0"/>
</linearGradient>
</defs>
</svg>
