<svg width="686" height="500" viewBox="0 0 686 500" fill="none" xmlns="http://www.w3.org/2000/svg">
<path d="M4 0H681C683.761 0 686 2.23858 686 5V495C686 497.761 683.761 500 681 500H4V0Z" fill="url(#paint0_radial)"/>
<path d="M0 1H681C683.761 1 686 3.23858 686 6V495C686 497.761 683.761 500 681 500H0V1Z" fill="white"/>
<path d="M598.779 28.88V27.908H602.115V28.88H598.779ZM607.071 32V31.268L610.119 28.58C610.775 28.004 611.231 27.524 611.487 27.14C611.743 26.756 611.871 26.356 611.871 25.94C611.871 25.46 611.707 25.072 611.379 24.776C611.051 24.48 610.651 24.332 610.179 24.332C609.723 24.332 609.319 24.448 608.967 24.68C608.623 24.912 608.275 25.276 607.923 25.772L607.227 25.268C607.635 24.66 608.067 24.212 608.523 23.924C608.979 23.628 609.555 23.48 610.251 23.48C611.003 23.48 611.623 23.708 612.111 24.164C612.607 24.612 612.855 25.184 612.855 25.88C612.855 26.456 612.699 26.968 612.387 27.416C612.075 27.864 611.523 28.44 610.731 29.144L608.487 31.136H612.939V32H607.071ZM617.675 32.144C616.667 32.144 615.871 31.812 615.287 31.148C614.703 30.484 614.411 29.44 614.411 28.016C614.411 26.704 614.723 25.616 615.347 24.752C615.979 23.888 616.831 23.456 617.903 23.456C618.775 23.456 619.603 23.776 620.387 24.416L619.835 25.148C619.179 24.596 618.519 24.32 617.855 24.32C617.111 24.32 616.515 24.66 616.067 25.34C615.619 26.02 615.395 26.904 615.395 27.992V28.028C615.979 27.172 616.775 26.744 617.783 26.744C618.591 26.744 619.275 26.984 619.835 27.464C620.403 27.944 620.687 28.572 620.687 29.348C620.687 30.156 620.399 30.824 619.823 31.352C619.247 31.88 618.531 32.144 617.675 32.144ZM617.687 31.304C618.295 31.304 618.783 31.12 619.151 30.752C619.527 30.384 619.715 29.92 619.715 29.36C619.715 28.84 619.523 28.412 619.139 28.076C618.755 27.732 618.263 27.56 617.663 27.56C617.055 27.56 616.551 27.748 616.151 28.124C615.759 28.492 615.563 28.924 615.563 29.42C615.563 29.956 615.763 30.404 616.163 30.764C616.563 31.124 617.071 31.304 617.687 31.304ZM625.084 32.144C623.972 32.144 622.972 31.7 622.084 30.812L622.708 30.128C623.5 30.896 624.296 31.28 625.096 31.28C625.696 31.28 626.184 31.104 626.56 30.752C626.936 30.4 627.124 29.948 627.124 29.396C627.124 28.876 626.928 28.452 626.536 28.124C626.152 27.796 625.652 27.632 625.036 27.632C624.46 27.632 623.872 27.792 623.272 28.112L622.636 27.692L622.876 23.6H627.712V24.476H623.704L623.524 27.164C624.092 26.916 624.644 26.792 625.18 26.792C626.02 26.792 626.712 27.028 627.256 27.5C627.808 27.964 628.084 28.592 628.084 29.384C628.084 30.2 627.804 30.864 627.244 31.376C626.684 31.888 625.964 32.144 625.084 32.144ZM632.792 32.144C631.784 32.144 630.988 31.812 630.404 31.148C629.82 30.484 629.528 29.44 629.528 28.016C629.528 26.704 629.84 25.616 630.464 24.752C631.096 23.888 631.948 23.456 633.02 23.456C633.892 23.456 634.72 23.776 635.504 24.416L634.952 25.148C634.296 24.596 633.636 24.32 632.972 24.32C632.228 24.32 631.632 24.66 631.184 25.34C630.736 26.02 630.512 26.904 630.512 27.992V28.028C631.096 27.172 631.892 26.744 632.9 26.744C633.708 26.744 634.392 26.984 634.952 27.464C635.52 27.944 635.804 28.572 635.804 29.348C635.804 30.156 635.516 30.824 634.94 31.352C634.364 31.88 633.648 32.144 632.792 32.144ZM632.804 31.304C633.412 31.304 633.9 31.12 634.268 30.752C634.644 30.384 634.832 29.92 634.832 29.36C634.832 28.84 634.64 28.412 634.256 28.076C633.872 27.732 633.38 27.56 632.78 27.56C632.172 27.56 631.668 27.748 631.268 28.124C630.876 28.492 630.68 28.924 630.68 29.42C630.68 29.956 630.88 30.404 631.28 30.764C631.68 31.124 632.188 31.304 632.804 31.304ZM640.18 32.144C638.86 32.144 637.816 31.644 637.048 30.644L637.732 30.032C638.412 30.864 639.232 31.28 640.192 31.28C640.712 31.28 641.148 31.128 641.5 30.824C641.852 30.52 642.028 30.12 642.028 29.624C642.028 29.112 641.812 28.716 641.38 28.436C640.948 28.148 640.38 28.004 639.676 28.004H639.136L638.944 27.44L641.596 24.452H637.492V23.6H642.856V24.296L640.216 27.224C641.016 27.288 641.676 27.52 642.196 27.92C642.724 28.312 642.988 28.876 642.988 29.612C642.988 30.348 642.716 30.956 642.172 31.436C641.636 31.908 640.972 32.144 640.18 32.144ZM644.732 32V30.74H645.836V32H644.732ZM653.367 30.884C652.711 31.724 651.855 32.144 650.799 32.144C649.743 32.144 648.887 31.728 648.231 30.896C647.583 30.056 647.259 29.024 647.259 27.8C647.259 26.592 647.587 25.568 648.243 24.728C648.907 23.88 649.767 23.456 650.823 23.456C651.879 23.456 652.731 23.876 653.379 24.716C654.027 25.548 654.351 26.576 654.351 27.8C654.351 29.008 654.023 30.036 653.367 30.884ZM648.963 30.26C649.443 30.94 650.063 31.28 650.823 31.28C651.583 31.28 652.195 30.944 652.659 30.272C653.131 29.592 653.367 28.768 653.367 27.8C653.367 26.848 653.127 26.032 652.647 25.352C652.175 24.664 651.559 24.32 650.799 24.32C650.039 24.32 649.423 24.66 648.951 25.34C648.479 26.012 648.243 26.832 648.243 27.8C648.243 28.752 648.483 29.572 648.963 30.26Z" fill="#7C90B9"/>
<path d="M599.779 62.88V61.908H603.115V62.88H599.779ZM608.071 66V65.268L611.119 62.58C611.775 62.004 612.231 61.524 612.487 61.14C612.743 60.756 612.871 60.356 612.871 59.94C612.871 59.46 612.707 59.072 612.379 58.776C612.051 58.48 611.651 58.332 611.179 58.332C610.723 58.332 610.319 58.448 609.967 58.68C609.623 58.912 609.275 59.276 608.923 59.772L608.227 59.268C608.635 58.66 609.067 58.212 609.523 57.924C609.979 57.628 610.555 57.48 611.251 57.48C612.003 57.48 612.623 57.708 613.111 58.164C613.607 58.612 613.855 59.184 613.855 59.88C613.855 60.456 613.699 60.968 613.387 61.416C613.075 61.864 612.523 62.44 611.731 63.144L609.487 65.136H613.939V66H608.071ZM618.315 66.144C617.203 66.144 616.203 65.7 615.315 64.812L615.939 64.128C616.731 64.896 617.527 65.28 618.327 65.28C618.927 65.28 619.415 65.104 619.791 64.752C620.167 64.4 620.355 63.948 620.355 63.396C620.355 62.876 620.159 62.452 619.767 62.124C619.383 61.796 618.883 61.632 618.267 61.632C617.691 61.632 617.103 61.792 616.503 62.112L615.867 61.692L616.107 57.6H620.943V58.476H616.935L616.755 61.164C617.323 60.916 617.875 60.792 618.411 60.792C619.251 60.792 619.943 61.028 620.487 61.5C621.039 61.964 621.315 62.592 621.315 63.384C621.315 64.2 621.035 64.864 620.475 65.376C619.915 65.888 619.195 66.144 618.315 66.144ZM628.062 65.46C627.462 65.9 626.71 66.12 625.806 66.12C624.902 66.12 624.15 65.896 623.55 65.448C622.95 65 622.65 64.424 622.65 63.72C622.65 63.24 622.806 62.824 623.118 62.472C623.43 62.12 623.85 61.848 624.378 61.656C623.418 61.216 622.938 60.564 622.938 59.7C622.938 59.068 623.218 58.54 623.778 58.116C624.346 57.692 625.022 57.48 625.806 57.48C626.59 57.48 627.262 57.692 627.822 58.116C628.39 58.54 628.674 59.076 628.674 59.724C628.674 60.572 628.194 61.216 627.234 61.656C628.386 62.088 628.962 62.78 628.962 63.732C628.962 64.436 628.662 65.012 628.062 65.46ZM624.438 60.888C624.806 61.176 625.262 61.32 625.806 61.32C626.35 61.32 626.806 61.176 627.174 60.888C627.542 60.6 627.726 60.224 627.726 59.76C627.726 59.344 627.542 59 627.174 58.728C626.806 58.448 626.35 58.308 625.806 58.308C625.254 58.308 624.794 58.448 624.426 58.728C624.066 59 623.886 59.352 623.886 59.784C623.886 60.232 624.07 60.6 624.438 60.888ZM624.198 64.836C624.598 65.14 625.134 65.292 625.806 65.292C626.478 65.292 627.01 65.14 627.402 64.836C627.802 64.532 628.002 64.152 628.002 63.696C628.002 63.232 627.79 62.852 627.366 62.556C626.942 62.252 626.422 62.1 625.806 62.1C625.182 62.1 624.658 62.252 624.234 62.556C623.818 62.86 623.61 63.248 623.61 63.72C623.61 64.16 623.806 64.532 624.198 64.836ZM635.621 65.46C635.021 65.9 634.269 66.12 633.365 66.12C632.461 66.12 631.709 65.896 631.109 65.448C630.509 65 630.209 64.424 630.209 63.72C630.209 63.24 630.365 62.824 630.677 62.472C630.989 62.12 631.409 61.848 631.937 61.656C630.977 61.216 630.497 60.564 630.497 59.7C630.497 59.068 630.777 58.54 631.337 58.116C631.905 57.692 632.581 57.48 633.365 57.48C634.149 57.48 634.821 57.692 635.381 58.116C635.949 58.54 636.233 59.076 636.233 59.724C636.233 60.572 635.753 61.216 634.793 61.656C635.945 62.088 636.521 62.78 636.521 63.732C636.521 64.436 636.221 65.012 635.621 65.46ZM631.997 60.888C632.365 61.176 632.821 61.32 633.365 61.32C633.909 61.32 634.365 61.176 634.733 60.888C635.101 60.6 635.285 60.224 635.285 59.76C635.285 59.344 635.101 59 634.733 58.728C634.365 58.448 633.909 58.308 633.365 58.308C632.813 58.308 632.353 58.448 631.985 58.728C631.625 59 631.445 59.352 631.445 59.784C631.445 60.232 631.629 60.6 631.997 60.888ZM631.757 64.836C632.157 65.14 632.693 65.292 633.365 65.292C634.037 65.292 634.569 65.14 634.961 64.836C635.361 64.532 635.561 64.152 635.561 63.696C635.561 63.232 635.349 62.852 634.925 62.556C634.501 62.252 633.981 62.1 633.365 62.1C632.741 62.1 632.217 62.252 631.793 62.556C631.377 62.86 631.169 63.248 631.169 63.72C631.169 64.16 631.365 64.532 631.757 64.836ZM640.876 66.144C639.556 66.144 638.512 65.644 637.744 64.644L638.428 64.032C639.108 64.864 639.928 65.28 640.888 65.28C641.408 65.28 641.844 65.128 642.196 64.824C642.548 64.52 642.724 64.12 642.724 63.624C642.724 63.112 642.508 62.716 642.076 62.436C641.644 62.148 641.076 62.004 640.372 62.004H639.832L639.64 61.44L642.292 58.452H638.188V57.6H643.552V58.296L640.912 61.224C641.712 61.288 642.372 61.52 642.892 61.92C643.42 62.312 643.684 62.876 643.684 63.612C643.684 64.348 643.412 64.956 642.868 65.436C642.332 65.908 641.668 66.144 640.876 66.144ZM645.427 66V64.74H646.531V66H645.427ZM654.062 64.884C653.406 65.724 652.55 66.144 651.494 66.144C650.438 66.144 649.582 65.728 648.926 64.896C648.278 64.056 647.954 63.024 647.954 61.8C647.954 60.592 648.282 59.568 648.938 58.728C649.602 57.88 650.462 57.456 651.518 57.456C652.574 57.456 653.426 57.876 654.074 58.716C654.722 59.548 655.046 60.576 655.046 61.8C655.046 63.008 654.718 64.036 654.062 64.884ZM649.658 64.26C650.138 64.94 650.758 65.28 651.518 65.28C652.278 65.28 652.89 64.944 653.354 64.272C653.826 63.592 654.062 62.768 654.062 61.8C654.062 60.848 653.822 60.032 653.342 59.352C652.87 58.664 652.254 58.32 651.494 58.32C650.734 58.32 650.118 58.66 649.646 59.34C649.174 60.012 648.938 60.832 648.938 61.8C648.938 62.752 649.178 63.572 649.658 64.26Z" fill="#7C90B9"/>
<path d="M598.779 96.88V95.908H602.115V96.88H598.779ZM607.071 100V99.268L610.119 96.58C610.775 96.004 611.231 95.524 611.487 95.14C611.743 94.756 611.871 94.356 611.871 93.94C611.871 93.46 611.707 93.072 611.379 92.776C611.051 92.48 610.651 92.332 610.179 92.332C609.723 92.332 609.319 92.448 608.967 92.68C608.623 92.912 608.275 93.276 607.923 93.772L607.227 93.268C607.635 92.66 608.067 92.212 608.523 91.924C608.979 91.628 609.555 91.48 610.251 91.48C611.003 91.48 611.623 91.708 612.111 92.164C612.607 92.612 612.855 93.184 612.855 93.88C612.855 94.456 612.699 94.968 612.387 95.416C612.075 95.864 611.523 96.44 610.731 97.144L608.487 99.136H612.939V100H607.071ZM617.315 100.144C616.203 100.144 615.203 99.7 614.315 98.812L614.939 98.128C615.731 98.896 616.527 99.28 617.327 99.28C617.927 99.28 618.415 99.104 618.791 98.752C619.167 98.4 619.355 97.948 619.355 97.396C619.355 96.876 619.159 96.452 618.767 96.124C618.383 95.796 617.883 95.632 617.267 95.632C616.691 95.632 616.103 95.792 615.503 96.112L614.867 95.692L615.107 91.6H619.943V92.476H615.935L615.755 95.164C616.323 94.916 616.875 94.792 617.411 94.792C618.251 94.792 618.943 95.028 619.487 95.5C620.039 95.964 620.315 96.592 620.315 97.384C620.315 98.2 620.035 98.864 619.475 99.376C618.915 99.888 618.195 100.144 617.315 100.144ZM621.485 100V99.268L624.533 96.58C625.189 96.004 625.645 95.524 625.901 95.14C626.157 94.756 626.285 94.356 626.285 93.94C626.285 93.46 626.121 93.072 625.793 92.776C625.465 92.48 625.065 92.332 624.593 92.332C624.137 92.332 623.733 92.448 623.381 92.68C623.037 92.912 622.689 93.276 622.337 93.772L621.641 93.268C622.049 92.66 622.481 92.212 622.937 91.924C623.393 91.628 623.969 91.48 624.665 91.48C625.417 91.48 626.037 91.708 626.525 92.164C627.021 92.612 627.269 93.184 627.269 93.88C627.269 94.456 627.113 94.968 626.801 95.416C626.489 95.864 625.937 96.44 625.145 97.144L622.901 99.136H627.353V100H621.485ZM634.945 98.884C634.289 99.724 633.433 100.144 632.377 100.144C631.321 100.144 630.465 99.728 629.809 98.896C629.161 98.056 628.837 97.024 628.837 95.8C628.837 94.592 629.165 93.568 629.821 92.728C630.485 91.88 631.345 91.456 632.401 91.456C633.457 91.456 634.309 91.876 634.957 92.716C635.605 93.548 635.929 94.576 635.929 95.8C635.929 97.008 635.601 98.036 634.945 98.884ZM630.541 98.26C631.021 98.94 631.641 99.28 632.401 99.28C633.161 99.28 633.773 98.944 634.237 98.272C634.709 97.592 634.945 96.768 634.945 95.8C634.945 94.848 634.705 94.032 634.225 93.352C633.753 92.664 633.137 92.32 632.377 92.32C631.617 92.32 631.001 92.66 630.529 93.34C630.057 94.012 629.821 94.832 629.821 95.8C629.821 96.752 630.061 97.572 630.541 98.26ZM640.286 100.144C638.966 100.144 637.922 99.644 637.154 98.644L637.838 98.032C638.518 98.864 639.338 99.28 640.298 99.28C640.818 99.28 641.254 99.128 641.606 98.824C641.958 98.52 642.134 98.12 642.134 97.624C642.134 97.112 641.918 96.716 641.486 96.436C641.054 96.148 640.486 96.004 639.782 96.004H639.242L639.05 95.44L641.702 92.452H637.598V91.6H642.962V92.296L640.322 95.224C641.122 95.288 641.782 95.52 642.302 95.92C642.83 96.312 643.094 96.876 643.094 97.612C643.094 98.348 642.822 98.956 642.278 99.436C641.742 99.908 641.078 100.144 640.286 100.144ZM644.837 100V98.74H645.941V100H644.837ZM653.472 98.884C652.816 99.724 651.96 100.144 650.904 100.144C649.848 100.144 648.992 99.728 648.336 98.896C647.688 98.056 647.364 97.024 647.364 95.8C647.364 94.592 647.692 93.568 648.348 92.728C649.012 91.88 649.872 91.456 650.928 91.456C651.984 91.456 652.836 91.876 653.484 92.716C654.132 93.548 654.456 94.576 654.456 95.8C654.456 97.008 654.128 98.036 653.472 98.884ZM649.068 98.26C649.548 98.94 650.168 99.28 650.928 99.28C651.688 99.28 652.3 98.944 652.764 98.272C653.236 97.592 653.472 96.768 653.472 95.8C653.472 94.848 653.232 94.032 652.752 93.352C652.28 92.664 651.664 92.32 650.904 92.32C650.144 92.32 649.528 92.66 649.056 93.34C648.584 94.012 648.348 94.832 648.348 95.8C648.348 96.752 648.588 97.572 649.068 98.26Z" fill="#7C90B9"/>
<path d="M599.779 130.88V129.908H603.115V130.88H599.779ZM608.071 134V133.268L611.119 130.58C611.775 130.004 612.231 129.524 612.487 129.14C612.743 128.756 612.871 128.356 612.871 127.94C612.871 127.46 612.707 127.072 612.379 126.776C612.051 126.48 611.651 126.332 611.179 126.332C610.723 126.332 610.319 126.448 609.967 126.68C609.623 126.912 609.275 127.276 608.923 127.772L608.227 127.268C608.635 126.66 609.067 126.212 609.523 125.924C609.979 125.628 610.555 125.48 611.251 125.48C612.003 125.48 612.623 125.708 613.111 126.164C613.607 126.612 613.855 127.184 613.855 127.88C613.855 128.456 613.699 128.968 613.387 129.416C613.075 129.864 612.523 130.44 611.731 131.144L609.487 133.136H613.939V134H608.071ZM619.546 134V132.008H615.118L614.878 131.324L619.63 125.54H620.458V131.216H621.766V132.008H620.458V134H619.546ZM616.018 131.216H619.546V126.884L616.018 131.216ZM626.409 134.144C625.401 134.144 624.605 133.812 624.021 133.148C623.437 132.484 623.145 131.44 623.145 130.016C623.145 128.704 623.457 127.616 624.081 126.752C624.713 125.888 625.565 125.456 626.637 125.456C627.509 125.456 628.337 125.776 629.121 126.416L628.569 127.148C627.913 126.596 627.253 126.32 626.589 126.32C625.845 126.32 625.249 126.66 624.801 127.34C624.353 128.02 624.129 128.904 624.129 129.992V130.028C624.713 129.172 625.509 128.744 626.517 128.744C627.325 128.744 628.009 128.984 628.569 129.464C629.137 129.944 629.421 130.572 629.421 131.348C629.421 132.156 629.133 132.824 628.557 133.352C627.981 133.88 627.265 134.144 626.409 134.144ZM626.421 133.304C627.029 133.304 627.517 133.12 627.885 132.752C628.261 132.384 628.449 131.92 628.449 131.36C628.449 130.84 628.257 130.412 627.873 130.076C627.489 129.732 626.997 129.56 626.397 129.56C625.789 129.56 625.285 129.748 624.885 130.124C624.493 130.492 624.297 130.924 624.297 131.42C624.297 131.956 624.497 132.404 624.897 132.764C625.297 133.124 625.805 133.304 626.421 133.304ZM633.797 134.144C632.477 134.144 631.433 133.644 630.665 132.644L631.349 132.032C632.029 132.864 632.849 133.28 633.809 133.28C634.329 133.28 634.765 133.128 635.117 132.824C635.469 132.52 635.645 132.12 635.645 131.624C635.645 131.112 635.429 130.716 634.997 130.436C634.565 130.148 633.997 130.004 633.293 130.004H632.753L632.561 129.44L635.213 126.452H631.109V125.6H636.473V126.296L633.833 129.224C634.633 129.288 635.293 129.52 635.813 129.92C636.341 130.312 636.605 130.876 636.605 131.612C636.605 132.348 636.333 132.956 635.789 133.436C635.253 133.908 634.589 134.144 633.797 134.144ZM641.061 134.144C639.949 134.144 638.949 133.7 638.061 132.812L638.685 132.128C639.477 132.896 640.273 133.28 641.073 133.28C641.673 133.28 642.161 133.104 642.537 132.752C642.913 132.4 643.101 131.948 643.101 131.396C643.101 130.876 642.905 130.452 642.513 130.124C642.129 129.796 641.629 129.632 641.013 129.632C640.437 129.632 639.849 129.792 639.249 130.112L638.613 129.692L638.853 125.6H643.689V126.476H639.681L639.501 129.164C640.069 128.916 640.621 128.792 641.157 128.792C641.997 128.792 642.689 129.028 643.233 129.5C643.785 129.964 644.061 130.592 644.061 131.384C644.061 132.2 643.781 132.864 643.221 133.376C642.661 133.888 641.941 134.144 641.061 134.144ZM645.696 134V132.74H646.8V134H645.696ZM651.35 134.144C650.238 134.144 649.238 133.7 648.35 132.812L648.974 132.128C649.766 132.896 650.562 133.28 651.362 133.28C651.962 133.28 652.45 133.104 652.826 132.752C653.202 132.4 653.39 131.948 653.39 131.396C653.39 130.876 653.194 130.452 652.802 130.124C652.418 129.796 651.918 129.632 651.302 129.632C650.726 129.632 650.138 129.792 649.538 130.112L648.902 129.692L649.142 125.6H653.978V126.476H649.97L649.79 129.164C650.358 128.916 650.91 128.792 651.446 128.792C652.286 128.792 652.978 129.028 653.522 129.5C654.074 129.964 654.35 130.592 654.35 131.384C654.35 132.2 654.07 132.864 653.51 133.376C652.95 133.888 652.23 134.144 651.35 134.144Z" fill="#7C90B9"/>
<path d="M599.779 164.88V163.908H603.115V164.88H599.779ZM608.071 168V167.268L611.119 164.58C611.775 164.004 612.231 163.524 612.487 163.14C612.743 162.756 612.871 162.356 612.871 161.94C612.871 161.46 612.707 161.072 612.379 160.776C612.051 160.48 611.651 160.332 611.179 160.332C610.723 160.332 610.319 160.448 609.967 160.68C609.623 160.912 609.275 161.276 608.923 161.772L608.227 161.268C608.635 160.66 609.067 160.212 609.523 159.924C609.979 159.628 610.555 159.48 611.251 159.48C612.003 159.48 612.623 159.708 613.111 160.164C613.607 160.612 613.855 161.184 613.855 161.88C613.855 162.456 613.699 162.968 613.387 163.416C613.075 163.864 612.523 164.44 611.731 165.144L609.487 167.136H613.939V168H608.071ZM618.411 168.144C617.091 168.144 616.047 167.644 615.279 166.644L615.963 166.032C616.643 166.864 617.463 167.28 618.423 167.28C618.943 167.28 619.379 167.128 619.731 166.824C620.083 166.52 620.259 166.12 620.259 165.624C620.259 165.112 620.043 164.716 619.611 164.436C619.179 164.148 618.611 164.004 617.907 164.004H617.367L617.175 163.44L619.827 160.452H615.723V159.6H621.087V160.296L618.447 163.224C619.247 163.288 619.907 163.52 620.427 163.92C620.955 164.312 621.219 164.876 621.219 165.612C621.219 166.348 620.947 166.956 620.403 167.436C619.867 167.908 619.203 168.144 618.411 168.144ZM628.074 167.46C627.474 167.9 626.722 168.12 625.818 168.12C624.914 168.12 624.162 167.896 623.562 167.448C622.962 167 622.662 166.424 622.662 165.72C622.662 165.24 622.818 164.824 623.13 164.472C623.442 164.12 623.862 163.848 624.39 163.656C623.43 163.216 622.95 162.564 622.95 161.7C622.95 161.068 623.23 160.54 623.79 160.116C624.358 159.692 625.034 159.48 625.818 159.48C626.602 159.48 627.274 159.692 627.834 160.116C628.402 160.54 628.686 161.076 628.686 161.724C628.686 162.572 628.206 163.216 627.246 163.656C628.398 164.088 628.974 164.78 628.974 165.732C628.974 166.436 628.674 167.012 628.074 167.46ZM624.45 162.888C624.818 163.176 625.274 163.32 625.818 163.32C626.362 163.32 626.818 163.176 627.186 162.888C627.554 162.6 627.738 162.224 627.738 161.76C627.738 161.344 627.554 161 627.186 160.728C626.818 160.448 626.362 160.308 625.818 160.308C625.266 160.308 624.806 160.448 624.438 160.728C624.078 161 623.898 161.352 623.898 161.784C623.898 162.232 624.082 162.6 624.45 162.888ZM624.21 166.836C624.61 167.14 625.146 167.292 625.818 167.292C626.49 167.292 627.022 167.14 627.414 166.836C627.814 166.532 628.014 166.152 628.014 165.696C628.014 165.232 627.802 164.852 627.378 164.556C626.954 164.252 626.434 164.1 625.818 164.1C625.194 164.1 624.67 164.252 624.246 164.556C623.83 164.86 623.622 165.248 623.622 165.72C623.622 166.16 623.818 166.532 624.21 166.836ZM633.593 168.144C632.585 168.144 631.789 167.812 631.205 167.148C630.621 166.484 630.329 165.44 630.329 164.016C630.329 162.704 630.641 161.616 631.265 160.752C631.897 159.888 632.749 159.456 633.821 159.456C634.693 159.456 635.521 159.776 636.305 160.416L635.753 161.148C635.097 160.596 634.437 160.32 633.773 160.32C633.029 160.32 632.433 160.66 631.985 161.34C631.537 162.02 631.313 162.904 631.313 163.992V164.028C631.897 163.172 632.693 162.744 633.701 162.744C634.509 162.744 635.193 162.984 635.753 163.464C636.321 163.944 636.605 164.572 636.605 165.348C636.605 166.156 636.317 166.824 635.741 167.352C635.165 167.88 634.449 168.144 633.593 168.144ZM633.605 167.304C634.213 167.304 634.701 167.12 635.069 166.752C635.445 166.384 635.633 165.92 635.633 165.36C635.633 164.84 635.441 164.412 635.057 164.076C634.673 163.732 634.181 163.56 633.581 163.56C632.973 163.56 632.469 163.748 632.069 164.124C631.677 164.492 631.481 164.924 631.481 165.42C631.481 165.956 631.681 166.404 632.081 166.764C632.481 167.124 632.989 167.304 633.605 167.304ZM640.981 168.144C639.661 168.144 638.617 167.644 637.849 166.644L638.533 166.032C639.213 166.864 640.033 167.28 640.993 167.28C641.513 167.28 641.949 167.128 642.301 166.824C642.653 166.52 642.829 166.12 642.829 165.624C642.829 165.112 642.613 164.716 642.181 164.436C641.749 164.148 641.181 164.004 640.477 164.004H639.937L639.745 163.44L642.397 160.452H638.293V159.6H643.657V160.296L641.017 163.224C641.817 163.288 642.477 163.52 642.997 163.92C643.525 164.312 643.789 164.876 643.789 165.612C643.789 166.348 643.517 166.956 642.973 167.436C642.437 167.908 641.773 168.144 640.981 168.144ZM645.532 168V166.74H646.636V168H645.532ZM654.167 166.884C653.511 167.724 652.655 168.144 651.599 168.144C650.543 168.144 649.687 167.728 649.031 166.896C648.383 166.056 648.059 165.024 648.059 163.8C648.059 162.592 648.387 161.568 649.043 160.728C649.707 159.88 650.567 159.456 651.623 159.456C652.679 159.456 653.531 159.876 654.179 160.716C654.827 161.548 655.151 162.576 655.151 163.8C655.151 165.008 654.823 166.036 654.167 166.884ZM649.763 166.26C650.243 166.94 650.863 167.28 651.623 167.28C652.383 167.28 652.995 166.944 653.459 166.272C653.931 165.592 654.167 164.768 654.167 163.8C654.167 162.848 653.927 162.032 653.447 161.352C652.975 160.664 652.359 160.32 651.599 160.32C650.839 160.32 650.223 160.66 649.751 161.34C649.279 162.012 649.043 162.832 649.043 163.8C649.043 164.752 649.283 165.572 649.763 166.26Z" fill="#7C90B9"/>
<path d="M602.779 198.88V197.908H606.115V198.88H602.779ZM611.071 202V201.268L614.119 198.58C614.775 198.004 615.231 197.524 615.487 197.14C615.743 196.756 615.871 196.356 615.871 195.94C615.871 195.46 615.707 195.072 615.379 194.776C615.051 194.48 614.651 194.332 614.179 194.332C613.723 194.332 613.319 194.448 612.967 194.68C612.623 194.912 612.275 195.276 611.923 195.772L611.227 195.268C611.635 194.66 612.067 194.212 612.523 193.924C612.979 193.628 613.555 193.48 614.251 193.48C615.003 193.48 615.623 193.708 616.111 194.164C616.607 194.612 616.855 195.184 616.855 195.88C616.855 196.456 616.699 196.968 616.387 197.416C616.075 197.864 615.523 198.44 614.731 199.144L612.487 201.136H616.939V202H611.071ZM621.411 202.144C620.091 202.144 619.047 201.644 618.279 200.644L618.963 200.032C619.643 200.864 620.463 201.28 621.423 201.28C621.943 201.28 622.379 201.128 622.731 200.824C623.083 200.52 623.259 200.12 623.259 199.624C623.259 199.112 623.043 198.716 622.611 198.436C622.179 198.148 621.611 198.004 620.907 198.004H620.367L620.175 197.44L622.827 194.452H618.723V193.6H624.087V194.296L621.447 197.224C622.247 197.288 622.907 197.52 623.427 197.92C623.955 198.312 624.219 198.876 624.219 199.612C624.219 200.348 623.947 200.956 623.403 201.436C622.867 201.908 622.203 202.144 621.411 202.144ZM627.186 202V194.524L625.602 195.016L625.374 194.248L627.426 193.54H628.122V202H627.186ZM635.375 201.46C634.775 201.9 634.023 202.12 633.119 202.12C632.215 202.12 631.463 201.896 630.863 201.448C630.263 201 629.963 200.424 629.963 199.72C629.963 199.24 630.119 198.824 630.431 198.472C630.743 198.12 631.163 197.848 631.691 197.656C630.731 197.216 630.251 196.564 630.251 195.7C630.251 195.068 630.531 194.54 631.091 194.116C631.659 193.692 632.335 193.48 633.119 193.48C633.903 193.48 634.575 193.692 635.135 194.116C635.703 194.54 635.987 195.076 635.987 195.724C635.987 196.572 635.507 197.216 634.547 197.656C635.699 198.088 636.275 198.78 636.275 199.732C636.275 200.436 635.975 201.012 635.375 201.46ZM631.751 196.888C632.119 197.176 632.575 197.32 633.119 197.32C633.663 197.32 634.119 197.176 634.487 196.888C634.855 196.6 635.039 196.224 635.039 195.76C635.039 195.344 634.855 195 634.487 194.728C634.119 194.448 633.663 194.308 633.119 194.308C632.567 194.308 632.107 194.448 631.739 194.728C631.379 195 631.199 195.352 631.199 195.784C631.199 196.232 631.383 196.6 631.751 196.888ZM631.511 200.836C631.911 201.14 632.447 201.292 633.119 201.292C633.791 201.292 634.323 201.14 634.715 200.836C635.115 200.532 635.315 200.152 635.315 199.696C635.315 199.232 635.103 198.852 634.679 198.556C634.255 198.252 633.735 198.1 633.119 198.1C632.495 198.1 631.971 198.252 631.547 198.556C631.131 198.86 630.923 199.248 630.923 199.72C630.923 200.16 631.119 200.532 631.511 200.836ZM640.629 202.144C639.309 202.144 638.265 201.644 637.497 200.644L638.181 200.032C638.861 200.864 639.681 201.28 640.641 201.28C641.161 201.28 641.597 201.128 641.949 200.824C642.301 200.52 642.477 200.12 642.477 199.624C642.477 199.112 642.261 198.716 641.829 198.436C641.397 198.148 640.829 198.004 640.125 198.004H639.585L639.393 197.44L642.045 194.452H637.941V193.6H643.305V194.296L640.665 197.224C641.465 197.288 642.125 197.52 642.645 197.92C643.173 198.312 643.437 198.876 643.437 199.612C643.437 200.348 643.165 200.956 642.621 201.436C642.085 201.908 641.421 202.144 640.629 202.144ZM645.181 202V200.74H646.285V202H645.181ZM653.816 200.884C653.16 201.724 652.304 202.144 651.248 202.144C650.192 202.144 649.336 201.728 648.68 200.896C648.032 200.056 647.708 199.024 647.708 197.8C647.708 196.592 648.036 195.568 648.692 194.728C649.356 193.88 650.216 193.456 651.272 193.456C652.328 193.456 653.18 193.876 653.828 194.716C654.476 195.548 654.8 196.576 654.8 197.8C654.8 199.008 654.472 200.036 653.816 200.884ZM649.412 200.26C649.892 200.94 650.512 201.28 651.272 201.28C652.032 201.28 652.644 200.944 653.108 200.272C653.58 199.592 653.816 198.768 653.816 197.8C653.816 196.848 653.576 196.032 653.096 195.352C652.624 194.664 652.008 194.32 651.248 194.32C650.488 194.32 649.872 194.66 649.4 195.34C648.928 196.012 648.692 196.832 648.692 197.8C648.692 198.752 648.932 199.572 649.412 200.26Z" fill="#7C90B9"/>
<path d="M600.779 232.88V231.908H604.115V232.88H600.779ZM609.071 236V235.268L612.119 232.58C612.775 232.004 613.231 231.524 613.487 231.14C613.743 230.756 613.871 230.356 613.871 229.94C613.871 229.46 613.707 229.072 613.379 228.776C613.051 228.48 612.651 228.332 612.179 228.332C611.723 228.332 611.319 228.448 610.967 228.68C610.623 228.912 610.275 229.276 609.923 229.772L609.227 229.268C609.635 228.66 610.067 228.212 610.523 227.924C610.979 227.628 611.555 227.48 612.251 227.48C613.003 227.48 613.623 227.708 614.111 228.164C614.607 228.612 614.855 229.184 614.855 229.88C614.855 230.456 614.699 230.968 614.387 231.416C614.075 231.864 613.523 232.44 612.731 233.144L610.487 235.136H614.939V236H609.071ZM616.255 236V235.268L619.303 232.58C619.959 232.004 620.415 231.524 620.671 231.14C620.927 230.756 621.055 230.356 621.055 229.94C621.055 229.46 620.891 229.072 620.563 228.776C620.235 228.48 619.835 228.332 619.363 228.332C618.907 228.332 618.503 228.448 618.151 228.68C617.807 228.912 617.459 229.276 617.107 229.772L616.411 229.268C616.819 228.66 617.251 228.212 617.707 227.924C618.163 227.628 618.739 227.48 619.435 227.48C620.187 227.48 620.807 227.708 621.295 228.164C621.791 228.612 622.039 229.184 622.039 229.88C622.039 230.456 621.883 230.968 621.571 231.416C621.259 231.864 620.707 232.44 619.915 233.144L617.671 235.136H622.123V236H616.255ZM626.498 236.144C625.386 236.144 624.386 235.7 623.498 234.812L624.122 234.128C624.914 234.896 625.71 235.28 626.51 235.28C627.11 235.28 627.598 235.104 627.974 234.752C628.35 234.4 628.538 233.948 628.538 233.396C628.538 232.876 628.342 232.452 627.95 232.124C627.566 231.796 627.066 231.632 626.45 231.632C625.874 231.632 625.286 231.792 624.686 232.112L624.05 231.692L624.29 227.6H629.126V228.476H625.118L624.938 231.164C625.506 230.916 626.058 230.792 626.594 230.792C627.434 230.792 628.126 231.028 628.67 231.5C629.222 231.964 629.498 232.592 629.498 233.384C629.498 234.2 629.218 234.864 628.658 235.376C628.098 235.888 627.378 236.144 626.498 236.144ZM630.669 236V235.268L633.717 232.58C634.373 232.004 634.829 231.524 635.085 231.14C635.341 230.756 635.469 230.356 635.469 229.94C635.469 229.46 635.305 229.072 634.977 228.776C634.649 228.48 634.249 228.332 633.777 228.332C633.321 228.332 632.917 228.448 632.565 228.68C632.221 228.912 631.873 229.276 631.521 229.772L630.825 229.268C631.233 228.66 631.665 228.212 632.121 227.924C632.577 227.628 633.153 227.48 633.849 227.48C634.601 227.48 635.221 227.708 635.709 228.164C636.205 228.612 636.453 229.184 636.453 229.88C636.453 230.456 636.297 230.968 635.985 231.416C635.673 231.864 635.121 232.44 634.329 233.144L632.085 235.136H636.537V236H630.669ZM641.008 236.144C639.688 236.144 638.644 235.644 637.876 234.644L638.56 234.032C639.24 234.864 640.06 235.28 641.02 235.28C641.54 235.28 641.976 235.128 642.328 234.824C642.68 234.52 642.856 234.12 642.856 233.624C642.856 233.112 642.64 232.716 642.208 232.436C641.776 232.148 641.208 232.004 640.504 232.004H639.964L639.772 231.44L642.424 228.452H638.32V227.6H643.684V228.296L641.044 231.224C641.844 231.288 642.504 231.52 643.024 231.92C643.552 232.312 643.816 232.876 643.816 233.612C643.816 234.348 643.544 234.956 643 235.436C642.464 235.908 641.8 236.144 641.008 236.144ZM645.56 236V234.74H646.664V236H645.56ZM654.195 234.884C653.539 235.724 652.683 236.144 651.627 236.144C650.571 236.144 649.715 235.728 649.059 234.896C648.411 234.056 648.087 233.024 648.087 231.8C648.087 230.592 648.415 229.568 649.071 228.728C649.735 227.88 650.595 227.456 651.651 227.456C652.707 227.456 653.559 227.876 654.207 228.716C654.855 229.548 655.179 230.576 655.179 231.8C655.179 233.008 654.851 234.036 654.195 234.884ZM649.791 234.26C650.271 234.94 650.891 235.28 651.651 235.28C652.411 235.28 653.023 234.944 653.487 234.272C653.959 233.592 654.195 232.768 654.195 231.8C654.195 230.848 653.955 230.032 653.475 229.352C653.003 228.664 652.387 228.32 651.627 228.32C650.867 228.32 650.251 228.66 649.779 229.34C649.307 230.012 649.071 230.832 649.071 231.8C649.071 232.752 649.311 233.572 649.791 234.26Z" fill="#7C90B9"/>
<path d="M601.779 266.88V265.908H605.115V266.88H601.779ZM610.071 270V269.268L613.119 266.58C613.775 266.004 614.231 265.524 614.487 265.14C614.743 264.756 614.871 264.356 614.871 263.94C614.871 263.46 614.707 263.072 614.379 262.776C614.051 262.48 613.651 262.332 613.179 262.332C612.723 262.332 612.319 262.448 611.967 262.68C611.623 262.912 611.275 263.276 610.923 263.772L610.227 263.268C610.635 262.66 611.067 262.212 611.523 261.924C611.979 261.628 612.555 261.48 613.251 261.48C614.003 261.48 614.623 261.708 615.111 262.164C615.607 262.612 615.855 263.184 615.855 263.88C615.855 264.456 615.699 264.968 615.387 265.416C615.075 265.864 614.523 266.44 613.731 267.144L611.487 269.136H615.939V270H610.071ZM618.827 270V262.524L617.243 263.016L617.015 262.248L619.067 261.54H619.763V270H618.827ZM627.015 269.46C626.415 269.9 625.663 270.12 624.759 270.12C623.855 270.12 623.103 269.896 622.503 269.448C621.903 269 621.603 268.424 621.603 267.72C621.603 267.24 621.759 266.824 622.071 266.472C622.383 266.12 622.803 265.848 623.331 265.656C622.371 265.216 621.891 264.564 621.891 263.7C621.891 263.068 622.171 262.54 622.731 262.116C623.299 261.692 623.975 261.48 624.759 261.48C625.543 261.48 626.215 261.692 626.775 262.116C627.343 262.54 627.627 263.076 627.627 263.724C627.627 264.572 627.147 265.216 626.187 265.656C627.339 266.088 627.915 266.78 627.915 267.732C627.915 268.436 627.615 269.012 627.015 269.46ZM623.391 264.888C623.759 265.176 624.215 265.32 624.759 265.32C625.303 265.32 625.759 265.176 626.127 264.888C626.495 264.6 626.679 264.224 626.679 263.76C626.679 263.344 626.495 263 626.127 262.728C625.759 262.448 625.303 262.308 624.759 262.308C624.207 262.308 623.747 262.448 623.379 262.728C623.019 263 622.839 263.352 622.839 263.784C622.839 264.232 623.023 264.6 623.391 264.888ZM623.151 268.836C623.551 269.14 624.087 269.292 624.759 269.292C625.431 269.292 625.963 269.14 626.355 268.836C626.755 268.532 626.955 268.152 626.955 267.696C626.955 267.232 626.743 266.852 626.319 266.556C625.895 266.252 625.375 266.1 624.759 266.1C624.135 266.1 623.611 266.252 623.187 266.556C622.771 266.86 622.563 267.248 622.563 267.72C622.563 268.16 622.759 268.532 623.151 268.836ZM633.722 270V268.008H629.294L629.054 267.324L633.806 261.54H634.634V267.216H635.942V268.008H634.634V270H633.722ZM630.194 267.216H633.722V262.884L630.194 267.216ZM640.321 270.144C639.001 270.144 637.957 269.644 637.189 268.644L637.873 268.032C638.553 268.864 639.373 269.28 640.333 269.28C640.853 269.28 641.289 269.128 641.641 268.824C641.993 268.52 642.169 268.12 642.169 267.624C642.169 267.112 641.953 266.716 641.521 266.436C641.089 266.148 640.521 266.004 639.817 266.004H639.277L639.085 265.44L641.737 262.452H637.633V261.6H642.997V262.296L640.357 265.224C641.157 265.288 641.817 265.52 642.337 265.92C642.865 266.312 643.129 266.876 643.129 267.612C643.129 268.348 642.857 268.956 642.313 269.436C641.777 269.908 641.113 270.144 640.321 270.144ZM644.872 270V268.74H645.976V270H644.872ZM653.507 268.884C652.851 269.724 651.995 270.144 650.939 270.144C649.883 270.144 649.027 269.728 648.371 268.896C647.723 268.056 647.399 267.024 647.399 265.8C647.399 264.592 647.727 263.568 648.383 262.728C649.047 261.88 649.907 261.456 650.963 261.456C652.019 261.456 652.871 261.876 653.519 262.716C654.167 263.548 654.491 264.576 654.491 265.8C654.491 267.008 654.163 268.036 653.507 268.884ZM649.103 268.26C649.583 268.94 650.203 269.28 650.963 269.28C651.723 269.28 652.335 268.944 652.799 268.272C653.271 267.592 653.507 266.768 653.507 265.8C653.507 264.848 653.267 264.032 652.787 263.352C652.315 262.664 651.699 262.32 650.939 262.32C650.179 262.32 649.563 262.66 649.091 263.34C648.619 264.012 648.383 264.832 648.383 265.8C648.383 266.752 648.623 267.572 649.103 268.26Z" fill="#7C90B9"/>
<path d="M605.779 300.88V299.908H609.115V300.88H605.779ZM614.071 304V303.268L617.119 300.58C617.775 300.004 618.231 299.524 618.487 299.14C618.743 298.756 618.871 298.356 618.871 297.94C618.871 297.46 618.707 297.072 618.379 296.776C618.051 296.48 617.651 296.332 617.179 296.332C616.723 296.332 616.319 296.448 615.967 296.68C615.623 296.912 615.275 297.276 614.923 297.772L614.227 297.268C614.635 296.66 615.067 296.212 615.523 295.924C615.979 295.628 616.555 295.48 617.251 295.48C618.003 295.48 618.623 295.708 619.111 296.164C619.607 296.612 619.855 297.184 619.855 297.88C619.855 298.456 619.699 298.968 619.387 299.416C619.075 299.864 618.523 300.44 617.731 301.144L615.487 303.136H619.939V304H614.071ZM622.827 304V296.524L621.243 297.016L621.015 296.248L623.067 295.54H623.763V304H622.827ZM627.127 304V296.524L625.543 297.016L625.315 296.248L627.367 295.54H628.063V304H627.127ZM633.276 304.144C632.268 304.144 631.472 303.812 630.888 303.148C630.304 302.484 630.012 301.44 630.012 300.016C630.012 298.704 630.324 297.616 630.948 296.752C631.58 295.888 632.432 295.456 633.504 295.456C634.376 295.456 635.204 295.776 635.988 296.416L635.436 297.148C634.78 296.596 634.12 296.32 633.456 296.32C632.712 296.32 632.116 296.66 631.668 297.34C631.22 298.02 630.996 298.904 630.996 299.992V300.028C631.58 299.172 632.376 298.744 633.384 298.744C634.192 298.744 634.876 298.984 635.436 299.464C636.004 299.944 636.288 300.572 636.288 301.348C636.288 302.156 636 302.824 635.424 303.352C634.848 303.88 634.132 304.144 633.276 304.144ZM633.288 303.304C633.896 303.304 634.384 303.12 634.752 302.752C635.128 302.384 635.316 301.92 635.316 301.36C635.316 300.84 635.124 300.412 634.74 300.076C634.356 299.732 633.864 299.56 633.264 299.56C632.656 299.56 632.152 299.748 631.752 300.124C631.36 300.492 631.164 300.924 631.164 301.42C631.164 301.956 631.364 302.404 631.764 302.764C632.164 303.124 632.672 303.304 633.288 303.304ZM640.665 304.144C639.345 304.144 638.301 303.644 637.533 302.644L638.217 302.032C638.897 302.864 639.717 303.28 640.677 303.28C641.197 303.28 641.633 303.128 641.985 302.824C642.337 302.52 642.513 302.12 642.513 301.624C642.513 301.112 642.297 300.716 641.865 300.436C641.433 300.148 640.865 300.004 640.161 300.004H639.621L639.429 299.44L642.081 296.452H637.977V295.6H643.341V296.296L640.701 299.224C641.501 299.288 642.161 299.52 642.681 299.92C643.209 300.312 643.473 300.876 643.473 301.612C643.473 302.348 643.201 302.956 642.657 303.436C642.121 303.908 641.457 304.144 640.665 304.144ZM645.216 304V302.74H646.32V304H645.216ZM653.851 302.884C653.195 303.724 652.339 304.144 651.283 304.144C650.227 304.144 649.371 303.728 648.715 302.896C648.067 302.056 647.743 301.024 647.743 299.8C647.743 298.592 648.071 297.568 648.727 296.728C649.391 295.88 650.251 295.456 651.307 295.456C652.363 295.456 653.215 295.876 653.863 296.716C654.511 297.548 654.835 298.576 654.835 299.8C654.835 301.008 654.507 302.036 653.851 302.884ZM649.447 302.26C649.927 302.94 650.547 303.28 651.307 303.28C652.067 303.28 652.679 302.944 653.143 302.272C653.615 301.592 653.851 300.768 653.851 299.8C653.851 298.848 653.611 298.032 653.131 297.352C652.659 296.664 652.043 296.32 651.283 296.32C650.523 296.32 649.907 296.66 649.435 297.34C648.963 298.012 648.727 298.832 648.727 299.8C648.727 300.752 648.967 301.572 649.447 302.26Z" fill="#7C90B9"/>
<path d="M597.779 334.88V333.908H601.115V334.88H597.779ZM606.071 338V337.268L609.119 334.58C609.775 334.004 610.231 333.524 610.487 333.14C610.743 332.756 610.871 332.356 610.871 331.94C610.871 331.46 610.707 331.072 610.379 330.776C610.051 330.48 609.651 330.332 609.179 330.332C608.723 330.332 608.319 330.448 607.967 330.68C607.623 330.912 607.275 331.276 606.923 331.772L606.227 331.268C606.635 330.66 607.067 330.212 607.523 329.924C607.979 329.628 608.555 329.48 609.251 329.48C610.003 329.48 610.623 329.708 611.111 330.164C611.607 330.612 611.855 331.184 611.855 331.88C611.855 332.456 611.699 332.968 611.387 333.416C611.075 333.864 610.523 334.44 609.731 335.144L607.487 337.136H611.939V338H606.071ZM619.531 336.884C618.875 337.724 618.019 338.144 616.963 338.144C615.907 338.144 615.051 337.728 614.395 336.896C613.747 336.056 613.423 335.024 613.423 333.8C613.423 332.592 613.751 331.568 614.407 330.728C615.071 329.88 615.931 329.456 616.987 329.456C618.043 329.456 618.895 329.876 619.543 330.716C620.191 331.548 620.515 332.576 620.515 333.8C620.515 335.008 620.187 336.036 619.531 336.884ZM615.127 336.26C615.607 336.94 616.227 337.28 616.987 337.28C617.747 337.28 618.359 336.944 618.823 336.272C619.295 335.592 619.531 334.768 619.531 333.8C619.531 332.848 619.291 332.032 618.811 331.352C618.339 330.664 617.723 330.32 616.963 330.32C616.203 330.32 615.587 330.66 615.115 331.34C614.643 332.012 614.407 332.832 614.407 333.8C614.407 334.752 614.647 335.572 615.127 336.26ZM626.441 338V336.008H622.013L621.773 335.324L626.525 329.54H627.353V335.216H628.661V336.008H627.353V338H626.441ZM622.913 335.216H626.441V330.884L622.913 335.216ZM635.344 337.46C634.744 337.9 633.992 338.12 633.088 338.12C632.184 338.12 631.432 337.896 630.832 337.448C630.232 337 629.932 336.424 629.932 335.72C629.932 335.24 630.088 334.824 630.4 334.472C630.712 334.12 631.132 333.848 631.66 333.656C630.7 333.216 630.22 332.564 630.22 331.7C630.22 331.068 630.5 330.54 631.06 330.116C631.628 329.692 632.304 329.48 633.088 329.48C633.872 329.48 634.544 329.692 635.104 330.116C635.672 330.54 635.956 331.076 635.956 331.724C635.956 332.572 635.476 333.216 634.516 333.656C635.668 334.088 636.244 334.78 636.244 335.732C636.244 336.436 635.944 337.012 635.344 337.46ZM631.72 332.888C632.088 333.176 632.544 333.32 633.088 333.32C633.632 333.32 634.088 333.176 634.456 332.888C634.824 332.6 635.008 332.224 635.008 331.76C635.008 331.344 634.824 331 634.456 330.728C634.088 330.448 633.632 330.308 633.088 330.308C632.536 330.308 632.076 330.448 631.708 330.728C631.348 331 631.168 331.352 631.168 331.784C631.168 332.232 631.352 332.6 631.72 332.888ZM631.48 336.836C631.88 337.14 632.416 337.292 633.088 337.292C633.76 337.292 634.292 337.14 634.684 336.836C635.084 336.532 635.284 336.152 635.284 335.696C635.284 335.232 635.072 334.852 634.648 334.556C634.224 334.252 633.704 334.1 633.088 334.1C632.464 334.1 631.94 334.252 631.516 334.556C631.1 334.86 630.892 335.248 630.892 335.72C630.892 336.16 631.088 336.532 631.48 336.836ZM640.598 338.144C639.278 338.144 638.234 337.644 637.466 336.644L638.15 336.032C638.83 336.864 639.65 337.28 640.61 337.28C641.13 337.28 641.566 337.128 641.918 336.824C642.27 336.52 642.446 336.12 642.446 335.624C642.446 335.112 642.23 334.716 641.798 334.436C641.366 334.148 640.798 334.004 640.094 334.004H639.554L639.362 333.44L642.014 330.452H637.91V329.6H643.274V330.296L640.634 333.224C641.434 333.288 642.094 333.52 642.614 333.92C643.142 334.312 643.406 334.876 643.406 335.612C643.406 336.348 643.134 336.956 642.59 337.436C642.054 337.908 641.39 338.144 640.598 338.144ZM645.15 338V336.74H646.254V338H645.15ZM653.785 336.884C653.129 337.724 652.273 338.144 651.217 338.144C650.161 338.144 649.305 337.728 648.649 336.896C648.001 336.056 647.677 335.024 647.677 333.8C647.677 332.592 648.005 331.568 648.661 330.728C649.325 329.88 650.185 329.456 651.241 329.456C652.297 329.456 653.149 329.876 653.797 330.716C654.445 331.548 654.769 332.576 654.769 333.8C654.769 335.008 654.441 336.036 653.785 336.884ZM649.381 336.26C649.861 336.94 650.481 337.28 651.241 337.28C652.001 337.28 652.613 336.944 653.077 336.272C653.549 335.592 653.785 334.768 653.785 333.8C653.785 332.848 653.545 332.032 653.065 331.352C652.593 330.664 651.977 330.32 651.217 330.32C650.457 330.32 649.841 330.66 649.369 331.34C648.897 332.012 648.661 332.832 648.661 333.8C648.661 334.752 648.901 335.572 649.381 336.26Z" fill="#7C90B9"/>
<path d="M602.779 368.88V367.908H606.115V368.88H602.779ZM612.643 372V364.524L611.059 365.016L610.831 364.248L612.883 363.54H613.579V372H612.643ZM618.336 372.144C617.44 372.144 616.576 371.8 615.744 371.112L616.296 370.38C616.976 370.98 617.664 371.28 618.36 371.28C619.104 371.28 619.704 370.948 620.16 370.284C620.624 369.612 620.856 368.752 620.856 367.704V367.596C620.296 368.492 619.504 368.94 618.48 368.94C617.616 368.94 616.912 368.696 616.368 368.208C615.824 367.712 615.552 367.08 615.552 366.312C615.552 365.504 615.836 364.828 616.404 364.284C616.972 363.732 617.696 363.456 618.576 363.456C619.568 363.456 620.356 363.788 620.94 364.452C621.532 365.116 621.828 366.164 621.828 367.596C621.828 368.932 621.504 370.024 620.856 370.872C620.208 371.72 619.368 372.144 618.336 372.144ZM618.588 368.124C619.204 368.124 619.704 367.932 620.088 367.548C620.48 367.164 620.676 366.716 620.676 366.204C620.676 365.66 620.476 365.208 620.076 364.848C619.676 364.48 619.164 364.296 618.54 364.296C617.932 364.296 617.444 364.492 617.076 364.884C616.708 365.268 616.524 365.736 616.524 366.288C616.524 366.824 616.716 367.264 617.1 367.608C617.484 367.952 617.98 368.124 618.588 368.124ZM628.601 371.46C628.001 371.9 627.249 372.12 626.345 372.12C625.441 372.12 624.689 371.896 624.089 371.448C623.489 371 623.189 370.424 623.189 369.72C623.189 369.24 623.345 368.824 623.657 368.472C623.969 368.12 624.389 367.848 624.917 367.656C623.957 367.216 623.477 366.564 623.477 365.7C623.477 365.068 623.757 364.54 624.317 364.116C624.885 363.692 625.561 363.48 626.345 363.48C627.129 363.48 627.801 363.692 628.361 364.116C628.929 364.54 629.213 365.076 629.213 365.724C629.213 366.572 628.733 367.216 627.773 367.656C628.925 368.088 629.501 368.78 629.501 369.732C629.501 370.436 629.201 371.012 628.601 371.46ZM624.977 366.888C625.345 367.176 625.801 367.32 626.345 367.32C626.889 367.32 627.345 367.176 627.713 366.888C628.081 366.6 628.265 366.224 628.265 365.76C628.265 365.344 628.081 365 627.713 364.728C627.345 364.448 626.889 364.308 626.345 364.308C625.793 364.308 625.333 364.448 624.965 364.728C624.605 365 624.425 365.352 624.425 365.784C624.425 366.232 624.609 366.6 624.977 366.888ZM624.737 370.836C625.137 371.14 625.673 371.292 626.345 371.292C627.017 371.292 627.549 371.14 627.941 370.836C628.341 370.532 628.541 370.152 628.541 369.696C628.541 369.232 628.329 368.852 627.905 368.556C627.481 368.252 626.961 368.1 626.345 368.1C625.721 368.1 625.197 368.252 624.773 368.556C624.357 368.86 624.149 369.248 624.149 369.72C624.149 370.16 624.345 370.532 624.737 370.836ZM630.7 372V371.268L633.748 368.58C634.404 368.004 634.86 367.524 635.116 367.14C635.372 366.756 635.5 366.356 635.5 365.94C635.5 365.46 635.336 365.072 635.008 364.776C634.68 364.48 634.28 364.332 633.808 364.332C633.352 364.332 632.948 364.448 632.596 364.68C632.252 364.912 631.904 365.276 631.552 365.772L630.856 365.268C631.264 364.66 631.696 364.212 632.152 363.924C632.608 363.628 633.184 363.48 633.88 363.48C634.632 363.48 635.252 363.708 635.74 364.164C636.236 364.612 636.484 365.184 636.484 365.88C636.484 366.456 636.328 366.968 636.016 367.416C635.704 367.864 635.152 368.44 634.36 369.144L632.116 371.136H636.568V372H630.7ZM641.04 372.144C639.72 372.144 638.676 371.644 637.908 370.644L638.592 370.032C639.272 370.864 640.092 371.28 641.052 371.28C641.572 371.28 642.008 371.128 642.36 370.824C642.712 370.52 642.888 370.12 642.888 369.624C642.888 369.112 642.672 368.716 642.24 368.436C641.808 368.148 641.24 368.004 640.536 368.004H639.996L639.804 367.44L642.456 364.452H638.352V363.6H643.716V364.296L641.076 367.224C641.876 367.288 642.536 367.52 643.056 367.92C643.584 368.312 643.848 368.876 643.848 369.612C643.848 370.348 643.576 370.956 643.032 371.436C642.496 371.908 641.832 372.144 641.04 372.144ZM645.591 372V370.74H646.695V372H645.591ZM654.226 370.884C653.57 371.724 652.714 372.144 651.658 372.144C650.602 372.144 649.746 371.728 649.09 370.896C648.442 370.056 648.118 369.024 648.118 367.8C648.118 366.592 648.446 365.568 649.102 364.728C649.766 363.88 650.626 363.456 651.682 363.456C652.738 363.456 653.59 363.876 654.238 364.716C654.886 365.548 655.21 366.576 655.21 367.8C655.21 369.008 654.882 370.036 654.226 370.884ZM649.822 370.26C650.302 370.94 650.922 371.28 651.682 371.28C652.442 371.28 653.054 370.944 653.518 370.272C653.99 369.592 654.226 368.768 654.226 367.8C654.226 366.848 653.986 366.032 653.506 365.352C653.034 364.664 652.418 364.32 651.658 364.32C650.898 364.32 650.282 364.66 649.81 365.34C649.338 366.012 649.102 366.832 649.102 367.8C649.102 368.752 649.342 369.572 649.822 370.26Z" fill="#7C90B9"/>
<path d="M604.779 402.88V401.908H608.115V402.88H604.779ZM614.643 406V398.524L613.059 399.016L612.831 398.248L614.883 397.54H615.579V406H614.643ZM620.336 406.144C619.44 406.144 618.576 405.8 617.744 405.112L618.296 404.38C618.976 404.98 619.664 405.28 620.36 405.28C621.104 405.28 621.704 404.948 622.16 404.284C622.624 403.612 622.856 402.752 622.856 401.704V401.596C622.296 402.492 621.504 402.94 620.48 402.94C619.616 402.94 618.912 402.696 618.368 402.208C617.824 401.712 617.552 401.08 617.552 400.312C617.552 399.504 617.836 398.828 618.404 398.284C618.972 397.732 619.696 397.456 620.576 397.456C621.568 397.456 622.356 397.788 622.94 398.452C623.532 399.116 623.828 400.164 623.828 401.596C623.828 402.932 623.504 404.024 622.856 404.872C622.208 405.72 621.368 406.144 620.336 406.144ZM620.588 402.124C621.204 402.124 621.704 401.932 622.088 401.548C622.48 401.164 622.676 400.716 622.676 400.204C622.676 399.66 622.476 399.208 622.076 398.848C621.676 398.48 621.164 398.296 620.54 398.296C619.932 398.296 619.444 398.492 619.076 398.884C618.708 399.268 618.524 399.736 618.524 400.288C618.524 400.824 618.716 401.264 619.1 401.608C619.484 401.952 619.98 402.124 620.588 402.124ZM626.713 406V398.524L625.129 399.016L624.901 398.248L626.953 397.54H627.649V406H626.713ZM634.05 406V404.008H629.622L629.382 403.324L634.134 397.54H634.962V403.216H636.27V404.008H634.962V406H634.05ZM630.522 403.216H634.05V398.884L630.522 403.216ZM640.649 406.144C639.329 406.144 638.285 405.644 637.517 404.644L638.201 404.032C638.881 404.864 639.701 405.28 640.661 405.28C641.181 405.28 641.617 405.128 641.969 404.824C642.321 404.52 642.497 404.12 642.497 403.624C642.497 403.112 642.281 402.716 641.849 402.436C641.417 402.148 640.849 402.004 640.145 402.004H639.605L639.413 401.44L642.065 398.452H637.961V397.6H643.325V398.296L640.685 401.224C641.485 401.288 642.145 401.52 642.665 401.92C643.193 402.312 643.457 402.876 643.457 403.612C643.457 404.348 643.185 404.956 642.641 405.436C642.105 405.908 641.441 406.144 640.649 406.144ZM645.2 406V404.74H646.304V406H645.2ZM653.835 404.884C653.179 405.724 652.323 406.144 651.267 406.144C650.211 406.144 649.355 405.728 648.699 404.896C648.051 404.056 647.727 403.024 647.727 401.8C647.727 400.592 648.055 399.568 648.711 398.728C649.375 397.88 650.235 397.456 651.291 397.456C652.347 397.456 653.199 397.876 653.847 398.716C654.495 399.548 654.819 400.576 654.819 401.8C654.819 403.008 654.491 404.036 653.835 404.884ZM649.431 404.26C649.911 404.94 650.531 405.28 651.291 405.28C652.051 405.28 652.663 404.944 653.127 404.272C653.599 403.592 653.835 402.768 653.835 401.8C653.835 400.848 653.595 400.032 653.115 399.352C652.643 398.664 652.027 398.32 651.267 398.32C650.507 398.32 649.891 398.66 649.419 399.34C648.947 400.012 648.711 400.832 648.711 401.8C648.711 402.752 648.951 403.572 649.431 404.26Z" fill="#7C90B9"/>
<path d="M601.779 436.88V435.908H605.115V436.88H601.779ZM611.643 440V432.524L610.059 433.016L609.831 432.248L611.883 431.54H612.579V440H611.643ZM619.832 439.46C619.232 439.9 618.48 440.12 617.576 440.12C616.672 440.12 615.92 439.896 615.32 439.448C614.72 439 614.42 438.424 614.42 437.72C614.42 437.24 614.576 436.824 614.888 436.472C615.2 436.12 615.62 435.848 616.148 435.656C615.188 435.216 614.708 434.564 614.708 433.7C614.708 433.068 614.988 432.54 615.548 432.116C616.116 431.692 616.792 431.48 617.576 431.48C618.36 431.48 619.032 431.692 619.592 432.116C620.16 432.54 620.444 433.076 620.444 433.724C620.444 434.572 619.964 435.216 619.004 435.656C620.156 436.088 620.732 436.78 620.732 437.732C620.732 438.436 620.432 439.012 619.832 439.46ZM616.208 434.888C616.576 435.176 617.032 435.32 617.576 435.32C618.12 435.32 618.576 435.176 618.944 434.888C619.312 434.6 619.496 434.224 619.496 433.76C619.496 433.344 619.312 433 618.944 432.728C618.576 432.448 618.12 432.308 617.576 432.308C617.024 432.308 616.564 432.448 616.196 432.728C615.836 433 615.656 433.352 615.656 433.784C615.656 434.232 615.84 434.6 616.208 434.888ZM615.968 438.836C616.368 439.14 616.904 439.292 617.576 439.292C618.248 439.292 618.78 439.14 619.172 438.836C619.572 438.532 619.772 438.152 619.772 437.696C619.772 437.232 619.56 436.852 619.136 436.556C618.712 436.252 618.192 436.1 617.576 436.1C616.952 436.1 616.428 436.252 616.004 436.556C615.588 436.86 615.38 437.248 615.38 437.72C615.38 438.16 615.576 438.532 615.968 438.836ZM626.538 440V438.008H622.11L621.87 437.324L626.622 431.54H627.45V437.216H628.758V438.008H627.45V440H626.538ZM623.01 437.216H626.538V432.884L623.01 437.216ZM633.401 440.144C632.393 440.144 631.597 439.812 631.013 439.148C630.429 438.484 630.137 437.44 630.137 436.016C630.137 434.704 630.449 433.616 631.073 432.752C631.705 431.888 632.557 431.456 633.629 431.456C634.501 431.456 635.329 431.776 636.113 432.416L635.561 433.148C634.905 432.596 634.245 432.32 633.581 432.32C632.837 432.32 632.241 432.66 631.793 433.34C631.345 434.02 631.121 434.904 631.121 435.992V436.028C631.705 435.172 632.501 434.744 633.509 434.744C634.317 434.744 635.001 434.984 635.561 435.464C636.129 435.944 636.413 436.572 636.413 437.348C636.413 438.156 636.125 438.824 635.549 439.352C634.973 439.88 634.257 440.144 633.401 440.144ZM633.413 439.304C634.021 439.304 634.509 439.12 634.877 438.752C635.253 438.384 635.441 437.92 635.441 437.36C635.441 436.84 635.249 436.412 634.865 436.076C634.481 435.732 633.989 435.56 633.389 435.56C632.781 435.56 632.277 435.748 631.877 436.124C631.485 436.492 631.289 436.924 631.289 437.42C631.289 437.956 631.489 438.404 631.889 438.764C632.289 439.124 632.797 439.304 633.413 439.304ZM640.79 440.144C639.47 440.144 638.426 439.644 637.658 438.644L638.342 438.032C639.022 438.864 639.842 439.28 640.802 439.28C641.322 439.28 641.758 439.128 642.11 438.824C642.462 438.52 642.638 438.12 642.638 437.624C642.638 437.112 642.422 436.716 641.99 436.436C641.558 436.148 640.99 436.004 640.286 436.004H639.746L639.554 435.44L642.206 432.452H638.102V431.6H643.466V432.296L640.826 435.224C641.626 435.288 642.286 435.52 642.806 435.92C643.334 436.312 643.598 436.876 643.598 437.612C643.598 438.348 643.326 438.956 642.782 439.436C642.246 439.908 641.582 440.144 640.79 440.144ZM645.341 440V438.74H646.445V440H645.341ZM653.976 438.884C653.32 439.724 652.464 440.144 651.408 440.144C650.352 440.144 649.496 439.728 648.84 438.896C648.192 438.056 647.868 437.024 647.868 435.8C647.868 434.592 648.196 433.568 648.852 432.728C649.516 431.88 650.376 431.456 651.432 431.456C652.488 431.456 653.34 431.876 653.988 432.716C654.636 433.548 654.96 434.576 654.96 435.8C654.96 437.008 654.632 438.036 653.976 438.884ZM649.572 438.26C650.052 438.94 650.672 439.28 651.432 439.28C652.192 439.28 652.804 438.944 653.268 438.272C653.74 437.592 653.976 436.768 653.976 435.8C653.976 434.848 653.736 434.032 653.256 433.352C652.784 432.664 652.168 432.32 651.408 432.32C650.648 432.32 650.032 432.66 649.56 433.34C649.088 434.012 648.852 434.832 648.852 435.8C648.852 436.752 649.092 437.572 649.572 438.26Z" fill="#7C90B9"/>
<path d="M602.779 470.88V469.908H606.115V470.88H602.779ZM612.643 474V466.524L611.059 467.016L610.831 466.248L612.883 465.54H613.579V474H612.643ZM616.44 474L620.232 466.464H615.612V465.6H621.312V466.308L617.496 474H616.44ZM623.588 474L627.38 466.464H622.76V465.6H628.46V466.308L624.644 474H623.588ZM635.012 473.46C634.412 473.9 633.66 474.12 632.756 474.12C631.852 474.12 631.1 473.896 630.5 473.448C629.9 473 629.6 472.424 629.6 471.72C629.6 471.24 629.756 470.824 630.068 470.472C630.38 470.12 630.8 469.848 631.328 469.656C630.368 469.216 629.888 468.564 629.888 467.7C629.888 467.068 630.168 466.54 630.728 466.116C631.296 465.692 631.972 465.48 632.756 465.48C633.54 465.48 634.212 465.692 634.772 466.116C635.34 466.54 635.624 467.076 635.624 467.724C635.624 468.572 635.144 469.216 634.184 469.656C635.336 470.088 635.912 470.78 635.912 471.732C635.912 472.436 635.612 473.012 635.012 473.46ZM631.388 468.888C631.756 469.176 632.212 469.32 632.756 469.32C633.3 469.32 633.756 469.176 634.124 468.888C634.492 468.6 634.676 468.224 634.676 467.76C634.676 467.344 634.492 467 634.124 466.728C633.756 466.448 633.3 466.308 632.756 466.308C632.204 466.308 631.744 466.448 631.376 466.728C631.016 467 630.836 467.352 630.836 467.784C630.836 468.232 631.02 468.6 631.388 468.888ZM631.148 472.836C631.548 473.14 632.084 473.292 632.756 473.292C633.428 473.292 633.96 473.14 634.352 472.836C634.752 472.532 634.952 472.152 634.952 471.696C634.952 471.232 634.74 470.852 634.316 470.556C633.892 470.252 633.372 470.1 632.756 470.1C632.132 470.1 631.608 470.252 631.184 470.556C630.768 470.86 630.56 471.248 630.56 471.72C630.56 472.16 630.756 472.532 631.148 472.836ZM640.266 474.144C638.946 474.144 637.902 473.644 637.134 472.644L637.818 472.032C638.498 472.864 639.318 473.28 640.278 473.28C640.798 473.28 641.234 473.128 641.586 472.824C641.938 472.52 642.114 472.12 642.114 471.624C642.114 471.112 641.898 470.716 641.466 470.436C641.034 470.148 640.466 470.004 639.762 470.004H639.222L639.03 469.44L641.682 466.452H637.578V465.6H642.942V466.296L640.302 469.224C641.102 469.288 641.762 469.52 642.282 469.92C642.81 470.312 643.074 470.876 643.074 471.612C643.074 472.348 642.802 472.956 642.258 473.436C641.722 473.908 641.058 474.144 640.266 474.144ZM644.818 474V472.74H645.922V474H644.818ZM653.453 472.884C652.797 473.724 651.941 474.144 650.885 474.144C649.829 474.144 648.973 473.728 648.317 472.896C647.669 472.056 647.345 471.024 647.345 469.8C647.345 468.592 647.673 467.568 648.329 466.728C648.993 465.88 649.853 465.456 650.909 465.456C651.965 465.456 652.817 465.876 653.465 466.716C654.113 467.548 654.437 468.576 654.437 469.8C654.437 471.008 654.109 472.036 653.453 472.884ZM649.049 472.26C649.529 472.94 650.149 473.28 650.909 473.28C651.669 473.28 652.281 472.944 652.745 472.272C653.217 471.592 653.453 470.768 653.453 469.8C653.453 468.848 653.213 468.032 652.733 467.352C652.261 466.664 651.645 466.32 650.885 466.32C650.125 466.32 649.509 466.66 649.037 467.34C648.565 468.012 648.329 468.832 648.329 469.8C648.329 470.752 648.569 471.572 649.049 472.26Z" fill="#7C90B9"/>
<rect x="512" y="23" width="73" height="30" fill="#00A653"/>
<rect x="492.5" y="37.5" width="19" height="1" stroke="#00A653"/>
<path d="M521.829 43V41.642L525.203 38.772C525.893 38.1933 526.369 37.7173 526.631 37.344C526.901 36.9613 527.037 36.5553 527.037 36.126C527.037 35.6593 526.887 35.2907 526.589 35.02C526.29 34.74 525.912 34.6 525.455 34.6C525.025 34.6 524.638 34.7167 524.293 34.95C523.957 35.1833 523.588 35.5567 523.187 36.07L521.969 35.118C522.473 34.4087 522.991 33.8907 523.523 33.564C524.064 33.228 524.75 33.06 525.581 33.06C526.542 33.06 527.321 33.3307 527.919 33.872C528.516 34.4133 528.815 35.1273 528.815 36.014C528.815 36.3967 528.768 36.742 528.675 37.05C528.581 37.3487 528.413 37.6567 528.171 37.974C527.937 38.282 527.681 38.5667 527.401 38.828C527.13 39.08 526.752 39.4067 526.267 39.808L524.251 41.488H528.913V43H521.829ZM534.447 43.168C533.317 43.168 532.412 42.8273 531.731 42.146C531.329 41.7447 531.026 41.2547 530.821 40.676C530.625 40.088 530.527 39.318 530.527 38.366C530.527 36.8073 530.891 35.5287 531.619 34.53C532.356 33.5313 533.392 33.032 534.727 33.032C535.819 33.032 536.817 33.396 537.723 34.124L536.799 35.454C536.061 34.8847 535.352 34.6 534.671 34.6C533.961 34.6 533.401 34.8893 532.991 35.468C532.589 36.0373 532.365 36.784 532.319 37.708C532.991 37.0547 533.77 36.728 534.657 36.728C535.646 36.728 536.463 37.008 537.107 37.568C537.76 38.1187 538.087 38.8747 538.087 39.836C538.087 40.7973 537.737 41.5953 537.037 42.23C536.346 42.8553 535.483 43.168 534.447 43.168ZM534.405 41.684C535.002 41.684 535.478 41.516 535.833 41.18C536.187 40.844 536.365 40.41 536.365 39.878C536.365 39.3833 536.178 38.9773 535.805 38.66C535.441 38.3333 534.96 38.17 534.363 38.17C533.765 38.17 533.285 38.338 532.921 38.674C532.557 39.01 532.375 39.4253 532.375 39.92C532.375 40.424 532.561 40.844 532.935 41.18C533.308 41.516 533.798 41.684 534.405 41.684ZM543.133 43.168C541.575 43.168 540.324 42.594 539.381 41.446L540.585 40.326C541.313 41.1847 542.172 41.614 543.161 41.614C543.656 41.614 544.062 41.4787 544.379 41.208C544.697 40.928 544.855 40.5593 544.855 40.102C544.855 39.626 544.65 39.2573 544.239 38.996C543.838 38.7253 543.292 38.59 542.601 38.59H541.803L541.523 37.512L544.169 34.698H539.927V33.2H546.409V34.488L543.679 37.288C544.538 37.4093 545.233 37.6987 545.765 38.156C546.297 38.604 546.563 39.2433 546.563 40.074C546.563 40.9793 546.241 41.7213 545.597 42.3C544.963 42.8787 544.141 43.168 543.133 43.168ZM552.152 43.168C551.022 43.168 550.117 42.8273 549.436 42.146C549.034 41.7447 548.731 41.2547 548.526 40.676C548.33 40.088 548.232 39.318 548.232 38.366C548.232 36.8073 548.596 35.5287 549.324 34.53C550.061 33.5313 551.097 33.032 552.432 33.032C553.524 33.032 554.522 33.396 555.428 34.124L554.504 35.454C553.766 34.8847 553.057 34.6 552.376 34.6C551.666 34.6 551.106 34.8893 550.696 35.468C550.294 36.0373 550.07 36.784 550.024 37.708C550.696 37.0547 551.475 36.728 552.362 36.728C553.351 36.728 554.168 37.008 554.812 37.568C555.465 38.1187 555.792 38.8747 555.792 39.836C555.792 40.7973 555.442 41.5953 554.742 42.23C554.051 42.8553 553.188 43.168 552.152 43.168ZM552.11 41.684C552.707 41.684 553.183 41.516 553.538 41.18C553.892 40.844 554.07 40.41 554.07 39.878C554.07 39.3833 553.883 38.9773 553.51 38.66C553.146 38.3333 552.665 38.17 552.068 38.17C551.47 38.17 550.99 38.338 550.626 38.674C550.262 39.01 550.08 39.4253 550.08 39.92C550.08 40.424 550.266 40.844 550.64 41.18C551.013 41.516 551.503 41.684 552.11 41.684ZM557.859 43L562.255 34.712H557.327V33.2H564.215V34.502L559.791 43H557.859ZM564.464 43V41.082H566.326V43H564.464ZM567.957 43V41.642L571.331 38.772C572.022 38.1933 572.498 37.7173 572.759 37.344C573.03 36.9613 573.165 36.5553 573.165 36.126C573.165 35.6593 573.016 35.2907 572.717 35.02C572.419 34.74 572.041 34.6 571.583 34.6C571.154 34.6 570.767 34.7167 570.421 34.95C570.085 35.1833 569.717 35.5567 569.315 36.07L568.097 35.118C568.601 34.4087 569.119 33.8907 569.651 33.564C570.193 33.228 570.879 33.06 571.709 33.06C572.671 33.06 573.45 33.3307 574.047 33.872C574.645 34.4133 574.943 35.1273 574.943 36.014C574.943 36.3967 574.897 36.742 574.803 37.05C574.71 37.3487 574.542 37.6567 574.299 37.974C574.066 38.282 573.809 38.5667 573.529 38.828C573.259 39.08 572.881 39.4067 572.395 39.808L570.379 41.488H575.041V43H567.957Z" fill="white"/>
<rect x="269" y="241" width="69" height="30" fill="#00A653"/>
<rect x="338.5" y="255.5" width="19" height="1" stroke="#00A653"/>
<path d="M279.05 261V259.642L282.424 256.772C283.115 256.193 283.591 255.717 283.852 255.344C284.123 254.961 284.258 254.555 284.258 254.126C284.258 253.659 284.109 253.291 283.81 253.02C283.512 252.74 283.134 252.6 282.676 252.6C282.247 252.6 281.86 252.717 281.514 252.95C281.178 253.183 280.81 253.557 280.408 254.07L279.19 253.118C279.694 252.409 280.212 251.891 280.744 251.564C281.286 251.228 281.972 251.06 282.802 251.06C283.764 251.06 284.543 251.331 285.14 251.872C285.738 252.413 286.036 253.127 286.036 254.014C286.036 254.397 285.99 254.742 285.896 255.05C285.803 255.349 285.635 255.657 285.392 255.974C285.159 256.282 284.902 256.567 284.622 256.828C284.352 257.08 283.974 257.407 283.488 257.808L281.472 259.488H286.134V261H279.05ZM289.442 261V252.88L287.678 253.37L287.314 251.97L289.946 251.13H291.15V261H289.442ZM296.687 261.168C295.539 261.168 294.494 260.776 293.551 259.992L294.489 258.676C295.217 259.292 295.964 259.6 296.729 259.6C297.438 259.6 298.003 259.32 298.423 258.76C298.843 258.191 299.067 257.444 299.095 256.52C298.516 257.211 297.751 257.556 296.799 257.556C295.754 257.556 294.914 257.271 294.279 256.702C293.644 256.133 293.327 255.372 293.327 254.42C293.327 253.449 293.668 252.642 294.349 251.998C295.03 251.354 295.908 251.032 296.981 251.032C298.101 251.032 299.006 251.377 299.697 252.068C300.49 252.861 300.887 254.117 300.887 255.834C300.887 257.43 300.509 258.718 299.753 259.698C299.006 260.678 297.984 261.168 296.687 261.168ZM295.595 255.624C295.959 255.951 296.444 256.114 297.051 256.114C297.658 256.114 298.138 255.941 298.493 255.596C298.857 255.251 299.039 254.826 299.039 254.322C299.039 253.799 298.852 253.37 298.479 253.034C298.106 252.689 297.611 252.516 296.995 252.516C296.398 252.516 295.922 252.693 295.567 253.048C295.222 253.393 295.049 253.832 295.049 254.364C295.049 254.877 295.231 255.297 295.595 255.624ZM304.18 261V252.88L302.416 253.37L302.052 251.97L304.684 251.13H305.888V261H304.18ZM311.425 261.168C310.277 261.168 309.232 260.776 308.289 259.992L309.227 258.676C309.955 259.292 310.702 259.6 311.467 259.6C312.177 259.6 312.741 259.32 313.161 258.76C313.581 258.191 313.805 257.444 313.833 256.52C313.255 257.211 312.489 257.556 311.537 257.556C310.492 257.556 309.652 257.271 309.017 256.702C308.383 256.133 308.065 255.372 308.065 254.42C308.065 253.449 308.406 252.642 309.087 251.998C309.769 251.354 310.646 251.032 311.719 251.032C312.839 251.032 313.745 251.377 314.435 252.068C315.229 252.861 315.625 254.117 315.625 255.834C315.625 257.43 315.247 258.718 314.491 259.698C313.745 260.678 312.723 261.168 311.425 261.168ZM310.333 255.624C310.697 255.951 311.183 256.114 311.789 256.114C312.396 256.114 312.877 255.941 313.231 255.596C313.595 255.251 313.777 254.826 313.777 254.322C313.777 253.799 313.591 253.37 313.217 253.034C312.844 252.689 312.349 252.516 311.733 252.516C311.136 252.516 310.66 252.693 310.305 253.048C309.96 253.393 309.787 253.832 309.787 254.364C309.787 254.877 309.969 255.297 310.333 255.624ZM317.242 261V259.082H319.104V261H317.242ZM320.736 261V259.642L324.11 256.772C324.8 256.193 325.276 255.717 325.538 255.344C325.808 254.961 325.944 254.555 325.944 254.126C325.944 253.659 325.794 253.291 325.496 253.02C325.197 252.74 324.819 252.6 324.362 252.6C323.932 252.6 323.545 252.717 323.2 252.95C322.864 253.183 322.495 253.557 322.094 254.07L320.876 253.118C321.38 252.409 321.898 251.891 322.43 251.564C322.971 251.228 323.657 251.06 324.488 251.06C325.449 251.06 326.228 251.331 326.826 251.872C327.423 252.413 327.722 253.127 327.722 254.014C327.722 254.397 327.675 254.742 327.582 255.05C327.488 255.349 327.32 255.657 327.078 255.974C326.844 256.282 326.588 256.567 326.308 256.828C326.037 257.08 325.659 257.407 325.174 257.808L323.158 259.488H327.82V261H320.736Z" fill="white"/>
<path d="M573.002 110.75H570.002V128.13H573.002V110.75Z" fill="#00A653"/>
<path d="M572.002 106H571.002V135H572.002V106Z" fill="#00A653"/>
<path d="M568.002 89H565.002V95H568.002V89Z" fill="#00A653"/>
<path d="M567.002 86H566.002V97.13H567.002V86Z" fill="#00A653"/>
<path d="M560.502 119.5V93.5H562.502V119.5H560.502Z" stroke="#EB431E"/>
<path d="M562.002 90H561.002V94H562.002V90Z" fill="#EB431E"/>
<path d="M562.002 119H561.002V123H562.002V119Z" fill="#EB431E"/>
<path d="M545.502 137.5V116.625H547.502V137.5H545.502Z" stroke="#EB431E"/>
<path d="M547.002 113H546.002V116.125H547.002V113Z" fill="#EB431E"/>
<path d="M547.002 138H546.002V147H547.002V138Z" fill="#EB431E"/>
<path d="M529.502 155.5V137.5H531.502V155.5H529.502Z" stroke="#EB431E"/>
<path d="M531.002 156H530.002V160H531.002V156Z" fill="#EB431E"/>
<path d="M531.002 118H530.002V137H531.002V118Z" fill="#EB431E"/>
<path d="M521.502 160.5V144.5H523.502V160.5H521.502Z" stroke="#EB431E"/>
<path d="M523.002 161H522.002V170H523.002V161Z" fill="#EB431E"/>
<path d="M523.002 132H522.002V145H523.002V132Z" fill="#EB431E"/>
<path d="M509.368 135.659L509.531 93.4961L511.531 93.5038L511.368 135.666L509.368 135.659Z" stroke="#EB431E"/>
<path d="M511.002 136H510.002V141H511.002V136Z" fill="#EB431E"/>
<path d="M511.002 89H510.002V94H511.002V89Z" fill="#EB431E"/>
<path d="M483.573 57.3079L483.657 31.111L485.498 31.1197L485.415 57.3165L483.573 57.3079Z" stroke="#EB431E"/>
<path d="M485.002 57H484.002V61H485.002V57Z" fill="#EB431E"/>
<path d="M485.023 26H484.076V31.7692H485.023V26Z" fill="#EB431E"/>
<path d="M473.509 93.3157L473.586 69.111L475.428 69.1197L475.351 93.3244L473.509 93.3157Z" stroke="#EB431E"/>
<path d="M475.002 93H474.002V97H475.002V93Z" fill="#EB431E"/>
<path d="M474.953 64H474.006V69.7692H474.953V64Z" fill="#EB431E"/>
<path d="M469.526 115.387L469.58 98.111L471.422 98.1197L471.367 115.395L469.526 115.387Z" stroke="#EB431E"/>
<path d="M471.002 115H470.002V119H471.002V115Z" fill="#EB431E"/>
<path d="M470.947 93H470V98.7692H470.947V93Z" fill="#EB431E"/>
<path d="M465.549 122.401L465.559 119.111L467.401 119.12L467.39 122.41L465.549 122.401Z" stroke="#EB431E"/>
<path d="M467.002 122H466.002V124H467.002V122Z" fill="#EB431E"/>
<path d="M466.926 114H465.979V119.769H466.926V114Z" fill="#EB431E"/>
<path d="M455.449 141.621L455.498 126.111L457.34 126.12L457.291 141.63L455.449 141.621Z" stroke="#EB431E"/>
<path d="M457 142H456V144H457V142Z" fill="#EB431E"/>
<path d="M456.947 121H456V126.769H456.947V121Z" fill="#EB431E"/>
<path d="M446.394 183.46L446.498 150.502L448.498 150.512L448.394 183.47L446.394 183.46Z" stroke="#EB431E"/>
<path d="M448.002 184H447.002V186H448.002V184Z" fill="#EB431E"/>
<path d="M448.002 146H447.002V151H448.002V146Z" fill="#EB431E"/>
<path d="M441.528 191.282L441.553 183.427L443.553 183.436L443.528 191.291L441.528 191.282Z" stroke="#EB431E"/>
<path d="M443.002 191H442.002V193H443.002V191Z" fill="#EB431E"/>
<path d="M443 178H442V183H443V178Z" fill="#EB431E"/>
<path d="M427.503 193.282L427.528 185.427L429.528 185.436L429.503 193.291L427.503 193.282Z" stroke="#EB431E"/>
<path d="M428.977 193H427.977V195H428.977V193Z" fill="#EB431E"/>
<path d="M428.975 180H427.975V185H428.975V180Z" fill="#EB431E"/>
<path d="M423.516 193.131L423.528 189.427L425.528 189.436L425.516 193.14L423.516 193.131Z" stroke="#EB431E"/>
<path d="M425.002 193H424.002V198H425.002V193Z" fill="#EB431E"/>
<path d="M425.002 186H424.002V189H425.002V186Z" fill="#EB431E"/>
<path d="M418.45 216.668L418.514 196.427L420.514 196.436L420.45 216.677L418.45 216.668Z" stroke="#EB431E"/>
<path d="M420.002 217H419.002V220H420.002V217Z" fill="#EB431E"/>
<path d="M419.988 193H418.988V196H419.988V193Z" fill="#EB431E"/>
<path d="M414.554 221.905L414.569 217.427L416.569 217.436L416.554 221.914L414.554 221.905Z" stroke="#EB431E"/>
<path d="M416.002 222H415.002V225H416.002V222Z" fill="#EB431E"/>
<path d="M416.041 214H415.041V217H416.041V214Z" fill="#EB431E"/>
<path d="M409.467 240.425L409.518 224.427L411.518 224.436L411.467 240.435L409.467 240.425Z" stroke="#EB431E"/>
<path d="M411.002 241H410.002V243H411.002V241Z" fill="#EB431E"/>
<path d="M411.002 222H410.002V224H411.002V222Z" fill="#EB431E"/>
<path d="M404.541 246.774L404.555 242.427L406.555 242.436L406.541 246.783L404.541 246.774Z" stroke="#EB431E"/>
<path d="M406 247H405V249H406V247Z" fill="#EB431E"/>
<path d="M406.037 240H405.037V242H406.037V240Z" fill="#EB431E"/>
<path d="M399.513 247.881L399.518 246.427L401.518 246.436L401.513 247.891L399.513 247.881Z" stroke="#EB431E"/>
<path d="M401.002 248H400.002V250H401.002V248Z" fill="#EB431E"/>
<path d="M401.002 242H400.002V246H401.002V242Z" fill="#EB431E"/>
<path d="M395.459 265.883L395.516 248.068L397.516 248.078L397.459 265.892L395.459 265.883Z" stroke="#EB431E"/>
<path d="M397 266H396V267H397V266Z" fill="#EB431E"/>
<path d="M397 246H396V248H397V246Z" fill="#EB431E"/>
<path d="M386.536 269.758L386.561 262.068L388.561 262.078L388.536 269.767L386.536 269.758Z" stroke="#EB431E"/>
<path d="M388 270H387V280H388V270Z" fill="#EB431E"/>
<path d="M388.045 260H387.045V262H388.045V260Z" fill="#EB431E"/>
<path d="M381.503 278.758L381.528 271.068L383.528 271.078L383.503 278.767L381.503 278.758Z" stroke="#EB431E"/>
<path d="M383.002 279H382.002V283H383.002V279Z" fill="#EB431E"/>
<path d="M383.002 268H382.002V271H383.002V268Z" fill="#EB431E"/>
<path d="M367.501 266.758L367.526 259.068L369.526 259.078L369.501 266.767L367.501 266.758Z" stroke="#EB431E"/>
<path d="M369 267H368V271H369V267Z" fill="#EB431E"/>
<path d="M369 256H368V259H369V256Z" fill="#EB431E"/>
<path d="M353.476 297.726L353.526 282.068L355.526 282.078L355.476 297.735L353.476 297.726Z" stroke="#EB431E"/>
<path d="M355.002 298H354.002V302H355.002V298Z" fill="#EB431E"/>
<path d="M355.002 279H354.002V282H355.002V279Z" fill="#EB431E"/>
<path d="M334.521 304.632L334.551 295.068L336.551 295.078L336.521 304.642L334.521 304.632Z" stroke="#EB431E"/>
<path d="M336 305H335V309H336V305Z" fill="#EB431E"/>
<path d="M336.027 292H335.027V295H336.027V292Z" fill="#EB431E"/>
<path d="M325.501 311.632L325.532 302.068L327.532 302.078L327.501 311.642L325.501 311.632Z" stroke="#EB431E"/>
<path d="M326.98 312H325.98V316H326.98V312Z" fill="#EB431E"/>
<path d="M327.008 299H326.008V302H327.008V299Z" fill="#EB431E"/>
<path d="M320.49 323.109L320.532 310.068L322.532 310.078L322.49 323.118L320.49 323.109Z" stroke="#EB431E"/>
<path d="M322 323H321V325H322V323Z" fill="#EB431E"/>
<path d="M322.008 307H321.008V310H322.008V307Z" fill="#EB431E"/>
<path d="M307.532 318.614L307.543 315.068L309.543 315.078L309.532 318.623L307.532 318.614Z" stroke="#EB431E"/>
<path d="M309.002 319H308.002V321H309.002V319Z" fill="#EB431E"/>
<path d="M309.02 312H308.02V315H309.02V312Z" fill="#EB431E"/>
<path d="M302.477 329.766L302.514 318.068L304.514 318.078L304.477 329.775L302.477 329.766Z" stroke="#EB431E"/>
<path d="M304.002 330H303.002V332H304.002V330Z" fill="#EB431E"/>
<path d="M304.002 309H303.002V318H304.002V309Z" fill="#EB431E"/>
<path d="M298.521 341.331L298.541 335.068L300.541 335.078L300.521 341.34L298.521 341.331Z" stroke="#EB431E"/>
<path d="M300.002 341H299.002V348H300.002V341Z" fill="#EB431E"/>
<path d="M300.002 333H299.002V335H300.002V333Z" fill="#EB431E"/>
<path d="M288.502 337.331L288.522 331.068L290.522 331.078L290.502 337.34L288.502 337.331Z" stroke="#EB431E"/>
<path d="M290.002 337H289.002V339H290.002V337Z" fill="#EB431E"/>
<path d="M290.002 319H289.002V331H290.002V319Z" fill="#EB431E"/>
<path d="M284.481 343.797L284.522 331.068L286.522 331.078L286.481 343.807L284.481 343.797Z" stroke="#EB431E"/>
<path d="M286 344H285V346H286V344Z" fill="#EB431E"/>
<path d="M286 327H285V331H286V327Z" fill="#EB431E"/>
<path d="M274.534 319.525L274.541 317.068L276.541 317.078L276.534 319.535L274.534 319.525Z" stroke="#EB431E"/>
<path d="M276 320H275V325H276V320Z" fill="#EB431E"/>
<path d="M265.501 325.797L265.541 313.068L267.541 313.078L267.501 325.807L265.501 325.797Z" stroke="#EB431E"/>
<path d="M260.525 332.346L260.541 327.068L262.541 327.078L262.525 332.356L260.525 332.346Z" stroke="#EB431E"/>
<path d="M262 332H261V334H262V332Z" fill="#EB431E"/>
<path d="M256.486 352.612L256.541 335.068L258.541 335.078L258.486 352.622L256.486 352.612Z" stroke="#EB431E"/>
<path d="M258 353H257V354H258V353Z" fill="#EB431E"/>
<path d="M258.02 331H257.02V335H258.02V331Z" fill="#EB431E"/>
<path d="M251.501 368.612L251.557 351.068L253.557 351.078L253.501 368.622L251.501 368.612Z" stroke="#EB431E"/>
<path d="M253.016 369H252.016V370H253.016V369Z" fill="#EB431E"/>
<path d="M253.035 347H252.035V351H253.035V347Z" fill="#EB431E"/>
<path d="M246.537 367.297L246.557 361.068L248.557 361.078L248.537 367.306L246.537 367.297Z" stroke="#EB431E"/>
<path d="M248 367H247V378H248V367Z" fill="#EB431E"/>
<path d="M242.495 379.737L242.557 360.068L244.557 360.078L244.495 379.746L242.495 379.737Z" stroke="#EB431E"/>
<path d="M244 380H243V381H244V380Z" fill="#EB431E"/>
<path d="M244.035 356H243.035V360H244.035V356Z" fill="#EB431E"/>
<path d="M248.035 357H247.035V361H248.035V357Z" fill="#EB431E"/>
<path d="M237.52 376.786L237.522 376.068L239.522 376.078L239.52 376.796L237.52 376.786Z" stroke="#EB431E"/>
<path d="M239 377H238V382H239V377Z" fill="#EB431E"/>
<path d="M239 372H238V376H239V372Z" fill="#EB431E"/>
<path d="M233.501 373.225L233.506 371.63L235.506 371.639L235.501 373.234L233.501 373.225Z" stroke="#EB431E"/>
<path d="M228.48 373.775L228.504 366.068L230.504 366.078L230.48 373.784L228.48 373.775Z" stroke="#EB431E"/>
<path d="M218.476 375.955L218.504 367.068L220.504 367.078L220.476 375.964L218.476 375.955Z" stroke="#EB431E"/>
<path d="M220 376H219V377H220V376Z" fill="#EB431E"/>
<path d="M219.982 363H218.982V367H219.982V363Z" fill="#EB431E"/>
<path d="M214.512 378.776L214.53 373.068L216.53 373.078L216.512 378.786L214.512 378.776Z" stroke="#EB431E"/>
<path d="M216 379H215V380H216V379Z" fill="#EB431E"/>
<path d="M210.423 403.787L210.498 380.068L212.498 380.078L212.423 403.796L210.423 403.787Z" stroke="#EB431E"/>
<path d="M212 404H211V407H212V404Z" fill="#EB431E"/>
<path d="M212 376H211V380H212V376Z" fill="#EB431E"/>
<path d="M200.509 422.639L200.551 409.277L202.551 409.286L202.509 422.648L200.509 422.639Z" stroke="#EB431E"/>
<path d="M202 423H201V424H202V423Z" fill="#EB431E"/>
<path d="M202 408H201V409H202V408Z" fill="#EB431E"/>
<path d="M205.533 411.545L205.543 408.277L207.543 408.286L207.533 411.555L205.533 411.545Z" stroke="#EB431E"/>
<path d="M207 412H206V413H207V412Z" fill="#EB431E"/>
<path d="M191.425 464.454L191.543 427.277L193.543 427.286L193.425 464.463L191.425 464.454Z" stroke="#EB431E"/>
<path d="M193 465H192V469H193V465Z" fill="#EB431E"/>
<path d="M182.529 458.805L182.543 454.277L184.543 454.286L184.529 458.815L182.529 458.805Z" stroke="#EB431E"/>
<path d="M184 459H183V469H184V459Z" fill="#EB431E"/>
<path d="M177.525 464.127L177.543 458.277L179.543 458.286L179.525 464.137L177.525 464.127Z" stroke="#EB431E"/>
<path d="M179 464H178V468H179V464Z" fill="#EB431E"/>
<path d="M179 455H178V458H179V455Z" fill="#EB431E"/>
<path d="M168.501 459.127L168.52 453.277L170.52 453.286L170.501 459.137L168.501 459.127Z" stroke="#EB431E"/>
<path d="M169.977 459H168.977V463H169.977V459Z" fill="#EB431E"/>
<path d="M169.977 450H168.977V453H169.977V450Z" fill="#EB431E"/>
<path d="M163.489 457.975L163.52 448.277L165.52 448.286L165.489 457.984L163.489 457.975Z" stroke="#EB431E"/>
<path d="M165 458H164V466H165V458Z" fill="#EB431E"/>
<path d="M158.511 455.214L158.52 452.277L160.52 452.286L160.511 455.224L158.511 455.214Z" stroke="#EB431E"/>
<path d="M160 455H159V464H160V455Z" fill="#EB431E"/>
<path d="M154.501 468.127L154.52 462.277L156.52 462.286L156.501 468.137L154.501 468.127Z" stroke="#EB431E"/>
<path d="M156 449H155V462H156V449Z" fill="#EB431E"/>
<path d="M160 444H159V452H160V444Z" fill="#EB431E"/>
<path d="M164.977 445H163.977V448H164.977V445Z" fill="#EB431E"/>
<path d="M183.992 453H182.992V454H183.992V453Z" fill="#EB431E"/>
<path d="M193 422H192V427H193V422Z" fill="#EB431E"/>
<path d="M207 404H206V408H207V404Z" fill="#EB431E"/>
<path d="M216 367H215V373H216V367Z" fill="#EB431E"/>
<path d="M230 377H229V373H230V377Z" fill="#EB431E"/>
<path d="M229.982 362H228.982V366H229.982V362Z" fill="#EB431E"/>
<path d="M234.982 373H233.982V378H234.982V373Z" fill="#EB431E"/>
<path d="M235 366H234V372H235V366Z" fill="#EB431E"/>
<path d="M262 321H261V327H262V321Z" fill="#EB431E"/>
<path d="M267.02 326H266.02V328H267.02V326Z" fill="#EB431E"/>
<path d="M267 305H266V313H267V305Z" fill="#EB431E"/>
<path d="M276 313H275V317H276V313Z" fill="#EB431E"/>
<path d="M362.486 285.659L362.526 273.068L364.526 273.078L364.486 285.668L362.486 285.659Z" stroke="#EB431E"/>
<path d="M364.002 286H363.002V290H364.002V286Z" fill="#EB431E"/>
<path d="M364.002 272H363.002V273H364.002V272Z" fill="#EB431E"/>
<path d="M560.002 123.12H557.002V129.12H560.002V123.12Z" fill="#00A653"/>
<path d="M559.002 120H558.002V156H559.002V120Z" fill="#00A653"/>
<path d="M556.002 110H553.002V122H556.002V110Z" fill="#00A653"/>
<path d="M555.002 103H554.002V126H555.002V103Z" fill="#00A653"/>
<path d="M552.002 112H549.002V121H552.002V112Z" fill="#00A653"/>
<path d="M551.002 107H550.002V127H551.002V107Z" fill="#00A653"/>
<path d="M540.002 130H537.002V142H540.002V130Z" fill="#00A653"/>
<path d="M539.002 125H538.002V190H539.002V125Z" fill="#00A653"/>
<path d="M544.002 134H541.002V149H544.002V134Z" fill="#00A653"/>
<path d="M543.002 131H542.002V181H543.002V131Z" fill="#00A653"/>
<path d="M536.002 129H533.002V135H536.002V129Z" fill="#00A653"/>
<path d="M535.002 109H534.002V138H535.002V109Z" fill="#00A653"/>
<path d="M528.002 153H525.002V168H528.002V153Z" fill="#00A653"/>
<path d="M527.002 125H526.002V189H527.002V125Z" fill="#00A653"/>
<path d="M519.002 117H516.002V172H519.002V117Z" fill="#00A653"/>
<path d="M518.002 107H517.002V170H518.002V107Z" fill="#00A653"/>
<path d="M516.002 90H513.002V109H516.002V90Z" fill="#00A653"/>
<path d="M515.002 84H514.002V124H515.002V84Z" fill="#00A653"/>
<path d="M508.002 83H505.002V136H508.002V83Z" fill="#00A653"/>
<path d="M507.002 67H506.002V147H507.002V67Z" fill="#00A653"/>
<path d="M504.002 95H501.002V99H504.002V95Z" fill="#00A653"/>
<path d="M503.002 90H502.002V115H503.002V90Z" fill="#00A653"/>
<path d="M496.002 91H493.002V161H496.002V91Z" fill="#00A653"/>
<path d="M495.002 86H494.002V187H495.002V86Z" fill="#00A653"/>
<path d="M491.002 28H488.002V79H491.002V28Z" fill="#00A653"/>
<path d="M490.002 23H489.002V80H490.002V23Z" fill="#00A653"/>
<path d="M481.002 57H478.002V61H481.002V57Z" fill="#00A653"/>
<path d="M480.002 52H479.002V70H480.002V52Z" fill="#00A653"/>
<path d="M463.002 119H460.002V123H463.002V119Z" fill="#00A653"/>
<path d="M462.002 116H461.002V126H462.002V116Z" fill="#00A653"/>
<path d="M453 136H450V148H453V136Z" fill="#00A653"/>
<path d="M452 133H451V157H452V133Z" fill="#00A653"/>
<path d="M439 192H436V195H439V192Z" fill="#00A653"/>
<path d="M438 186H437V199H438V186Z" fill="#00A653"/>
<path d="M435 186H432V189H435V186Z" fill="#00A653"/>
<path d="M434 180H433V197H434V180Z" fill="#00A653"/>
<path d="M394 266H391V274H394V266Z" fill="#00A653"/>
<path d="M393 265H392V282H393V265Z" fill="#00A653"/>
<path d="M379.002 264H376.002V278H379.002V264Z" fill="#00A653"/>
<path d="M378.012 258L377.012 258L376.988 282.75L377.988 282.751L378.012 258Z" fill="#00A653"/>
<path d="M361 283H358V286H361V283Z" fill="#00A653"/>
<path d="M360.008 280.421L359.008 280.42L358.999 289.575L359.999 289.576L360.008 280.421Z" fill="#00A653"/>
<path d="M351 293.58H348V296.58H351V293.58Z" fill="#00A653"/>
<path d="M350.014 285.248L349.014 285.247L349 300.155L350 300.156L350.014 285.248Z" fill="#00A653"/>
<path d="M347 292.333H344V295.333H347V292.333Z" fill="#00A653"/>
<path d="M346.01 287.994L345.01 287.993L344.993 305.554L345.993 305.555L346.01 287.994Z" fill="#00A653"/>
<path d="M342 293.34H339V296.34H342V293.34Z" fill="#00A653"/>
<path d="M341.012 286.33L340.012 286.329L340.001 298.146L341.001 298.147L341.012 286.33Z" fill="#00A653"/>
<path d="M333 304.011H330V307.011H333V304.011Z" fill="#00A653"/>
<path d="M332.01 298.231L331.01 298.23L331 308.817L332 308.818L332.01 298.231Z" fill="#00A653"/>
<path d="M319.002 320H316.002V324H319.002V320Z" fill="#00A653"/>
<path d="M318.014 311.963L317.014 311.962L316.988 339.094L317.988 339.095L318.014 311.963Z" fill="#00A653"/>
<path d="M314.002 318.038H311.002V322.038H314.002V318.038Z" fill="#00A653"/>
<path d="M313.01 312.629L312.01 312.628L311.999 323.614L312.999 323.615L313.01 312.629Z" fill="#00A653"/>
<path d="M296.002 334.41H293.002V338.41H296.002V334.41Z" fill="#00A653"/>
<path d="M295.014 326.277L294.014 326.276L294.001 339.986L295.001 339.987L295.014 326.277Z" fill="#00A653"/>
<path d="M282 321H279V336H282V321Z" fill="#00A653"/>
<path d="M281.021 314.545L280.021 314.544L279.999 337.71L280.999 337.711L281.021 314.545Z" fill="#00A653"/>
<path d="M273 316H270V320H273V316Z" fill="#00A653"/>
<path d="M272.021 310.001L271.021 310L271.008 324.463L272.008 324.464L272.021 310.001Z" fill="#00A653"/>
<path d="M226 370H223V382H226V370Z" fill="#00A653"/>
<path d="M225.029 363.779L224.029 363.778L224.011 383.437L225.011 383.438L225.029 363.779Z" fill="#00A653"/>
<path d="M199 422H196V425H199V422Z" fill="#00A653"/>
<path d="M198.018 419.145L197.018 419.145L197.01 426.658L198.01 426.659L198.018 419.145Z" fill="#00A653"/>
<path d="M189 462H186V471H189V462Z" fill="#00A653"/>
<path d="M188.023 458.282L187.023 458.281L187.004 479.233L188.004 479.234L188.023 458.282Z" fill="#00A653"/>
<path d="M175 454H172V460H175V454Z" fill="#00A653"/>
<path d="M174.029 446.559L173.029 446.558L173.004 472.952L174.004 472.953L174.029 446.559Z" fill="#00A653"/>
<path d="M152 441H149V458H152V441Z" fill="#00A653"/>
<path d="M151.037 437.631L150.037 437.63L150.017 459.182L151.017 459.183L151.037 437.631Z" fill="#00A653"/>
<path d="M143 440H140V448H143V440Z" fill="#00A653"/>
<path d="M142.039 434.025L141.039 434.024L141.025 449.173L142.025 449.174L142.039 434.025Z" fill="#00A653"/>
<path d="M144.501 448.127L144.52 442.277L146.52 442.286L146.501 448.137L144.501 448.127Z" stroke="#EB431E"/>
<path d="M145.977 448H144.977V452H145.977V448Z" fill="#EB431E"/>
<path d="M145.977 439H144.977V442H145.977V439Z" fill="#EB431E"/>
<path d="M130.502 441.127L130.51 438.424L132.51 438.433L132.502 441.137L130.502 441.127Z" stroke="#EB431E"/>
<path d="M132 441H131V444H132V441Z" fill="#EB431E"/>
<path d="M132 435H131V438H132V435Z" fill="#EB431E"/>
<path d="M126.502 444.127L126.51 441.424L128.51 441.433L128.502 444.137L126.502 444.127Z" stroke="#EB431E"/>
<path d="M128 444H127V455H128V444Z" fill="#EB431E"/>
<path d="M128 438H127V441H128V438Z" fill="#EB431E"/>
<path d="M116.502 441.127L116.51 438.424L118.51 438.433L118.502 441.137L116.502 441.127Z" stroke="#EB431E"/>
<path d="M118 441H117V443H118V441Z" fill="#EB431E"/>
<path d="M118 435H117V438H118V435Z" fill="#EB431E"/>
<path d="M112.461 456.768L112.51 441.424L114.51 441.433L114.461 456.777L112.461 456.768Z" stroke="#EB431E"/>
<path d="M114 457H113V459H114V457Z" fill="#EB431E"/>
<path d="M114 437H113V441H114V437Z" fill="#EB431E"/>
<path d="M107.502 474.768L107.551 459.424L109.551 459.433L109.502 474.777L107.502 474.768Z" stroke="#EB431E"/>
<path d="M109.041 475H108.041V477H109.041V475Z" fill="#EB431E"/>
<path d="M109.041 455H108.041V459H109.041V455Z" fill="#EB431E"/>
<path d="M103.524 478.911L103.551 470.424L105.551 470.433L105.524 478.921L103.524 478.911Z" stroke="#EB431E"/>
<path d="M105 479H104V481H105V479Z" fill="#EB431E"/>
<path d="M105.041 466H104.041V470H105.041V466Z" fill="#EB431E"/>
<path d="M79.5204 477.721L79.5277 475.424L81.5277 475.433L81.5204 477.73L79.5204 477.721Z" stroke="#EB431E"/>
<path d="M81 478H80V480H81V478Z" fill="#EB431E"/>
<path d="M81.0176 471H80.0176V475H81.0176V471Z" fill="#EB431E"/>
<path d="M66.4887 483.571L66.5082 477.424L68.5082 477.433L68.4886 483.58L66.4887 483.571Z" stroke="#EB431E"/>
<path d="M68 484H67V485H68V484Z" fill="#EB431E"/>
<path d="M67.998 473H66.998V477H67.998V473Z" fill="#EB431E"/>
<path d="M56.5023 472.571L56.5218 466.424L58.5218 466.433L58.5023 472.58L56.5023 472.571Z" stroke="#EB431E"/>
<path d="M58.0137 473H57.0137V474H58.0137V473Z" fill="#EB431E"/>
<path d="M58 458H57V466H58V458Z" fill="#EB431E"/>
<path d="M51.4925 482.675L51.5218 473.424L53.5218 473.433L53.4924 482.684L51.4925 482.675Z" stroke="#EB431E"/>
<path d="M53 483H52V484H53V483Z" fill="#EB431E"/>
<path d="M53 470H52V473H53V470Z" fill="#EB431E"/>
<path d="M138 435H135V439H138V435Z" fill="#00A653"/>
<path d="M137.035 433.123L136.035 433.122L136.025 444.149L137.025 444.15L137.035 433.123Z" fill="#00A653"/>
<path d="M124 439H121V446H124V439Z" fill="#00A653"/>
<path d="M123.037 437.722L122.037 437.721L122.024 451.027L123.024 451.028L123.037 437.722Z" fill="#00A653"/>
<path d="M101 472H98V482H101V472Z" fill="#00A653"/>
<path d="M100.037 471.001L99.0371 471L99.0245 484.306L100.024 484.307L100.037 471.001Z" fill="#00A653"/>
<path d="M96 477H93V482H96V477Z" fill="#00A653"/>
<path d="M95.041 472.168L94.041 472.167L94.0307 482.988L95.0307 482.989L95.041 472.168Z" fill="#00A653"/>
<path d="M92 474H89V477H92V474Z" fill="#00A653"/>
<path d="M91.043 465.225L90.043 465.224L90.031 477.821L91.031 477.822L91.043 465.225Z" fill="#00A653"/>
<path d="M87 471H84V478H87V471Z" fill="#00A653"/>
<path d="M86.0332 472.709L85.0332 472.708L85.0231 483.348L86.0231 483.349L86.0332 472.709Z" fill="#00A653"/>
<path d="M73 478H70V485H73V478Z" fill="#00A653"/>
<path d="M72.041 471.808L71.041 471.807L71.0286 484.881L72.0286 484.882L72.041 471.808Z" fill="#00A653"/>
<path d="M64 468H61V483H64V468Z" fill="#00A653"/>
<path d="M63.0469 464.143L62.0469 464.142L62.0289 483.075L63.0289 483.076L63.0469 464.143Z" fill="#00A653"/>
<path d="M50 477H47V481H50V477Z" fill="#00A653"/>
<path d="M49.0469 473.001L48.0469 473L48.0383 482.087L49.0383 482.088L49.0469 473.001Z" fill="#00A653"/>
<path d="M375.002 257H372.002V271H375.002V257Z" fill="#00A653"/>
<path d="M374.008 253.374L373.008 253.373L372.991 270.766L373.991 270.767L374.008 253.374Z" fill="#00A653"/>
<defs>
<radialGradient id="paint0_radial" cx="0" cy="0" r="1" gradientUnits="userSpaceOnUse" gradientTransform="translate(474.449 222.112) rotate(149.43) scale(546.392 732.878)">
<stop stop-color="#F7F9FF"/>
<stop offset="1" stop-color="white"/>
</radialGradient>
</defs>
</svg>
