<svg width="105" height="122" viewBox="0 0 105 122" fill="none" xmlns="http://www.w3.org/2000/svg">
<path d="M56.8 142.8C90.8 142.8 114.6 124.2 114.6 92.9995C114.6 62.1995 91.8 48.1995 66.6 48.1995C57.2 48.1995 50.6 50.1995 44.2 53.1995L45.4 31.9995H108.4V-0.000488281H14.8L10.8 70.9995L33.8 83.7995C40.4 79.7995 47.6 76.7995 56.2 76.7995C68.4 76.7995 76.8 82.9995 76.8 92.9995C76.8 103.4 69 109.8 56.2 109.8C44.4 109.8 33.6 104.2 22.2 94.5995L0 120.6C14.6 134.2 32 142.8 56.8 142.8Z" fill="#EDF5FF"/>
</svg>
