<svg width="1140" height="518" viewBox="0 0 1140 518" fill="none" xmlns="http://www.w3.org/2000/svg">
<path d="M0 5C0 2.23858 2.23858 0 5 0H1135C1137.76 0 1140 2.23858 1140 5V513C1140 515.761 1137.76 518 1135 518H5C2.23858 518 0 515.761 0 513V5Z" fill="url(#paint0_linear)"/>
<mask id="mask0" mask-type="alpha" maskUnits="userSpaceOnUse" x="0" y="0" width="1140" height="518">
<rect width="1140" height="518" rx="5" fill="url(#paint1_linear)"/>
</mask>
<g mask="url(#mask0)">
<path opacity="0.2" fill-rule="evenodd" clip-rule="evenodd" d="M1340.29 947.093L972.149 739.485C965.85 736.334 960.523 731.534 956.737 725.597C952.951 719.66 950.849 712.809 950.656 705.778L1077.89 290.861C1082.27 273.815 1089.71 259.446 1106.44 257.082L1313.1 227.889L1654.41 457.885L1340.29 947.093Z" fill="url(#paint2_linear)"/>
<path opacity="0.6" fill-rule="evenodd" clip-rule="evenodd" d="M1101.49 1092.2C1095.76 1101.12 1084.07 1104.02 1074.84 1098.82L723.149 900.485C716.85 897.334 711.523 892.534 707.737 886.597C704.541 881.584 702.545 875.921 701.885 870.048C701.642 867.891 701.981 865.72 702.618 863.644L828.892 451.861C833.27 434.815 840.707 420.446 857.443 418.082L1056.5 389.963C1061.4 389.271 1066.37 390.418 1070.47 393.181L1389.19 607.954C1398.21 614.03 1400.72 626.196 1394.84 635.345L1101.49 1092.2Z" fill="url(#paint3_linear)"/>
<path opacity="0.2" fill-rule="evenodd" clip-rule="evenodd" d="M-359.058 2.36397L-10.9728 242.082C-5.37752 246.36 1.27367 249.041 8.26971 249.838C15.2657 250.635 22.3435 249.517 28.7462 246.606L345.764 -49.78C359.16 -61.1942 368.81 -74.1819 363.591 -90.2582L299.147 -288.773L-57.2833 -494.558L-359.058 2.36397Z" fill="url(#paint4_linear)"/>
<path opacity="0.1" fill-rule="evenodd" clip-rule="evenodd" d="M-139.058 -132.636L209.027 107.082C214.622 111.36 221.274 114.041 228.27 114.838C235.266 115.635 242.343 114.517 248.746 111.606L565.764 -184.78C579.16 -196.194 588.81 -209.182 583.591 -225.258L519.147 -423.773L162.717 -629.558L-139.058 -132.636Z" fill="url(#paint5_linear)"/>
<g opacity="0.4">
<path d="M849.294 504.177C849.294 504.989 848.636 505.647 847.824 505.647C847.011 505.647 846.353 504.989 846.353 504.177C846.353 503.364 847.011 502.706 847.824 502.706C848.636 502.706 849.294 503.364 849.294 504.177Z" fill="white"/>
<path d="M822.824 504.177C822.824 504.989 822.165 505.647 821.353 505.647C820.541 505.647 819.882 504.989 819.882 504.177C819.882 503.364 820.541 502.706 821.353 502.706C822.165 502.706 822.824 503.364 822.824 504.177Z" fill="white"/>
<path d="M849.294 451.235C849.294 452.048 848.636 452.706 847.824 452.706C847.011 452.706 846.353 452.048 846.353 451.235C846.353 450.423 847.011 449.765 847.824 449.765C848.636 449.765 849.294 450.423 849.294 451.235Z" fill="white"/>
<path d="M822.824 451.235C822.824 452.048 822.165 452.706 821.353 452.706C820.541 452.706 819.882 452.048 819.882 451.235C819.882 450.423 820.541 449.765 821.353 449.765C822.165 449.765 822.824 450.423 822.824 451.235Z" fill="white"/>
<path d="M849.294 477.706C849.294 478.518 848.636 479.177 847.824 479.177C847.011 479.177 846.353 478.518 846.353 477.706C846.353 476.894 847.011 476.235 847.824 476.235C848.636 476.235 849.294 476.894 849.294 477.706Z" fill="white"/>
<path d="M822.824 477.706C822.824 478.518 822.165 479.177 821.353 479.177C820.541 479.177 819.882 478.518 819.882 477.706C819.882 476.894 820.541 476.235 821.353 476.235C822.165 476.235 822.824 476.894 822.824 477.706Z" fill="white"/>
<path d="M796.353 504.177C796.353 504.989 795.695 505.647 794.882 505.647C794.07 505.647 793.412 504.989 793.412 504.177C793.412 503.364 794.07 502.706 794.882 502.706C795.695 502.706 796.353 503.364 796.353 504.177Z" fill="white"/>
<path d="M769.882 504.177C769.882 504.989 769.224 505.647 768.412 505.647C767.6 505.647 766.941 504.989 766.941 504.177C766.941 503.364 767.6 502.706 768.412 502.706C769.224 502.706 769.882 503.364 769.882 504.177Z" fill="white"/>
<path d="M796.353 451.235C796.353 452.048 795.695 452.706 794.882 452.706C794.07 452.706 793.412 452.048 793.412 451.235C793.412 450.423 794.07 449.765 794.882 449.765C795.695 449.765 796.353 450.423 796.353 451.235Z" fill="white"/>
<path d="M769.882 451.235C769.882 452.048 769.224 452.706 768.412 452.706C767.6 452.706 766.941 452.048 766.941 451.235C766.941 450.423 767.6 449.765 768.412 449.765C769.224 449.765 769.882 450.423 769.882 451.235Z" fill="white"/>
<path d="M796.353 477.706C796.353 478.518 795.695 479.177 794.882 479.177C794.07 479.177 793.412 478.518 793.412 477.706C793.412 476.894 794.07 476.235 794.882 476.235C795.695 476.235 796.353 476.894 796.353 477.706Z" fill="white"/>
<path d="M769.882 477.706C769.882 478.518 769.224 479.177 768.412 479.177C767.6 479.177 766.941 478.518 766.941 477.706C766.941 476.894 767.6 476.235 768.412 476.235C769.224 476.235 769.882 476.894 769.882 477.706Z" fill="white"/>
<path d="M849.294 292.412C849.294 293.224 848.636 293.882 847.824 293.882C847.011 293.882 846.353 293.224 846.353 292.412C846.353 291.6 847.011 290.941 847.824 290.941C848.636 290.941 849.294 291.6 849.294 292.412Z" fill="white"/>
<path d="M822.824 292.412C822.824 293.224 822.165 293.882 821.353 293.882C820.541 293.882 819.882 293.224 819.882 292.412C819.882 291.6 820.541 290.941 821.353 290.941C822.165 290.941 822.824 291.6 822.824 292.412Z" fill="white"/>
<path d="M849.294 318.882C849.294 319.695 848.636 320.353 847.824 320.353C847.011 320.353 846.353 319.695 846.353 318.882C846.353 318.07 847.011 317.412 847.824 317.412C848.636 317.412 849.294 318.07 849.294 318.882Z" fill="white"/>
<path d="M822.824 318.882C822.824 319.695 822.165 320.353 821.353 320.353C820.541 320.353 819.882 319.695 819.882 318.882C819.882 318.07 820.541 317.412 821.353 317.412C822.165 317.412 822.824 318.07 822.824 318.882Z" fill="white"/>
<path d="M849.294 265.941C849.294 266.753 848.636 267.412 847.824 267.412C847.011 267.412 846.353 266.753 846.353 265.941C846.353 265.129 847.011 264.471 847.824 264.471C848.636 264.471 849.294 265.129 849.294 265.941Z" fill="white"/>
<path d="M822.824 265.941C822.824 266.753 822.165 267.412 821.353 267.412C820.541 267.412 819.882 266.753 819.882 265.941C819.882 265.129 820.541 264.471 821.353 264.471C822.165 264.471 822.824 265.129 822.824 265.941Z" fill="white"/>
<path d="M796.353 292.412C796.353 293.224 795.695 293.882 794.882 293.882C794.07 293.882 793.412 293.224 793.412 292.412C793.412 291.6 794.07 290.941 794.882 290.941C795.695 290.941 796.353 291.6 796.353 292.412Z" fill="white"/>
<path d="M769.882 292.412C769.882 293.224 769.224 293.882 768.412 293.882C767.6 293.882 766.941 293.224 766.941 292.412C766.941 291.6 767.6 290.941 768.412 290.941C769.224 290.941 769.882 291.6 769.882 292.412Z" fill="white"/>
<path d="M796.353 318.882C796.353 319.695 795.695 320.353 794.882 320.353C794.07 320.353 793.412 319.695 793.412 318.882C793.412 318.07 794.07 317.412 794.882 317.412C795.695 317.412 796.353 318.07 796.353 318.882Z" fill="white"/>
<path d="M769.882 318.882C769.882 319.695 769.224 320.353 768.412 320.353C767.6 320.353 766.941 319.695 766.941 318.882C766.941 318.07 767.6 317.412 768.412 317.412C769.224 317.412 769.882 318.07 769.882 318.882Z" fill="white"/>
<path d="M796.353 265.941C796.353 266.753 795.695 267.412 794.882 267.412C794.07 267.412 793.412 266.753 793.412 265.941C793.412 265.129 794.07 264.471 794.882 264.471C795.695 264.471 796.353 265.129 796.353 265.941Z" fill="white"/>
<path d="M769.882 265.941C769.882 266.753 769.224 267.412 768.412 267.412C767.6 267.412 766.941 266.753 766.941 265.941C766.941 265.129 767.6 264.471 768.412 264.471C769.224 264.471 769.882 265.129 769.882 265.941Z" fill="white"/>
<path d="M849.294 398.294C849.294 399.106 848.636 399.765 847.824 399.765C847.011 399.765 846.353 399.106 846.353 398.294C846.353 397.482 847.011 396.824 847.824 396.824C848.636 396.824 849.294 397.482 849.294 398.294Z" fill="white"/>
<path d="M822.824 398.294C822.824 399.106 822.165 399.765 821.353 399.765C820.541 399.765 819.882 399.106 819.882 398.294C819.882 397.482 820.541 396.824 821.353 396.824C822.165 396.824 822.824 397.482 822.824 398.294Z" fill="white"/>
<path d="M849.294 424.765C849.294 425.577 848.636 426.235 847.824 426.235C847.011 426.235 846.353 425.577 846.353 424.765C846.353 423.953 847.011 423.294 847.824 423.294C848.636 423.294 849.294 423.953 849.294 424.765Z" fill="white"/>
<path d="M822.824 424.765C822.824 425.577 822.165 426.235 821.353 426.235C820.541 426.235 819.882 425.577 819.882 424.765C819.882 423.953 820.541 423.294 821.353 423.294C822.165 423.294 822.824 423.953 822.824 424.765Z" fill="white"/>
<path d="M849.294 345.353C849.294 346.165 848.636 346.824 847.824 346.824C847.011 346.824 846.353 346.165 846.353 345.353C846.353 344.541 847.011 343.882 847.824 343.882C848.636 343.882 849.294 344.541 849.294 345.353Z" fill="white"/>
<path d="M822.824 345.353C822.824 346.165 822.165 346.824 821.353 346.824C820.541 346.824 819.882 346.165 819.882 345.353C819.882 344.541 820.541 343.882 821.353 343.882C822.165 343.882 822.824 344.541 822.824 345.353Z" fill="white"/>
<path d="M849.294 371.824C849.294 372.636 848.636 373.294 847.824 373.294C847.011 373.294 846.353 372.636 846.353 371.824C846.353 371.011 847.011 370.353 847.824 370.353C848.636 370.353 849.294 371.011 849.294 371.824Z" fill="white"/>
<path d="M822.824 371.824C822.824 372.636 822.165 373.294 821.353 373.294C820.541 373.294 819.882 372.636 819.882 371.824C819.882 371.011 820.541 370.353 821.353 370.353C822.165 370.353 822.824 371.011 822.824 371.824Z" fill="white"/>
<path d="M796.353 398.294C796.353 399.106 795.695 399.765 794.882 399.765C794.07 399.765 793.412 399.106 793.412 398.294C793.412 397.482 794.07 396.824 794.882 396.824C795.695 396.824 796.353 397.482 796.353 398.294Z" fill="white"/>
<path d="M769.882 398.294C769.882 399.106 769.224 399.765 768.412 399.765C767.6 399.765 766.941 399.106 766.941 398.294C766.941 397.482 767.6 396.824 768.412 396.824C769.224 396.824 769.882 397.482 769.882 398.294Z" fill="white"/>
<path d="M796.353 424.765C796.353 425.577 795.695 426.235 794.882 426.235C794.07 426.235 793.412 425.577 793.412 424.765C793.412 423.953 794.07 423.294 794.882 423.294C795.695 423.294 796.353 423.953 796.353 424.765Z" fill="white"/>
<path d="M769.882 424.765C769.882 425.577 769.224 426.235 768.412 426.235C767.6 426.235 766.941 425.577 766.941 424.765C766.941 423.953 767.6 423.294 768.412 423.294C769.224 423.294 769.882 423.953 769.882 424.765Z" fill="white"/>
<path d="M796.353 345.353C796.353 346.165 795.695 346.824 794.882 346.824C794.07 346.824 793.412 346.165 793.412 345.353C793.412 344.541 794.07 343.882 794.882 343.882C795.695 343.882 796.353 344.541 796.353 345.353Z" fill="white"/>
<path d="M769.882 345.353C769.882 346.165 769.224 346.824 768.412 346.824C767.6 346.824 766.941 346.165 766.941 345.353C766.941 344.541 767.6 343.882 768.412 343.882C769.224 343.882 769.882 344.541 769.882 345.353Z" fill="white"/>
<path d="M796.353 371.824C796.353 372.636 795.695 373.294 794.882 373.294C794.07 373.294 793.412 372.636 793.412 371.824C793.412 371.011 794.07 370.353 794.882 370.353C795.695 370.353 796.353 371.011 796.353 371.824Z" fill="white"/>
<path d="M769.882 371.824C769.882 372.636 769.224 373.294 768.412 373.294C767.6 373.294 766.941 372.636 766.941 371.824C766.941 371.011 767.6 370.353 768.412 370.353C769.224 370.353 769.882 371.011 769.882 371.824Z" fill="white"/>
<path d="M743.412 292.412C743.412 293.224 742.753 293.882 741.941 293.882C741.129 293.882 740.471 293.224 740.471 292.412C740.471 291.6 741.129 290.941 741.941 290.941C742.753 290.941 743.412 291.6 743.412 292.412Z" fill="white"/>
<path d="M716.941 292.412C716.941 293.224 716.283 293.882 715.471 293.882C714.658 293.882 714 293.224 714 292.412C714 291.6 714.658 290.941 715.471 290.941C716.283 290.941 716.941 291.6 716.941 292.412Z" fill="white"/>
<path d="M743.412 318.882C743.412 319.695 742.753 320.353 741.941 320.353C741.129 320.353 740.471 319.695 740.471 318.882C740.471 318.07 741.129 317.412 741.941 317.412C742.753 317.412 743.412 318.07 743.412 318.882Z" fill="white"/>
<path d="M716.941 318.882C716.941 319.695 716.283 320.353 715.471 320.353C714.658 320.353 714 319.695 714 318.882C714 318.07 714.658 317.412 715.471 317.412C716.283 317.412 716.941 318.07 716.941 318.882Z" fill="white"/>
<path d="M743.412 265.941C743.412 266.753 742.753 267.412 741.941 267.412C741.129 267.412 740.471 266.753 740.471 265.941C740.471 265.129 741.129 264.471 741.941 264.471C742.753 264.471 743.412 265.129 743.412 265.941Z" fill="white"/>
<path d="M716.941 265.941C716.941 266.753 716.283 267.412 715.471 267.412C714.658 267.412 714 266.753 714 265.941C714 265.129 714.658 264.471 715.471 264.471C716.283 264.471 716.941 265.129 716.941 265.941Z" fill="white"/>
<path d="M690.471 292.412C690.471 293.224 689.812 293.882 689 293.882C688.188 293.882 687.529 293.224 687.529 292.412C687.529 291.6 688.188 290.941 689 290.941C689.812 290.941 690.471 291.6 690.471 292.412Z" fill="white"/>
<path d="M664 292.412C664 293.224 663.342 293.882 662.529 293.882C661.717 293.882 661.059 293.224 661.059 292.412C661.059 291.6 661.717 290.941 662.529 290.941C663.342 290.941 664 291.6 664 292.412Z" fill="white"/>
<path d="M690.471 318.882C690.471 319.695 689.812 320.353 689 320.353C688.188 320.353 687.529 319.695 687.529 318.882C687.529 318.07 688.188 317.412 689 317.412C689.812 317.412 690.471 318.07 690.471 318.882Z" fill="white"/>
<path d="M664 318.882C664 319.695 663.342 320.353 662.529 320.353C661.717 320.353 661.059 319.695 661.059 318.882C661.059 318.07 661.717 317.412 662.529 317.412C663.342 317.412 664 318.07 664 318.882Z" fill="white"/>
<path d="M690.471 265.941C690.471 266.753 689.812 267.412 689 267.412C688.188 267.412 687.529 266.753 687.529 265.941C687.529 265.129 688.188 264.471 689 264.471C689.812 264.471 690.471 265.129 690.471 265.941Z" fill="white"/>
<path d="M664 265.941C664 266.753 663.342 267.412 662.529 267.412C661.717 267.412 661.059 266.753 661.059 265.941C661.059 265.129 661.717 264.471 662.529 264.471C663.342 264.471 664 265.129 664 265.941Z" fill="white"/>
<path d="M743.412 398.294C743.412 399.106 742.753 399.765 741.941 399.765C741.129 399.765 740.471 399.106 740.471 398.294C740.471 397.482 741.129 396.824 741.941 396.824C742.753 396.824 743.412 397.482 743.412 398.294Z" fill="white"/>
<path d="M716.941 398.294C716.941 399.106 716.283 399.765 715.471 399.765C714.658 399.765 714 399.106 714 398.294C714 397.482 714.658 396.824 715.471 396.824C716.283 396.824 716.941 397.482 716.941 398.294Z" fill="white"/>
<path d="M743.412 424.765C743.412 425.577 742.753 426.235 741.941 426.235C741.129 426.235 740.471 425.577 740.471 424.765C740.471 423.953 741.129 423.294 741.941 423.294C742.753 423.294 743.412 423.953 743.412 424.765Z" fill="white"/>
<path d="M716.941 424.765C716.941 425.577 716.283 426.235 715.471 426.235C714.658 426.235 714 425.577 714 424.765C714 423.953 714.658 423.294 715.471 423.294C716.283 423.294 716.941 423.953 716.941 424.765Z" fill="white"/>
<path d="M743.412 345.353C743.412 346.165 742.753 346.824 741.941 346.824C741.129 346.824 740.471 346.165 740.471 345.353C740.471 344.541 741.129 343.882 741.941 343.882C742.753 343.882 743.412 344.541 743.412 345.353Z" fill="white"/>
<path d="M716.941 345.353C716.941 346.165 716.283 346.824 715.471 346.824C714.658 346.824 714 346.165 714 345.353C714 344.541 714.658 343.882 715.471 343.882C716.283 343.882 716.941 344.541 716.941 345.353Z" fill="white"/>
<path d="M743.412 371.824C743.412 372.636 742.753 373.294 741.941 373.294C741.129 373.294 740.471 372.636 740.471 371.824C740.471 371.011 741.129 370.353 741.941 370.353C742.753 370.353 743.412 371.011 743.412 371.824Z" fill="white"/>
<path d="M716.941 371.824C716.941 372.636 716.283 373.294 715.471 373.294C714.658 373.294 714 372.636 714 371.824C714 371.011 714.658 370.353 715.471 370.353C716.283 370.353 716.941 371.011 716.941 371.824Z" fill="white"/>
<path d="M690.471 398.294C690.471 399.106 689.812 399.765 689 399.765C688.188 399.765 687.529 399.106 687.529 398.294C687.529 397.482 688.188 396.824 689 396.824C689.812 396.824 690.471 397.482 690.471 398.294Z" fill="white"/>
<path d="M664 398.294C664 399.106 663.342 399.765 662.529 399.765C661.717 399.765 661.059 399.106 661.059 398.294C661.059 397.482 661.717 396.824 662.529 396.824C663.342 396.824 664 397.482 664 398.294Z" fill="white"/>
<path d="M690.471 424.765C690.471 425.577 689.812 426.235 689 426.235C688.188 426.235 687.529 425.577 687.529 424.765C687.529 423.953 688.188 423.294 689 423.294C689.812 423.294 690.471 423.953 690.471 424.765Z" fill="white"/>
<path d="M664 424.765C664 425.577 663.342 426.235 662.529 426.235C661.717 426.235 661.059 425.577 661.059 424.765C661.059 423.953 661.717 423.294 662.529 423.294C663.342 423.294 664 423.953 664 424.765Z" fill="white"/>
<path d="M690.471 345.353C690.471 346.165 689.812 346.824 689 346.824C688.188 346.824 687.529 346.165 687.529 345.353C687.529 344.541 688.188 343.882 689 343.882C689.812 343.882 690.471 344.541 690.471 345.353Z" fill="white"/>
<path d="M664 345.353C664 346.165 663.342 346.824 662.529 346.824C661.717 346.824 661.059 346.165 661.059 345.353C661.059 344.541 661.717 343.882 662.529 343.882C663.342 343.882 664 344.541 664 345.353Z" fill="white"/>
<path d="M690.471 371.824C690.471 372.636 689.812 373.294 689 373.294C688.188 373.294 687.529 372.636 687.529 371.824C687.529 371.011 688.188 370.353 689 370.353C689.812 370.353 690.471 371.011 690.471 371.824Z" fill="white"/>
<path d="M664 371.824C664 372.636 663.342 373.294 662.529 373.294C661.717 373.294 661.059 372.636 661.059 371.824C661.059 371.011 661.717 370.353 662.529 370.353C663.342 370.353 664 371.011 664 371.824Z" fill="white"/>
<path d="M637.529 292.412C637.529 293.224 636.871 293.882 636.059 293.882C635.247 293.882 634.588 293.224 634.588 292.412C634.588 291.6 635.247 290.941 636.059 290.941C636.871 290.941 637.529 291.6 637.529 292.412Z" fill="white"/>
<path d="M611.059 292.412C611.059 293.224 610.4 293.882 609.588 293.882C608.776 293.882 608.118 293.224 608.118 292.412C608.118 291.6 608.776 290.941 609.588 290.941C610.4 290.941 611.059 291.6 611.059 292.412Z" fill="white"/>
<path d="M637.529 318.882C637.529 319.695 636.871 320.353 636.059 320.353C635.247 320.353 634.588 319.695 634.588 318.882C634.588 318.07 635.247 317.412 636.059 317.412C636.871 317.412 637.529 318.07 637.529 318.882Z" fill="white"/>
<path d="M611.059 318.882C611.059 319.695 610.4 320.353 609.588 320.353C608.776 320.353 608.118 319.695 608.118 318.882C608.118 318.07 608.776 317.412 609.588 317.412C610.4 317.412 611.059 318.07 611.059 318.882Z" fill="white"/>
<path d="M637.529 265.941C637.529 266.753 636.871 267.412 636.059 267.412C635.247 267.412 634.588 266.753 634.588 265.941C634.588 265.129 635.247 264.471 636.059 264.471C636.871 264.471 637.529 265.129 637.529 265.941Z" fill="white"/>
<path d="M611.059 265.941C611.059 266.753 610.4 267.412 609.588 267.412C608.776 267.412 608.118 266.753 608.118 265.941C608.118 265.129 608.776 264.471 609.588 264.471C610.4 264.471 611.059 265.129 611.059 265.941Z" fill="white"/>
<path d="M584.588 292.412C584.588 293.224 583.93 293.882 583.118 293.882C582.305 293.882 581.647 293.224 581.647 292.412C581.647 291.6 582.305 290.941 583.118 290.941C583.93 290.941 584.588 291.6 584.588 292.412Z" fill="white"/>
<path d="M558.118 292.412C558.118 293.224 557.459 293.882 556.647 293.882C555.835 293.882 555.176 293.224 555.176 292.412C555.176 291.6 555.835 290.941 556.647 290.941C557.459 290.941 558.118 291.6 558.118 292.412Z" fill="white"/>
<path d="M584.588 318.882C584.588 319.695 583.93 320.353 583.118 320.353C582.305 320.353 581.647 319.695 581.647 318.882C581.647 318.07 582.305 317.412 583.118 317.412C583.93 317.412 584.588 318.07 584.588 318.882Z" fill="white"/>
<path d="M558.118 318.882C558.118 319.695 557.459 320.353 556.647 320.353C555.835 320.353 555.176 319.695 555.176 318.882C555.176 318.07 555.835 317.412 556.647 317.412C557.459 317.412 558.118 318.07 558.118 318.882Z" fill="white"/>
<path d="M584.588 265.941C584.588 266.753 583.93 267.412 583.118 267.412C582.305 267.412 581.647 266.753 581.647 265.941C581.647 265.129 582.305 264.471 583.118 264.471C583.93 264.471 584.588 265.129 584.588 265.941Z" fill="white"/>
<path d="M558.118 265.941C558.118 266.753 557.459 267.412 556.647 267.412C555.835 267.412 555.176 266.753 555.176 265.941C555.176 265.129 555.835 264.471 556.647 264.471C557.459 264.471 558.118 265.129 558.118 265.941Z" fill="white"/>
<path d="M637.529 398.294C637.529 399.106 636.871 399.765 636.059 399.765C635.247 399.765 634.588 399.106 634.588 398.294C634.588 397.482 635.247 396.824 636.059 396.824C636.871 396.824 637.529 397.482 637.529 398.294Z" fill="white"/>
<path d="M611.059 398.294C611.059 399.106 610.4 399.765 609.588 399.765C608.776 399.765 608.118 399.106 608.118 398.294C608.118 397.482 608.776 396.824 609.588 396.824C610.4 396.824 611.059 397.482 611.059 398.294Z" fill="white"/>
<path d="M637.529 424.765C637.529 425.577 636.871 426.235 636.059 426.235C635.247 426.235 634.588 425.577 634.588 424.765C634.588 423.953 635.247 423.294 636.059 423.294C636.871 423.294 637.529 423.953 637.529 424.765Z" fill="white"/>
<path d="M611.059 424.765C611.059 425.577 610.4 426.235 609.588 426.235C608.776 426.235 608.118 425.577 608.118 424.765C608.118 423.953 608.776 423.294 609.588 423.294C610.4 423.294 611.059 423.953 611.059 424.765Z" fill="white"/>
<path d="M637.529 345.353C637.529 346.165 636.871 346.824 636.059 346.824C635.247 346.824 634.588 346.165 634.588 345.353C634.588 344.541 635.247 343.882 636.059 343.882C636.871 343.882 637.529 344.541 637.529 345.353Z" fill="white"/>
<path d="M611.059 345.353C611.059 346.165 610.4 346.824 609.588 346.824C608.776 346.824 608.118 346.165 608.118 345.353C608.118 344.541 608.776 343.882 609.588 343.882C610.4 343.882 611.059 344.541 611.059 345.353Z" fill="white"/>
<path d="M637.529 371.824C637.529 372.636 636.871 373.294 636.059 373.294C635.247 373.294 634.588 372.636 634.588 371.824C634.588 371.011 635.247 370.353 636.059 370.353C636.871 370.353 637.529 371.011 637.529 371.824Z" fill="white"/>
<path d="M611.059 371.824C611.059 372.636 610.4 373.294 609.588 373.294C608.776 373.294 608.118 372.636 608.118 371.824C608.118 371.011 608.776 370.353 609.588 370.353C610.4 370.353 611.059 371.011 611.059 371.824Z" fill="white"/>
<path d="M584.588 398.294C584.588 399.106 583.93 399.765 583.118 399.765C582.305 399.765 581.647 399.106 581.647 398.294C581.647 397.482 582.305 396.824 583.118 396.824C583.93 396.824 584.588 397.482 584.588 398.294Z" fill="white"/>
<path d="M558.118 398.294C558.118 399.106 557.459 399.765 556.647 399.765C555.835 399.765 555.176 399.106 555.176 398.294C555.176 397.482 555.835 396.824 556.647 396.824C557.459 396.824 558.118 397.482 558.118 398.294Z" fill="white"/>
<path d="M584.588 424.765C584.588 425.577 583.93 426.235 583.118 426.235C582.305 426.235 581.647 425.577 581.647 424.765C581.647 423.953 582.305 423.294 583.118 423.294C583.93 423.294 584.588 423.953 584.588 424.765Z" fill="white"/>
<path d="M558.118 424.765C558.118 425.577 557.459 426.235 556.647 426.235C555.835 426.235 555.176 425.577 555.176 424.765C555.176 423.953 555.835 423.294 556.647 423.294C557.459 423.294 558.118 423.953 558.118 424.765Z" fill="white"/>
<path d="M584.588 345.353C584.588 346.165 583.93 346.824 583.118 346.824C582.305 346.824 581.647 346.165 581.647 345.353C581.647 344.541 582.305 343.882 583.118 343.882C583.93 343.882 584.588 344.541 584.588 345.353Z" fill="white"/>
<path d="M558.118 345.353C558.118 346.165 557.459 346.824 556.647 346.824C555.835 346.824 555.176 346.165 555.176 345.353C555.176 344.541 555.835 343.882 556.647 343.882C557.459 343.882 558.118 344.541 558.118 345.353Z" fill="white"/>
<path d="M584.588 371.824C584.588 372.636 583.93 373.294 583.118 373.294C582.305 373.294 581.647 372.636 581.647 371.824C581.647 371.011 582.305 370.353 583.118 370.353C583.93 370.353 584.588 371.011 584.588 371.824Z" fill="white"/>
<path d="M558.118 371.824C558.118 372.636 557.459 373.294 556.647 373.294C555.835 373.294 555.176 372.636 555.176 371.824C555.176 371.011 555.835 370.353 556.647 370.353C557.459 370.353 558.118 371.011 558.118 371.824Z" fill="white"/>
<path d="M743.412 504.177C743.412 504.989 742.753 505.647 741.941 505.647C741.129 505.647 740.471 504.989 740.471 504.177C740.471 503.364 741.129 502.706 741.941 502.706C742.753 502.706 743.412 503.364 743.412 504.177Z" fill="white"/>
<path d="M716.941 504.177C716.941 504.989 716.283 505.647 715.471 505.647C714.658 505.647 714 504.989 714 504.177C714 503.364 714.658 502.706 715.471 502.706C716.283 502.706 716.941 503.364 716.941 504.177Z" fill="white"/>
<path d="M743.412 451.235C743.412 452.048 742.753 452.706 741.941 452.706C741.129 452.706 740.471 452.048 740.471 451.235C740.471 450.423 741.129 449.765 741.941 449.765C742.753 449.765 743.412 450.423 743.412 451.235Z" fill="white"/>
<path d="M716.941 451.235C716.941 452.048 716.283 452.706 715.471 452.706C714.658 452.706 714 452.048 714 451.235C714 450.423 714.658 449.765 715.471 449.765C716.283 449.765 716.941 450.423 716.941 451.235Z" fill="white"/>
<path d="M743.412 477.706C743.412 478.518 742.753 479.177 741.941 479.177C741.129 479.177 740.471 478.518 740.471 477.706C740.471 476.894 741.129 476.235 741.941 476.235C742.753 476.235 743.412 476.894 743.412 477.706Z" fill="white"/>
<path d="M716.941 477.706C716.941 478.518 716.283 479.177 715.471 479.177C714.658 479.177 714 478.518 714 477.706C714 476.894 714.658 476.235 715.471 476.235C716.283 476.235 716.941 476.894 716.941 477.706Z" fill="white"/>
<path d="M690.471 504.177C690.471 504.989 689.812 505.647 689 505.647C688.188 505.647 687.529 504.989 687.529 504.177C687.529 503.364 688.188 502.706 689 502.706C689.812 502.706 690.471 503.364 690.471 504.177Z" fill="white"/>
<path d="M664 504.177C664 504.989 663.342 505.647 662.529 505.647C661.717 505.647 661.059 504.989 661.059 504.177C661.059 503.364 661.717 502.706 662.529 502.706C663.342 502.706 664 503.364 664 504.177Z" fill="white"/>
<path d="M690.471 451.235C690.471 452.048 689.812 452.706 689 452.706C688.188 452.706 687.529 452.048 687.529 451.235C687.529 450.423 688.188 449.765 689 449.765C689.812 449.765 690.471 450.423 690.471 451.235Z" fill="white"/>
<path d="M664 451.235C664 452.048 663.342 452.706 662.529 452.706C661.717 452.706 661.059 452.048 661.059 451.235C661.059 450.423 661.717 449.765 662.529 449.765C663.342 449.765 664 450.423 664 451.235Z" fill="white"/>
<path d="M690.471 477.706C690.471 478.518 689.812 479.177 689 479.177C688.188 479.177 687.529 478.518 687.529 477.706C687.529 476.894 688.188 476.235 689 476.235C689.812 476.235 690.471 476.894 690.471 477.706Z" fill="white"/>
<path d="M664 477.706C664 478.518 663.342 479.177 662.529 479.177C661.717 479.177 661.059 478.518 661.059 477.706C661.059 476.894 661.717 476.235 662.529 476.235C663.342 476.235 664 476.894 664 477.706Z" fill="white"/>
<path d="M637.529 504.177C637.529 504.989 636.871 505.647 636.059 505.647C635.247 505.647 634.588 504.989 634.588 504.177C634.588 503.364 635.247 502.706 636.059 502.706C636.871 502.706 637.529 503.364 637.529 504.177Z" fill="white"/>
<path d="M611.059 504.177C611.059 504.989 610.4 505.647 609.588 505.647C608.776 505.647 608.118 504.989 608.118 504.177C608.118 503.364 608.776 502.706 609.588 502.706C610.4 502.706 611.059 503.364 611.059 504.177Z" fill="white"/>
<path d="M637.529 451.235C637.529 452.048 636.871 452.706 636.059 452.706C635.247 452.706 634.588 452.048 634.588 451.235C634.588 450.423 635.247 449.765 636.059 449.765C636.871 449.765 637.529 450.423 637.529 451.235Z" fill="white"/>
<path d="M611.059 451.235C611.059 452.048 610.4 452.706 609.588 452.706C608.776 452.706 608.118 452.048 608.118 451.235C608.118 450.423 608.776 449.765 609.588 449.765C610.4 449.765 611.059 450.423 611.059 451.235Z" fill="white"/>
<path d="M637.529 477.706C637.529 478.518 636.871 479.177 636.059 479.177C635.247 479.177 634.588 478.518 634.588 477.706C634.588 476.894 635.247 476.235 636.059 476.235C636.871 476.235 637.529 476.894 637.529 477.706Z" fill="white"/>
<path d="M611.059 477.706C611.059 478.518 610.4 479.177 609.588 479.177C608.776 479.177 608.118 478.518 608.118 477.706C608.118 476.894 608.776 476.235 609.588 476.235C610.4 476.235 611.059 476.894 611.059 477.706Z" fill="white"/>
<path d="M584.588 504.177C584.588 504.989 583.93 505.647 583.118 505.647C582.305 505.647 581.647 504.989 581.647 504.177C581.647 503.364 582.305 502.706 583.118 502.706C583.93 502.706 584.588 503.364 584.588 504.177Z" fill="white"/>
<path d="M558.118 504.177C558.118 504.989 557.459 505.647 556.647 505.647C555.835 505.647 555.176 504.989 555.176 504.177C555.176 503.364 555.835 502.706 556.647 502.706C557.459 502.706 558.118 503.364 558.118 504.177Z" fill="white"/>
<path d="M584.588 451.235C584.588 452.048 583.93 452.706 583.118 452.706C582.305 452.706 581.647 452.048 581.647 451.235C581.647 450.423 582.305 449.765 583.118 449.765C583.93 449.765 584.588 450.423 584.588 451.235Z" fill="white"/>
<path d="M558.118 451.235C558.118 452.048 557.459 452.706 556.647 452.706C555.835 452.706 555.176 452.048 555.176 451.235C555.176 450.423 555.835 449.765 556.647 449.765C557.459 449.765 558.118 450.423 558.118 451.235Z" fill="white"/>
<path d="M584.588 477.706C584.588 478.518 583.93 479.177 583.118 479.177C582.305 479.177 581.647 478.518 581.647 477.706C581.647 476.894 582.305 476.235 583.118 476.235C583.93 476.235 584.588 476.894 584.588 477.706Z" fill="white"/>
<path d="M558.118 477.706C558.118 478.518 557.459 479.177 556.647 479.177C555.835 479.177 555.176 478.518 555.176 477.706C555.176 476.894 555.835 476.235 556.647 476.235C557.459 476.235 558.118 476.894 558.118 477.706Z" fill="white"/>
<path d="M532.176 504.177C532.176 504.989 531.518 505.647 530.706 505.647C529.894 505.647 529.235 504.989 529.235 504.177C529.235 503.364 529.894 502.706 530.706 502.706C531.518 502.706 532.176 503.364 532.176 504.177Z" fill="white"/>
<path d="M505.706 504.177C505.706 504.989 505.047 505.647 504.235 505.647C503.423 505.647 502.765 504.989 502.765 504.177C502.765 503.364 503.423 502.706 504.235 502.706C505.047 502.706 505.706 503.364 505.706 504.177Z" fill="white"/>
<path d="M532.176 451.235C532.176 452.048 531.518 452.706 530.706 452.706C529.894 452.706 529.235 452.048 529.235 451.235C529.235 450.423 529.894 449.765 530.706 449.765C531.518 449.765 532.176 450.423 532.176 451.235Z" fill="white"/>
<path d="M505.706 451.235C505.706 452.048 505.047 452.706 504.235 452.706C503.423 452.706 502.765 452.048 502.765 451.235C502.765 450.423 503.423 449.765 504.235 449.765C505.047 449.765 505.706 450.423 505.706 451.235Z" fill="white"/>
<path d="M532.176 477.706C532.176 478.518 531.518 479.177 530.706 479.177C529.894 479.177 529.235 478.518 529.235 477.706C529.235 476.894 529.894 476.235 530.706 476.235C531.518 476.235 532.176 476.894 532.176 477.706Z" fill="white"/>
<path d="M505.706 477.706C505.706 478.518 505.047 479.177 504.235 479.177C503.423 479.177 502.765 478.518 502.765 477.706C502.765 476.894 503.423 476.235 504.235 476.235C505.047 476.235 505.706 476.894 505.706 477.706Z" fill="white"/>
<path d="M479.235 504.177C479.235 504.989 478.577 505.647 477.765 505.647C476.953 505.647 476.294 504.989 476.294 504.177C476.294 503.364 476.953 502.706 477.765 502.706C478.577 502.706 479.235 503.364 479.235 504.177Z" fill="white"/>
<path d="M452.765 504.177C452.765 504.989 452.106 505.647 451.294 505.647C450.482 505.647 449.824 504.989 449.824 504.177C449.824 503.364 450.482 502.706 451.294 502.706C452.106 502.706 452.765 503.364 452.765 504.177Z" fill="white"/>
<path d="M479.235 451.235C479.235 452.048 478.577 452.706 477.765 452.706C476.953 452.706 476.294 452.048 476.294 451.235C476.294 450.423 476.953 449.765 477.765 449.765C478.577 449.765 479.235 450.423 479.235 451.235Z" fill="white"/>
<path d="M452.765 451.235C452.765 452.048 452.106 452.706 451.294 452.706C450.482 452.706 449.824 452.048 449.824 451.235C449.824 450.423 450.482 449.765 451.294 449.765C452.106 449.765 452.765 450.423 452.765 451.235Z" fill="white"/>
<path d="M479.235 477.706C479.235 478.518 478.577 479.177 477.765 479.177C476.953 479.177 476.294 478.518 476.294 477.706C476.294 476.894 476.953 476.235 477.765 476.235C478.577 476.235 479.235 476.894 479.235 477.706Z" fill="white"/>
<path d="M452.765 477.706C452.765 478.518 452.106 479.177 451.294 479.177C450.482 479.177 449.824 478.518 449.824 477.706C449.824 476.894 450.482 476.235 451.294 476.235C452.106 476.235 452.765 476.894 452.765 477.706Z" fill="white"/>
<path d="M426.294 504.177C426.294 504.989 425.636 505.647 424.824 505.647C424.011 505.647 423.353 504.989 423.353 504.177C423.353 503.364 424.011 502.706 424.824 502.706C425.636 502.706 426.294 503.364 426.294 504.177Z" fill="white"/>
<path d="M399.824 504.177C399.824 504.989 399.165 505.647 398.353 505.647C397.541 505.647 396.882 504.989 396.882 504.177C396.882 503.364 397.541 502.706 398.353 502.706C399.165 502.706 399.824 503.364 399.824 504.177Z" fill="white"/>
<path d="M426.294 451.235C426.294 452.048 425.636 452.706 424.824 452.706C424.011 452.706 423.353 452.048 423.353 451.235C423.353 450.423 424.011 449.765 424.824 449.765C425.636 449.765 426.294 450.423 426.294 451.235Z" fill="white"/>
<path d="M399.824 451.235C399.824 452.048 399.165 452.706 398.353 452.706C397.541 452.706 396.882 452.048 396.882 451.235C396.882 450.423 397.541 449.765 398.353 449.765C399.165 449.765 399.824 450.423 399.824 451.235Z" fill="white"/>
<path d="M426.294 477.706C426.294 478.518 425.636 479.177 424.824 479.177C424.011 479.177 423.353 478.518 423.353 477.706C423.353 476.894 424.011 476.235 424.824 476.235C425.636 476.235 426.294 476.894 426.294 477.706Z" fill="white"/>
<path d="M399.824 477.706C399.824 478.518 399.165 479.177 398.353 479.177C397.541 479.177 396.882 478.518 396.882 477.706C396.882 476.894 397.541 476.235 398.353 476.235C399.165 476.235 399.824 476.894 399.824 477.706Z" fill="white"/>
<path d="M373.353 504.177C373.353 504.989 372.695 505.647 371.882 505.647C371.07 505.647 370.412 504.989 370.412 504.177C370.412 503.364 371.07 502.706 371.882 502.706C372.695 502.706 373.353 503.364 373.353 504.177Z" fill="white"/>
<path d="M346.882 504.177C346.882 504.989 346.224 505.647 345.412 505.647C344.6 505.647 343.941 504.989 343.941 504.177C343.941 503.364 344.6 502.706 345.412 502.706C346.224 502.706 346.882 503.364 346.882 504.177Z" fill="white"/>
<path d="M373.353 451.235C373.353 452.048 372.695 452.706 371.882 452.706C371.07 452.706 370.412 452.048 370.412 451.235C370.412 450.423 371.07 449.765 371.882 449.765C372.695 449.765 373.353 450.423 373.353 451.235Z" fill="white"/>
<path d="M346.882 451.235C346.882 452.048 346.224 452.706 345.412 452.706C344.6 452.706 343.941 452.048 343.941 451.235C343.941 450.423 344.6 449.765 345.412 449.765C346.224 449.765 346.882 450.423 346.882 451.235Z" fill="white"/>
<path d="M373.353 477.706C373.353 478.518 372.695 479.177 371.882 479.177C371.07 479.177 370.412 478.518 370.412 477.706C370.412 476.894 371.07 476.235 371.882 476.235C372.695 476.235 373.353 476.894 373.353 477.706Z" fill="white"/>
<path d="M346.882 477.706C346.882 478.518 346.224 479.177 345.412 479.177C344.6 479.177 343.941 478.518 343.941 477.706C343.941 476.894 344.6 476.235 345.412 476.235C346.224 476.235 346.882 476.894 346.882 477.706Z" fill="white"/>
<path d="M532.176 292.412C532.176 293.224 531.518 293.882 530.706 293.882C529.894 293.882 529.235 293.224 529.235 292.412C529.235 291.6 529.894 290.941 530.706 290.941C531.518 290.941 532.176 291.6 532.176 292.412Z" fill="white"/>
<path d="M505.706 292.412C505.706 293.224 505.047 293.882 504.235 293.882C503.423 293.882 502.765 293.224 502.765 292.412C502.765 291.6 503.423 290.941 504.235 290.941C505.047 290.941 505.706 291.6 505.706 292.412Z" fill="white"/>
<path d="M532.176 318.882C532.176 319.695 531.518 320.353 530.706 320.353C529.894 320.353 529.235 319.695 529.235 318.882C529.235 318.07 529.894 317.412 530.706 317.412C531.518 317.412 532.176 318.07 532.176 318.882Z" fill="white"/>
<path d="M505.706 318.882C505.706 319.695 505.047 320.353 504.235 320.353C503.423 320.353 502.765 319.695 502.765 318.882C502.765 318.07 503.423 317.412 504.235 317.412C505.047 317.412 505.706 318.07 505.706 318.882Z" fill="white"/>
<path d="M532.176 265.941C532.176 266.753 531.518 267.412 530.706 267.412C529.894 267.412 529.235 266.753 529.235 265.941C529.235 265.129 529.894 264.471 530.706 264.471C531.518 264.471 532.176 265.129 532.176 265.941Z" fill="white"/>
<path d="M505.706 265.941C505.706 266.753 505.047 267.412 504.235 267.412C503.423 267.412 502.765 266.753 502.765 265.941C502.765 265.129 503.423 264.471 504.235 264.471C505.047 264.471 505.706 265.129 505.706 265.941Z" fill="white"/>
<path d="M479.235 292.412C479.235 293.224 478.577 293.882 477.765 293.882C476.953 293.882 476.294 293.224 476.294 292.412C476.294 291.6 476.953 290.941 477.765 290.941C478.577 290.941 479.235 291.6 479.235 292.412Z" fill="white"/>
<path d="M452.765 292.412C452.765 293.224 452.106 293.882 451.294 293.882C450.482 293.882 449.824 293.224 449.824 292.412C449.824 291.6 450.482 290.941 451.294 290.941C452.106 290.941 452.765 291.6 452.765 292.412Z" fill="white"/>
<path d="M479.235 318.882C479.235 319.695 478.577 320.353 477.765 320.353C476.953 320.353 476.294 319.695 476.294 318.882C476.294 318.07 476.953 317.412 477.765 317.412C478.577 317.412 479.235 318.07 479.235 318.882Z" fill="white"/>
<path d="M452.765 318.882C452.765 319.695 452.106 320.353 451.294 320.353C450.482 320.353 449.824 319.695 449.824 318.882C449.824 318.07 450.482 317.412 451.294 317.412C452.106 317.412 452.765 318.07 452.765 318.882Z" fill="white"/>
<path d="M479.235 265.941C479.235 266.753 478.577 267.412 477.765 267.412C476.953 267.412 476.294 266.753 476.294 265.941C476.294 265.129 476.953 264.471 477.765 264.471C478.577 264.471 479.235 265.129 479.235 265.941Z" fill="white"/>
<path d="M452.765 265.941C452.765 266.753 452.106 267.412 451.294 267.412C450.482 267.412 449.824 266.753 449.824 265.941C449.824 265.129 450.482 264.471 451.294 264.471C452.106 264.471 452.765 265.129 452.765 265.941Z" fill="white"/>
<path d="M532.176 398.294C532.176 399.106 531.518 399.765 530.706 399.765C529.894 399.765 529.235 399.106 529.235 398.294C529.235 397.482 529.894 396.824 530.706 396.824C531.518 396.824 532.176 397.482 532.176 398.294Z" fill="white"/>
<path d="M505.706 398.294C505.706 399.106 505.047 399.765 504.235 399.765C503.423 399.765 502.765 399.106 502.765 398.294C502.765 397.482 503.423 396.824 504.235 396.824C505.047 396.824 505.706 397.482 505.706 398.294Z" fill="white"/>
<path d="M532.176 424.765C532.176 425.577 531.518 426.235 530.706 426.235C529.894 426.235 529.235 425.577 529.235 424.765C529.235 423.953 529.894 423.294 530.706 423.294C531.518 423.294 532.176 423.953 532.176 424.765Z" fill="white"/>
<path d="M505.706 424.765C505.706 425.577 505.047 426.235 504.235 426.235C503.423 426.235 502.765 425.577 502.765 424.765C502.765 423.953 503.423 423.294 504.235 423.294C505.047 423.294 505.706 423.953 505.706 424.765Z" fill="white"/>
<path d="M532.176 345.353C532.176 346.165 531.518 346.824 530.706 346.824C529.894 346.824 529.235 346.165 529.235 345.353C529.235 344.541 529.894 343.882 530.706 343.882C531.518 343.882 532.176 344.541 532.176 345.353Z" fill="white"/>
<path d="M505.706 345.353C505.706 346.165 505.047 346.824 504.235 346.824C503.423 346.824 502.765 346.165 502.765 345.353C502.765 344.541 503.423 343.882 504.235 343.882C505.047 343.882 505.706 344.541 505.706 345.353Z" fill="white"/>
<path d="M532.176 371.824C532.176 372.636 531.518 373.294 530.706 373.294C529.894 373.294 529.235 372.636 529.235 371.824C529.235 371.011 529.894 370.353 530.706 370.353C531.518 370.353 532.176 371.011 532.176 371.824Z" fill="white"/>
<path d="M505.706 371.824C505.706 372.636 505.047 373.294 504.235 373.294C503.423 373.294 502.765 372.636 502.765 371.824C502.765 371.011 503.423 370.353 504.235 370.353C505.047 370.353 505.706 371.011 505.706 371.824Z" fill="white"/>
<path d="M479.235 398.294C479.235 399.106 478.577 399.765 477.765 399.765C476.953 399.765 476.294 399.106 476.294 398.294C476.294 397.482 476.953 396.824 477.765 396.824C478.577 396.824 479.235 397.482 479.235 398.294Z" fill="white"/>
<path d="M452.765 398.294C452.765 399.106 452.106 399.765 451.294 399.765C450.482 399.765 449.824 399.106 449.824 398.294C449.824 397.482 450.482 396.824 451.294 396.824C452.106 396.824 452.765 397.482 452.765 398.294Z" fill="white"/>
<path d="M479.235 424.765C479.235 425.577 478.577 426.235 477.765 426.235C476.953 426.235 476.294 425.577 476.294 424.765C476.294 423.953 476.953 423.294 477.765 423.294C478.577 423.294 479.235 423.953 479.235 424.765Z" fill="white"/>
<path d="M452.765 424.765C452.765 425.577 452.106 426.235 451.294 426.235C450.482 426.235 449.824 425.577 449.824 424.765C449.824 423.953 450.482 423.294 451.294 423.294C452.106 423.294 452.765 423.953 452.765 424.765Z" fill="white"/>
<path d="M479.235 345.353C479.235 346.165 478.577 346.824 477.765 346.824C476.953 346.824 476.294 346.165 476.294 345.353C476.294 344.541 476.953 343.882 477.765 343.882C478.577 343.882 479.235 344.541 479.235 345.353Z" fill="white"/>
<path d="M452.765 345.353C452.765 346.165 452.106 346.824 451.294 346.824C450.482 346.824 449.824 346.165 449.824 345.353C449.824 344.541 450.482 343.882 451.294 343.882C452.106 343.882 452.765 344.541 452.765 345.353Z" fill="white"/>
<path d="M479.235 371.824C479.235 372.636 478.577 373.294 477.765 373.294C476.953 373.294 476.294 372.636 476.294 371.824C476.294 371.011 476.953 370.353 477.765 370.353C478.577 370.353 479.235 371.011 479.235 371.824Z" fill="white"/>
<path d="M452.765 371.824C452.765 372.636 452.106 373.294 451.294 373.294C450.482 373.294 449.824 372.636 449.824 371.824C449.824 371.011 450.482 370.353 451.294 370.353C452.106 370.353 452.765 371.011 452.765 371.824Z" fill="white"/>
<path d="M426.294 292.412C426.294 293.224 425.636 293.882 424.824 293.882C424.011 293.882 423.353 293.224 423.353 292.412C423.353 291.6 424.011 290.941 424.824 290.941C425.636 290.941 426.294 291.6 426.294 292.412Z" fill="white"/>
<path d="M399.824 292.412C399.824 293.224 399.165 293.882 398.353 293.882C397.541 293.882 396.882 293.224 396.882 292.412C396.882 291.6 397.541 290.941 398.353 290.941C399.165 290.941 399.824 291.6 399.824 292.412Z" fill="white"/>
<path d="M426.294 318.882C426.294 319.695 425.636 320.353 424.824 320.353C424.011 320.353 423.353 319.695 423.353 318.882C423.353 318.07 424.011 317.412 424.824 317.412C425.636 317.412 426.294 318.07 426.294 318.882Z" fill="white"/>
<path d="M399.824 318.882C399.824 319.695 399.165 320.353 398.353 320.353C397.541 320.353 396.882 319.695 396.882 318.882C396.882 318.07 397.541 317.412 398.353 317.412C399.165 317.412 399.824 318.07 399.824 318.882Z" fill="white"/>
<path d="M426.294 265.941C426.294 266.753 425.636 267.412 424.824 267.412C424.011 267.412 423.353 266.753 423.353 265.941C423.353 265.129 424.011 264.471 424.824 264.471C425.636 264.471 426.294 265.129 426.294 265.941Z" fill="white"/>
<path d="M399.824 265.941C399.824 266.753 399.165 267.412 398.353 267.412C397.541 267.412 396.882 266.753 396.882 265.941C396.882 265.129 397.541 264.471 398.353 264.471C399.165 264.471 399.824 265.129 399.824 265.941Z" fill="white"/>
<path d="M373.353 292.412C373.353 293.224 372.695 293.882 371.882 293.882C371.07 293.882 370.412 293.224 370.412 292.412C370.412 291.6 371.07 290.941 371.882 290.941C372.695 290.941 373.353 291.6 373.353 292.412Z" fill="white"/>
<path d="M346.882 292.412C346.882 293.224 346.224 293.882 345.412 293.882C344.6 293.882 343.941 293.224 343.941 292.412C343.941 291.6 344.6 290.941 345.412 290.941C346.224 290.941 346.882 291.6 346.882 292.412Z" fill="white"/>
<path d="M373.353 318.882C373.353 319.695 372.695 320.353 371.882 320.353C371.07 320.353 370.412 319.695 370.412 318.882C370.412 318.07 371.07 317.412 371.882 317.412C372.695 317.412 373.353 318.07 373.353 318.882Z" fill="white"/>
<path d="M346.882 318.882C346.882 319.695 346.224 320.353 345.412 320.353C344.6 320.353 343.941 319.695 343.941 318.882C343.941 318.07 344.6 317.412 345.412 317.412C346.224 317.412 346.882 318.07 346.882 318.882Z" fill="white"/>
<path d="M373.353 265.941C373.353 266.753 372.695 267.412 371.882 267.412C371.07 267.412 370.412 266.753 370.412 265.941C370.412 265.129 371.07 264.471 371.882 264.471C372.695 264.471 373.353 265.129 373.353 265.941Z" fill="white"/>
<path d="M346.882 265.941C346.882 266.753 346.224 267.412 345.412 267.412C344.6 267.412 343.941 266.753 343.941 265.941C343.941 265.129 344.6 264.471 345.412 264.471C346.224 264.471 346.882 265.129 346.882 265.941Z" fill="white"/>
<path d="M426.294 398.294C426.294 399.106 425.636 399.765 424.824 399.765C424.011 399.765 423.353 399.106 423.353 398.294C423.353 397.482 424.011 396.824 424.824 396.824C425.636 396.824 426.294 397.482 426.294 398.294Z" fill="white"/>
<path d="M399.824 398.294C399.824 399.106 399.165 399.765 398.353 399.765C397.541 399.765 396.882 399.106 396.882 398.294C396.882 397.482 397.541 396.824 398.353 396.824C399.165 396.824 399.824 397.482 399.824 398.294Z" fill="white"/>
<path d="M426.294 424.765C426.294 425.577 425.636 426.235 424.824 426.235C424.011 426.235 423.353 425.577 423.353 424.765C423.353 423.953 424.011 423.294 424.824 423.294C425.636 423.294 426.294 423.953 426.294 424.765Z" fill="white"/>
<path d="M399.824 424.765C399.824 425.577 399.165 426.235 398.353 426.235C397.541 426.235 396.882 425.577 396.882 424.765C396.882 423.953 397.541 423.294 398.353 423.294C399.165 423.294 399.824 423.953 399.824 424.765Z" fill="white"/>
<path d="M426.294 345.353C426.294 346.165 425.636 346.824 424.824 346.824C424.011 346.824 423.353 346.165 423.353 345.353C423.353 344.541 424.011 343.882 424.824 343.882C425.636 343.882 426.294 344.541 426.294 345.353Z" fill="white"/>
<path d="M399.824 345.353C399.824 346.165 399.165 346.824 398.353 346.824C397.541 346.824 396.882 346.165 396.882 345.353C396.882 344.541 397.541 343.882 398.353 343.882C399.165 343.882 399.824 344.541 399.824 345.353Z" fill="white"/>
<path d="M426.294 371.824C426.294 372.636 425.636 373.294 424.824 373.294C424.011 373.294 423.353 372.636 423.353 371.824C423.353 371.011 424.011 370.353 424.824 370.353C425.636 370.353 426.294 371.011 426.294 371.824Z" fill="white"/>
<path d="M399.824 371.824C399.824 372.636 399.165 373.294 398.353 373.294C397.541 373.294 396.882 372.636 396.882 371.824C396.882 371.011 397.541 370.353 398.353 370.353C399.165 370.353 399.824 371.011 399.824 371.824Z" fill="white"/>
<path d="M373.353 398.294C373.353 399.106 372.695 399.765 371.882 399.765C371.07 399.765 370.412 399.106 370.412 398.294C370.412 397.482 371.07 396.824 371.882 396.824C372.695 396.824 373.353 397.482 373.353 398.294Z" fill="white"/>
<path d="M346.882 398.294C346.882 399.106 346.224 399.765 345.412 399.765C344.6 399.765 343.941 399.106 343.941 398.294C343.941 397.482 344.6 396.824 345.412 396.824C346.224 396.824 346.882 397.482 346.882 398.294Z" fill="white"/>
<path d="M373.353 424.765C373.353 425.577 372.695 426.235 371.882 426.235C371.07 426.235 370.412 425.577 370.412 424.765C370.412 423.953 371.07 423.294 371.882 423.294C372.695 423.294 373.353 423.953 373.353 424.765Z" fill="white"/>
<path d="M346.882 424.765C346.882 425.577 346.224 426.235 345.412 426.235C344.6 426.235 343.941 425.577 343.941 424.765C343.941 423.953 344.6 423.294 345.412 423.294C346.224 423.294 346.882 423.953 346.882 424.765Z" fill="white"/>
<path d="M373.353 345.353C373.353 346.165 372.695 346.824 371.882 346.824C371.07 346.824 370.412 346.165 370.412 345.353C370.412 344.541 371.07 343.882 371.882 343.882C372.695 343.882 373.353 344.541 373.353 345.353Z" fill="white"/>
<path d="M346.882 345.353C346.882 346.165 346.224 346.824 345.412 346.824C344.6 346.824 343.941 346.165 343.941 345.353C343.941 344.541 344.6 343.882 345.412 343.882C346.224 343.882 346.882 344.541 346.882 345.353Z" fill="white"/>
<path d="M373.353 371.824C373.353 372.636 372.695 373.294 371.882 373.294C371.07 373.294 370.412 372.636 370.412 371.824C370.412 371.011 371.07 370.353 371.882 370.353C372.695 370.353 373.353 371.011 373.353 371.824Z" fill="white"/>
<path d="M346.882 371.824C346.882 372.636 346.224 373.294 345.412 373.294C344.6 373.294 343.941 372.636 343.941 371.824C343.941 371.011 344.6 370.353 345.412 370.353C346.224 370.353 346.882 371.011 346.882 371.824Z" fill="white"/>
<path d="M320.412 292.412C320.412 293.224 319.753 293.882 318.941 293.882C318.129 293.882 317.471 293.224 317.471 292.412C317.471 291.6 318.129 290.941 318.941 290.941C319.753 290.941 320.412 291.6 320.412 292.412Z" fill="white"/>
<path d="M293.941 292.412C293.941 293.224 293.283 293.882 292.471 293.882C291.658 293.882 291 293.224 291 292.412C291 291.6 291.658 290.941 292.471 290.941C293.283 290.941 293.941 291.6 293.941 292.412Z" fill="white"/>
<path d="M320.412 318.882C320.412 319.695 319.753 320.353 318.941 320.353C318.129 320.353 317.471 319.695 317.471 318.882C317.471 318.07 318.129 317.412 318.941 317.412C319.753 317.412 320.412 318.07 320.412 318.882Z" fill="white"/>
<path d="M293.941 318.882C293.941 319.695 293.283 320.353 292.471 320.353C291.658 320.353 291 319.695 291 318.882C291 318.07 291.658 317.412 292.471 317.412C293.283 317.412 293.941 318.07 293.941 318.882Z" fill="white"/>
<path d="M320.412 265.941C320.412 266.753 319.753 267.412 318.941 267.412C318.129 267.412 317.471 266.753 317.471 265.941C317.471 265.129 318.129 264.471 318.941 264.471C319.753 264.471 320.412 265.129 320.412 265.941Z" fill="white"/>
<path d="M293.941 265.941C293.941 266.753 293.283 267.412 292.471 267.412C291.658 267.412 291 266.753 291 265.941C291 265.129 291.658 264.471 292.471 264.471C293.283 264.471 293.941 265.129 293.941 265.941Z" fill="white"/>
<path d="M320.412 398.294C320.412 399.106 319.753 399.765 318.941 399.765C318.129 399.765 317.471 399.106 317.471 398.294C317.471 397.482 318.129 396.824 318.941 396.824C319.753 396.824 320.412 397.482 320.412 398.294Z" fill="white"/>
<path d="M293.941 398.294C293.941 399.106 293.283 399.765 292.471 399.765C291.658 399.765 291 399.106 291 398.294C291 397.482 291.658 396.824 292.471 396.824C293.283 396.824 293.941 397.482 293.941 398.294Z" fill="white"/>
<path d="M320.412 424.765C320.412 425.577 319.753 426.235 318.941 426.235C318.129 426.235 317.471 425.577 317.471 424.765C317.471 423.953 318.129 423.294 318.941 423.294C319.753 423.294 320.412 423.953 320.412 424.765Z" fill="white"/>
<path d="M293.941 424.765C293.941 425.577 293.283 426.235 292.471 426.235C291.658 426.235 291 425.577 291 424.765C291 423.953 291.658 423.294 292.471 423.294C293.283 423.294 293.941 423.953 293.941 424.765Z" fill="white"/>
<path d="M320.412 345.353C320.412 346.165 319.753 346.824 318.941 346.824C318.129 346.824 317.471 346.165 317.471 345.353C317.471 344.541 318.129 343.882 318.941 343.882C319.753 343.882 320.412 344.541 320.412 345.353Z" fill="white"/>
<path d="M293.941 345.353C293.941 346.165 293.283 346.824 292.471 346.824C291.658 346.824 291 346.165 291 345.353C291 344.541 291.658 343.882 292.471 343.882C293.283 343.882 293.941 344.541 293.941 345.353Z" fill="white"/>
<path d="M320.412 371.824C320.412 372.636 319.753 373.294 318.941 373.294C318.129 373.294 317.471 372.636 317.471 371.824C317.471 371.011 318.129 370.353 318.941 370.353C319.753 370.353 320.412 371.011 320.412 371.824Z" fill="white"/>
<path d="M293.941 371.824C293.941 372.636 293.283 373.294 292.471 373.294C291.658 373.294 291 372.636 291 371.824C291 371.011 291.658 370.353 292.471 370.353C293.283 370.353 293.941 371.011 293.941 371.824Z" fill="white"/>
<path d="M320.412 504.177C320.412 504.989 319.753 505.647 318.941 505.647C318.129 505.647 317.471 504.989 317.471 504.177C317.471 503.364 318.129 502.706 318.941 502.706C319.753 502.706 320.412 503.364 320.412 504.177Z" fill="white"/>
<path d="M293.941 504.177C293.941 504.989 293.283 505.647 292.471 505.647C291.658 505.647 291 504.989 291 504.177C291 503.364 291.658 502.706 292.471 502.706C293.283 502.706 293.941 503.364 293.941 504.177Z" fill="white"/>
<path d="M320.412 451.235C320.412 452.048 319.753 452.706 318.941 452.706C318.129 452.706 317.471 452.048 317.471 451.235C317.471 450.423 318.129 449.765 318.941 449.765C319.753 449.765 320.412 450.423 320.412 451.235Z" fill="white"/>
<path d="M293.941 451.235C293.941 452.048 293.283 452.706 292.471 452.706C291.658 452.706 291 452.048 291 451.235C291 450.423 291.658 449.765 292.471 449.765C293.283 449.765 293.941 450.423 293.941 451.235Z" fill="white"/>
<path d="M320.412 477.706C320.412 478.518 319.753 479.177 318.941 479.177C318.129 479.177 317.471 478.518 317.471 477.706C317.471 476.894 318.129 476.235 318.941 476.235C319.753 476.235 320.412 476.894 320.412 477.706Z" fill="white"/>
<path d="M293.941 477.706C293.941 478.518 293.283 479.177 292.471 479.177C291.658 479.177 291 478.518 291 477.706C291 476.894 291.658 476.235 292.471 476.235C293.283 476.235 293.941 476.894 293.941 477.706Z" fill="white"/>
</g>
</g>
<defs>
<linearGradient id="paint0_linear" x1="158.234" y1="514" x2="855.806" y2="56.8046" gradientUnits="userSpaceOnUse">
<stop stop-color="#0B1C4B"/>
<stop offset="1" stop-color="#091F5B"/>
</linearGradient>
<linearGradient id="paint1_linear" x1="158.234" y1="518" x2="859.045" y2="62.2282" gradientUnits="userSpaceOnUse">
<stop stop-color="#0B1C4B"/>
<stop offset="1" stop-color="#081B50"/>
</linearGradient>
<linearGradient id="paint2_linear" x1="1017" y1="230" x2="1351.38" y2="365.091" gradientUnits="userSpaceOnUse">
<stop stop-color="#0DD0FB" stop-opacity="0"/>
<stop offset="1" stop-color="#036FF5"/>
</linearGradient>
<linearGradient id="paint3_linear" x1="768" y1="391" x2="1102.38" y2="526.091" gradientUnits="userSpaceOnUse">
<stop stop-color="#0DD0FB" stop-opacity="0"/>
<stop offset="1" stop-color="#036FF5"/>
</linearGradient>
<linearGradient id="paint4_linear" x1="333.5" y1="19.5" x2="95.5607" y2="-196.322" gradientUnits="userSpaceOnUse">
<stop stop-color="#0DD0FB"/>
<stop offset="1" stop-color="#036FF5" stop-opacity="0"/>
</linearGradient>
<linearGradient id="paint5_linear" x1="553.5" y1="-115.5" x2="315.561" y2="-331.322" gradientUnits="userSpaceOnUse">
<stop stop-color="#0DD0FB"/>
<stop offset="1" stop-color="#036FF5" stop-opacity="0"/>
</linearGradient>
</defs>
</svg>
