<svg width="279" height="331" viewBox="0 0 279 331" fill="none" xmlns="http://www.w3.org/2000/svg">
<g opacity="0.1" filter="url(#filter0_d)">
<path d="M149.803 297C211.683 297 255 263.064 255 206.139C255 149.944 213.503 124.401 167.639 124.401C152.021 124.401 140.65 127.442 129.926 132.136C128.538 132.744 126.975 131.687 127.06 130.174L128.949 96.7315C129.008 95.6724 129.885 94.8442 130.945 94.8442H241.716C242.82 94.8442 243.716 93.9488 243.716 92.8442V38.46C243.716 37.3554 242.82 36.46 241.716 36.46H75.2536C74.1927 36.46 73.3163 37.2884 73.2568 38.3477L66.153 164.751C66.1101 165.515 66.5071 166.237 67.1755 166.61L106.926 188.786C107.554 189.137 108.323 189.122 108.941 188.753C120.681 181.757 133.492 176.582 148.711 176.582C170.915 176.582 186.203 187.894 186.203 206.139C186.203 225.114 172.007 236.791 148.711 236.791C127.763 236.791 108.547 227.07 88.3603 210.338C87.5125 209.635 86.2538 209.736 85.5398 210.574L47.6657 255.041C46.9725 255.855 47.0424 257.072 47.8309 257.794C74.1149 281.855 105.459 297 149.803 297Z" fill="white"/>
</g>
<g opacity="0.12" filter="url(#filter1_d)">
<path d="M138.59 285.77C200.471 285.77 243.787 251.834 243.787 194.91C243.787 138.715 202.291 113.172 156.426 113.172C140.808 113.172 129.437 116.213 118.713 120.907C117.325 121.514 115.762 120.457 115.847 118.945L117.736 85.502C117.795 84.4429 118.672 83.6147 119.732 83.6147H230.503C231.607 83.6147 232.503 82.7193 232.503 81.6147V27.2305C232.503 26.1259 231.607 25.2305 230.503 25.2305H64.0407C62.9798 25.2305 62.1034 26.0589 62.0439 27.1182L54.9402 153.521C54.8972 154.286 55.2942 155.007 55.9626 155.38L95.7128 177.557C96.3416 177.908 97.1098 177.892 97.7283 177.524C109.468 170.528 122.279 165.353 137.498 165.353C159.702 165.353 174.99 176.665 174.99 194.91C174.99 213.885 160.794 225.562 137.498 225.562C116.551 225.562 97.3344 215.841 77.1474 199.108C76.2996 198.406 75.0409 198.507 74.3269 199.345L36.4528 243.812C35.7596 244.626 35.8295 245.843 36.618 246.564C62.902 270.626 94.2465 285.77 138.59 285.77Z" fill="white"/>
</g>
<g filter="url(#filter2_d)">
<path d="M127.376 274.54C189.257 274.54 232.573 240.604 232.573 183.679C232.573 127.484 191.077 101.941 145.213 101.941C129.594 101.941 118.223 104.982 107.499 109.676C106.111 110.284 104.548 109.227 104.633 107.714L106.522 74.2715C106.582 73.2124 107.458 72.3843 108.519 72.3843H219.289C220.393 72.3843 221.289 71.4888 221.289 70.3843V16C221.289 14.8954 220.393 14 219.289 14H52.8269C51.7659 14 50.8896 14.8285 50.83 15.8878L43.7263 142.291C43.6833 143.055 44.0803 143.777 44.7487 144.15L84.4989 166.326C85.1277 166.677 85.8959 166.662 86.5144 166.293C98.2543 159.298 111.065 154.122 126.284 154.122C148.489 154.122 163.777 165.434 163.777 183.679C163.777 202.654 149.581 214.331 126.284 214.331C105.337 214.331 86.1205 204.61 65.9335 187.878C65.0857 187.175 63.827 187.276 63.113 188.114L25.2389 232.581C24.5457 233.395 24.6156 234.612 25.4042 235.334C51.6881 259.395 83.0326 274.54 127.376 274.54Z" fill="white"/>
</g>
<defs>
<filter id="filter0_d" x="23.1895" y="22.46" width="255.811" height="308.54" filterUnits="userSpaceOnUse" color-interpolation-filters="sRGB">
<feFlood flood-opacity="0" result="BackgroundImageFix"/>
<feColorMatrix in="SourceAlpha" type="matrix" values="0 0 0 0 0 0 0 0 0 0 0 0 0 0 0 0 0 0 127 0"/>
<feOffset dy="10"/>
<feGaussianBlur stdDeviation="12"/>
<feColorMatrix type="matrix" values="0 0 0 0 0 0 0 0 0 0.149909 0 0 0 0 0.336245 0 0 0 0.2 0"/>
<feBlend mode="normal" in2="BackgroundImageFix" result="effect1_dropShadow"/>
<feBlend mode="normal" in="SourceGraphic" in2="effect1_dropShadow" result="shape"/>
</filter>
<filter id="filter1_d" x="11.9766" y="11.2305" width="255.811" height="308.54" filterUnits="userSpaceOnUse" color-interpolation-filters="sRGB">
<feFlood flood-opacity="0" result="BackgroundImageFix"/>
<feColorMatrix in="SourceAlpha" type="matrix" values="0 0 0 0 0 0 0 0 0 0 0 0 0 0 0 0 0 0 127 0"/>
<feOffset dy="10"/>
<feGaussianBlur stdDeviation="12"/>
<feColorMatrix type="matrix" values="0 0 0 0 0 0 0 0 0 0.149909 0 0 0 0 0.336245 0 0 0 0.2 0"/>
<feBlend mode="normal" in2="BackgroundImageFix" result="effect1_dropShadow"/>
<feBlend mode="normal" in="SourceGraphic" in2="effect1_dropShadow" result="shape"/>
</filter>
<filter id="filter2_d" x="0.762695" y="0" width="255.811" height="308.54" filterUnits="userSpaceOnUse" color-interpolation-filters="sRGB">
<feFlood flood-opacity="0" result="BackgroundImageFix"/>
<feColorMatrix in="SourceAlpha" type="matrix" values="0 0 0 0 0 0 0 0 0 0 0 0 0 0 0 0 0 0 127 0"/>
<feOffset dy="10"/>
<feGaussianBlur stdDeviation="12"/>
<feColorMatrix type="matrix" values="0 0 0 0 0 0 0 0 0 0.149909 0 0 0 0 0.336245 0 0 0 0.2 0"/>
<feBlend mode="normal" in2="BackgroundImageFix" result="effect1_dropShadow"/>
<feBlend mode="normal" in="SourceGraphic" in2="effect1_dropShadow" result="shape"/>
</filter>
</defs>
</svg>
