<svg width="400" height="400" viewBox="0 0 400 400" fill="none" xmlns="http://www.w3.org/2000/svg">
<g opacity="0.5">
<path d="M400 266.176C400 266.989 399.342 267.647 398.529 267.647C397.717 267.647 397.059 266.989 397.059 266.176C397.059 265.364 397.717 264.706 398.529 264.706C399.342 264.706 400 265.364 400 266.176Z" fill="white"/>
<path d="M373.529 266.176C373.529 266.989 372.871 267.647 372.059 267.647C371.247 267.647 370.588 266.989 370.588 266.176C370.588 265.364 371.247 264.706 372.059 264.706C372.871 264.706 373.529 265.364 373.529 266.176Z" fill="white"/>
<path d="M400 292.647C400 293.459 399.342 294.118 398.529 294.118C397.717 294.118 397.059 293.459 397.059 292.647C397.059 291.835 397.717 291.176 398.529 291.176C399.342 291.176 400 291.835 400 292.647Z" fill="white"/>
<path d="M373.529 292.647C373.529 293.459 372.871 294.118 372.059 294.118C371.247 294.118 370.588 293.459 370.588 292.647C370.588 291.835 371.247 291.176 372.059 291.176C372.871 291.176 373.529 291.835 373.529 292.647Z" fill="white"/>
<path d="M400 213.235C400 214.047 399.342 214.706 398.529 214.706C397.717 214.706 397.059 214.047 397.059 213.235C397.059 212.423 397.717 211.765 398.529 211.765C399.342 211.765 400 212.423 400 213.235Z" fill="white"/>
<path d="M373.529 213.235C373.529 214.047 372.871 214.706 372.059 214.706C371.247 214.706 370.588 214.047 370.588 213.235C370.588 212.423 371.247 211.765 372.059 211.765C372.871 211.765 373.529 212.423 373.529 213.235Z" fill="white"/>
<path d="M400 239.706C400 240.518 399.342 241.176 398.529 241.176C397.717 241.176 397.059 240.518 397.059 239.706C397.059 238.894 397.717 238.235 398.529 238.235C399.342 238.235 400 238.894 400 239.706Z" fill="white"/>
<path d="M373.529 239.706C373.529 240.518 372.871 241.176 372.059 241.176C371.247 241.176 370.588 240.518 370.588 239.706C370.588 238.894 371.247 238.235 372.059 238.235C372.871 238.235 373.529 238.894 373.529 239.706Z" fill="white"/>
<path d="M347.059 266.176C347.059 266.989 346.4 267.647 345.588 267.647C344.776 267.647 344.118 266.989 344.118 266.176C344.118 265.364 344.776 264.706 345.588 264.706C346.4 264.706 347.059 265.364 347.059 266.176Z" fill="white"/>
<path d="M320.588 266.176C320.588 266.989 319.93 267.647 319.118 267.647C318.305 267.647 317.647 266.989 317.647 266.176C317.647 265.364 318.305 264.706 319.118 264.706C319.93 264.706 320.588 265.364 320.588 266.176Z" fill="white"/>
<path d="M347.059 292.647C347.059 293.459 346.4 294.118 345.588 294.118C344.776 294.118 344.118 293.459 344.118 292.647C344.118 291.835 344.776 291.176 345.588 291.176C346.4 291.176 347.059 291.835 347.059 292.647Z" fill="white"/>
<path d="M320.588 292.647C320.588 293.459 319.93 294.118 319.118 294.118C318.305 294.118 317.647 293.459 317.647 292.647C317.647 291.835 318.305 291.176 319.118 291.176C319.93 291.176 320.588 291.835 320.588 292.647Z" fill="white"/>
<path d="M347.059 213.235C347.059 214.047 346.4 214.706 345.588 214.706C344.776 214.706 344.118 214.047 344.118 213.235C344.118 212.423 344.776 211.765 345.588 211.765C346.4 211.765 347.059 212.423 347.059 213.235Z" fill="white"/>
<path d="M320.588 213.235C320.588 214.047 319.93 214.706 319.118 214.706C318.305 214.706 317.647 214.047 317.647 213.235C317.647 212.423 318.305 211.765 319.118 211.765C319.93 211.765 320.588 212.423 320.588 213.235Z" fill="white"/>
<path d="M347.059 239.706C347.059 240.518 346.4 241.176 345.588 241.176C344.776 241.176 344.118 240.518 344.118 239.706C344.118 238.894 344.776 238.235 345.588 238.235C346.4 238.235 347.059 238.894 347.059 239.706Z" fill="white"/>
<path d="M320.588 239.706C320.588 240.518 319.93 241.176 319.118 241.176C318.305 241.176 317.647 240.518 317.647 239.706C317.647 238.894 318.305 238.235 319.118 238.235C319.93 238.235 320.588 238.894 320.588 239.706Z" fill="white"/>
<path d="M400 372.059C400 372.871 399.342 373.529 398.529 373.529C397.717 373.529 397.059 372.871 397.059 372.059C397.059 371.247 397.717 370.588 398.529 370.588C399.342 370.588 400 371.247 400 372.059Z" fill="white"/>
<path d="M373.529 372.059C373.529 372.871 372.871 373.529 372.059 373.529C371.247 373.529 370.588 372.871 370.588 372.059C370.588 371.247 371.247 370.588 372.059 370.588C372.871 370.588 373.529 371.247 373.529 372.059Z" fill="white"/>
<path d="M400 398.529C400 399.342 399.342 400 398.529 400C397.717 400 397.059 399.342 397.059 398.529C397.059 397.717 397.717 397.059 398.529 397.059C399.342 397.059 400 397.717 400 398.529Z" fill="white"/>
<path d="M373.529 398.529C373.529 399.342 372.871 400 372.059 400C371.247 400 370.588 399.342 370.588 398.529C370.588 397.717 371.247 397.059 372.059 397.059C372.871 397.059 373.529 397.717 373.529 398.529Z" fill="white"/>
<path d="M400 319.118C400 319.93 399.342 320.588 398.529 320.588C397.717 320.588 397.059 319.93 397.059 319.118C397.059 318.305 397.717 317.647 398.529 317.647C399.342 317.647 400 318.305 400 319.118Z" fill="white"/>
<path d="M373.529 319.118C373.529 319.93 372.871 320.588 372.059 320.588C371.247 320.588 370.588 319.93 370.588 319.118C370.588 318.305 371.247 317.647 372.059 317.647C372.871 317.647 373.529 318.305 373.529 319.118Z" fill="white"/>
<path d="M400 345.588C400 346.4 399.342 347.059 398.529 347.059C397.717 347.059 397.059 346.4 397.059 345.588C397.059 344.776 397.717 344.118 398.529 344.118C399.342 344.118 400 344.776 400 345.588Z" fill="white"/>
<path d="M373.529 345.588C373.529 346.4 372.871 347.059 372.059 347.059C371.247 347.059 370.588 346.4 370.588 345.588C370.588 344.776 371.247 344.118 372.059 344.118C372.871 344.118 373.529 344.776 373.529 345.588Z" fill="white"/>
<path d="M347.059 372.059C347.059 372.871 346.4 373.529 345.588 373.529C344.776 373.529 344.118 372.871 344.118 372.059C344.118 371.247 344.776 370.588 345.588 370.588C346.4 370.588 347.059 371.247 347.059 372.059Z" fill="white"/>
<path d="M320.588 372.059C320.588 372.871 319.93 373.529 319.118 373.529C318.305 373.529 317.647 372.871 317.647 372.059C317.647 371.247 318.305 370.588 319.118 370.588C319.93 370.588 320.588 371.247 320.588 372.059Z" fill="white"/>
<path d="M347.059 398.529C347.059 399.342 346.4 400 345.588 400C344.776 400 344.118 399.342 344.118 398.529C344.118 397.717 344.776 397.059 345.588 397.059C346.4 397.059 347.059 397.717 347.059 398.529Z" fill="white"/>
<path d="M320.588 398.529C320.588 399.342 319.93 400 319.118 400C318.305 400 317.647 399.342 317.647 398.529C317.647 397.717 318.305 397.059 319.118 397.059C319.93 397.059 320.588 397.717 320.588 398.529Z" fill="white"/>
<path d="M347.059 319.118C347.059 319.93 346.4 320.588 345.588 320.588C344.776 320.588 344.118 319.93 344.118 319.118C344.118 318.305 344.776 317.647 345.588 317.647C346.4 317.647 347.059 318.305 347.059 319.118Z" fill="white"/>
<path d="M320.588 319.118C320.588 319.93 319.93 320.588 319.118 320.588C318.305 320.588 317.647 319.93 317.647 319.118C317.647 318.305 318.305 317.647 319.118 317.647C319.93 317.647 320.588 318.305 320.588 319.118Z" fill="white"/>
<path d="M347.059 345.588C347.059 346.4 346.4 347.059 345.588 347.059C344.776 347.059 344.118 346.4 344.118 345.588C344.118 344.776 344.776 344.118 345.588 344.118C346.4 344.118 347.059 344.776 347.059 345.588Z" fill="white"/>
<path d="M320.588 345.588C320.588 346.4 319.93 347.059 319.118 347.059C318.305 347.059 317.647 346.4 317.647 345.588C317.647 344.776 318.305 344.118 319.118 344.118C319.93 344.118 320.588 344.776 320.588 345.588Z" fill="white"/>
<path d="M294.118 266.176C294.118 266.989 293.459 267.647 292.647 267.647C291.835 267.647 291.176 266.989 291.176 266.176C291.176 265.364 291.835 264.706 292.647 264.706C293.459 264.706 294.118 265.364 294.118 266.176Z" fill="white"/>
<path d="M267.647 266.176C267.647 266.989 266.989 267.647 266.176 267.647C265.364 267.647 264.706 266.989 264.706 266.176C264.706 265.364 265.364 264.706 266.176 264.706C266.989 264.706 267.647 265.364 267.647 266.176Z" fill="white"/>
<path d="M294.118 292.647C294.118 293.459 293.459 294.118 292.647 294.118C291.835 294.118 291.176 293.459 291.176 292.647C291.176 291.835 291.835 291.176 292.647 291.176C293.459 291.176 294.118 291.835 294.118 292.647Z" fill="white"/>
<path d="M267.647 292.647C267.647 293.459 266.989 294.118 266.176 294.118C265.364 294.118 264.706 293.459 264.706 292.647C264.706 291.835 265.364 291.176 266.176 291.176C266.989 291.176 267.647 291.835 267.647 292.647Z" fill="white"/>
<path d="M294.118 213.235C294.118 214.047 293.459 214.706 292.647 214.706C291.835 214.706 291.176 214.047 291.176 213.235C291.176 212.423 291.835 211.765 292.647 211.765C293.459 211.765 294.118 212.423 294.118 213.235Z" fill="white"/>
<path d="M267.647 213.235C267.647 214.047 266.989 214.706 266.176 214.706C265.364 214.706 264.706 214.047 264.706 213.235C264.706 212.423 265.364 211.765 266.176 211.765C266.989 211.765 267.647 212.423 267.647 213.235Z" fill="white"/>
<path d="M294.118 239.706C294.118 240.518 293.459 241.176 292.647 241.176C291.835 241.176 291.176 240.518 291.176 239.706C291.176 238.894 291.835 238.235 292.647 238.235C293.459 238.235 294.118 238.894 294.118 239.706Z" fill="white"/>
<path d="M267.647 239.706C267.647 240.518 266.989 241.176 266.176 241.176C265.364 241.176 264.706 240.518 264.706 239.706C264.706 238.894 265.364 238.235 266.176 238.235C266.989 238.235 267.647 238.894 267.647 239.706Z" fill="white"/>
<path d="M241.176 266.176C241.176 266.989 240.518 267.647 239.706 267.647C238.894 267.647 238.235 266.989 238.235 266.176C238.235 265.364 238.894 264.706 239.706 264.706C240.518 264.706 241.176 265.364 241.176 266.176Z" fill="white"/>
<path d="M214.706 266.176C214.706 266.989 214.047 267.647 213.235 267.647C212.423 267.647 211.765 266.989 211.765 266.176C211.765 265.364 212.423 264.706 213.235 264.706C214.047 264.706 214.706 265.364 214.706 266.176Z" fill="white"/>
<path d="M241.176 292.647C241.176 293.459 240.518 294.118 239.706 294.118C238.894 294.118 238.235 293.459 238.235 292.647C238.235 291.835 238.894 291.176 239.706 291.176C240.518 291.176 241.176 291.835 241.176 292.647Z" fill="white"/>
<path d="M214.706 292.647C214.706 293.459 214.047 294.118 213.235 294.118C212.423 294.118 211.765 293.459 211.765 292.647C211.765 291.835 212.423 291.176 213.235 291.176C214.047 291.176 214.706 291.835 214.706 292.647Z" fill="white"/>
<path d="M241.176 213.235C241.176 214.047 240.518 214.706 239.706 214.706C238.894 214.706 238.235 214.047 238.235 213.235C238.235 212.423 238.894 211.765 239.706 211.765C240.518 211.765 241.176 212.423 241.176 213.235Z" fill="white"/>
<path d="M214.706 213.235C214.706 214.047 214.047 214.706 213.235 214.706C212.423 214.706 211.765 214.047 211.765 213.235C211.765 212.423 212.423 211.765 213.235 211.765C214.047 211.765 214.706 212.423 214.706 213.235Z" fill="white"/>
<path d="M241.176 239.706C241.176 240.518 240.518 241.176 239.706 241.176C238.894 241.176 238.235 240.518 238.235 239.706C238.235 238.894 238.894 238.235 239.706 238.235C240.518 238.235 241.176 238.894 241.176 239.706Z" fill="white"/>
<path d="M214.706 239.706C214.706 240.518 214.047 241.176 213.235 241.176C212.423 241.176 211.765 240.518 211.765 239.706C211.765 238.894 212.423 238.235 213.235 238.235C214.047 238.235 214.706 238.894 214.706 239.706Z" fill="white"/>
<path d="M294.118 372.059C294.118 372.871 293.459 373.529 292.647 373.529C291.835 373.529 291.176 372.871 291.176 372.059C291.176 371.247 291.835 370.588 292.647 370.588C293.459 370.588 294.118 371.247 294.118 372.059Z" fill="white"/>
<path d="M267.647 372.059C267.647 372.871 266.989 373.529 266.176 373.529C265.364 373.529 264.706 372.871 264.706 372.059C264.706 371.247 265.364 370.588 266.176 370.588C266.989 370.588 267.647 371.247 267.647 372.059Z" fill="white"/>
<path d="M294.118 398.529C294.118 399.342 293.459 400 292.647 400C291.835 400 291.176 399.342 291.176 398.529C291.176 397.717 291.835 397.059 292.647 397.059C293.459 397.059 294.118 397.717 294.118 398.529Z" fill="white"/>
<path d="M267.647 398.529C267.647 399.342 266.989 400 266.176 400C265.364 400 264.706 399.342 264.706 398.529C264.706 397.717 265.364 397.059 266.176 397.059C266.989 397.059 267.647 397.717 267.647 398.529Z" fill="white"/>
<path d="M294.118 319.118C294.118 319.93 293.459 320.588 292.647 320.588C291.835 320.588 291.176 319.93 291.176 319.118C291.176 318.305 291.835 317.647 292.647 317.647C293.459 317.647 294.118 318.305 294.118 319.118Z" fill="white"/>
<path d="M267.647 319.118C267.647 319.93 266.989 320.588 266.176 320.588C265.364 320.588 264.706 319.93 264.706 319.118C264.706 318.305 265.364 317.647 266.176 317.647C266.989 317.647 267.647 318.305 267.647 319.118Z" fill="white"/>
<path d="M294.118 345.588C294.118 346.4 293.459 347.059 292.647 347.059C291.835 347.059 291.176 346.4 291.176 345.588C291.176 344.776 291.835 344.118 292.647 344.118C293.459 344.118 294.118 344.776 294.118 345.588Z" fill="white"/>
<path d="M267.647 345.588C267.647 346.4 266.989 347.059 266.176 347.059C265.364 347.059 264.706 346.4 264.706 345.588C264.706 344.776 265.364 344.118 266.176 344.118C266.989 344.118 267.647 344.776 267.647 345.588Z" fill="white"/>
<path d="M241.176 372.059C241.176 372.871 240.518 373.529 239.706 373.529C238.894 373.529 238.235 372.871 238.235 372.059C238.235 371.247 238.894 370.588 239.706 370.588C240.518 370.588 241.176 371.247 241.176 372.059Z" fill="white"/>
<path d="M214.706 372.059C214.706 372.871 214.047 373.529 213.235 373.529C212.423 373.529 211.765 372.871 211.765 372.059C211.765 371.247 212.423 370.588 213.235 370.588C214.047 370.588 214.706 371.247 214.706 372.059Z" fill="white"/>
<path d="M241.176 398.529C241.176 399.342 240.518 400 239.706 400C238.894 400 238.235 399.342 238.235 398.529C238.235 397.717 238.894 397.059 239.706 397.059C240.518 397.059 241.176 397.717 241.176 398.529Z" fill="white"/>
<path d="M214.706 398.529C214.706 399.342 214.047 400 213.235 400C212.423 400 211.765 399.342 211.765 398.529C211.765 397.717 212.423 397.059 213.235 397.059C214.047 397.059 214.706 397.717 214.706 398.529Z" fill="white"/>
<path d="M241.176 319.118C241.176 319.93 240.518 320.588 239.706 320.588C238.894 320.588 238.235 319.93 238.235 319.118C238.235 318.305 238.894 317.647 239.706 317.647C240.518 317.647 241.176 318.305 241.176 319.118Z" fill="white"/>
<path d="M214.706 319.118C214.706 319.93 214.047 320.588 213.235 320.588C212.423 320.588 211.765 319.93 211.765 319.118C211.765 318.305 212.423 317.647 213.235 317.647C214.047 317.647 214.706 318.305 214.706 319.118Z" fill="white"/>
<path d="M241.176 345.588C241.176 346.4 240.518 347.059 239.706 347.059C238.894 347.059 238.235 346.4 238.235 345.588C238.235 344.776 238.894 344.118 239.706 344.118C240.518 344.118 241.176 344.776 241.176 345.588Z" fill="white"/>
<path d="M214.706 345.588C214.706 346.4 214.047 347.059 213.235 347.059C212.423 347.059 211.765 346.4 211.765 345.588C211.765 344.776 212.423 344.118 213.235 344.118C214.047 344.118 214.706 344.776 214.706 345.588Z" fill="white"/>
<path d="M400 54.4118C400 55.2239 399.342 55.8824 398.529 55.8824C397.717 55.8824 397.059 55.2239 397.059 54.4118C397.059 53.5996 397.717 52.9412 398.529 52.9412C399.342 52.9412 400 53.5996 400 54.4118Z" fill="white"/>
<path d="M373.529 54.4118C373.529 55.2239 372.871 55.8824 372.059 55.8824C371.247 55.8824 370.588 55.2239 370.588 54.4118C370.588 53.5996 371.247 52.9412 372.059 52.9412C372.871 52.9412 373.529 53.5996 373.529 54.4118Z" fill="white"/>
<path d="M400 80.8824C400 81.6945 399.342 82.3529 398.529 82.3529C397.717 82.3529 397.059 81.6945 397.059 80.8824C397.059 80.0702 397.717 79.4118 398.529 79.4118C399.342 79.4118 400 80.0702 400 80.8824Z" fill="white"/>
<path d="M373.529 80.8824C373.529 81.6945 372.871 82.3529 372.059 82.3529C371.247 82.3529 370.588 81.6945 370.588 80.8824C370.588 80.0702 371.247 79.4118 372.059 79.4118C372.871 79.4118 373.529 80.0702 373.529 80.8824Z" fill="white"/>
<path d="M400 1.47059C400 2.28277 399.342 2.94118 398.529 2.94118C397.717 2.94118 397.059 2.28277 397.059 1.47059C397.059 0.658405 397.717 0 398.529 0C399.342 0 400 0.658405 400 1.47059Z" fill="white"/>
<path d="M373.529 1.47059C373.529 2.28277 372.871 2.94118 372.059 2.94118C371.247 2.94118 370.588 2.28277 370.588 1.47059C370.588 0.658405 371.247 0 372.059 0C372.871 0 373.529 0.658405 373.529 1.47059Z" fill="white"/>
<path d="M400 27.9412C400 28.7534 399.342 29.4118 398.529 29.4118C397.717 29.4118 397.059 28.7534 397.059 27.9412C397.059 27.129 397.717 26.4706 398.529 26.4706C399.342 26.4706 400 27.129 400 27.9412Z" fill="white"/>
<path d="M373.529 27.9412C373.529 28.7534 372.871 29.4118 372.059 29.4118C371.247 29.4118 370.588 28.7534 370.588 27.9412C370.588 27.129 371.247 26.4706 372.059 26.4706C372.871 26.4706 373.529 27.129 373.529 27.9412Z" fill="white"/>
<path d="M347.059 54.4118C347.059 55.2239 346.4 55.8824 345.588 55.8824C344.776 55.8824 344.118 55.2239 344.118 54.4118C344.118 53.5996 344.776 52.9412 345.588 52.9412C346.4 52.9412 347.059 53.5996 347.059 54.4118Z" fill="white"/>
<path d="M320.588 54.4118C320.588 55.2239 319.93 55.8824 319.118 55.8824C318.305 55.8824 317.647 55.2239 317.647 54.4118C317.647 53.5996 318.305 52.9412 319.118 52.9412C319.93 52.9412 320.588 53.5996 320.588 54.4118Z" fill="white"/>
<path d="M347.059 80.8824C347.059 81.6945 346.4 82.3529 345.588 82.3529C344.776 82.3529 344.118 81.6945 344.118 80.8824C344.118 80.0702 344.776 79.4118 345.588 79.4118C346.4 79.4118 347.059 80.0702 347.059 80.8824Z" fill="white"/>
<path d="M320.588 80.8824C320.588 81.6945 319.93 82.3529 319.118 82.3529C318.305 82.3529 317.647 81.6945 317.647 80.8824C317.647 80.0702 318.305 79.4118 319.118 79.4118C319.93 79.4118 320.588 80.0702 320.588 80.8824Z" fill="white"/>
<path d="M347.059 1.47059C347.059 2.28277 346.4 2.94118 345.588 2.94118C344.776 2.94118 344.118 2.28277 344.118 1.47059C344.118 0.658405 344.776 0 345.588 0C346.4 0 347.059 0.658405 347.059 1.47059Z" fill="white"/>
<path d="M320.588 1.47059C320.588 2.28277 319.93 2.94118 319.118 2.94118C318.305 2.94118 317.647 2.28277 317.647 1.47059C317.647 0.658405 318.305 0 319.118 0C319.93 0 320.588 0.658405 320.588 1.47059Z" fill="white"/>
<path d="M347.059 27.9412C347.059 28.7534 346.4 29.4118 345.588 29.4118C344.776 29.4118 344.118 28.7534 344.118 27.9412C344.118 27.129 344.776 26.4706 345.588 26.4706C346.4 26.4706 347.059 27.129 347.059 27.9412Z" fill="white"/>
<path d="M320.588 27.9412C320.588 28.7534 319.93 29.4118 319.118 29.4118C318.305 29.4118 317.647 28.7534 317.647 27.9412C317.647 27.129 318.305 26.4706 319.118 26.4706C319.93 26.4706 320.588 27.129 320.588 27.9412Z" fill="white"/>
<path d="M400 160.294C400 161.106 399.342 161.765 398.529 161.765C397.717 161.765 397.059 161.106 397.059 160.294C397.059 159.482 397.717 158.824 398.529 158.824C399.342 158.824 400 159.482 400 160.294Z" fill="white"/>
<path d="M373.529 160.294C373.529 161.106 372.871 161.765 372.059 161.765C371.247 161.765 370.588 161.106 370.588 160.294C370.588 159.482 371.247 158.824 372.059 158.824C372.871 158.824 373.529 159.482 373.529 160.294Z" fill="white"/>
<path d="M400 186.765C400 187.577 399.342 188.235 398.529 188.235C397.717 188.235 397.059 187.577 397.059 186.765C397.059 185.953 397.717 185.294 398.529 185.294C399.342 185.294 400 185.953 400 186.765Z" fill="white"/>
<path d="M373.529 186.765C373.529 187.577 372.871 188.235 372.059 188.235C371.247 188.235 370.588 187.577 370.588 186.765C370.588 185.953 371.247 185.294 372.059 185.294C372.871 185.294 373.529 185.953 373.529 186.765Z" fill="white"/>
<path d="M400 107.353C400 108.165 399.342 108.824 398.529 108.824C397.717 108.824 397.059 108.165 397.059 107.353C397.059 106.541 397.717 105.882 398.529 105.882C399.342 105.882 400 106.541 400 107.353Z" fill="white"/>
<path d="M373.529 107.353C373.529 108.165 372.871 108.824 372.059 108.824C371.247 108.824 370.588 108.165 370.588 107.353C370.588 106.541 371.247 105.882 372.059 105.882C372.871 105.882 373.529 106.541 373.529 107.353Z" fill="white"/>
<path d="M400 133.824C400 134.636 399.342 135.294 398.529 135.294C397.717 135.294 397.059 134.636 397.059 133.824C397.059 133.011 397.717 132.353 398.529 132.353C399.342 132.353 400 133.011 400 133.824Z" fill="white"/>
<path d="M373.529 133.824C373.529 134.636 372.871 135.294 372.059 135.294C371.247 135.294 370.588 134.636 370.588 133.824C370.588 133.011 371.247 132.353 372.059 132.353C372.871 132.353 373.529 133.011 373.529 133.824Z" fill="white"/>
<path d="M347.059 160.294C347.059 161.106 346.4 161.765 345.588 161.765C344.776 161.765 344.118 161.106 344.118 160.294C344.118 159.482 344.776 158.824 345.588 158.824C346.4 158.824 347.059 159.482 347.059 160.294Z" fill="white"/>
<path d="M320.588 160.294C320.588 161.106 319.93 161.765 319.118 161.765C318.305 161.765 317.647 161.106 317.647 160.294C317.647 159.482 318.305 158.824 319.118 158.824C319.93 158.824 320.588 159.482 320.588 160.294Z" fill="white"/>
<path d="M347.059 186.765C347.059 187.577 346.4 188.235 345.588 188.235C344.776 188.235 344.118 187.577 344.118 186.765C344.118 185.953 344.776 185.294 345.588 185.294C346.4 185.294 347.059 185.953 347.059 186.765Z" fill="white"/>
<path d="M320.588 186.765C320.588 187.577 319.93 188.235 319.118 188.235C318.305 188.235 317.647 187.577 317.647 186.765C317.647 185.953 318.305 185.294 319.118 185.294C319.93 185.294 320.588 185.953 320.588 186.765Z" fill="white"/>
<path d="M347.059 107.353C347.059 108.165 346.4 108.824 345.588 108.824C344.776 108.824 344.118 108.165 344.118 107.353C344.118 106.541 344.776 105.882 345.588 105.882C346.4 105.882 347.059 106.541 347.059 107.353Z" fill="white"/>
<path d="M320.588 107.353C320.588 108.165 319.93 108.824 319.118 108.824C318.305 108.824 317.647 108.165 317.647 107.353C317.647 106.541 318.305 105.882 319.118 105.882C319.93 105.882 320.588 106.541 320.588 107.353Z" fill="white"/>
<path d="M347.059 133.824C347.059 134.636 346.4 135.294 345.588 135.294C344.776 135.294 344.118 134.636 344.118 133.824C344.118 133.011 344.776 132.353 345.588 132.353C346.4 132.353 347.059 133.011 347.059 133.824Z" fill="white"/>
<path d="M320.588 133.824C320.588 134.636 319.93 135.294 319.118 135.294C318.305 135.294 317.647 134.636 317.647 133.824C317.647 133.011 318.305 132.353 319.118 132.353C319.93 132.353 320.588 133.011 320.588 133.824Z" fill="white"/>
<path d="M294.118 54.4118C294.118 55.2239 293.459 55.8824 292.647 55.8824C291.835 55.8824 291.176 55.2239 291.176 54.4118C291.176 53.5996 291.835 52.9412 292.647 52.9412C293.459 52.9412 294.118 53.5996 294.118 54.4118Z" fill="white"/>
<path d="M267.647 54.4118C267.647 55.2239 266.989 55.8824 266.176 55.8824C265.364 55.8824 264.706 55.2239 264.706 54.4118C264.706 53.5996 265.364 52.9412 266.176 52.9412C266.989 52.9412 267.647 53.5996 267.647 54.4118Z" fill="white"/>
<path d="M294.118 80.8824C294.118 81.6945 293.459 82.3529 292.647 82.3529C291.835 82.3529 291.176 81.6945 291.176 80.8824C291.176 80.0702 291.835 79.4118 292.647 79.4118C293.459 79.4118 294.118 80.0702 294.118 80.8824Z" fill="white"/>
<path d="M267.647 80.8824C267.647 81.6945 266.989 82.3529 266.176 82.3529C265.364 82.3529 264.706 81.6945 264.706 80.8824C264.706 80.0702 265.364 79.4118 266.176 79.4118C266.989 79.4118 267.647 80.0702 267.647 80.8824Z" fill="white"/>
<path d="M294.118 1.47059C294.118 2.28277 293.459 2.94118 292.647 2.94118C291.835 2.94118 291.176 2.28277 291.176 1.47059C291.176 0.658405 291.835 0 292.647 0C293.459 0 294.118 0.658405 294.118 1.47059Z" fill="white"/>
<path d="M267.647 1.47059C267.647 2.28277 266.989 2.94118 266.176 2.94118C265.364 2.94118 264.706 2.28277 264.706 1.47059C264.706 0.658405 265.364 0 266.176 0C266.989 0 267.647 0.658405 267.647 1.47059Z" fill="white"/>
<path d="M294.118 27.9412C294.118 28.7534 293.459 29.4118 292.647 29.4118C291.835 29.4118 291.176 28.7534 291.176 27.9412C291.176 27.129 291.835 26.4706 292.647 26.4706C293.459 26.4706 294.118 27.129 294.118 27.9412Z" fill="white"/>
<path d="M267.647 27.9412C267.647 28.7534 266.989 29.4118 266.176 29.4118C265.364 29.4118 264.706 28.7534 264.706 27.9412C264.706 27.129 265.364 26.4706 266.176 26.4706C266.989 26.4706 267.647 27.129 267.647 27.9412Z" fill="white"/>
<path d="M241.176 54.4118C241.176 55.2239 240.518 55.8824 239.706 55.8824C238.894 55.8824 238.235 55.2239 238.235 54.4118C238.235 53.5996 238.894 52.9412 239.706 52.9412C240.518 52.9412 241.176 53.5996 241.176 54.4118Z" fill="white"/>
<path d="M214.706 54.4118C214.706 55.2239 214.047 55.8824 213.235 55.8824C212.423 55.8824 211.765 55.2239 211.765 54.4118C211.765 53.5996 212.423 52.9412 213.235 52.9412C214.047 52.9412 214.706 53.5996 214.706 54.4118Z" fill="white"/>
<path d="M241.176 80.8824C241.176 81.6945 240.518 82.3529 239.706 82.3529C238.894 82.3529 238.235 81.6945 238.235 80.8824C238.235 80.0702 238.894 79.4118 239.706 79.4118C240.518 79.4118 241.176 80.0702 241.176 80.8824Z" fill="white"/>
<path d="M214.706 80.8824C214.706 81.6945 214.047 82.3529 213.235 82.3529C212.423 82.3529 211.765 81.6945 211.765 80.8824C211.765 80.0702 212.423 79.4118 213.235 79.4118C214.047 79.4118 214.706 80.0702 214.706 80.8824Z" fill="white"/>
<path d="M241.176 1.47059C241.176 2.28277 240.518 2.94118 239.706 2.94118C238.894 2.94118 238.235 2.28277 238.235 1.47059C238.235 0.658405 238.894 0 239.706 0C240.518 0 241.176 0.658405 241.176 1.47059Z" fill="white"/>
<path d="M214.706 1.47059C214.706 2.28277 214.047 2.94118 213.235 2.94118C212.423 2.94118 211.765 2.28277 211.765 1.47059C211.765 0.658405 212.423 0 213.235 0C214.047 0 214.706 0.658405 214.706 1.47059Z" fill="white"/>
<path d="M241.176 27.9412C241.176 28.7534 240.518 29.4118 239.706 29.4118C238.894 29.4118 238.235 28.7534 238.235 27.9412C238.235 27.129 238.894 26.4706 239.706 26.4706C240.518 26.4706 241.176 27.129 241.176 27.9412Z" fill="white"/>
<path d="M214.706 27.9412C214.706 28.7534 214.047 29.4118 213.235 29.4118C212.423 29.4118 211.765 28.7534 211.765 27.9412C211.765 27.129 212.423 26.4706 213.235 26.4706C214.047 26.4706 214.706 27.129 214.706 27.9412Z" fill="white"/>
<path d="M294.118 160.294C294.118 161.106 293.459 161.765 292.647 161.765C291.835 161.765 291.176 161.106 291.176 160.294C291.176 159.482 291.835 158.824 292.647 158.824C293.459 158.824 294.118 159.482 294.118 160.294Z" fill="white"/>
<path d="M267.647 160.294C267.647 161.106 266.989 161.765 266.176 161.765C265.364 161.765 264.706 161.106 264.706 160.294C264.706 159.482 265.364 158.824 266.176 158.824C266.989 158.824 267.647 159.482 267.647 160.294Z" fill="white"/>
<path d="M294.118 186.765C294.118 187.577 293.459 188.235 292.647 188.235C291.835 188.235 291.176 187.577 291.176 186.765C291.176 185.953 291.835 185.294 292.647 185.294C293.459 185.294 294.118 185.953 294.118 186.765Z" fill="white"/>
<path d="M267.647 186.765C267.647 187.577 266.989 188.235 266.176 188.235C265.364 188.235 264.706 187.577 264.706 186.765C264.706 185.953 265.364 185.294 266.176 185.294C266.989 185.294 267.647 185.953 267.647 186.765Z" fill="white"/>
<path d="M294.118 107.353C294.118 108.165 293.459 108.824 292.647 108.824C291.835 108.824 291.176 108.165 291.176 107.353C291.176 106.541 291.835 105.882 292.647 105.882C293.459 105.882 294.118 106.541 294.118 107.353Z" fill="white"/>
<path d="M267.647 107.353C267.647 108.165 266.989 108.824 266.176 108.824C265.364 108.824 264.706 108.165 264.706 107.353C264.706 106.541 265.364 105.882 266.176 105.882C266.989 105.882 267.647 106.541 267.647 107.353Z" fill="white"/>
<path d="M294.118 133.824C294.118 134.636 293.459 135.294 292.647 135.294C291.835 135.294 291.176 134.636 291.176 133.824C291.176 133.011 291.835 132.353 292.647 132.353C293.459 132.353 294.118 133.011 294.118 133.824Z" fill="white"/>
<path d="M267.647 133.824C267.647 134.636 266.989 135.294 266.176 135.294C265.364 135.294 264.706 134.636 264.706 133.824C264.706 133.011 265.364 132.353 266.176 132.353C266.989 132.353 267.647 133.011 267.647 133.824Z" fill="white"/>
<path d="M241.176 160.294C241.176 161.106 240.518 161.765 239.706 161.765C238.894 161.765 238.235 161.106 238.235 160.294C238.235 159.482 238.894 158.824 239.706 158.824C240.518 158.824 241.176 159.482 241.176 160.294Z" fill="white"/>
<path d="M214.706 160.294C214.706 161.106 214.047 161.765 213.235 161.765C212.423 161.765 211.765 161.106 211.765 160.294C211.765 159.482 212.423 158.824 213.235 158.824C214.047 158.824 214.706 159.482 214.706 160.294Z" fill="white"/>
<path d="M241.176 186.765C241.176 187.577 240.518 188.235 239.706 188.235C238.894 188.235 238.235 187.577 238.235 186.765C238.235 185.953 238.894 185.294 239.706 185.294C240.518 185.294 241.176 185.953 241.176 186.765Z" fill="white"/>
<path d="M214.706 186.765C214.706 187.577 214.047 188.235 213.235 188.235C212.423 188.235 211.765 187.577 211.765 186.765C211.765 185.953 212.423 185.294 213.235 185.294C214.047 185.294 214.706 185.953 214.706 186.765Z" fill="white"/>
<path d="M241.176 107.353C241.176 108.165 240.518 108.824 239.706 108.824C238.894 108.824 238.235 108.165 238.235 107.353C238.235 106.541 238.894 105.882 239.706 105.882C240.518 105.882 241.176 106.541 241.176 107.353Z" fill="white"/>
<path d="M214.706 107.353C214.706 108.165 214.047 108.824 213.235 108.824C212.423 108.824 211.765 108.165 211.765 107.353C211.765 106.541 212.423 105.882 213.235 105.882C214.047 105.882 214.706 106.541 214.706 107.353Z" fill="white"/>
<path d="M241.176 133.824C241.176 134.636 240.518 135.294 239.706 135.294C238.894 135.294 238.235 134.636 238.235 133.824C238.235 133.011 238.894 132.353 239.706 132.353C240.518 132.353 241.176 133.011 241.176 133.824Z" fill="white"/>
<path d="M214.706 133.824C214.706 134.636 214.047 135.294 213.235 135.294C212.423 135.294 211.765 134.636 211.765 133.824C211.765 133.011 212.423 132.353 213.235 132.353C214.047 132.353 214.706 133.011 214.706 133.824Z" fill="white"/>
<path d="M188.235 54.4118C188.235 55.2239 187.577 55.8824 186.765 55.8824C185.953 55.8824 185.294 55.2239 185.294 54.4118C185.294 53.5996 185.953 52.9412 186.765 52.9412C187.577 52.9412 188.235 53.5996 188.235 54.4118Z" fill="white"/>
<path d="M161.765 54.4118C161.765 55.2239 161.106 55.8824 160.294 55.8824C159.482 55.8824 158.824 55.2239 158.824 54.4118C158.824 53.5996 159.482 52.9412 160.294 52.9412C161.106 52.9412 161.765 53.5996 161.765 54.4118Z" fill="white"/>
<path d="M188.235 80.8824C188.235 81.6945 187.577 82.3529 186.765 82.3529C185.953 82.3529 185.294 81.6945 185.294 80.8824C185.294 80.0702 185.953 79.4118 186.765 79.4118C187.577 79.4118 188.235 80.0702 188.235 80.8824Z" fill="white"/>
<path d="M161.765 80.8824C161.765 81.6945 161.106 82.3529 160.294 82.3529C159.482 82.3529 158.824 81.6945 158.824 80.8824C158.824 80.0702 159.482 79.4118 160.294 79.4118C161.106 79.4118 161.765 80.0702 161.765 80.8824Z" fill="white"/>
<path d="M188.235 1.47059C188.235 2.28277 187.577 2.94118 186.765 2.94118C185.953 2.94118 185.294 2.28277 185.294 1.47059C185.294 0.658405 185.953 0 186.765 0C187.577 0 188.235 0.658405 188.235 1.47059Z" fill="white"/>
<path d="M161.765 1.47059C161.765 2.28277 161.106 2.94118 160.294 2.94118C159.482 2.94118 158.824 2.28277 158.824 1.47059C158.824 0.658405 159.482 0 160.294 0C161.106 0 161.765 0.658405 161.765 1.47059Z" fill="white"/>
<path d="M188.235 27.9412C188.235 28.7534 187.577 29.4118 186.765 29.4118C185.953 29.4118 185.294 28.7534 185.294 27.9412C185.294 27.129 185.953 26.4706 186.765 26.4706C187.577 26.4706 188.235 27.129 188.235 27.9412Z" fill="white"/>
<path d="M161.765 27.9412C161.765 28.7534 161.106 29.4118 160.294 29.4118C159.482 29.4118 158.824 28.7534 158.824 27.9412C158.824 27.129 159.482 26.4706 160.294 26.4706C161.106 26.4706 161.765 27.129 161.765 27.9412Z" fill="white"/>
<path d="M135.294 54.4118C135.294 55.2239 134.636 55.8824 133.824 55.8824C133.011 55.8824 132.353 55.2239 132.353 54.4118C132.353 53.5996 133.011 52.9412 133.824 52.9412C134.636 52.9412 135.294 53.5996 135.294 54.4118Z" fill="white"/>
<path d="M108.824 54.4118C108.824 55.2239 108.165 55.8824 107.353 55.8824C106.541 55.8824 105.882 55.2239 105.882 54.4118C105.882 53.5996 106.541 52.9412 107.353 52.9412C108.165 52.9412 108.824 53.5996 108.824 54.4118Z" fill="white"/>
<path d="M135.294 80.8824C135.294 81.6945 134.636 82.3529 133.824 82.3529C133.011 82.3529 132.353 81.6945 132.353 80.8824C132.353 80.0702 133.011 79.4118 133.824 79.4118C134.636 79.4118 135.294 80.0702 135.294 80.8824Z" fill="white"/>
<path d="M108.824 80.8824C108.824 81.6945 108.165 82.3529 107.353 82.3529C106.541 82.3529 105.882 81.6945 105.882 80.8824C105.882 80.0702 106.541 79.4118 107.353 79.4118C108.165 79.4118 108.824 80.0702 108.824 80.8824Z" fill="white"/>
<path d="M135.294 1.47059C135.294 2.28277 134.636 2.94118 133.824 2.94118C133.011 2.94118 132.353 2.28277 132.353 1.47059C132.353 0.658405 133.011 0 133.824 0C134.636 0 135.294 0.658405 135.294 1.47059Z" fill="white"/>
<path d="M108.824 1.47059C108.824 2.28277 108.165 2.94118 107.353 2.94118C106.541 2.94118 105.882 2.28277 105.882 1.47059C105.882 0.658405 106.541 0 107.353 0C108.165 0 108.824 0.658405 108.824 1.47059Z" fill="white"/>
<path d="M135.294 27.9412C135.294 28.7534 134.636 29.4118 133.824 29.4118C133.011 29.4118 132.353 28.7534 132.353 27.9412C132.353 27.129 133.011 26.4706 133.824 26.4706C134.636 26.4706 135.294 27.129 135.294 27.9412Z" fill="white"/>
<path d="M108.824 27.9412C108.824 28.7534 108.165 29.4118 107.353 29.4118C106.541 29.4118 105.882 28.7534 105.882 27.9412C105.882 27.129 106.541 26.4706 107.353 26.4706C108.165 26.4706 108.824 27.129 108.824 27.9412Z" fill="white"/>
<path d="M188.235 160.294C188.235 161.106 187.577 161.765 186.765 161.765C185.953 161.765 185.294 161.106 185.294 160.294C185.294 159.482 185.953 158.824 186.765 158.824C187.577 158.824 188.235 159.482 188.235 160.294Z" fill="white"/>
<path d="M161.765 160.294C161.765 161.106 161.106 161.765 160.294 161.765C159.482 161.765 158.824 161.106 158.824 160.294C158.824 159.482 159.482 158.824 160.294 158.824C161.106 158.824 161.765 159.482 161.765 160.294Z" fill="white"/>
<path d="M188.235 186.765C188.235 187.577 187.577 188.235 186.765 188.235C185.953 188.235 185.294 187.577 185.294 186.765C185.294 185.953 185.953 185.294 186.765 185.294C187.577 185.294 188.235 185.953 188.235 186.765Z" fill="white"/>
<path d="M161.765 186.765C161.765 187.577 161.106 188.235 160.294 188.235C159.482 188.235 158.824 187.577 158.824 186.765C158.824 185.953 159.482 185.294 160.294 185.294C161.106 185.294 161.765 185.953 161.765 186.765Z" fill="white"/>
<path d="M188.235 107.353C188.235 108.165 187.577 108.824 186.765 108.824C185.953 108.824 185.294 108.165 185.294 107.353C185.294 106.541 185.953 105.882 186.765 105.882C187.577 105.882 188.235 106.541 188.235 107.353Z" fill="white"/>
<path d="M161.765 107.353C161.765 108.165 161.106 108.824 160.294 108.824C159.482 108.824 158.824 108.165 158.824 107.353C158.824 106.541 159.482 105.882 160.294 105.882C161.106 105.882 161.765 106.541 161.765 107.353Z" fill="white"/>
<path d="M188.235 133.824C188.235 134.636 187.577 135.294 186.765 135.294C185.953 135.294 185.294 134.636 185.294 133.824C185.294 133.011 185.953 132.353 186.765 132.353C187.577 132.353 188.235 133.011 188.235 133.824Z" fill="white"/>
<path d="M161.765 133.824C161.765 134.636 161.106 135.294 160.294 135.294C159.482 135.294 158.824 134.636 158.824 133.824C158.824 133.011 159.482 132.353 160.294 132.353C161.106 132.353 161.765 133.011 161.765 133.824Z" fill="white"/>
<path d="M135.294 160.294C135.294 161.106 134.636 161.765 133.824 161.765C133.011 161.765 132.353 161.106 132.353 160.294C132.353 159.482 133.011 158.824 133.824 158.824C134.636 158.824 135.294 159.482 135.294 160.294Z" fill="white"/>
<path d="M108.824 160.294C108.824 161.106 108.165 161.765 107.353 161.765C106.541 161.765 105.882 161.106 105.882 160.294C105.882 159.482 106.541 158.824 107.353 158.824C108.165 158.824 108.824 159.482 108.824 160.294Z" fill="white"/>
<path d="M135.294 186.765C135.294 187.577 134.636 188.235 133.824 188.235C133.011 188.235 132.353 187.577 132.353 186.765C132.353 185.953 133.011 185.294 133.824 185.294C134.636 185.294 135.294 185.953 135.294 186.765Z" fill="white"/>
<path d="M108.824 186.765C108.824 187.577 108.165 188.235 107.353 188.235C106.541 188.235 105.882 187.577 105.882 186.765C105.882 185.953 106.541 185.294 107.353 185.294C108.165 185.294 108.824 185.953 108.824 186.765Z" fill="white"/>
<path d="M135.294 107.353C135.294 108.165 134.636 108.824 133.824 108.824C133.011 108.824 132.353 108.165 132.353 107.353C132.353 106.541 133.011 105.882 133.824 105.882C134.636 105.882 135.294 106.541 135.294 107.353Z" fill="white"/>
<path d="M108.824 107.353C108.824 108.165 108.165 108.824 107.353 108.824C106.541 108.824 105.882 108.165 105.882 107.353C105.882 106.541 106.541 105.882 107.353 105.882C108.165 105.882 108.824 106.541 108.824 107.353Z" fill="white"/>
<path d="M135.294 133.824C135.294 134.636 134.636 135.294 133.824 135.294C133.011 135.294 132.353 134.636 132.353 133.824C132.353 133.011 133.011 132.353 133.824 132.353C134.636 132.353 135.294 133.011 135.294 133.824Z" fill="white"/>
<path d="M108.824 133.824C108.824 134.636 108.165 135.294 107.353 135.294C106.541 135.294 105.882 134.636 105.882 133.824C105.882 133.011 106.541 132.353 107.353 132.353C108.165 132.353 108.824 133.011 108.824 133.824Z" fill="white"/>
<path d="M82.3529 54.4118C82.3529 55.2239 81.6945 55.8824 80.8824 55.8824C80.0702 55.8824 79.4118 55.2239 79.4118 54.4118C79.4118 53.5996 80.0702 52.9412 80.8824 52.9412C81.6945 52.9412 82.3529 53.5996 82.3529 54.4118Z" fill="white"/>
<path d="M55.8824 54.4118C55.8824 55.2239 55.2239 55.8824 54.4118 55.8824C53.5996 55.8824 52.9412 55.2239 52.9412 54.4118C52.9412 53.5996 53.5996 52.9412 54.4118 52.9412C55.2239 52.9412 55.8824 53.5996 55.8824 54.4118Z" fill="white"/>
<path d="M82.3529 80.8824C82.3529 81.6945 81.6945 82.3529 80.8824 82.3529C80.0702 82.3529 79.4118 81.6945 79.4118 80.8824C79.4118 80.0702 80.0702 79.4118 80.8824 79.4118C81.6945 79.4118 82.3529 80.0702 82.3529 80.8824Z" fill="white"/>
<path d="M55.8824 80.8824C55.8824 81.6945 55.2239 82.3529 54.4118 82.3529C53.5996 82.3529 52.9412 81.6945 52.9412 80.8824C52.9412 80.0702 53.5996 79.4118 54.4118 79.4118C55.2239 79.4118 55.8824 80.0702 55.8824 80.8824Z" fill="white"/>
<path d="M82.3529 1.47059C82.3529 2.28277 81.6945 2.94118 80.8824 2.94118C80.0702 2.94118 79.4118 2.28277 79.4118 1.47059C79.4118 0.658405 80.0702 0 80.8824 0C81.6945 0 82.3529 0.658405 82.3529 1.47059Z" fill="white"/>
<path d="M55.8824 1.47059C55.8824 2.28277 55.2239 2.94118 54.4118 2.94118C53.5996 2.94118 52.9412 2.28277 52.9412 1.47059C52.9412 0.658405 53.5996 0 54.4118 0C55.2239 0 55.8824 0.658405 55.8824 1.47059Z" fill="white"/>
<path d="M82.3529 27.9412C82.3529 28.7534 81.6945 29.4118 80.8824 29.4118C80.0702 29.4118 79.4118 28.7534 79.4118 27.9412C79.4118 27.129 80.0702 26.4706 80.8824 26.4706C81.6945 26.4706 82.3529 27.129 82.3529 27.9412Z" fill="white"/>
<path d="M55.8824 27.9412C55.8824 28.7534 55.2239 29.4118 54.4118 29.4118C53.5996 29.4118 52.9412 28.7534 52.9412 27.9412C52.9412 27.129 53.5996 26.4706 54.4118 26.4706C55.2239 26.4706 55.8824 27.129 55.8824 27.9412Z" fill="white"/>
<path d="M29.4118 54.4118C29.4118 55.2239 28.7534 55.8824 27.9412 55.8824C27.129 55.8824 26.4706 55.2239 26.4706 54.4118C26.4706 53.5996 27.129 52.9412 27.9412 52.9412C28.7534 52.9412 29.4118 53.5996 29.4118 54.4118Z" fill="white"/>
<path d="M2.94118 54.4118C2.94118 55.2239 2.28277 55.8824 1.47059 55.8824C0.658405 55.8824 0 55.2239 0 54.4118C0 53.5996 0.658405 52.9412 1.47059 52.9412C2.28277 52.9412 2.94118 53.5996 2.94118 54.4118Z" fill="white"/>
<path d="M29.4118 80.8824C29.4118 81.6945 28.7534 82.3529 27.9412 82.3529C27.129 82.3529 26.4706 81.6945 26.4706 80.8824C26.4706 80.0702 27.129 79.4118 27.9412 79.4118C28.7534 79.4118 29.4118 80.0702 29.4118 80.8824Z" fill="white"/>
<path d="M2.94118 80.8824C2.94118 81.6945 2.28277 82.3529 1.47059 82.3529C0.658405 82.3529 0 81.6945 0 80.8824C0 80.0702 0.658405 79.4118 1.47059 79.4118C2.28277 79.4118 2.94118 80.0702 2.94118 80.8824Z" fill="white"/>
<path d="M29.4118 1.47059C29.4118 2.28277 28.7534 2.94118 27.9412 2.94118C27.129 2.94118 26.4706 2.28277 26.4706 1.47059C26.4706 0.658405 27.129 0 27.9412 0C28.7534 0 29.4118 0.658405 29.4118 1.47059Z" fill="white"/>
<path d="M2.94118 1.47059C2.94118 2.28277 2.28277 2.94118 1.47059 2.94118C0.658405 2.94118 0 2.28277 0 1.47059C0 0.658405 0.658405 0 1.47059 0C2.28277 0 2.94118 0.658405 2.94118 1.47059Z" fill="white"/>
<path d="M29.4118 27.9412C29.4118 28.7534 28.7534 29.4118 27.9412 29.4118C27.129 29.4118 26.4706 28.7534 26.4706 27.9412C26.4706 27.129 27.129 26.4706 27.9412 26.4706C28.7534 26.4706 29.4118 27.129 29.4118 27.9412Z" fill="white"/>
<path d="M2.94118 27.9412C2.94118 28.7534 2.28277 29.4118 1.47059 29.4118C0.658405 29.4118 0 28.7534 0 27.9412C0 27.129 0.658405 26.4706 1.47059 26.4706C2.28277 26.4706 2.94118 27.129 2.94118 27.9412Z" fill="white"/>
<path d="M82.3529 160.294C82.3529 161.106 81.6945 161.765 80.8824 161.765C80.0702 161.765 79.4118 161.106 79.4118 160.294C79.4118 159.482 80.0702 158.824 80.8824 158.824C81.6945 158.824 82.3529 159.482 82.3529 160.294Z" fill="white"/>
<path d="M55.8824 160.294C55.8824 161.106 55.2239 161.765 54.4118 161.765C53.5996 161.765 52.9412 161.106 52.9412 160.294C52.9412 159.482 53.5996 158.824 54.4118 158.824C55.2239 158.824 55.8824 159.482 55.8824 160.294Z" fill="white"/>
<path d="M82.3529 186.765C82.3529 187.577 81.6945 188.235 80.8824 188.235C80.0702 188.235 79.4118 187.577 79.4118 186.765C79.4118 185.953 80.0702 185.294 80.8824 185.294C81.6945 185.294 82.3529 185.953 82.3529 186.765Z" fill="white"/>
<path d="M55.8824 186.765C55.8824 187.577 55.2239 188.235 54.4118 188.235C53.5996 188.235 52.9412 187.577 52.9412 186.765C52.9412 185.953 53.5996 185.294 54.4118 185.294C55.2239 185.294 55.8824 185.953 55.8824 186.765Z" fill="white"/>
<path d="M82.3529 107.353C82.3529 108.165 81.6945 108.824 80.8824 108.824C80.0702 108.824 79.4118 108.165 79.4118 107.353C79.4118 106.541 80.0702 105.882 80.8824 105.882C81.6945 105.882 82.3529 106.541 82.3529 107.353Z" fill="white"/>
<path d="M55.8824 107.353C55.8824 108.165 55.2239 108.824 54.4118 108.824C53.5996 108.824 52.9412 108.165 52.9412 107.353C52.9412 106.541 53.5996 105.882 54.4118 105.882C55.2239 105.882 55.8824 106.541 55.8824 107.353Z" fill="white"/>
<path d="M82.3529 133.824C82.3529 134.636 81.6945 135.294 80.8824 135.294C80.0702 135.294 79.4118 134.636 79.4118 133.824C79.4118 133.011 80.0702 132.353 80.8824 132.353C81.6945 132.353 82.3529 133.011 82.3529 133.824Z" fill="white"/>
<path d="M55.8824 133.824C55.8824 134.636 55.2239 135.294 54.4118 135.294C53.5996 135.294 52.9412 134.636 52.9412 133.824C52.9412 133.011 53.5996 132.353 54.4118 132.353C55.2239 132.353 55.8824 133.011 55.8824 133.824Z" fill="white"/>
<path d="M29.4118 160.294C29.4118 161.106 28.7534 161.765 27.9412 161.765C27.129 161.765 26.4706 161.106 26.4706 160.294C26.4706 159.482 27.129 158.824 27.9412 158.824C28.7534 158.824 29.4118 159.482 29.4118 160.294Z" fill="white"/>
<path d="M2.94118 160.294C2.94118 161.106 2.28277 161.765 1.47059 161.765C0.658405 161.765 0 161.106 0 160.294C0 159.482 0.658405 158.824 1.47059 158.824C2.28277 158.824 2.94118 159.482 2.94118 160.294Z" fill="white"/>
<path d="M29.4118 186.765C29.4118 187.577 28.7534 188.235 27.9412 188.235C27.129 188.235 26.4706 187.577 26.4706 186.765C26.4706 185.953 27.129 185.294 27.9412 185.294C28.7534 185.294 29.4118 185.953 29.4118 186.765Z" fill="white"/>
<path d="M2.94118 186.765C2.94118 187.577 2.28277 188.235 1.47059 188.235C0.658405 188.235 0 187.577 0 186.765C0 185.953 0.658405 185.294 1.47059 185.294C2.28277 185.294 2.94118 185.953 2.94118 186.765Z" fill="white"/>
<path d="M29.4118 107.353C29.4118 108.165 28.7534 108.824 27.9412 108.824C27.129 108.824 26.4706 108.165 26.4706 107.353C26.4706 106.541 27.129 105.882 27.9412 105.882C28.7534 105.882 29.4118 106.541 29.4118 107.353Z" fill="white"/>
<path d="M2.94118 107.353C2.94118 108.165 2.28277 108.824 1.47059 108.824C0.658405 108.824 0 108.165 0 107.353C0 106.541 0.658405 105.882 1.47059 105.882C2.28277 105.882 2.94118 106.541 2.94118 107.353Z" fill="white"/>
<path d="M29.4118 133.824C29.4118 134.636 28.7534 135.294 27.9412 135.294C27.129 135.294 26.4706 134.636 26.4706 133.824C26.4706 133.011 27.129 132.353 27.9412 132.353C28.7534 132.353 29.4118 133.011 29.4118 133.824Z" fill="white"/>
<path d="M2.94118 133.824C2.94118 134.636 2.28277 135.294 1.47059 135.294C0.658405 135.294 0 134.636 0 133.824C0 133.011 0.658405 132.353 1.47059 132.353C2.28277 132.353 2.94118 133.011 2.94118 133.824Z" fill="white"/>
<path d="M188.235 266.176C188.235 266.989 187.577 267.647 186.765 267.647C185.953 267.647 185.294 266.989 185.294 266.176C185.294 265.364 185.953 264.706 186.765 264.706C187.577 264.706 188.235 265.364 188.235 266.176Z" fill="white"/>
<path d="M161.765 266.176C161.765 266.989 161.106 267.647 160.294 267.647C159.482 267.647 158.824 266.989 158.824 266.176C158.824 265.364 159.482 264.706 160.294 264.706C161.106 264.706 161.765 265.364 161.765 266.176Z" fill="white"/>
<path d="M188.235 292.647C188.235 293.459 187.577 294.118 186.765 294.118C185.953 294.118 185.294 293.459 185.294 292.647C185.294 291.835 185.953 291.176 186.765 291.176C187.577 291.176 188.235 291.835 188.235 292.647Z" fill="white"/>
<path d="M161.765 292.647C161.765 293.459 161.106 294.118 160.294 294.118C159.482 294.118 158.824 293.459 158.824 292.647C158.824 291.835 159.482 291.176 160.294 291.176C161.106 291.176 161.765 291.835 161.765 292.647Z" fill="white"/>
<path d="M188.235 213.235C188.235 214.047 187.577 214.706 186.765 214.706C185.953 214.706 185.294 214.047 185.294 213.235C185.294 212.423 185.953 211.765 186.765 211.765C187.577 211.765 188.235 212.423 188.235 213.235Z" fill="white"/>
<path d="M161.765 213.235C161.765 214.047 161.106 214.706 160.294 214.706C159.482 214.706 158.824 214.047 158.824 213.235C158.824 212.423 159.482 211.765 160.294 211.765C161.106 211.765 161.765 212.423 161.765 213.235Z" fill="white"/>
<path d="M188.235 239.706C188.235 240.518 187.577 241.176 186.765 241.176C185.953 241.176 185.294 240.518 185.294 239.706C185.294 238.894 185.953 238.235 186.765 238.235C187.577 238.235 188.235 238.894 188.235 239.706Z" fill="white"/>
<path d="M161.765 239.706C161.765 240.518 161.106 241.176 160.294 241.176C159.482 241.176 158.824 240.518 158.824 239.706C158.824 238.894 159.482 238.235 160.294 238.235C161.106 238.235 161.765 238.894 161.765 239.706Z" fill="white"/>
<path d="M135.294 266.176C135.294 266.989 134.636 267.647 133.824 267.647C133.011 267.647 132.353 266.989 132.353 266.176C132.353 265.364 133.011 264.706 133.824 264.706C134.636 264.706 135.294 265.364 135.294 266.176Z" fill="white"/>
<path d="M108.824 266.176C108.824 266.989 108.165 267.647 107.353 267.647C106.541 267.647 105.882 266.989 105.882 266.176C105.882 265.364 106.541 264.706 107.353 264.706C108.165 264.706 108.824 265.364 108.824 266.176Z" fill="white"/>
<path d="M135.294 292.647C135.294 293.459 134.636 294.118 133.824 294.118C133.011 294.118 132.353 293.459 132.353 292.647C132.353 291.835 133.011 291.176 133.824 291.176C134.636 291.176 135.294 291.835 135.294 292.647Z" fill="white"/>
<path d="M108.824 292.647C108.824 293.459 108.165 294.118 107.353 294.118C106.541 294.118 105.882 293.459 105.882 292.647C105.882 291.835 106.541 291.176 107.353 291.176C108.165 291.176 108.824 291.835 108.824 292.647Z" fill="white"/>
<path d="M135.294 213.235C135.294 214.047 134.636 214.706 133.824 214.706C133.011 214.706 132.353 214.047 132.353 213.235C132.353 212.423 133.011 211.765 133.824 211.765C134.636 211.765 135.294 212.423 135.294 213.235Z" fill="white"/>
<path d="M108.824 213.235C108.824 214.047 108.165 214.706 107.353 214.706C106.541 214.706 105.882 214.047 105.882 213.235C105.882 212.423 106.541 211.765 107.353 211.765C108.165 211.765 108.824 212.423 108.824 213.235Z" fill="white"/>
<path d="M135.294 239.706C135.294 240.518 134.636 241.176 133.824 241.176C133.011 241.176 132.353 240.518 132.353 239.706C132.353 238.894 133.011 238.235 133.824 238.235C134.636 238.235 135.294 238.894 135.294 239.706Z" fill="white"/>
<path d="M108.824 239.706C108.824 240.518 108.165 241.176 107.353 241.176C106.541 241.176 105.882 240.518 105.882 239.706C105.882 238.894 106.541 238.235 107.353 238.235C108.165 238.235 108.824 238.894 108.824 239.706Z" fill="white"/>
<path d="M188.235 372.059C188.235 372.871 187.577 373.529 186.765 373.529C185.953 373.529 185.294 372.871 185.294 372.059C185.294 371.247 185.953 370.588 186.765 370.588C187.577 370.588 188.235 371.247 188.235 372.059Z" fill="white"/>
<path d="M161.765 372.059C161.765 372.871 161.106 373.529 160.294 373.529C159.482 373.529 158.824 372.871 158.824 372.059C158.824 371.247 159.482 370.588 160.294 370.588C161.106 370.588 161.765 371.247 161.765 372.059Z" fill="white"/>
<path d="M188.235 398.529C188.235 399.342 187.577 400 186.765 400C185.953 400 185.294 399.342 185.294 398.529C185.294 397.717 185.953 397.059 186.765 397.059C187.577 397.059 188.235 397.717 188.235 398.529Z" fill="white"/>
<path d="M161.765 398.529C161.765 399.342 161.106 400 160.294 400C159.482 400 158.824 399.342 158.824 398.529C158.824 397.717 159.482 397.059 160.294 397.059C161.106 397.059 161.765 397.717 161.765 398.529Z" fill="white"/>
<path d="M188.235 319.118C188.235 319.93 187.577 320.588 186.765 320.588C185.953 320.588 185.294 319.93 185.294 319.118C185.294 318.305 185.953 317.647 186.765 317.647C187.577 317.647 188.235 318.305 188.235 319.118Z" fill="white"/>
<path d="M161.765 319.118C161.765 319.93 161.106 320.588 160.294 320.588C159.482 320.588 158.824 319.93 158.824 319.118C158.824 318.305 159.482 317.647 160.294 317.647C161.106 317.647 161.765 318.305 161.765 319.118Z" fill="white"/>
<path d="M188.235 345.588C188.235 346.4 187.577 347.059 186.765 347.059C185.953 347.059 185.294 346.4 185.294 345.588C185.294 344.776 185.953 344.118 186.765 344.118C187.577 344.118 188.235 344.776 188.235 345.588Z" fill="white"/>
<path d="M161.765 345.588C161.765 346.4 161.106 347.059 160.294 347.059C159.482 347.059 158.824 346.4 158.824 345.588C158.824 344.776 159.482 344.118 160.294 344.118C161.106 344.118 161.765 344.776 161.765 345.588Z" fill="white"/>
<path d="M135.294 372.059C135.294 372.871 134.636 373.529 133.824 373.529C133.011 373.529 132.353 372.871 132.353 372.059C132.353 371.247 133.011 370.588 133.824 370.588C134.636 370.588 135.294 371.247 135.294 372.059Z" fill="white"/>
<path d="M108.824 372.059C108.824 372.871 108.165 373.529 107.353 373.529C106.541 373.529 105.882 372.871 105.882 372.059C105.882 371.247 106.541 370.588 107.353 370.588C108.165 370.588 108.824 371.247 108.824 372.059Z" fill="white"/>
<path d="M135.294 398.529C135.294 399.342 134.636 400 133.824 400C133.011 400 132.353 399.342 132.353 398.529C132.353 397.717 133.011 397.059 133.824 397.059C134.636 397.059 135.294 397.717 135.294 398.529Z" fill="white"/>
<path d="M108.824 398.529C108.824 399.342 108.165 400 107.353 400C106.541 400 105.882 399.342 105.882 398.529C105.882 397.717 106.541 397.059 107.353 397.059C108.165 397.059 108.824 397.717 108.824 398.529Z" fill="white"/>
<path d="M135.294 319.118C135.294 319.93 134.636 320.588 133.824 320.588C133.011 320.588 132.353 319.93 132.353 319.118C132.353 318.305 133.011 317.647 133.824 317.647C134.636 317.647 135.294 318.305 135.294 319.118Z" fill="white"/>
<path d="M108.824 319.118C108.824 319.93 108.165 320.588 107.353 320.588C106.541 320.588 105.882 319.93 105.882 319.118C105.882 318.305 106.541 317.647 107.353 317.647C108.165 317.647 108.824 318.305 108.824 319.118Z" fill="white"/>
<path d="M135.294 345.588C135.294 346.4 134.636 347.059 133.824 347.059C133.011 347.059 132.353 346.4 132.353 345.588C132.353 344.776 133.011 344.118 133.824 344.118C134.636 344.118 135.294 344.776 135.294 345.588Z" fill="white"/>
<path d="M108.824 345.588C108.824 346.4 108.165 347.059 107.353 347.059C106.541 347.059 105.882 346.4 105.882 345.588C105.882 344.776 106.541 344.118 107.353 344.118C108.165 344.118 108.824 344.776 108.824 345.588Z" fill="white"/>
<path d="M82.3529 266.176C82.3529 266.989 81.6945 267.647 80.8824 267.647C80.0702 267.647 79.4118 266.989 79.4118 266.176C79.4118 265.364 80.0702 264.706 80.8824 264.706C81.6945 264.706 82.3529 265.364 82.3529 266.176Z" fill="white"/>
<path d="M55.8824 266.176C55.8824 266.989 55.2239 267.647 54.4118 267.647C53.5996 267.647 52.9412 266.989 52.9412 266.176C52.9412 265.364 53.5996 264.706 54.4118 264.706C55.2239 264.706 55.8824 265.364 55.8824 266.176Z" fill="white"/>
<path d="M82.3529 292.647C82.3529 293.459 81.6945 294.118 80.8824 294.118C80.0702 294.118 79.4118 293.459 79.4118 292.647C79.4118 291.835 80.0702 291.176 80.8824 291.176C81.6945 291.176 82.3529 291.835 82.3529 292.647Z" fill="white"/>
<path d="M55.8824 292.647C55.8824 293.459 55.2239 294.118 54.4118 294.118C53.5996 294.118 52.9412 293.459 52.9412 292.647C52.9412 291.835 53.5996 291.176 54.4118 291.176C55.2239 291.176 55.8824 291.835 55.8824 292.647Z" fill="white"/>
<path d="M82.3529 213.235C82.3529 214.047 81.6945 214.706 80.8824 214.706C80.0702 214.706 79.4118 214.047 79.4118 213.235C79.4118 212.423 80.0702 211.765 80.8824 211.765C81.6945 211.765 82.3529 212.423 82.3529 213.235Z" fill="white"/>
<path d="M55.8824 213.235C55.8824 214.047 55.2239 214.706 54.4118 214.706C53.5996 214.706 52.9412 214.047 52.9412 213.235C52.9412 212.423 53.5996 211.765 54.4118 211.765C55.2239 211.765 55.8824 212.423 55.8824 213.235Z" fill="white"/>
<path d="M82.3529 239.706C82.3529 240.518 81.6945 241.176 80.8824 241.176C80.0702 241.176 79.4118 240.518 79.4118 239.706C79.4118 238.894 80.0702 238.235 80.8824 238.235C81.6945 238.235 82.3529 238.894 82.3529 239.706Z" fill="white"/>
<path d="M55.8824 239.706C55.8824 240.518 55.2239 241.176 54.4118 241.176C53.5996 241.176 52.9412 240.518 52.9412 239.706C52.9412 238.894 53.5996 238.235 54.4118 238.235C55.2239 238.235 55.8824 238.894 55.8824 239.706Z" fill="white"/>
<path d="M29.4118 266.176C29.4118 266.989 28.7534 267.647 27.9412 267.647C27.129 267.647 26.4706 266.989 26.4706 266.176C26.4706 265.364 27.129 264.706 27.9412 264.706C28.7534 264.706 29.4118 265.364 29.4118 266.176Z" fill="white"/>
<path d="M2.94118 266.176C2.94118 266.989 2.28277 267.647 1.47059 267.647C0.658405 267.647 0 266.989 0 266.176C0 265.364 0.658405 264.706 1.47059 264.706C2.28277 264.706 2.94118 265.364 2.94118 266.176Z" fill="white"/>
<path d="M29.4118 292.647C29.4118 293.459 28.7534 294.118 27.9412 294.118C27.129 294.118 26.4706 293.459 26.4706 292.647C26.4706 291.835 27.129 291.176 27.9412 291.176C28.7534 291.176 29.4118 291.835 29.4118 292.647Z" fill="white"/>
<path d="M2.94118 292.647C2.94118 293.459 2.28277 294.118 1.47059 294.118C0.658405 294.118 0 293.459 0 292.647C0 291.835 0.658405 291.176 1.47059 291.176C2.28277 291.176 2.94118 291.835 2.94118 292.647Z" fill="white"/>
<path d="M29.4118 213.235C29.4118 214.047 28.7534 214.706 27.9412 214.706C27.129 214.706 26.4706 214.047 26.4706 213.235C26.4706 212.423 27.129 211.765 27.9412 211.765C28.7534 211.765 29.4118 212.423 29.4118 213.235Z" fill="white"/>
<path d="M2.94118 213.235C2.94118 214.047 2.28277 214.706 1.47059 214.706C0.658405 214.706 0 214.047 0 213.235C0 212.423 0.658405 211.765 1.47059 211.765C2.28277 211.765 2.94118 212.423 2.94118 213.235Z" fill="white"/>
<path d="M29.4118 239.706C29.4118 240.518 28.7534 241.176 27.9412 241.176C27.129 241.176 26.4706 240.518 26.4706 239.706C26.4706 238.894 27.129 238.235 27.9412 238.235C28.7534 238.235 29.4118 238.894 29.4118 239.706Z" fill="white"/>
<path d="M2.94118 239.706C2.94118 240.518 2.28277 241.176 1.47059 241.176C0.658405 241.176 0 240.518 0 239.706C0 238.894 0.658405 238.235 1.47059 238.235C2.28277 238.235 2.94118 238.894 2.94118 239.706Z" fill="white"/>
<path d="M82.3529 372.059C82.3529 372.871 81.6945 373.529 80.8824 373.529C80.0702 373.529 79.4118 372.871 79.4118 372.059C79.4118 371.247 80.0702 370.588 80.8824 370.588C81.6945 370.588 82.3529 371.247 82.3529 372.059Z" fill="white"/>
<path d="M55.8824 372.059C55.8824 372.871 55.2239 373.529 54.4118 373.529C53.5996 373.529 52.9412 372.871 52.9412 372.059C52.9412 371.247 53.5996 370.588 54.4118 370.588C55.2239 370.588 55.8824 371.247 55.8824 372.059Z" fill="white"/>
<path d="M82.3529 398.529C82.3529 399.342 81.6945 400 80.8824 400C80.0702 400 79.4118 399.342 79.4118 398.529C79.4118 397.717 80.0702 397.059 80.8824 397.059C81.6945 397.059 82.3529 397.717 82.3529 398.529Z" fill="white"/>
<path d="M55.8824 398.529C55.8824 399.342 55.2239 400 54.4118 400C53.5996 400 52.9412 399.342 52.9412 398.529C52.9412 397.717 53.5996 397.059 54.4118 397.059C55.2239 397.059 55.8824 397.717 55.8824 398.529Z" fill="white"/>
<path d="M82.3529 319.118C82.3529 319.93 81.6945 320.588 80.8824 320.588C80.0702 320.588 79.4118 319.93 79.4118 319.118C79.4118 318.305 80.0702 317.647 80.8824 317.647C81.6945 317.647 82.3529 318.305 82.3529 319.118Z" fill="white"/>
<path d="M55.8824 319.118C55.8824 319.93 55.2239 320.588 54.4118 320.588C53.5996 320.588 52.9412 319.93 52.9412 319.118C52.9412 318.305 53.5996 317.647 54.4118 317.647C55.2239 317.647 55.8824 318.305 55.8824 319.118Z" fill="white"/>
<path d="M82.3529 345.588C82.3529 346.4 81.6945 347.059 80.8824 347.059C80.0702 347.059 79.4118 346.4 79.4118 345.588C79.4118 344.776 80.0702 344.118 80.8824 344.118C81.6945 344.118 82.3529 344.776 82.3529 345.588Z" fill="white"/>
<path d="M55.8824 345.588C55.8824 346.4 55.2239 347.059 54.4118 347.059C53.5996 347.059 52.9412 346.4 52.9412 345.588C52.9412 344.776 53.5996 344.118 54.4118 344.118C55.2239 344.118 55.8824 344.776 55.8824 345.588Z" fill="white"/>
<path d="M29.4118 372.059C29.4118 372.871 28.7534 373.529 27.9412 373.529C27.129 373.529 26.4706 372.871 26.4706 372.059C26.4706 371.247 27.129 370.588 27.9412 370.588C28.7534 370.588 29.4118 371.247 29.4118 372.059Z" fill="white"/>
<path d="M2.94118 372.059C2.94118 372.871 2.28277 373.529 1.47059 373.529C0.658405 373.529 0 372.871 0 372.059C0 371.247 0.658405 370.588 1.47059 370.588C2.28277 370.588 2.94118 371.247 2.94118 372.059Z" fill="white"/>
<path d="M29.4118 398.529C29.4118 399.342 28.7534 400 27.9412 400C27.129 400 26.4706 399.342 26.4706 398.529C26.4706 397.717 27.129 397.059 27.9412 397.059C28.7534 397.059 29.4118 397.717 29.4118 398.529Z" fill="white"/>
<path d="M2.94118 398.529C2.94118 399.342 2.28277 400 1.47059 400C0.658405 400 0 399.342 0 398.529C0 397.717 0.658405 397.059 1.47059 397.059C2.28277 397.059 2.94118 397.717 2.94118 398.529Z" fill="white"/>
<path d="M29.4118 319.118C29.4118 319.93 28.7534 320.588 27.9412 320.588C27.129 320.588 26.4706 319.93 26.4706 319.118C26.4706 318.305 27.129 317.647 27.9412 317.647C28.7534 317.647 29.4118 318.305 29.4118 319.118Z" fill="white"/>
<path d="M2.94118 319.118C2.94118 319.93 2.28277 320.588 1.47059 320.588C0.658405 320.588 0 319.93 0 319.118C0 318.305 0.658405 317.647 1.47059 317.647C2.28277 317.647 2.94118 318.305 2.94118 319.118Z" fill="white"/>
<path d="M29.4118 345.588C29.4118 346.4 28.7534 347.059 27.9412 347.059C27.129 347.059 26.4706 346.4 26.4706 345.588C26.4706 344.776 27.129 344.118 27.9412 344.118C28.7534 344.118 29.4118 344.776 29.4118 345.588Z" fill="white"/>
<path d="M2.94118 345.588C2.94118 346.4 2.28277 347.059 1.47059 347.059C0.658405 347.059 0 346.4 0 345.588C0 344.776 0.658405 344.118 1.47059 344.118C2.28277 344.118 2.94118 344.776 2.94118 345.588Z" fill="white"/>
</g>
</svg>
