<svg width="100" height="100" viewBox="0 0 100 100" fill="none" xmlns="http://www.w3.org/2000/svg">
<path d="M72.0155 4.74585C76.9907 7.11863 81.4683 10.3656 85.4484 14.3618C91.5429 20.4811 96.0205 28.099 98.2593 36.4661C99.13 39.838 99.7519 43.2098 100.001 46.7065L97.513 46.8314C97.2643 43.5844 96.7668 40.2126 95.8961 37.0905C93.7817 29.2229 89.5529 21.9797 83.7071 16.1102C79.9757 12.3637 75.7469 9.24163 71.0205 6.99374L72.0155 4.74585Z" fill="#003C84"/>
<path d="M55.8464 0.000244141C58.2096 0.25001 60.5728 0.749542 62.936 1.37396L62.3141 3.74673C60.0753 3.12232 57.8365 2.74767 55.5977 2.4979L55.8464 0.000244141Z" fill="#003C84"/>
<path d="M14.6768 14.3618C20.8957 8.1177 28.4827 3.7468 36.9405 1.37402L37.5623 3.7468C29.6021 5.86981 22.2638 10.1158 16.4181 15.9853C-2.11427 34.5929 -2.11427 64.8145 16.4181 83.4221C34.9504 102.03 65.0499 102.03 83.5822 83.4221C87.6867 79.301 90.9205 74.5554 93.2837 69.3103C94.4031 66.6878 95.3982 63.9404 96.1444 61.1929L98.5076 61.8174C97.7613 64.8145 96.7663 67.6869 95.5225 70.4343C93.035 75.9291 89.5524 80.9244 85.3235 85.2953C65.7962 104.902 34.2041 104.902 14.6768 85.2953C-4.85059 65.6887 -4.85059 33.8436 14.6768 14.3618Z" fill="#003C84"/>
<path d="M14.5522 14.4868L16.2935 16.2352C-2.11443 34.7178 -2.11443 64.8146 16.2935 83.4222L14.5522 85.1705C-4.85075 65.6888 -4.85075 33.9686 14.5522 14.4868Z" fill="#036FF5"/>
<path d="M50.0007 7.61816C49.8764 7.61816 49.8764 7.61816 50.0007 7.61816C49.8764 7.61816 49.8764 7.61816 50.0007 7.61816C49.8764 7.61816 49.8764 7.61816 50.0007 7.61816C49.8764 7.61816 49.8764 7.61816 50.0007 7.61816C49.8764 7.61816 49.8764 7.61816 50.0007 7.61816C49.8764 7.61816 49.8764 7.61816 49.8764 7.61816C49.8764 7.61816 49.8764 7.61816 49.752 7.61816H49.6276C49.5032 7.61816 49.3788 7.61816 49.2545 7.61816V8.86699C49.6276 8.86699 50.0007 8.86699 50.4982 8.86699V7.61816H50.0007ZM45.0256 7.86793C44.6525 7.86793 44.2793 7.99281 43.7818 7.99281L43.9062 9.24164C44.2793 9.24164 44.6525 9.11676 45.15 9.11676L45.0256 7.86793ZM40.1749 8.74211C40.0505 8.74211 39.9261 8.74211 39.8017 8.86699C39.6774 8.86699 39.553 8.99188 39.4286 8.99188L39.8017 10.2407C39.6774 10.1158 40.0505 9.99094 40.4236 9.99094L40.1749 8.74211ZM35.4485 10.2407C35.3241 10.3656 35.0754 10.3656 34.951 10.4905C34.8266 10.6154 34.5779 10.6154 34.4535 10.7402L34.951 11.8642C35.3241 11.7393 35.6973 11.6144 36.0704 11.3647L35.4485 10.2407ZM30.8465 12.2388C30.7221 12.2388 30.7221 12.3637 30.5978 12.3637C30.5978 12.3637 30.5978 12.3637 30.4734 12.3637C30.4734 12.3637 30.4734 12.3637 30.349 12.3637C30.349 12.3637 30.349 12.3637 30.2246 12.3637C30.2246 12.3637 30.2246 12.3637 30.1002 12.3637C30.1002 12.3637 30.1002 12.3637 29.9759 12.3637C29.9759 12.3637 29.9759 12.3637 29.8515 12.3637C29.7271 12.3637 29.7271 12.4886 29.6027 12.4886C29.6027 12.4886 29.6027 12.4886 29.4784 12.4886L30.1002 13.6125C30.4734 13.3628 30.8465 13.2379 31.2196 12.9881L30.8465 12.2388ZM26.6177 14.7365C26.2445 14.9863 25.8714 15.236 25.6226 15.4858L26.3689 16.4849C26.742 16.2351 26.9908 15.9853 27.3639 15.7356L26.6177 14.7365ZM22.6376 17.7337C22.5132 17.7337 22.5132 17.7337 22.6376 17.7337C22.5132 17.7337 22.5132 17.7337 22.6376 17.7337C22.5132 17.7337 22.5132 17.7337 22.6376 17.7337C22.5132 17.7337 22.5132 17.8586 22.6376 17.7337C22.5132 17.8586 22.5132 17.8586 22.6376 17.7337C22.5132 17.8586 22.5132 17.8586 22.6376 17.7337C22.5132 17.8586 22.5132 17.8586 22.6376 17.7337C22.5132 17.8586 22.5132 17.8586 22.6376 17.7337C22.5132 17.8586 22.5132 17.8586 22.6376 17.7337C22.5132 17.8586 22.5132 17.8586 22.6376 17.7337C22.5132 17.8586 22.5132 17.8586 22.6376 17.7337C22.5132 17.8586 22.5132 17.8586 22.6376 17.7337C22.5132 17.8586 22.5132 17.8586 22.5132 17.8586C22.2644 18.1083 22.0157 18.3581 21.7669 18.6079L22.6376 19.482C22.8863 19.2323 23.2594 18.9825 23.5082 18.7327L22.6376 17.7337ZM19.0306 21.2304C18.7818 21.4802 18.6575 21.6051 18.4087 21.8548C18.2843 21.9797 18.2843 21.9797 18.1599 22.1046L19.155 22.9788C19.4037 22.729 19.6525 22.3543 19.9012 22.1046L19.0306 21.2304ZM15.9211 25.1018C15.7968 25.2267 15.6724 25.3515 15.6724 25.4764C15.548 25.6013 15.548 25.7262 15.4236 25.7262L16.4186 26.4755C16.6674 26.1008 16.9162 25.8511 17.1649 25.4764L15.9211 25.1018ZM13.1848 29.3478C13.1848 29.3478 13.1848 29.4727 13.1848 29.3478C13.1848 29.4727 13.1848 29.4727 13.1848 29.3478C13.0604 29.4727 13.0604 29.4727 13.0604 29.4727C13.0604 29.5976 12.9361 29.5976 12.9361 29.7224C12.8117 29.8473 12.8117 30.0971 12.6873 30.222L13.8067 30.8464C13.9311 30.4717 14.1798 30.0971 14.4286 29.7224L13.1848 29.3478ZM11.0704 33.8436C11.0704 33.9685 10.946 34.0933 10.946 34.3431C10.8216 34.5929 10.8216 34.7178 10.6973 34.9675L11.8167 35.4671C11.941 35.0924 12.0654 34.7178 12.3142 34.3431L11.0704 33.8436ZM9.45347 38.4642C9.3291 38.8389 9.20472 39.2135 9.08034 39.7131L10.3241 39.9628C10.4485 39.5882 10.5729 39.2135 10.5729 38.8389L9.45347 38.4642ZM8.45845 43.4596C8.45845 43.7093 8.33407 44.084 8.33407 44.3337C8.33407 44.4586 8.33407 44.4586 8.33407 44.5835L9.57785 44.7084C9.57785 44.3337 9.70223 43.9591 9.70223 43.4596H8.45845ZM7.96094 48.33C7.96094 48.7046 7.96094 49.0793 7.96094 49.4539H9.20472C9.20472 49.0793 9.20472 48.7046 9.20472 48.2051L7.96094 48.33ZM9.3291 53.3253L8.08532 53.4502C8.08532 53.4502 8.08532 53.4502 8.08532 53.5751C8.08532 53.5751 8.08532 53.5751 8.08532 53.7C8.08532 53.8248 8.08532 53.9497 8.08532 54.1995L9.3291 54.0746C9.3291 54.0746 9.3291 53.7 9.3291 53.3253ZM9.95099 58.0709L8.70721 58.3206C8.83158 58.6953 8.83158 58.945 8.95596 59.3197L10.1997 59.0699C10.1997 58.8202 10.0754 58.4455 9.95099 58.0709ZM11.1948 62.6915L10.0754 63.0662C10.1997 63.3159 10.1997 63.5657 10.3241 63.6906C10.3241 63.8155 10.3241 63.8155 10.4485 63.9404L11.5679 63.5657C11.4435 63.5657 11.3191 63.0662 11.1948 62.6915ZM13.0604 67.1873L11.941 67.6868C11.941 67.6868 11.941 67.6868 11.941 67.8117C11.941 67.9366 12.0654 68.0615 12.0654 68.1864L13.1848 67.562C13.4336 67.9366 13.1848 67.562 13.0604 67.1873ZM15.2992 71.4333L14.3042 72.0577C14.3042 72.0577 14.3042 72.0577 14.3042 72.1826C14.4286 72.4324 14.6774 72.6822 14.8017 72.9319L15.7968 72.1826C15.7968 72.1826 15.548 71.808 15.2992 71.4333ZM18.1599 75.4296L17.1649 76.1789C17.2893 76.3038 17.2893 76.3038 17.4137 76.4286C17.5381 76.5535 17.6624 76.8033 17.9112 76.9282L18.9062 76.1789C18.6575 76.054 18.4087 75.8042 18.1599 75.4296ZM21.3938 79.0512L20.5231 79.9254C20.7719 80.1751 20.8963 80.3 21.145 80.5498L21.2694 80.6747L22.14 79.8005C21.8913 79.5507 21.6425 79.301 21.3938 79.0512ZM25.0007 82.1733L24.2545 83.1723L24.3788 83.2972C24.6276 83.547 24.8764 83.6719 25.1251 83.9216L25.8714 82.9226C25.6226 82.6728 25.3739 82.423 25.0007 82.1733ZM28.9808 84.9207L28.3589 86.0446L28.4833 86.1695C28.7321 86.2944 28.9808 86.5442 29.2296 86.6691L29.8515 85.5451C29.7271 85.4202 29.354 85.1705 28.9808 84.9207ZM33.2097 87.1686L32.7122 88.2925C32.7122 88.2925 32.8366 88.2925 32.8366 88.4174C32.8366 88.4174 32.8366 88.4174 32.9609 88.4174C32.9609 88.4174 32.9609 88.4174 33.0853 88.4174C33.3341 88.5423 33.4585 88.5423 33.7072 88.6672L34.2047 87.5432C33.956 87.5432 33.5828 87.4184 33.2097 87.1686ZM37.8117 88.9169L37.4386 90.1658H37.5629C37.5629 90.1658 37.5629 90.1658 37.6873 90.1658C37.9361 90.1658 38.0604 90.2907 38.3092 90.2907L38.6823 89.0418C38.558 89.1667 38.1848 89.0418 37.8117 88.9169ZM42.4137 90.1658L42.1649 91.4146C42.2893 91.4146 42.4137 91.4146 42.5381 91.4146C42.5381 91.4146 42.5381 91.4146 42.6624 91.4146C42.7868 91.4146 43.0356 91.4146 43.1599 91.5395L43.4087 90.2907C43.2843 90.2907 42.7868 90.1658 42.4137 90.1658ZM47.2644 90.6653L47.14 91.9141C47.2644 91.9141 47.3888 91.9141 47.5132 91.9141C47.7619 91.9141 48.0107 91.9141 48.3838 91.9141V90.6653C48.0107 90.7902 47.6376 90.7902 47.2644 90.6653ZM53.2346 90.6653C52.8614 90.6653 52.4883 90.6653 51.9908 90.7902V92.039C52.3639 92.039 52.7371 92.039 53.1102 91.9141L53.2346 90.6653ZM58.0853 90.0409C57.7122 90.1658 57.339 90.1658 56.8415 90.2907L57.0903 91.5395C57.4634 91.4146 57.8366 91.4146 58.3341 91.2897L58.0853 90.0409ZM62.6873 88.7921C62.3142 88.9169 61.941 89.0418 61.5679 89.1667L61.941 90.4155C62.0654 90.4155 62.3142 90.2907 62.4385 90.2907C62.6873 90.2907 62.8117 90.1658 63.0604 90.0409L62.6873 88.7921ZM67.1649 87.0437C66.7918 87.1686 66.4186 87.4183 66.0455 87.5432L66.543 88.6672C66.6674 88.6672 66.6674 88.5423 66.7918 88.5423C67.0405 88.4174 67.1649 88.2925 67.4137 88.2925L67.1649 87.0437ZM71.3938 84.6709C71.0206 84.9207 70.6475 85.0456 70.3987 85.2953L71.0206 86.4193C71.145 86.2944 71.2694 86.2944 71.3938 86.1695H71.5182L71.3938 84.6709ZM75.3739 81.9235C75.0007 82.1733 74.752 82.423 74.3788 82.6728L75.1251 83.6719C75.2495 83.547 75.3739 83.547 75.4983 83.4221C75.6226 83.2972 75.6226 83.2972 75.747 83.1723L75.3739 81.9235ZM78.9808 78.6765C78.7321 78.9263 78.3589 79.301 78.1102 79.5507L78.9808 80.4249V78.6765ZM82.2147 75.0549C81.9659 75.4296 81.7172 75.6794 81.4684 76.054L82.4634 76.8033C82.5878 76.6784 82.7122 76.4286 82.9609 76.3038C83.0853 76.1789 83.0853 76.054 83.2097 75.9291L82.2147 75.0549ZM84.951 71.0587C84.7022 71.4333 84.5779 71.808 84.3291 72.0577L85.3241 72.6822C85.3241 72.5573 85.4485 72.5573 85.4485 72.4324C85.5729 72.1826 85.6973 71.9329 85.946 71.6831L84.951 71.0587ZM87.1898 66.8127C87.0654 67.1873 86.8167 67.562 86.6923 67.9366L87.8117 68.4361C87.9361 68.0615 88.1848 67.6868 88.3092 67.3122L87.1898 66.8127ZM88.9311 62.3169C88.8067 62.6915 88.6823 63.0662 88.5579 63.4408L89.6774 63.8155C89.6774 63.6906 89.8017 63.5657 89.8017 63.3159C89.8017 63.1911 89.9261 63.0662 89.9261 62.9413L88.9311 62.3169ZM90.1749 57.5713C90.0505 57.946 90.0505 58.3206 89.9261 58.6953L91.1699 58.945C91.1699 58.8202 91.2943 58.6953 91.2943 58.4455C91.2943 58.3206 91.2943 58.1957 91.4186 58.0709L90.1749 57.5713ZM90.7968 52.8258C90.7968 53.2004 90.6724 53.5751 90.6724 54.0746L91.9162 54.1995C91.9162 53.8248 92.0405 53.3253 92.0405 52.9507L90.7968 52.8258ZM92.0405 47.8305H90.7968C90.7968 48.2051 90.7968 48.5798 90.7968 49.0793H92.0405C92.0405 48.8295 92.0405 48.5798 92.0405 48.2051C92.0405 47.9553 92.0405 47.9553 92.0405 47.8305C92.0405 47.9553 92.0405 47.9553 92.0405 47.8305C92.0405 47.9553 92.0405 47.9553 92.0405 47.8305C92.0405 47.9553 92.0405 47.9553 92.0405 47.8305C92.0405 47.9553 92.0405 47.9553 92.0405 47.8305C92.0405 47.9553 92.0405 47.9553 92.0405 47.8305C92.0405 47.9553 92.0405 47.8305 92.0405 47.8305ZM91.543 42.96L90.2992 43.2098C90.4236 43.5844 90.4236 43.9591 90.4236 44.4586L91.6674 44.3337C91.6674 43.8342 91.6674 43.4596 91.543 42.96C91.543 43.0849 91.543 43.0849 91.543 42.96C91.543 43.0849 91.543 42.96 91.543 42.96ZM90.4236 38.0896L89.1798 38.4642C89.3042 38.8389 89.4286 39.2135 89.553 39.5882L90.7968 39.3384C90.6724 38.8389 90.548 38.4642 90.4236 38.0896ZM88.8067 33.344L87.6873 33.8436C87.8117 34.2182 87.9361 34.5929 88.1848 34.9675L89.3042 34.468C89.3042 34.3431 89.1798 34.2182 89.1798 33.9685C88.9311 33.8436 88.8067 33.5938 88.8067 33.344ZM86.5679 28.8483L85.4485 29.4727C85.6973 29.8473 85.8216 30.222 86.0704 30.4717L87.1898 29.8473C86.941 29.5976 86.8167 29.2229 86.5679 28.8483ZM83.8316 24.7271L82.8366 25.4764C83.0853 25.8511 83.3341 26.1008 83.5828 26.4755L84.5779 25.7262C84.4535 25.4764 84.3291 25.3515 84.0803 25.1018C83.956 24.852 83.956 24.7271 83.8316 24.7271ZM80.5978 20.8558L79.7271 21.7299C79.9759 21.9797 80.2246 22.3543 80.5978 22.6041L81.4684 21.7299C81.2196 21.4802 80.9709 21.1055 80.5978 20.8558ZM76.9908 17.4839L76.2445 18.483C76.4933 18.7327 76.8664 18.9825 77.1152 19.2323L77.9858 18.3581C77.6127 17.9834 77.3639 17.7337 76.9908 17.4839ZM73.0107 14.4867L72.3888 15.4858C72.7619 15.7356 73.0107 15.9853 73.3838 16.1102L74.1301 15.1111C73.2594 14.6116 73.1351 14.4867 73.0107 14.4867ZM68.7818 11.9891L68.2843 13.113C68.6575 13.2379 69.0306 13.4877 69.4037 13.6125L70.0256 12.4886C69.9012 12.3637 69.6525 12.2388 69.5281 12.2388C69.0306 12.1139 68.9062 11.9891 68.7818 11.9891ZM64.1798 9.99094L63.8067 11.2398C64.1798 11.3647 64.553 11.4895 64.9261 11.6144L65.4236 10.4905C64.9261 10.2407 64.553 10.1158 64.1798 9.99094ZM59.4535 8.61723L59.2047 9.86606C59.5779 9.99094 59.951 9.99094 60.3241 10.1158L60.6973 8.86699C60.3241 8.74211 60.0754 8.74211 59.7022 8.61723C59.5779 8.61723 59.4535 8.61723 59.4535 8.61723ZM54.4783 7.74305L54.354 8.99188C54.7271 8.99188 55.1002 9.11676 55.5978 9.11676L55.7221 7.86793C55.4734 7.86793 55.2246 7.74305 54.9759 7.74305C54.6027 7.86793 54.6027 7.86793 54.4783 7.74305C54.6027 7.86793 54.6027 7.86793 54.4783 7.74305C54.6027 7.86793 54.4783 7.74305 54.4783 7.74305ZM50.0007 7.61816V8.86699C50.2495 8.86699 50.4982 8.86699 50.747 8.86699V7.61816C50.6226 7.61816 50.4982 7.61816 50.3739 7.61816C50.1251 7.61816 50.1251 7.61816 50.0007 7.61816C50.1251 7.61816 50.1251 7.61816 50.0007 7.61816C50.1251 7.61816 50.1251 7.61816 50.0007 7.61816C50.1251 7.61816 50.1251 7.61816 50.0007 7.61816C50.1251 7.61816 50.1251 7.61816 50.0007 7.61816C50.1251 7.61816 50.1251 7.61816 50.0007 7.61816C50.1251 7.61816 50.1251 7.61816 50.0007 7.61816Z" fill="#489BFD"/>
<path d="M49.8751 82.9224C68.4219 82.9224 83.4571 67.8261 83.4571 49.204C83.4571 30.5818 68.4219 15.4856 49.8751 15.4856C31.3282 15.4856 16.293 30.5818 16.293 49.204C16.293 67.8261 31.3282 82.9224 49.8751 82.9224Z" fill="#00225E"/>
<path d="M44.652 23.8529L43.5326 22.1045L23.8809 41.9609L31.0948 68.9356L32.7117 67.3121L26.1197 42.4604L42.5376 25.9759L44.652 23.8529Z" fill="#036FF5"/>
<path d="M68.781 30.9713L74.7511 53.5751L52.2387 47.5807L46.2685 24.9769L68.781 30.9713ZM70.3979 29.3478L43.5322 22.2295L50.7462 49.2042L77.6118 56.4474L70.3979 29.3478Z" fill="#036FF5"/>
<path d="M77.6121 56.4474L75.8708 55.3235L57.3385 73.931L32.5873 67.3122L31.0947 68.9357L57.9604 76.1789L77.6121 56.4474Z" fill="#036FF5"/>
<path fill-rule="evenodd" clip-rule="evenodd" d="M57.9601 64.4397C57.9601 64.19 57.9601 63.8153 57.7113 63.6904C57.587 63.5656 57.3382 63.3158 56.9651 63.1909C57.4626 63.1909 57.9601 63.1909 58.3332 63.066C58.7064 62.9411 59.0795 62.8163 59.4526 62.6914C59.8258 62.5665 60.0745 62.3167 60.3233 62.067C60.6964 61.6923 60.8208 61.4425 60.8208 61.0679C60.8208 60.6932 60.6964 60.4435 60.3233 60.1937C60.1989 60.0688 60.0745 59.9439 59.8258 59.9439L61.0695 58.6951L59.4526 58.3205L58.3332 59.4444L57.3382 59.1947L58.4576 58.0707L56.8407 57.4463L55.7213 58.5702L53.2337 57.9458L52.2387 58.9449L52.6118 59.0698C52.8606 59.1946 52.985 59.1946 53.1094 59.3195C53.1094 59.3195 53.2337 59.4444 53.1094 59.4444C53.1094 59.5693 52.985 59.6942 52.7362 59.8191L49.0049 63.6904C48.7561 63.9402 48.6317 64.0651 48.5074 64.0651C48.383 64.0651 48.2586 64.19 48.1342 64.19C48.0098 64.19 47.8855 64.19 47.6367 64.0651L47.2636 63.9402L46.2686 64.9393L48.7561 65.5637L47.6367 66.6876L49.2536 67.0623L50.373 65.9383L51.3681 66.1881L50.2487 67.4369L51.8656 67.8116L53.1094 66.5627C53.3581 66.5627 53.7312 66.5627 53.98 66.5627C54.7263 66.5627 55.3482 66.4379 55.97 66.1881C56.5919 65.9383 57.0894 65.6886 57.4626 65.3139C57.7113 65.0641 57.9601 64.8144 57.9601 64.4397ZM56.7163 60.3186C57.3382 60.4435 57.7113 60.5684 57.9601 60.6932C58.0845 60.8181 58.2089 60.943 58.2089 61.0679C58.2089 61.1928 58.0845 61.4425 57.9601 61.5674C57.8357 61.6923 57.587 61.9421 57.3382 61.9421C57.0894 62.067 56.7163 62.067 56.4676 62.067C56.0944 62.067 55.7213 61.9421 55.0994 61.8172L54.1044 61.5674L55.8457 59.8191L56.7163 60.3186ZM54.2288 65.0641C53.8556 65.189 53.4825 65.189 53.2337 65.189C52.8606 65.189 52.6118 65.0641 52.1143 65.0641L51.4924 64.9393C51.2437 64.9393 51.1193 64.8144 51.1193 64.8144V64.6895C51.1193 64.6895 51.2437 64.5646 51.4924 64.3148L52.985 62.8163L54.2288 63.1909C54.7263 63.3158 55.0994 63.4407 55.3482 63.5656C55.5969 63.6904 55.5969 63.8153 55.5969 64.0651C55.5969 64.19 55.4725 64.4397 55.2238 64.6895C54.975 64.8144 54.6019 64.9393 54.2288 65.0641Z" fill="white"/>
<path d="M62.3137 45.5825C61.4431 45.3327 60.5724 44.9581 59.7018 44.4585C57.9605 43.4595 56.468 41.836 55.4729 40.2125C54.9754 39.3383 54.6023 38.4642 54.3535 37.59C54.1048 36.7158 54.1048 35.9665 54.2292 35.2172C54.6023 33.0942 56.468 32.22 59.0799 32.8444C59.9506 33.0942 60.8212 33.4688 61.6918 33.9684C64.3038 35.5918 66.4182 38.3393 67.1645 40.8369C67.4132 41.7111 67.4132 42.4604 67.2889 43.2097C67.0401 44.5834 66.1695 45.4576 64.8013 45.7074C63.9307 45.9571 63.1844 45.8322 62.3137 45.5825ZM59.3287 34.343C57.9605 33.9684 56.9655 34.2181 56.2192 34.8425C55.5973 35.467 55.3486 36.5909 55.7217 37.9646C56.0948 39.3383 56.9655 40.712 58.0849 41.836C59.2043 42.9599 60.6968 43.8341 61.9406 44.2088C63.3088 44.5834 64.3038 44.3336 65.0501 43.7092C65.6719 43.0848 65.9207 41.9609 65.5476 40.5872C65.1744 39.2135 64.3038 37.8397 63.1844 36.7158C61.9406 35.5918 60.5724 34.7177 59.3287 34.343Z" fill="white"/>
<path d="M60.6964 40.7121L63.4327 41.4614L63.8058 42.8352L62.0645 42.4605C62.1889 42.8352 62.3133 43.2098 62.4377 43.5845L61.0695 43.2098L60.8207 42.0859L59.0795 41.5863C58.9551 41.0868 58.8307 40.7121 58.7063 40.2126C58.7063 39.9628 58.8307 39.838 58.9551 39.7131C59.3282 39.2135 59.7013 38.714 60.0745 38.2145C60.1989 38.0896 60.3232 37.8398 60.572 37.715L57.96 36.9657L57.5869 35.5919L59.2038 35.9666L58.8307 34.9675L60.1989 35.3422L60.4476 36.4661L62.1889 36.9657C62.3133 37.4652 62.4377 37.8398 62.562 38.3394C62.562 38.5891 62.4377 38.714 62.3133 38.8389C61.9401 39.3384 61.567 39.838 61.1939 40.3375C60.9451 40.4624 60.8207 40.5873 60.6964 40.7121Z" fill="white"/>
<path d="M39.5524 47.7053L36.5673 49.2039L34.4529 41.3363L32.8359 42.0856L35.1991 50.7025C35.5723 51.9513 36.4429 52.4509 37.4379 51.9513L40.2986 50.4527C41.1693 50.0781 41.7912 48.4546 41.418 47.3307L39.1792 38.8386L37.5623 39.7128L39.5524 47.7053Z" fill="#036FF5"/>
<path d="M36.195 44.5834L37.8119 43.5843L36.5681 38.9636L34.9512 39.9627L36.195 44.5834Z" fill="#036FF5"/>
<path d="M52.1552 49.1521L50.748 47.7393L30.8719 67.6961L32.279 69.109L52.1552 49.1521Z" fill="#036FF5"/>
<path d="M86.119 42.9457L83.3926 40.2083L80.6662 42.9457L83.3926 45.6831L86.119 42.9457Z" fill="white"/>
<path d="M52.364 82.191L52.0879 78.7051L48.6161 78.9823L48.8922 82.4682L52.364 82.191Z" fill="#036FF5"/>
<path d="M19.3487 56.7377L20.1699 53.3396L16.7855 52.5151L15.9644 55.9132L19.3487 56.7377Z" fill="white"/>
<path d="M42.7595 17.8328L41.0361 16.8337L40.0411 18.5641L41.7645 19.5632L42.7595 17.8328Z" fill="white"/>
</svg>
