<svg width="108" height="108" viewBox="0 0 108 108" fill="none" xmlns="http://www.w3.org/2000/svg">
<g filter="url(#filter0_d)">
<path d="M70.2506 97.2637C65.0202 99.005 59.5408 100 54.0613 100C45.4685 100 36.8758 97.7612 29.4038 93.5323C26.415 91.7911 23.5507 89.801 20.9355 87.5622L22.5545 85.6965C25.0451 87.9353 27.7849 89.801 30.6491 91.4179C37.7475 95.398 45.8421 97.5125 54.0613 97.5125C59.2917 97.5125 64.5221 96.6418 69.5034 94.9005L70.2506 97.2637Z" fill="#003C84"/>
<path d="M84.9465 89.1794C83.0786 90.6719 81.086 92.0401 78.969 93.2839L77.7236 91.1694C79.7162 90.05 81.5842 88.6819 83.4521 87.3137L84.9465 89.1794Z" fill="#003C84"/>
<path d="M104 50.0002C104 58.7067 101.758 67.2888 97.3997 74.8759L95.2827 73.6321C99.3923 66.5425 101.509 58.3336 101.509 50.0002C101.509 23.7565 80.2142 2.48781 54.0623 2.48781C27.9103 2.48781 6.49066 23.7565 6.49066 50.0002C6.49066 55.7216 7.48692 61.443 9.47945 66.7913C10.4757 69.4032 11.721 72.0152 13.2154 74.5027L11.0984 75.7465C9.47945 73.1346 8.23412 70.3983 7.11332 67.6619C5.1208 61.9405 4 56.0948 4 50.0002C4 22.3883 26.4159 0.000244141 54.0623 0.000244141C81.5841 0.000244141 104 22.3883 104 50.0002Z" fill="#003C84"/>
<path d="M104 49.7515H101.509C101.509 23.6321 80.2139 2.48781 54.1865 2.48781V0.000244141C81.7083 0.000244141 104 22.3883 104 49.7515Z" fill="#036FF5"/>
<path d="M54.0629 7.83618C53.9383 7.83618 53.9383 7.83618 54.0629 7.83618C53.9383 7.83618 53.9383 7.83618 54.0629 7.83618C53.9383 7.83618 53.9383 7.83618 54.0629 7.83618C53.9383 7.83618 53.9383 7.83618 54.0629 7.83618C53.9383 7.83618 53.9383 7.83618 54.0629 7.83618C53.9383 7.83618 53.9383 7.83618 54.0629 7.83618C53.9383 7.83618 53.9383 7.83618 54.0629 7.83618C53.9383 7.83618 53.9383 7.83618 54.0629 7.83618C53.9383 7.83618 53.9383 7.83618 54.0629 7.83618C53.9383 7.83618 53.9383 7.83618 54.0629 7.83618C53.9383 7.83618 53.9383 7.83618 54.0629 7.83618C53.9383 7.83618 53.9383 7.83618 53.9383 7.83618C53.9383 7.83618 53.9383 7.83618 53.8138 7.83618H53.6893C53.5647 7.83618 53.4402 7.83618 53.3157 7.83618V9.07996C53.6893 9.07996 54.0629 9.07996 54.561 9.07996V7.83618H54.0629ZM49.0815 8.20932C48.7079 8.20932 48.3343 8.33369 47.8362 8.33369L47.9607 9.57747C48.3343 9.57747 48.7079 9.4531 49.2061 9.4531L49.0815 8.20932ZM44.1002 9.07996C43.9757 9.07996 43.8512 9.07996 43.7266 9.20434C43.6021 9.20434 43.4776 9.32872 43.353 9.32872L43.7266 10.5725C44.1002 10.4481 44.4738 10.3237 44.8474 10.3237L44.1002 9.07996ZM39.368 10.4481C39.2434 10.5725 38.9944 10.5725 38.8698 10.6969C38.7453 10.8213 38.4962 10.8213 38.3717 10.9456L38.8698 12.065C39.2434 11.9407 39.617 11.8163 39.9906 11.5675L39.368 10.4481ZM34.8848 12.4382C34.7602 12.4382 34.7602 12.5625 34.6357 12.5625C34.6357 12.5625 34.6357 12.5625 34.5112 12.5625C34.5112 12.5625 34.5112 12.5625 34.3866 12.5625C34.3866 12.5625 34.3866 12.5625 34.2621 12.5625C34.2621 12.5625 34.2621 12.5625 34.1376 12.5625C34.1376 12.5625 34.1376 12.5625 34.013 12.5625C34.013 12.5625 34.013 12.5625 33.8885 12.5625C33.764 12.5625 33.764 12.6869 33.6394 12.6869C33.6394 12.6869 33.6394 12.6869 33.5149 12.6869L34.1376 13.8063C34.5112 13.5576 34.8848 13.4332 35.2584 13.1844L34.8848 12.4382ZM30.5261 15.0501C30.1525 15.2989 29.7789 15.5476 29.5299 15.7964L30.2771 16.7914C30.6507 16.5426 30.8997 16.2939 31.2733 16.0451L30.5261 15.0501ZM26.5411 18.0352C26.5411 18.1596 26.5411 18.1596 26.5411 18.0352C26.5411 18.1596 26.5411 18.1596 26.5411 18.0352C26.4165 18.1596 26.4165 18.1596 26.5411 18.0352C26.4165 18.1596 26.4165 18.1596 26.5411 18.0352C26.4165 18.1596 26.4165 18.1596 26.4165 18.1596C26.1675 18.4083 25.9184 18.6571 25.6693 18.9058L26.5411 19.7765C26.7901 19.5277 27.1637 19.279 27.4128 19.0302L26.5411 18.0352ZM23.0541 21.5178C22.8051 21.7665 22.6805 21.8909 22.4315 22.1397C22.3069 22.264 22.3069 22.264 22.1824 22.3884L23.1787 23.2591C23.4277 23.0103 23.6768 22.6372 23.9259 22.3884L23.0541 21.5178ZM19.8163 25.3735C19.6917 25.4979 19.5672 25.6222 19.5672 25.7466C19.4427 25.871 19.4427 25.9954 19.3182 25.9954L20.3144 26.7417C20.5635 26.3685 20.8125 26.1198 21.0616 25.7466L19.8163 25.3735ZM17.2011 29.478C17.2011 29.6024 17.2011 29.6024 17.2011 29.478C17.0766 29.6024 17.0766 29.6024 17.2011 29.478C17.0766 29.6024 17.0766 29.6024 17.2011 29.478C17.0766 29.6024 17.0766 29.6024 17.2011 29.478C17.0766 29.6024 17.0766 29.6024 17.2011 29.478C17.0766 29.6024 17.0766 29.6024 17.2011 29.478C17.0766 29.6024 17.0766 29.6024 17.2011 29.478C17.0766 29.6024 17.0766 29.6023 17.0766 29.6023C17.0766 29.7267 16.952 29.7267 16.952 29.8511C16.8275 29.9755 16.8275 30.2242 16.703 30.3486L17.8238 30.9705C17.9483 30.5974 18.1974 30.2242 18.4464 29.8511L17.2011 29.478ZM14.9595 33.9556C14.9595 34.08 14.835 34.2043 14.835 34.4531C14.7104 34.7019 14.7104 34.8262 14.5859 35.075L15.7067 35.5725C15.8312 35.1994 15.9558 34.8262 16.2048 34.4531L14.9595 33.9556ZM13.4651 38.6819C13.3406 39.0551 13.216 39.4282 13.0915 39.9257L14.3368 40.1745C14.4614 39.8014 14.5859 39.4282 14.5859 39.0551L13.4651 38.6819ZM12.3443 43.5327C12.3443 43.7815 12.2198 44.1546 12.2198 44.4033C12.2198 44.5277 12.2198 44.5277 12.2198 44.6521L13.4651 44.7765C13.4651 44.4033 13.5896 44.0302 13.5896 43.5327H12.3443ZM11.9707 48.5078C11.9707 48.881 11.9707 49.2541 11.9707 49.6272H13.216C13.216 49.2541 13.216 48.881 13.216 48.3834L11.9707 48.5078ZM13.216 53.3586L11.9707 53.4829C11.9707 53.4829 11.9707 53.4829 11.9707 53.6073C11.9707 53.6073 11.9707 53.6073 11.9707 53.7317C11.9707 53.8561 11.9707 53.9805 11.9707 54.2292L13.216 54.1048C13.3406 54.2292 13.3406 53.8561 13.216 53.3586ZM13.9632 58.2093L12.7179 58.4581C12.8424 58.8312 12.8424 59.08 12.967 59.4531L14.2123 59.2043C14.0878 58.9556 14.0878 58.5824 13.9632 58.2093ZM15.2086 62.8113L13.9632 63.1844C14.0878 63.4332 14.0878 63.6819 14.2123 63.8063C14.2123 63.9307 14.2123 63.9307 14.3368 64.0551L15.4576 63.6819C15.4576 63.5576 15.3331 63.1844 15.2086 62.8113ZM16.952 67.2889L15.8312 67.7864C15.8312 67.7864 15.8312 67.7864 15.8312 67.9108C15.8312 68.0352 15.9558 68.1596 15.9558 68.2839L17.0766 67.662C17.3256 68.0352 17.2011 67.662 16.952 67.2889ZM19.3182 71.5178L18.3219 72.1397C18.3219 72.1397 18.3219 72.1397 18.3219 72.264C18.4464 72.5128 18.6955 72.7616 18.82 73.0103L19.8163 72.264C19.6917 72.264 19.5672 71.8909 19.3182 71.5178ZM22.0579 75.4979L21.0616 76.2441C21.1861 76.3685 21.1861 76.3685 21.3107 76.4929C21.4352 76.6173 21.5597 76.866 21.8088 76.9904L22.8051 76.2441C22.556 76.1198 22.3069 75.7466 22.0579 75.4979ZM25.2957 79.1048L24.424 79.9755C24.6731 80.2242 24.7976 80.3486 25.0467 80.5974L25.1712 80.7217L26.0429 79.8511C25.9184 79.6023 25.6693 79.3536 25.2957 79.1048ZM29.0317 82.2143L28.2845 83.2093L28.4091 83.3337C28.6581 83.5824 28.9072 83.7068 29.1563 83.9556L29.9035 82.9605C29.6544 82.7118 29.2808 82.463 29.0317 82.2143ZM33.0168 84.9506L32.3941 86.07L32.5186 86.1944C32.7677 86.3188 33.0168 86.5675 33.2658 86.6919L33.8885 85.5725C33.6394 85.3237 33.2658 85.1994 33.0168 84.9506ZM37.2509 87.1894L36.7528 88.3088C36.7528 88.3088 36.8773 88.3088 36.8773 88.4332C36.8773 88.4332 36.8773 88.4332 37.0018 88.4332C37.0018 88.4332 37.0018 88.4332 37.1264 88.4332C37.3754 88.5576 37.5 88.5576 37.749 88.6819L38.2472 87.5625C37.9981 87.5625 37.6245 87.4382 37.2509 87.1894ZM41.7341 88.9307L41.3605 90.1745H41.485C41.485 90.1745 41.485 90.1745 41.6096 90.1745C41.8586 90.1745 41.9832 90.2989 42.2322 90.2989L42.6058 89.0551C42.4813 89.1795 42.1077 89.0551 41.7341 88.9307ZM46.4663 90.0501L46.2173 91.2939C46.3418 91.2939 46.4663 91.2939 46.5909 91.2939C46.5909 91.2939 46.5909 91.2939 46.7154 91.2939C46.8399 91.2939 47.089 91.2939 47.2135 91.4183L47.4626 90.1745C47.2135 90.2989 46.8399 90.1745 46.4663 90.0501ZM51.1986 90.672L51.0741 91.9158C51.1986 91.9158 51.3231 91.9158 51.4477 91.9158C51.6967 91.9158 51.9458 91.9158 52.3194 91.9158V90.672C52.0703 90.7964 51.6967 90.672 51.1986 90.672ZM57.3007 90.672C56.9271 90.672 56.5535 90.672 56.0554 90.7964V92.0401C56.429 92.0401 56.8026 92.0402 57.1762 91.9158L57.3007 90.672ZM62.033 90.0501C61.6594 90.1745 61.2858 90.1745 60.7876 90.2989L61.0367 91.5426C61.4103 91.4183 61.7839 91.4183 62.282 91.2939L62.033 90.0501ZM66.7652 88.8063C66.3916 88.9307 66.018 89.0551 65.6444 89.1795L66.018 90.4232C66.1426 90.4232 66.3916 90.2989 66.5162 90.2989C66.7652 90.2989 66.8898 90.1745 67.1388 90.0501L66.7652 88.8063ZM71.2484 87.065C70.8748 87.1894 70.5012 87.4382 70.1276 87.5625L70.6257 88.6819C70.7503 88.6819 70.7503 88.5576 70.8748 88.5576C71.1239 88.4332 71.2484 88.3088 71.4975 88.3088L71.2484 87.065ZM75.4825 84.7018C75.1089 84.9506 74.7353 85.075 74.4863 85.3237L75.1089 86.4431C75.2335 86.3188 75.358 86.3188 75.4825 86.1944H75.6071L75.4825 84.7018ZM79.4676 81.9655C79.094 82.2143 78.8449 82.463 78.4713 82.7118L79.2185 83.7068C79.3431 83.5825 79.4676 83.5824 79.5921 83.4581C79.7167 83.3337 79.7167 83.3337 79.8412 83.2093L79.4676 81.9655ZM83.079 78.7317C82.83 78.9805 82.4564 79.3536 82.2073 79.6023L83.079 80.473V78.7317ZM86.1924 75.1247C85.9433 75.4979 85.6942 75.7466 85.4452 76.1198L86.4414 76.866C86.566 76.7416 86.6905 76.4929 86.9396 76.3685C87.0641 76.2441 87.0641 76.1198 87.1886 75.9954L86.1924 75.1247ZM88.9321 71.1446C88.683 71.5178 88.5585 71.8909 88.3094 72.1397L89.3057 72.7616C89.3057 72.6372 89.4302 72.6372 89.4302 72.5128C89.5548 72.264 89.6793 72.0153 89.9284 71.7665L88.9321 71.1446ZM91.2982 66.9158C91.1737 67.2889 90.9246 67.662 90.8001 68.0352L91.9209 68.5327C92.0454 68.1596 92.2945 67.7864 92.419 67.4133L91.2982 66.9158ZM93.0417 62.4382C92.9172 62.8113 92.7926 63.1844 92.6681 63.5576L93.7889 63.9307C93.7889 63.8063 93.9134 63.6819 93.9134 63.4332C93.9134 63.3088 94.0379 63.1844 94.0379 63.0601L93.0417 62.4382ZM94.1625 57.7118C94.0379 58.0849 94.0379 58.4581 93.9134 58.8312L95.1587 59.08C95.1587 58.9556 95.2833 58.8312 95.2833 58.5824C95.2833 58.4581 95.2833 58.3337 95.4078 58.2093L94.1625 57.7118ZM94.7851 52.8611C94.7851 53.2342 94.6606 53.6073 94.6606 54.1048L95.9059 54.2292C95.9059 53.8561 96.0305 53.3586 96.0305 52.9854L94.7851 52.8611ZM96.155 48.0103H94.9097C94.9097 48.3834 94.9097 48.7566 94.9097 49.2541H96.155C96.155 49.0053 96.155 48.7566 96.155 48.3834C96.155 48.1347 96.155 48.1347 96.155 48.0103C96.155 48.1347 96.155 48.1347 96.155 48.0103C96.155 48.1347 96.155 48.1347 96.155 48.0103C96.155 48.1347 96.155 48.1347 96.155 48.0103ZM95.6569 43.0352L94.4115 43.2839C94.5361 43.6571 94.5361 44.0302 94.5361 44.5277L95.7814 44.4033C95.7814 43.9058 95.6569 43.5327 95.6569 43.0352C95.6569 43.1596 95.6569 43.1596 95.6569 43.0352C95.6569 43.1596 95.6569 43.1596 95.6569 43.0352C95.6569 43.1596 95.6569 43.1596 95.6569 43.0352C95.6569 43.1596 95.6569 43.1596 95.6569 43.0352C95.6569 43.1596 95.6569 43.1596 95.6569 43.0352C95.6569 43.1596 95.6569 43.1596 95.6569 43.0352C95.6569 43.1596 95.6569 43.1596 95.6569 43.0352C95.6569 43.1596 95.6569 43.1596 95.6569 43.0352C95.6569 43.1596 95.6569 43.1596 95.6569 43.0352C95.6569 43.1596 95.6569 43.1596 95.6569 43.0352C95.6569 43.1596 95.6569 43.1596 95.6569 43.0352ZM94.5361 38.1844L93.2907 38.5576C93.4153 38.9307 93.5398 39.3038 93.6643 39.677L94.9097 39.4282C94.7851 39.0551 94.6606 38.682 94.5361 38.1844ZM92.7926 33.5824L91.6718 34.08C91.7964 34.4531 91.9209 34.8262 92.17 35.1994L93.2907 34.7018C93.2907 34.5775 93.1662 34.4531 93.1662 34.2043C93.0417 33.9556 92.9172 33.8312 92.7926 33.5824ZM90.6756 29.1048L89.5548 29.7267C89.8038 30.0999 89.9284 30.473 90.1774 30.7218L91.2982 30.0999C91.0492 29.8511 90.8001 29.478 90.6756 29.1048ZM87.9358 24.876L86.9396 25.6222C87.1886 25.9954 87.4377 26.2441 87.6868 26.6173L88.683 25.871C88.5585 25.6222 88.434 25.4979 88.1849 25.2491C88.0604 25.1247 87.9358 25.0004 87.9358 24.876ZM84.698 21.1446L83.8262 22.0153C84.0753 22.264 84.3244 22.6372 84.698 22.8859L85.5697 22.0153C85.3206 21.7665 84.947 21.3934 84.698 21.1446ZM81.0865 17.6621L80.3393 18.6571C80.5884 18.9058 80.962 19.1546 81.211 19.4033L82.0828 18.5327C81.7092 18.1596 81.3356 17.9108 81.0865 17.6621ZM77.1015 14.8014L76.4788 15.7964C76.8524 16.0451 77.1015 16.2939 77.4751 16.4183L78.2223 15.4232C77.3505 14.9257 77.226 14.8014 77.1015 14.8014ZM72.7428 12.3138L72.2447 13.4332C72.6183 13.5576 72.9919 13.8063 73.3655 13.9307L73.9881 12.8113C73.8636 12.6869 73.6145 12.5625 73.49 12.5625C72.9919 12.4382 72.8673 12.3138 72.7428 12.3138C72.8673 12.3138 72.8673 12.3138 72.7428 12.3138C72.8673 12.3138 72.8673 12.3138 72.7428 12.3138ZM68.1351 10.3237L67.7615 11.4431C68.1351 11.5675 68.5087 11.6919 68.8823 11.8163L69.3804 10.6969C69.0068 10.5725 68.6332 10.4481 68.1351 10.3237ZM63.4028 8.95558L63.1538 10.1994C63.5274 10.3237 63.901 10.3237 64.2746 10.4481L64.6482 9.20434C64.2746 9.07996 64.0255 9.07996 63.6519 8.95558C63.5274 8.95558 63.5274 8.95558 63.4028 8.95558C63.5274 8.95558 63.5274 8.95558 63.4028 8.95558C63.5274 8.95558 63.5274 8.95558 63.4028 8.95558C63.5274 8.95558 63.5274 8.95558 63.4028 8.95558C63.5274 8.95558 63.5274 8.95558 63.4028 8.95558C63.5274 8.95558 63.4028 8.95558 63.4028 8.95558ZM58.546 8.08494L58.4215 9.32872C58.7951 9.32872 59.1687 9.4531 59.6668 9.4531L59.7914 8.20932C59.5423 8.20932 59.2932 8.08494 59.0442 8.08494C58.6706 8.08494 58.6706 8.08494 58.546 8.08494C58.6706 8.08494 58.546 8.08494 58.546 8.08494ZM54.0629 7.83618V9.07996C54.3119 9.07996 54.561 9.07996 54.8101 9.07996V7.83618C54.6855 7.83618 54.561 7.83618 54.4365 7.83618C54.1874 7.83618 54.1874 7.83618 54.0629 7.83618C54.1874 7.83618 54.1874 7.83618 54.0629 7.83618C54.1874 7.83618 54.0629 7.83618 54.0629 7.83618Z" fill="#489BFD"/>
<path d="M53.8134 82.8363C72.3833 82.8363 87.4373 67.8011 87.4373 49.2542C87.4373 30.7073 72.3833 15.6721 53.8134 15.6721C35.2434 15.6721 20.1895 30.7073 20.1895 49.2542C20.1895 67.8011 35.2434 82.8363 53.8134 82.8363Z" fill="#00225E"/>
<path d="M82.4555 29.3535V69.1545H25.1703V29.3535H82.4555ZM84.9462 26.866H22.6797V71.6421H84.9462V26.866Z" fill="#036FF5"/>
<path d="M77.7234 21.8909H27.9102V24.3784H77.7234V21.8909Z" fill="white"/>
<path d="M77.7234 74.1296H27.9102V76.6172H77.7234V74.1296Z" fill="white"/>
<path d="M33.6385 42.0401V47.0152H31.1479V42.0401H33.6385ZM36.1292 39.5525H28.6572V49.5027H36.1292V39.5525Z" fill="#036FF5"/>
<path d="M33.6391 34.3286H31.1484V40.7963H33.6391V34.3286Z" fill="#036FF5"/>
<path d="M33.6391 48.0103H31.1484V54.4779H33.6391V48.0103Z" fill="#036FF5"/>
<path d="M45.0956 51.6172V53.2341H42.6049V51.6172H45.0956ZM47.5862 49.1296H40.1143V55.7217H47.5862V49.1296Z" fill="white"/>
<path d="M45.0961 46.1445H42.6055V50.3734H45.0961V46.1445Z" fill="white"/>
<path d="M45.0961 54.7266H42.6055V63.9305H45.0961V54.7266Z" fill="white"/>
<path d="M56.0546 40.6719V53.856H53.5639V40.6719H56.0546ZM58.5452 38.1843H51.0732V56.3435H58.5452V38.1843Z" fill="#036FF5"/>
<path d="M56.0541 31.9653H53.5635V39.5524H56.0541V31.9653Z" fill="#036FF5"/>
<path d="M56.0541 53.3584H53.5635V62.8111H56.0541V53.3584Z" fill="#036FF5"/>
<path d="M66.6395 53.856V58.8311H64.1489V53.856H66.6395ZM69.1302 51.3684H61.6582V61.3187H69.1302V51.3684Z" fill="white"/>
<path d="M66.6401 46.1445H64.1494V52.6122H66.6401V46.1445Z" fill="white"/>
<path d="M66.6401 59.8262H64.1494V66.2938H66.6401V59.8262Z" fill="white"/>
<path d="M76.6024 44.4031V50.9951H74.1118V44.4031H76.6024ZM79.0931 41.9155H71.6211V53.4827H79.0931V41.9155Z" fill="white"/>
<path d="M76.603 37.5623H74.1123V43.2836H76.603V37.5623Z" fill="white"/>
<path d="M76.603 52.6123H74.1123V56.2193H76.603V52.6123Z" fill="white"/>
</g>
<defs>
<filter id="filter0_d" x="0" y="0.000244141" width="108" height="108" filterUnits="userSpaceOnUse" color-interpolation-filters="sRGB">
<feFlood flood-opacity="0" result="BackgroundImageFix"/>
<feColorMatrix in="SourceAlpha" type="matrix" values="0 0 0 0 0 0 0 0 0 0 0 0 0 0 0 0 0 0 127 0"/>
<feOffset dy="4"/>
<feGaussianBlur stdDeviation="2"/>
<feColorMatrix type="matrix" values="0 0 0 0 0 0 0 0 0 0 0 0 0 0 0 0 0 0 0.25 0"/>
<feBlend mode="normal" in2="BackgroundImageFix" result="effect1_dropShadow"/>
<feBlend mode="normal" in="SourceGraphic" in2="effect1_dropShadow" result="shape"/>
</filter>
</defs>
</svg>
