<svg width="100" height="100" viewBox="0 0 100 100" fill="none" xmlns="http://www.w3.org/2000/svg">
<path d="M2.73632 66.2518C0.870647 61.0214 0 55.542 0 50.0625C0 41.4698 2.23881 32.877 6.46766 25.405C8.20895 22.4162 10.199 19.552 12.4378 16.9368L14.3035 18.5557C12.0647 21.0464 10.199 23.7861 8.58209 26.6503C4.60199 33.7487 2.48756 41.8434 2.48756 50.0625C2.48756 55.2929 3.35821 60.5233 5.0995 65.5046L2.73632 66.2518Z" fill="#003C84"/>
<path d="M10.6963 80.9465C9.20374 79.0786 7.83558 77.086 6.5918 74.969L8.70622 73.7236C9.82563 75.7162 11.1938 77.5842 12.5619 79.4521L10.6963 80.9465Z" fill="#003C84"/>
<path d="M50.0002 100C41.2937 100 32.7116 97.7586 25.1246 93.4L26.3683 91.2829C33.4579 95.3925 41.6668 97.5096 50.0002 97.5096C76.1196 97.5096 97.5126 76.2144 97.5126 49.938C97.5126 23.6615 76.1196 2.4909 50.0002 2.4909C44.1544 2.4909 38.5574 3.48717 33.2091 5.4797C30.5972 6.47596 27.9852 7.72129 25.4977 9.21569L24.2539 7.09862C26.8658 5.4797 29.6022 4.23437 32.3385 3.11357C37.9355 1.12104 43.9056 0.000244141 50.0002 0.000244141C77.4877 0.000244141 100 22.4162 100 50.0625C100 77.7088 77.4877 100 50.0002 100Z" fill="#003C84"/>
<path d="M50.0001 83.6863C68.5469 83.6863 83.5821 68.6324 83.5821 50.0624C83.5821 31.4924 68.5469 16.4385 50.0001 16.4385C31.4532 16.4385 16.418 31.4924 16.418 50.0624C16.418 68.6324 31.4532 83.6863 50.0001 83.6863Z" fill="#00225E"/>
<path d="M50.124 100V97.5096C76.2434 97.5096 97.3877 76.2144 97.3877 50.187H99.8753C99.8753 77.7088 77.6116 100 50.124 100Z" fill="#036FF5"/>
<path d="M50.0007 7.84595C49.8764 7.84595 49.8764 7.84595 50.0007 7.84595C49.8764 7.84595 49.8764 7.84595 50.0007 7.84595C49.8764 7.84595 49.8764 7.84595 50.0007 7.84595C49.8764 7.84595 49.8764 7.84595 50.0007 7.84595C49.8764 7.84595 49.8764 7.84595 50.0007 7.84595C49.8764 7.84595 49.8764 7.84595 50.0007 7.84595C49.8764 7.84595 49.8764 7.84595 50.0007 7.84595C49.8764 7.84595 49.8764 7.84595 50.0007 7.84595C49.8764 7.84595 49.8764 7.84595 50.0007 7.84595C49.8764 7.84595 49.8764 7.84595 50.0007 7.84595C49.8764 7.84595 49.8764 7.84595 50.0007 7.84595C49.8764 7.84595 49.8764 7.84595 49.8764 7.84595C49.8764 7.84595 49.8764 7.84595 49.752 7.84595H49.6276C49.5032 7.84595 49.3788 7.84595 49.2545 7.84595V9.09128C49.6276 9.09128 50.0007 9.09128 50.4982 9.09128V7.84595H50.0007ZM45.0256 8.21955C44.6525 8.21955 44.2793 8.34408 43.7818 8.34408L43.9062 9.58941C44.2793 9.58941 44.6525 9.46488 45.15 9.46488L45.0256 8.21955ZM40.0505 9.09128C39.9261 9.09128 39.8017 9.09128 39.6774 9.21581C39.553 9.21581 39.4286 9.34034 39.3042 9.34034L39.6774 10.5857C40.0505 10.4611 40.4236 10.3366 40.7968 10.3366L40.0505 9.09128ZM35.3241 10.4611C35.1997 10.5857 34.951 10.5857 34.8266 10.7102C34.7022 10.8347 34.4535 10.8347 34.3291 10.9593L34.8266 12.0801C35.1997 11.9555 35.5729 11.831 35.946 11.5819L35.3241 10.4611ZM30.8465 12.4537C30.7221 12.4537 30.7221 12.5782 30.5978 12.5782C30.5978 12.5782 30.5978 12.5782 30.4734 12.5782C30.4734 12.5782 30.4734 12.5782 30.349 12.5782C30.349 12.5782 30.349 12.5782 30.2246 12.5782C30.2246 12.5782 30.2246 12.5782 30.1002 12.5782C30.1002 12.5782 30.1002 12.5782 29.9759 12.5782C29.9759 12.5782 29.9759 12.5782 29.8515 12.5782C29.7271 12.5782 29.7271 12.7027 29.6027 12.7027C29.6027 12.7027 29.6027 12.7027 29.4784 12.7027L30.1002 13.8235C30.4734 13.5745 30.8465 13.4499 31.2196 13.2009L30.8465 12.4537ZM26.4933 15.0689C26.1201 15.3179 25.747 15.567 25.4983 15.8161L26.2445 16.8123C26.6177 16.5633 26.8664 16.3142 27.2395 16.0651L26.4933 15.0689ZM22.5132 18.0577C22.5132 18.1822 22.5132 18.1822 22.5132 18.0577C22.5132 18.1822 22.5132 18.1822 22.5132 18.0577C22.3888 18.1822 22.3888 18.1822 22.5132 18.0577C22.3888 18.1822 22.3888 18.1822 22.5132 18.0577C22.3888 18.1822 22.3888 18.1822 22.3888 18.1822C22.14 18.4313 21.8913 18.6803 21.6425 18.9294L22.5132 19.8011C22.7619 19.552 23.1351 19.303 23.3838 19.0539L22.5132 18.0577ZM19.0306 21.5446C18.7818 21.7936 18.6575 21.9182 18.4087 22.1672C18.2843 22.2918 18.2843 22.2918 18.1599 22.4163L19.155 23.288C19.4037 23.039 19.6525 22.6654 19.9012 22.4163L19.0306 21.5446ZM15.7968 25.4051C15.6724 25.5296 15.548 25.6542 15.548 25.7787C15.4236 25.9032 15.4236 26.0278 15.2992 26.0278L16.2943 26.775C16.543 26.4014 16.7918 26.1523 17.0405 25.7787L15.7968 25.4051ZM13.1848 29.5147C13.1848 29.6392 13.1848 29.6392 13.1848 29.5147C13.0604 29.6392 13.0604 29.6392 13.1848 29.5147C13.0604 29.6392 13.0604 29.6392 13.1848 29.5147C13.0604 29.6392 13.0604 29.6392 13.1848 29.5147C13.0604 29.6392 13.0604 29.6392 13.1848 29.5147C13.0604 29.6392 13.0604 29.6392 13.1848 29.5147C13.0604 29.6392 13.0604 29.6392 13.1848 29.5147C13.0604 29.6392 13.0604 29.6392 13.0604 29.6392C13.0604 29.7638 12.9361 29.7638 12.9361 29.8883C12.8117 30.0128 12.8117 30.2619 12.6873 30.3864L13.8067 31.0091C13.9311 30.6355 14.1798 30.2619 14.4286 29.8883L13.1848 29.5147ZM10.946 33.9979C10.946 34.1224 10.8216 34.2469 10.8216 34.496C10.6973 34.7451 10.6973 34.8696 10.5729 35.1187L11.6923 35.6168C11.8167 35.2432 11.941 34.8696 12.1898 34.496L10.946 33.9979ZM9.45347 38.7301C9.3291 39.1037 9.20472 39.4773 9.08034 39.9755L10.3241 40.2245C10.4485 39.8509 10.5729 39.4773 10.5729 39.1037L9.45347 38.7301ZM8.33407 43.5869C8.33407 43.836 8.20969 44.2096 8.20969 44.4586C8.20969 44.5832 8.20969 44.5832 8.20969 44.7077L9.45347 44.8322C9.45347 44.4586 9.57785 44.085 9.57785 43.5869H8.33407ZM7.96094 48.5682C7.96094 48.9418 7.96094 49.3154 7.96094 49.689H9.20472C9.20472 49.3154 9.20472 48.9418 9.20472 48.4437L7.96094 48.5682ZM9.20472 53.425L7.96094 53.5496C7.96094 53.5496 7.96094 53.5496 7.96094 53.6741C7.96094 53.6741 7.96094 53.6741 7.96094 53.7986C7.96094 53.9232 7.96094 54.0477 7.96094 54.2968L9.20472 54.1722C9.3291 54.2968 9.3291 53.9232 9.20472 53.425ZM9.95099 58.2818L8.70721 58.5309C8.83158 58.9045 8.83158 59.1535 8.95596 59.5271L10.1997 59.2781C10.0754 59.029 10.0754 58.6554 9.95099 58.2818ZM11.1948 62.8895L9.95099 63.2631C10.0754 63.5122 10.0754 63.7613 10.1997 63.8858C10.1997 64.0103 10.1997 64.0103 10.3241 64.1349L11.4435 63.7613C11.4435 63.6367 11.3191 63.2631 11.1948 62.8895ZM12.9361 67.3727L11.8167 67.8709C11.8167 67.8709 11.8167 67.8708 11.8167 67.9954C11.8167 68.1199 11.941 68.2445 11.941 68.369L13.0604 67.7463C13.3092 68.1199 13.1848 67.7463 12.9361 67.3727ZM15.2992 71.6068L14.3042 72.2295C14.3042 72.2295 14.3042 72.2295 14.3042 72.354C14.4286 72.6031 14.6774 72.8522 14.8017 73.1012L15.7968 72.354C15.6724 72.354 15.548 71.9804 15.2992 71.6068ZM18.0356 75.5919L17.0405 76.3391C17.1649 76.4636 17.1649 76.4636 17.2893 76.5882C17.4137 76.7127 17.5381 76.9618 17.7868 77.0863L18.7818 76.3391C18.5331 76.2146 18.2843 75.841 18.0356 75.5919ZM21.2694 79.2034L20.3987 80.0751C20.6475 80.3242 20.7719 80.4487 21.0206 80.6978L21.145 80.8223L22.0157 79.9505C21.8913 79.7015 21.6425 79.4524 21.2694 79.2034ZM25.0007 82.3167L24.2545 83.313L24.3788 83.4375C24.6276 83.6865 24.8764 83.8111 25.1251 84.0601L25.8714 83.0639C25.6226 82.8148 25.2495 82.5657 25.0007 82.3167ZM28.9808 85.0564L28.3589 86.1772L28.4833 86.3017C28.7321 86.4263 28.9808 86.6753 29.2296 86.7999L29.8515 85.6791C29.6027 85.43 29.2296 85.3055 28.9808 85.0564ZM33.2097 87.298L32.7122 88.4188C32.7122 88.4188 32.8366 88.4188 32.8366 88.5433C32.8366 88.5433 32.8366 88.5433 32.9609 88.5433C32.9609 88.5433 32.9609 88.5433 33.0853 88.5433C33.3341 88.6679 33.4585 88.6679 33.7072 88.7924L34.2047 87.6716C33.956 87.6716 33.5828 87.5471 33.2097 87.298ZM37.6873 89.0415L37.3142 90.2868H37.4386C37.4386 90.2868 37.4386 90.2868 37.5629 90.2868C37.8117 90.2868 37.9361 90.4113 38.1848 90.4113L38.558 89.166C38.4336 89.2905 38.0604 89.166 37.6873 89.0415ZM42.4137 90.1623L42.1649 91.4076C42.2893 91.4076 42.4137 91.4076 42.5381 91.4076C42.5381 91.4076 42.5381 91.4076 42.6624 91.4076C42.7868 91.4076 43.0356 91.4076 43.1599 91.5321L43.4087 90.2868C43.1599 90.4113 42.7868 90.2868 42.4137 90.1623ZM47.14 90.7849L47.0157 92.0303C47.14 92.0303 47.2644 92.0303 47.3888 92.0303C47.6376 92.0303 47.8863 92.0303 48.2594 92.0303V90.7849C48.0107 90.9095 47.6376 90.7849 47.14 90.7849ZM53.2346 90.7849C52.8614 90.7849 52.4883 90.7849 51.9908 90.9095V92.1548C52.3639 92.1548 52.7371 92.1548 53.1102 92.0303L53.2346 90.7849ZM57.9609 90.1623C57.5878 90.2868 57.2147 90.2868 56.7172 90.4113L56.9659 91.6566C57.339 91.5321 57.7122 91.5321 58.2097 91.4076L57.9609 90.1623ZM62.6873 88.9169C62.3142 89.0415 61.941 89.166 61.5679 89.2905L61.941 90.5359C62.0654 90.5359 62.3142 90.4113 62.4385 90.4113C62.6873 90.4113 62.8117 90.2868 63.0604 90.1623L62.6873 88.9169ZM67.1649 87.1735C66.7918 87.298 66.4186 87.5471 66.0455 87.6716L66.543 88.7924C66.6674 88.7924 66.6674 88.6679 66.7918 88.6679C67.0405 88.5433 67.1649 88.4188 67.4137 88.4188L67.1649 87.1735ZM71.3938 84.8073C71.0206 85.0564 70.6475 85.1809 70.3987 85.43L71.0206 86.5508C71.145 86.4263 71.2694 86.4263 71.3938 86.3017H71.5182L71.3938 84.8073ZM75.3739 82.0676C75.0007 82.3167 74.752 82.5658 74.3788 82.8148L75.1251 83.8111C75.2495 83.6865 75.3739 83.6865 75.4983 83.562C75.6226 83.4375 75.6226 83.4375 75.747 83.313L75.3739 82.0676ZM78.9808 78.8298C78.7321 79.0788 78.3589 79.4524 78.1102 79.7015L78.9808 80.5732V78.8298ZM82.0903 75.2183C81.8415 75.5919 81.5928 75.841 81.344 76.2146L82.339 76.9618C82.4634 76.8372 82.5878 76.5882 82.8366 76.4636C82.9609 76.3391 82.9609 76.2146 83.0853 76.09L82.0903 75.2183ZM84.8266 71.2332C84.5779 71.6068 84.4535 71.9804 84.2047 72.2295L85.1997 72.8522C85.1997 72.7276 85.3241 72.7276 85.3241 72.6031C85.4485 72.354 85.5729 72.105 85.8216 71.8559L84.8266 71.2332ZM87.1898 66.9991C87.0654 67.3727 86.8167 67.7463 86.6923 68.1199L87.8117 68.618C87.9361 68.2444 88.1848 67.8709 88.3092 67.4973L87.1898 66.9991ZM88.9311 62.5159C88.8067 62.8895 88.6823 63.2631 88.5579 63.6367L89.6774 64.0103C89.6774 63.8858 89.8017 63.7613 89.8017 63.5122C89.8017 63.3877 89.9261 63.2631 89.9261 63.1386L88.9311 62.5159ZM90.0505 57.7837C89.9261 58.1573 89.9261 58.5309 89.8017 58.9045L91.0455 59.1535C91.0455 59.029 91.1699 58.9045 91.1699 58.6554C91.1699 58.5309 91.1699 58.4063 91.2943 58.2818L90.0505 57.7837ZM90.6724 52.9269C90.6724 53.3005 90.548 53.6741 90.548 54.1722L91.7918 54.2968C91.7918 53.9232 91.9162 53.425 91.9162 53.0514L90.6724 52.9269ZM92.0405 48.0701H90.7968C90.7968 48.4437 90.7968 48.8173 90.7968 49.3154H92.0405C92.0405 49.0664 92.0405 48.8173 92.0405 48.4437C92.0405 48.1946 92.0405 48.1946 92.0405 48.0701C92.0405 48.1946 92.0405 48.1946 92.0405 48.0701C92.0405 48.1946 92.0405 48.1946 92.0405 48.0701C92.0405 48.1946 92.0405 48.1946 92.0405 48.0701ZM91.543 43.0888L90.2992 43.3379C90.4236 43.7115 90.4236 44.085 90.4236 44.5832L91.6674 44.4586C91.6674 43.9605 91.543 43.5869 91.543 43.0888C91.543 43.2133 91.543 43.2133 91.543 43.0888C91.543 43.2133 91.543 43.2133 91.543 43.0888C91.543 43.2133 91.543 43.2133 91.543 43.0888C91.543 43.2133 91.543 43.2133 91.543 43.0888C91.543 43.2133 91.543 43.2133 91.543 43.0888C91.543 43.2133 91.543 43.2133 91.543 43.0888C91.543 43.2133 91.543 43.2133 91.543 43.0888C91.543 43.2133 91.543 43.2133 91.543 43.0888C91.543 43.2133 91.543 43.2133 91.543 43.0888C91.543 43.2133 91.543 43.2133 91.543 43.0888C91.543 43.2133 91.543 43.2133 91.543 43.0888ZM90.4236 38.232L89.1798 38.6056C89.3042 38.9792 89.4286 39.3528 89.553 39.7264L90.7968 39.4773C90.6724 39.1037 90.548 38.7301 90.4236 38.232ZM88.6823 33.6243L87.5629 34.1224C87.6873 34.496 87.8117 34.8696 88.0604 35.2432L89.1798 34.7451C89.1798 34.6205 89.0555 34.496 89.0555 34.2469C88.9311 33.9979 88.8067 33.8733 88.6823 33.6243ZM86.5679 29.1411L85.4485 29.7638C85.6973 30.1374 85.8216 30.511 86.0704 30.76L87.1898 30.1374C86.941 29.8883 86.6923 29.5147 86.5679 29.1411ZM83.8316 24.907L82.8366 25.6542C83.0853 26.0278 83.3341 26.2768 83.5828 26.6504L84.5779 25.9032C84.4535 25.6542 84.3291 25.5296 84.0803 25.2806C83.956 25.156 83.8316 25.0315 83.8316 24.907ZM80.5978 21.171L79.7271 22.0427C79.9759 22.2918 80.2246 22.6654 80.5978 22.9144L81.4684 22.0427C81.2196 21.7936 80.8465 21.42 80.5978 21.171ZM76.9908 17.6841L76.2445 18.6803C76.4933 18.9294 76.8664 19.1785 77.1152 19.4275L77.9858 18.5558C77.6127 18.1822 77.2395 17.9331 76.9908 17.6841ZM73.0107 14.8198L72.3888 15.8161C72.7619 16.0651 73.0107 16.3142 73.3838 16.4387L74.1301 15.4425C73.2594 14.9443 73.1351 14.8198 73.0107 14.8198ZM68.6575 12.3291L68.1599 13.4499C68.5331 13.5745 68.9062 13.8235 69.2793 13.9481L69.9012 12.8273C69.7769 12.7027 69.5281 12.5782 69.4037 12.5782C68.9062 12.4537 68.7818 12.3291 68.6575 12.3291C68.7818 12.3291 68.7818 12.3291 68.6575 12.3291C68.7818 12.3291 68.7818 12.3291 68.6575 12.3291ZM64.0555 10.3366L63.6823 11.4574C64.0555 11.5819 64.4286 11.7065 64.8017 11.831L65.2992 10.7102C64.9261 10.5857 64.553 10.4611 64.0555 10.3366ZM59.3291 8.96674L59.0803 10.2121C59.4535 10.3366 59.8266 10.3366 60.1997 10.4611L60.5729 9.21581C60.1997 9.09128 59.951 9.09128 59.5779 8.96674C59.4535 8.96674 59.4535 8.96674 59.3291 8.96674C59.4535 8.96674 59.4535 8.96674 59.3291 8.96674C59.4535 8.96674 59.4535 8.96674 59.3291 8.96674C59.4535 8.96674 59.4535 8.96674 59.3291 8.96674C59.4535 8.96674 59.4535 8.96674 59.3291 8.96674C59.4535 8.96674 59.3291 8.96674 59.3291 8.96674ZM54.4783 8.09501L54.354 9.34034C54.7271 9.34034 55.1002 9.46488 55.5978 9.46488L55.7221 8.21955C55.4734 8.21955 55.2246 8.09501 54.9759 8.09501C54.6027 8.09501 54.6027 8.09501 54.4783 8.09501C54.6027 8.09501 54.4783 8.09501 54.4783 8.09501ZM50.0007 7.84595V9.09128C50.2495 9.09128 50.4982 9.09128 50.747 9.09128V7.84595C50.6226 7.84595 50.4982 7.84595 50.3739 7.84595C50.1251 7.84595 50.1251 7.84595 50.0007 7.84595C50.1251 7.84595 50.1251 7.84595 50.0007 7.84595C50.1251 7.84595 50.0007 7.84595 50.0007 7.84595Z" fill="#489BFD"/>
<path d="M78.6075 56.9117H71.2692V54.421H76.1199V22.0424H23.8811V54.421H38.9309V56.9117H21.3936V19.5518H78.6075V56.9117Z" fill="#036FF5"/>
<path d="M23.8799 32.0051V29.5145C27.9844 29.5145 31.3426 26.1521 31.3426 22.0425H33.8301C33.8301 27.5219 29.3525 32.0051 23.8799 32.0051Z" fill="#036FF5"/>
<path d="M76.2432 32.0051C70.7706 32.0051 66.293 27.5219 66.293 22.0425H68.7805C68.7805 26.1521 72.1387 29.5145 76.2432 29.5145V32.0051Z" fill="#036FF5"/>
<path d="M68.7805 53.4249L66.293 53.0513C67.0392 48.1945 71.2681 44.583 76.1188 44.583V47.0737C72.5119 47.0737 69.278 49.8134 68.7805 53.4249Z" fill="#036FF5"/>
<path d="M33.7061 54.5456H31.2185C31.2185 50.4361 27.8603 47.0737 23.7559 47.0737V44.583C29.2285 44.583 33.7061 49.0662 33.7061 54.5456Z" fill="#036FF5"/>
<path d="M50.3727 28.3938H50.2483C49.7508 28.3938 49.6264 28.5183 49.6264 29.0165C49.6264 29.2655 49.6264 29.5146 49.6264 29.7637C49.6264 30.5109 49.6264 30.5109 48.8801 30.7599C47.2632 31.3826 46.2682 32.5034 46.1438 34.2469C46.0194 35.8658 46.8901 36.862 48.1339 37.7338C48.8801 38.2319 49.8752 38.481 50.6214 38.8546C50.9946 38.9791 51.2433 39.2282 51.4921 39.3527C52.3627 39.9754 52.114 41.2207 51.2433 41.5943C50.8702 41.7188 50.4971 41.8434 49.9995 41.8434C49.8752 41.8434 49.7508 41.8434 49.502 41.8434C48.6314 41.7188 47.7607 41.4698 47.0145 41.0962C46.8901 40.9716 46.7657 40.9716 46.6413 40.9716C46.517 40.9716 46.3926 41.0962 46.2682 41.4698C46.1438 41.8434 46.0194 42.3415 45.8951 42.7151C45.7707 43.3378 45.7707 43.4623 46.3926 43.7114C47.1388 44.085 47.8851 44.2095 48.6314 44.334C49.2533 44.4586 49.2533 44.4586 49.2533 45.0812C49.2533 45.3303 49.2533 45.7039 49.2533 45.953C49.2533 46.3266 49.3777 46.5756 49.7508 46.5756C49.9995 46.5756 50.1239 46.5756 50.3727 46.5756C50.6214 46.5756 50.8702 46.5756 51.1189 46.5756C51.4921 46.5756 51.6165 46.3266 51.6165 46.0775C51.6165 45.7039 51.6165 45.3303 51.6165 44.9567C51.6165 44.5831 51.7408 44.334 52.114 44.2095C52.9846 43.9604 53.7309 43.4623 54.3528 42.8396C55.9697 40.8471 55.3478 37.9828 53.109 36.7375C52.3627 36.3639 51.6165 35.9903 50.8702 35.7412C50.4971 35.6167 49.9995 35.3676 49.6264 35.1186C48.8801 34.4959 49.0045 33.6242 49.8752 33.2506C50.1239 33.1261 50.3727 33.1261 50.6214 33.1261C50.7458 33.1261 50.8702 33.1261 50.9946 33.1261C51.8652 33.1261 52.7359 33.2506 53.4821 33.7487C53.6065 33.8733 53.7309 33.8733 53.8553 33.8733C53.9796 33.8733 54.104 33.7487 54.2284 33.4997C54.3528 33.0015 54.4772 32.5034 54.6015 32.0053C54.7259 31.6317 54.6015 31.5071 54.2284 31.2581C53.6065 31.009 53.109 30.8845 52.4871 30.7599C51.7408 30.6354 51.7408 30.6354 51.7408 29.8882C51.7408 28.7674 51.7408 28.7674 50.6214 28.7674C50.6214 28.3938 50.4971 28.3938 50.3727 28.3938Z" fill="#036FF5"/>
<path d="M30.2241 60.2741H23.8809V54.7947H26.3684V57.7835H30.2241V60.2741Z" fill="#036FF5"/>
<path d="M76.1193 60.2741H71.2686V57.7835H73.6317V54.7947H76.1193V60.2741Z" fill="#036FF5"/>
<path d="M45.6471 66.5011C44.279 66.7502 42.7864 66.7502 41.2939 66.7502C34.7019 66.7502 27.6123 64.5086 27.6123 60.5235C27.6123 56.5385 34.7019 54.2969 41.2939 54.2969C42.7864 54.2969 44.1546 54.4214 45.6471 54.5459V57.0366C44.4033 56.7875 42.9108 56.663 41.2939 56.663C34.4531 56.663 30.0999 58.9046 30.0999 60.399C30.0999 61.8934 34.4531 64.135 41.2939 64.135C42.9108 64.135 44.279 64.0105 45.6471 63.7614V66.5011Z" fill="white"/>
<path d="M30.0999 60.6482H27.6123V68.2447H30.0999V60.6482Z" fill="white"/>
<path d="M46.8909 73.9731C45.1496 74.3467 43.1596 74.4713 41.2939 74.4713C34.7019 74.4713 27.6123 72.2297 27.6123 68.2446H30.0999C30.0999 69.739 34.4531 71.9806 41.2939 71.9806C42.9108 71.9806 44.279 71.8561 45.6471 71.607L46.8909 73.9731Z" fill="white"/>
<path d="M58.0849 63.263C51.4929 63.263 44.4033 61.0214 44.4033 57.0364H46.8909C46.8909 58.5308 51.2441 60.7724 58.0849 60.7724C64.9257 60.7724 69.2789 58.5308 69.2789 57.0364H71.7665C71.7665 61.0214 64.8013 63.263 58.0849 63.263Z" fill="white"/>
<path d="M58.0849 55.7912C51.4929 55.7912 44.4033 53.5496 44.4033 49.5645C44.4033 45.5795 51.4929 43.3379 58.0849 43.3379C64.677 43.3379 71.7665 45.5795 71.7665 49.5645C71.7665 53.5496 64.8013 55.7912 58.0849 55.7912ZM58.0849 45.8286C51.2441 45.8286 46.8909 48.0701 46.8909 49.5645C46.8909 51.0589 51.2441 53.3005 58.0849 53.3005C64.9257 53.3005 69.2789 51.0589 69.2789 49.5645C69.2789 48.0701 64.9257 45.8286 58.0849 45.8286Z" fill="white"/>
<path d="M46.8909 49.4397H44.4033V57.0362H46.8909V49.4397Z" fill="white"/>
<path d="M71.7669 49.4397H69.2793V57.0362H71.7669V49.4397Z" fill="white"/>
<path d="M46.8909 57.0364H44.4033V64.6329H46.8909V57.0364Z" fill="white"/>
<path d="M71.7669 57.0364H69.2793V64.6329H71.7669V57.0364Z" fill="white"/>
<path d="M46.8909 64.6331C46.8909 66.1275 51.2441 68.369 58.0849 68.369C64.9257 68.369 69.2789 66.1275 69.2789 64.6331H71.7665C71.7665 68.6181 64.677 70.8597 58.0849 70.8597C51.4929 70.8597 44.4033 68.6181 44.4033 64.6331H46.8909Z" fill="white"/>
<path d="M46.8909 64.5083H44.4033V72.1048H46.8909V64.5083Z" fill="white"/>
<path d="M71.7669 64.5083H69.2793V72.1048H71.7669V64.5083Z" fill="white"/>
<path d="M46.8909 72.105C46.8909 73.5994 51.2441 75.841 58.0849 75.841C64.9257 75.841 69.2789 73.5994 69.2789 72.105H71.7665C71.7665 76.09 64.677 78.3316 58.0849 78.3316C51.4929 78.3316 44.4033 76.09 44.4033 72.105H46.8909Z" fill="white"/>
</svg>
