<svg width="100" height="100" viewBox="0 0 100 100" fill="none" xmlns="http://www.w3.org/2000/svg">
<path d="M33.6641 2.73656C38.8815 0.995269 44.3473 0.000244141 49.8131 0.000244141C58.3846 0.000244141 66.956 2.23905 74.4094 6.46791C77.3908 8.2092 80.2479 10.1992 82.8566 12.4381L81.2417 14.3037C78.7572 12.0649 76.0243 10.1992 73.1672 8.58233C66.2106 4.60223 58.1361 2.48781 49.9374 2.48781C44.72 2.48781 39.5026 3.35845 34.5336 5.09975L33.6641 2.73656Z" fill="#003C84"/>
<path d="M19.0059 10.6968C20.8692 9.20423 22.8568 7.83607 24.9686 6.59229L26.2108 8.70671C24.2233 9.95049 22.3599 11.1943 20.4965 12.6868L19.0059 10.6968Z" fill="#003C84"/>
<path d="M0 50.0002C0 41.2937 2.23603 32.7116 6.58385 25.1246L8.69565 26.3683C4.59627 33.4579 2.48447 41.6668 2.48447 50.0002C2.48447 76.1196 23.7267 97.5126 49.9379 97.5126C76.1491 97.5126 97.3913 76.244 97.3913 50.0002C97.3913 44.2788 96.3975 38.5574 94.4099 33.2091C93.4161 30.5972 92.1739 27.9852 90.6832 25.4977L92.795 24.2539C94.4099 26.8658 95.6522 29.6022 96.7702 32.3385C98.882 37.9355 100 43.9056 100 50.0002C100 77.4877 77.6397 100 50.0621 100C22.4845 100 0 77.4877 0 50.0002Z" fill="#003C84"/>
<path d="M0 50.1248H2.48447C2.48447 76.2442 23.7267 97.3884 49.6894 97.3884V99.876C22.3602 99.876 0 77.6123 0 50.1248Z" fill="#036FF5"/>
<path d="M49.9387 7.83618C49.8145 7.83618 49.8145 7.83618 49.9387 7.83618C49.8145 7.83618 49.8145 7.83618 49.9387 7.83618C49.8145 7.83618 49.8145 7.83618 49.9387 7.83618C49.8145 7.83618 49.8145 7.83618 49.9387 7.83618C49.8145 7.83618 49.8145 7.83618 49.9387 7.83618C49.8145 7.83618 49.8145 7.83618 49.9387 7.83618C49.8145 7.83618 49.8145 7.83618 49.9387 7.83618C49.8145 7.83618 49.8145 7.83618 49.9387 7.83618C49.8145 7.83618 49.8145 7.83618 49.9387 7.83618C49.8145 7.83618 49.8145 7.83618 49.9387 7.83618C49.8145 7.83618 49.8145 7.83618 49.9387 7.83618C49.8145 7.83618 49.8145 7.83618 49.8145 7.83618C49.8145 7.83618 49.8145 7.83618 49.6903 7.83618H49.5661C49.4419 7.83618 49.3176 7.83618 49.1934 7.83618V9.07996C49.5661 9.07996 49.9387 9.07996 50.4356 9.07996V7.83618H49.9387ZM44.9698 8.20932C44.5971 8.20932 44.2245 8.33369 43.7276 8.33369L43.8518 9.57747C44.2245 9.57747 44.5971 9.4531 45.094 9.4531L44.9698 8.20932ZM40.0009 9.07996C39.8766 9.07996 39.7524 9.07996 39.6282 9.20434C39.504 9.20434 39.3797 9.32872 39.2555 9.32872L39.6282 10.5725C40.0009 10.4481 40.3735 10.3237 40.7462 10.3237L40.0009 9.07996ZM35.2804 10.4481C35.1561 10.5725 34.9077 10.5725 34.7835 10.6969C34.6592 10.8213 34.4108 10.8213 34.2866 10.9456L34.7835 12.065C35.1561 11.9407 35.5288 11.8163 35.9015 11.5675L35.2804 10.4481ZM30.8083 12.4382C30.6841 12.4382 30.6841 12.5625 30.5599 12.5625C30.5599 12.5625 30.5599 12.5625 30.4356 12.5625C30.4356 12.5625 30.4356 12.5625 30.3114 12.5625C30.3114 12.5625 30.3114 12.5625 30.1872 12.5625C30.1872 12.5625 30.1872 12.5625 30.063 12.5625C30.063 12.5625 30.063 12.5625 29.9388 12.5625C29.9388 12.5625 29.9387 12.5625 29.8145 12.5625C29.6903 12.5625 29.6903 12.6869 29.5661 12.6869C29.5661 12.6869 29.5661 12.6869 29.4419 12.6869L30.063 13.8063C30.4356 13.5576 30.8083 13.4332 31.181 13.1844L30.8083 12.4382ZM26.4605 15.0501C26.0878 15.2989 25.7151 15.5476 25.4667 15.7964L26.212 16.7914C26.5847 16.5426 26.8332 16.2939 27.2058 16.0451L26.4605 15.0501ZM22.4853 18.0352C22.4853 18.1596 22.4853 18.1596 22.4853 18.0352C22.4853 18.1596 22.4853 18.1596 22.4853 18.0352C22.3611 18.1596 22.3611 18.1596 22.4853 18.0352C22.3611 18.1596 22.3611 18.1596 22.4853 18.0352C22.3611 18.1596 22.3611 18.1596 22.3611 18.1596C22.1127 18.4083 21.8642 18.6571 21.6158 18.9058L22.4853 19.7765C22.7338 19.5277 23.1065 19.279 23.3549 19.0302L22.4853 18.0352ZM19.0071 21.5178C18.7586 21.7665 18.6344 21.8909 18.386 22.1397C18.2617 22.264 18.2617 22.264 18.1375 22.3884L19.1313 23.2591C19.3797 23.0103 19.6282 22.6372 19.8766 22.3884L19.0071 21.5178ZM15.7773 25.3735C15.653 25.4979 15.5288 25.6222 15.5288 25.7466C15.4046 25.871 15.4046 25.9954 15.2804 25.9954L16.2742 26.7417C16.5226 26.3685 16.771 26.1198 17.0195 25.7466L15.7773 25.3735ZM13.1686 29.478C13.1686 29.6024 13.1686 29.6024 13.1686 29.478C13.0443 29.6024 13.0443 29.6024 13.1686 29.478C13.0443 29.6024 13.0443 29.6024 13.1686 29.478C13.0443 29.6024 13.0443 29.6024 13.1686 29.478C13.0443 29.6024 13.0443 29.6024 13.1686 29.478C13.0443 29.6024 13.0443 29.6024 13.1686 29.478C13.0443 29.6024 13.0443 29.6024 13.1686 29.478C13.0443 29.6024 13.0443 29.6023 13.0443 29.6023C13.0443 29.7267 12.9201 29.7267 12.9201 29.8511C12.7959 29.9755 12.7959 30.2242 12.6717 30.3486L13.7897 30.9705C13.9139 30.5974 14.1624 30.2242 14.4108 29.8511L13.1686 29.478ZM10.9325 33.9556C10.9325 34.08 10.8083 34.2043 10.8083 34.4531C10.6841 34.7019 10.6841 34.8262 10.5599 35.075L11.6779 35.5725C11.8021 35.1994 11.9263 34.8262 12.1748 34.4531L10.9325 33.9556ZM9.44185 38.6819C9.31763 39.0551 9.19341 39.4282 9.06918 39.9257L10.3114 40.1745C10.4356 39.8014 10.5599 39.4282 10.5599 39.0551L9.44185 38.6819ZM8.32384 43.5327C8.32384 43.7815 8.19962 44.1546 8.19962 44.4033C8.19962 44.5277 8.19962 44.5277 8.19962 44.6521L9.44185 44.7765C9.44185 44.4033 9.56608 44.0302 9.56608 43.5327H8.32384ZM7.95117 48.5078C7.95117 48.881 7.95117 49.2541 7.95117 49.6272H9.19341C9.19341 49.2541 9.19341 48.881 9.19341 48.3834L7.95117 48.5078ZM9.19341 53.3586L7.95117 53.4829C7.95117 53.4829 7.95117 53.4829 7.95117 53.6073C7.95117 53.6073 7.95117 53.6073 7.95117 53.7317C7.95117 53.8561 7.95117 53.9805 7.95117 54.2292L9.19341 54.1048C9.31763 54.2292 9.31763 53.8561 9.19341 53.3586ZM9.93875 58.2093L8.69651 58.4581C8.82074 58.8312 8.82074 59.08 8.94496 59.4531L10.1872 59.2043C10.063 58.9556 10.063 58.5824 9.93875 58.2093ZM11.181 62.8113L9.93875 63.1844C10.063 63.4332 10.063 63.6819 10.1872 63.8063C10.1872 63.9307 10.1872 63.9307 10.3114 64.0551L11.4294 63.6819C11.4294 63.5576 11.3052 63.1844 11.181 62.8113ZM12.9201 67.2889L11.8021 67.7864C11.8021 67.7864 11.8021 67.7864 11.8021 67.9108C11.8021 68.0352 11.9263 68.1596 11.9263 68.2839L13.0443 67.662C13.2928 68.0352 13.1686 67.662 12.9201 67.2889ZM15.2804 71.5178L14.2866 72.1397C14.2866 72.1397 14.2866 72.1397 14.2866 72.264C14.4108 72.5128 14.6592 72.7616 14.7835 73.0103L15.7773 72.264C15.653 72.264 15.5288 71.8909 15.2804 71.5178ZM18.0133 75.4979L17.0195 76.2441C17.1437 76.3685 17.1437 76.3685 17.2679 76.4929C17.3922 76.6173 17.5164 76.866 17.7648 76.9904L18.7586 76.2441C18.5102 76.1198 18.2617 75.7466 18.0133 75.4979ZM21.2431 79.1048L20.3735 79.9755C20.622 80.2242 20.7462 80.3486 20.9946 80.5974L21.1189 80.7217L21.9884 79.8511C21.8642 79.6023 21.6158 79.3536 21.2431 79.1048ZM24.9698 82.2143L24.2245 83.2093L24.3487 83.3337C24.5971 83.5824 24.8456 83.7068 25.094 83.9556L25.8394 82.9605C25.5909 82.7118 25.2183 82.463 24.9698 82.2143ZM28.945 84.9506L28.3238 86.07L28.4481 86.1944C28.6965 86.3188 28.945 86.5675 29.1934 86.6919L29.8145 85.5725C29.5661 85.3237 29.1934 85.1994 28.945 84.9506ZM33.1686 87.1894L32.6717 88.3088C32.6717 88.3088 32.7959 88.3088 32.7959 88.4332C32.7959 88.4332 32.7959 88.4332 32.9201 88.4332C32.9201 88.4332 32.9201 88.4332 33.0443 88.4332C33.2928 88.5576 33.417 88.5576 33.6655 88.6819L34.1624 87.5625C33.9139 87.5625 33.5412 87.4382 33.1686 87.1894ZM37.6406 88.9307L37.2679 90.1745H37.3922C37.3922 90.1745 37.3922 90.1745 37.5164 90.1745C37.7648 90.1745 37.8891 90.2989 38.1375 90.2989L38.5102 89.0551C38.386 89.1795 38.0133 89.0551 37.6406 88.9307ZM42.3611 90.0501L42.1127 91.2939C42.2369 91.2939 42.3611 91.2939 42.4853 91.2939C42.4853 91.2939 42.4853 91.2939 42.6096 91.2939C42.7338 91.2939 42.9822 91.2939 43.1065 91.4183L43.3549 90.1745C43.1065 90.2989 42.7338 90.1745 42.3611 90.0501ZM47.0816 90.672L46.9574 91.9158C47.0816 91.9158 47.2058 91.9158 47.3301 91.9158C47.5785 91.9158 47.8269 91.9158 48.1996 91.9158V90.672C47.9512 90.7964 47.5785 90.672 47.0816 90.672ZM53.1686 90.672C52.7959 90.672 52.4232 90.672 51.9263 90.7964V92.0401C52.299 92.0401 52.6717 92.0402 53.0443 91.9158L53.1686 90.672ZM57.8891 90.0501C57.5164 90.1745 57.1437 90.1745 56.6468 90.2989L56.8953 91.5426C57.2679 91.4183 57.6406 91.4183 58.1375 91.2939L57.8891 90.0501ZM62.6096 88.8063C62.2369 88.9307 61.8642 89.0551 61.4915 89.1795L61.8642 90.4232C61.9884 90.4232 62.2369 90.2989 62.3611 90.2989C62.6096 90.2989 62.7338 90.1745 62.9822 90.0501L62.6096 88.8063ZM67.0816 87.065C66.7089 87.1894 66.3363 87.4382 65.9636 87.5625L66.4605 88.6819C66.5847 88.6819 66.5847 88.5576 66.7089 88.5576C66.9574 88.4332 67.0816 88.3088 67.3301 88.3088L67.0816 87.065ZM71.3052 84.7018C70.9325 84.9506 70.5599 85.075 70.3114 85.3237L70.9325 86.4431C71.0568 86.3188 71.181 86.3188 71.3052 86.1944H71.4294L71.3052 84.7018ZM75.2804 81.9655C74.9077 82.2143 74.6592 82.463 74.2866 82.7118L75.0319 83.7068C75.1561 83.5825 75.2804 83.5824 75.4046 83.4581C75.5288 83.3337 75.5288 83.3337 75.653 83.2093L75.2804 81.9655ZM78.8828 78.7317C78.6344 78.9805 78.2617 79.3536 78.0133 79.6023L78.8828 80.473V78.7317ZM81.9884 75.1247C81.74 75.4979 81.4915 75.7466 81.2431 76.1198L82.2369 76.866C82.3611 76.7416 82.4853 76.4929 82.7338 76.3685C82.858 76.2441 82.858 76.1198 82.9822 75.9954L81.9884 75.1247ZM84.7214 71.1446C84.4729 71.5178 84.3487 71.8909 84.1002 72.1397L85.094 72.7616C85.094 72.6372 85.2182 72.6372 85.2182 72.5128C85.3425 72.264 85.4667 72.0153 85.7151 71.7665L84.7214 71.1446ZM87.0816 66.9158C86.9574 67.2889 86.7089 67.662 86.5847 68.0352L87.7027 68.5327C87.8269 68.1596 88.0754 67.7864 88.1996 67.4133L87.0816 66.9158ZM88.8207 62.4382C88.6965 62.8113 88.5723 63.1844 88.4481 63.5576L89.5661 63.9307C89.5661 63.8063 89.6903 63.6819 89.6903 63.4332C89.6903 63.3088 89.8145 63.1844 89.8145 63.0601L88.8207 62.4382ZM89.9388 57.7118C89.8145 58.0849 89.8145 58.4581 89.6903 58.8312L90.9325 59.08C90.9325 58.9556 91.0568 58.8312 91.0568 58.5824C91.0568 58.4581 91.0568 58.3337 91.181 58.2093L89.9388 57.7118ZM90.5599 52.8611C90.5599 53.2342 90.4356 53.6073 90.4356 54.1048L91.6779 54.2292C91.6779 53.8561 91.8021 53.3586 91.8021 52.9854L90.5599 52.8611ZM91.9263 48.0103H90.6841C90.6841 48.3834 90.6841 48.7566 90.6841 49.2541H91.9263C91.9263 49.0053 91.9263 48.7566 91.9263 48.3834C91.9263 48.1347 91.9263 48.1347 91.9263 48.0103C91.9263 48.1347 91.9263 48.1347 91.9263 48.0103C91.9263 48.1347 91.9263 48.1347 91.9263 48.0103C91.9263 48.1347 91.9263 48.1347 91.9263 48.0103ZM91.4294 43.0352L90.1872 43.2839C90.3114 43.6571 90.3114 44.0302 90.3114 44.5277L91.5536 44.4033C91.5536 43.9058 91.4294 43.5327 91.4294 43.0352C91.4294 43.1596 91.4294 43.1596 91.4294 43.0352C91.4294 43.1596 91.4294 43.1596 91.4294 43.0352C91.4294 43.1596 91.4294 43.1596 91.4294 43.0352C91.4294 43.1596 91.4294 43.1596 91.4294 43.0352C91.4294 43.1596 91.4294 43.1596 91.4294 43.0352C91.4294 43.1596 91.4294 43.1596 91.4294 43.0352C91.4294 43.1596 91.4294 43.1596 91.4294 43.0352C91.4294 43.1596 91.4294 43.1596 91.4294 43.0352C91.4294 43.1596 91.4294 43.1596 91.4294 43.0352C91.4294 43.1596 91.4294 43.1596 91.4294 43.0352C91.4294 43.1596 91.4294 43.1596 91.4294 43.0352ZM90.3114 38.1844L89.0692 38.5576C89.1934 38.9307 89.3176 39.3038 89.4419 39.677L90.6841 39.4282C90.5599 39.0551 90.4356 38.682 90.3114 38.1844ZM88.5723 33.5824L87.4543 34.08C87.5785 34.4531 87.7027 34.8262 87.9512 35.1994L89.0692 34.7018C89.0692 34.5775 88.945 34.4531 88.945 34.2043C88.8207 33.9556 88.6965 33.8312 88.5723 33.5824ZM86.4605 29.1048L85.3425 29.7267C85.5909 30.0999 85.7151 30.473 85.9636 30.7218L87.0816 30.0999C86.8332 29.8511 86.5847 29.478 86.4605 29.1048ZM83.7276 24.876L82.7338 25.6222C82.9822 25.9954 83.2307 26.2441 83.4791 26.6173L84.4729 25.871C84.3487 25.6222 84.2245 25.4979 83.976 25.2491C83.8518 25.1247 83.7276 25.0004 83.7276 24.876ZM80.4978 21.1446L79.6282 22.0153C79.8766 22.264 80.1251 22.6372 80.4978 22.8859L81.3673 22.0153C81.1189 21.7665 80.7462 21.3934 80.4978 21.1446ZM76.8953 17.6621L76.1499 18.6571C76.3984 18.9058 76.771 19.1546 77.0195 19.4033L77.8891 18.5327C77.5164 18.1596 77.1437 17.9108 76.8953 17.6621ZM72.9201 14.8014L72.299 15.7964C72.6717 16.0451 72.9201 16.2939 73.2928 16.4183L74.0381 15.4232C73.1686 14.9257 73.0443 14.8014 72.9201 14.8014ZM68.5723 12.3138L68.0754 13.4332C68.4481 13.5576 68.8207 13.8063 69.1934 13.9307L69.8145 12.8113C69.6903 12.6869 69.4419 12.5625 69.3176 12.5625C68.8207 12.4382 68.6965 12.3138 68.5723 12.3138C68.6965 12.3138 68.6965 12.3138 68.5723 12.3138C68.6965 12.3138 68.6965 12.3138 68.5723 12.3138ZM63.976 10.3237L63.6033 11.4431C63.976 11.5675 64.3487 11.6919 64.7214 11.8163L65.2183 10.6969C64.8456 10.5725 64.4729 10.4481 63.976 10.3237ZM59.2555 8.95558L59.0071 10.1994C59.3797 10.3237 59.7524 10.3237 60.1251 10.4481L60.4978 9.20434C60.1251 9.07996 59.8766 9.07996 59.504 8.95558C59.3797 8.95558 59.3797 8.95558 59.2555 8.95558C59.3797 8.95558 59.3797 8.95558 59.2555 8.95558C59.3797 8.95558 59.3797 8.95558 59.2555 8.95558C59.3797 8.95558 59.3797 8.95558 59.2555 8.95558C59.3797 8.95558 59.3797 8.95558 59.2555 8.95558C59.3797 8.95558 59.2555 8.95558 59.2555 8.95558ZM54.4108 8.08494L54.2866 9.32872C54.6592 9.32872 55.0319 9.4531 55.5288 9.4531L55.653 8.20932C55.4046 8.20932 55.1561 8.08494 54.9077 8.08494C54.535 8.08494 54.535 8.08494 54.4108 8.08494C54.535 8.08494 54.4108 8.08494 54.4108 8.08494ZM49.9387 7.83618V9.07996C50.1872 9.07996 50.4356 9.07996 50.6841 9.07996V7.83618C50.5599 7.83618 50.4356 7.83618 50.3114 7.83618C50.063 7.83618 50.063 7.83618 49.9387 7.83618C50.063 7.83618 50.063 7.83618 49.9387 7.83618C50.063 7.83618 49.9387 7.83618 49.9387 7.83618Z" fill="#489BFD"/>
<path d="M49.6898 83.4581C68.2136 83.4581 83.2302 68.4229 83.2302 49.876C83.2302 31.3292 68.2136 16.2939 49.6898 16.2939C31.166 16.2939 16.1494 31.3292 16.1494 49.876C16.1494 68.4229 31.166 83.4581 49.6898 83.4581Z" fill="#00225E"/>
<path d="M49.6895 23.6322C48.9442 23.6322 48.4473 23.1347 48.4473 22.3884V11.5675C48.4473 10.8212 48.9442 10.3237 49.6895 10.3237C50.4348 10.3237 50.9317 10.8212 50.9317 11.5675V22.3884C50.9317 23.1347 50.4348 23.6322 49.6895 23.6322Z" fill="#036FF5"/>
<path d="M28.323 36.1945C28.0746 36.1945 27.9503 36.1945 27.7019 36.0701L20.9938 32.2144C20.3727 31.8413 20.2485 31.095 20.4969 30.4731C20.8696 29.8512 21.6149 29.7268 22.2361 29.9756L28.9441 33.8313C29.5652 34.2044 29.6895 34.9507 29.441 35.5726C29.1926 35.9457 28.8199 36.1945 28.323 36.1945Z" fill="#036FF5"/>
<path d="M61.864 27.3635C61.6155 27.3635 61.4913 27.3635 61.2428 27.2391C60.6217 26.866 60.4975 26.1197 60.7459 25.4978L64.7211 18.5327C65.0938 17.9108 65.8391 17.7864 66.4602 18.0352C67.0813 18.4083 67.2056 19.1546 66.9571 19.7764L62.982 26.7416C62.7335 27.1148 62.3608 27.3635 61.864 27.3635Z" fill="#036FF5"/>
<path d="M37.5153 27.3635C37.1427 27.3635 36.6458 27.1148 36.3973 26.7416L32.4222 19.7765C32.0495 19.1546 32.2979 18.4083 32.9191 18.0352C33.5402 17.662 34.2855 17.9108 34.6582 18.5327L38.6333 25.4979C39.006 26.1198 38.7576 26.866 38.1365 27.2392C37.888 27.2392 37.7638 27.3635 37.5153 27.3635Z" fill="#036FF5"/>
<path d="M71.0558 36.1945C70.6831 36.1945 70.1862 35.9458 69.9378 35.5726C69.5651 34.9507 69.8136 34.2045 70.4347 33.8313L77.1428 29.9756C77.7639 29.6025 78.5092 29.8512 78.8819 30.4731C79.2546 31.095 79.0061 31.8413 78.385 32.2144L71.6769 36.0701C71.5527 36.0701 71.3043 36.1945 71.0558 36.1945Z" fill="#036FF5"/>
<path d="M59.3797 59.8262L58.2617 59.3287L60.0008 54.8511H64.7213V56.0949H60.7462L59.3797 59.8262Z" fill="#036FF5"/>
<path d="M51.552 71.6422H15.6514L24.0986 49.2542H43.229L51.552 71.6422ZM19.2539 69.1546H47.9495L41.3657 51.7417H25.7135L19.2539 69.1546Z" fill="#036FF5"/>
<path d="M83.8508 71.6422H47.9502L56.3974 49.2542H75.5278L83.8508 71.6422ZM51.5527 69.1546H80.2483L73.6645 51.7417H58.0123L51.5527 69.1546Z" fill="#036FF5"/>
<path d="M27.0809 59.8262L25.9629 59.3287L27.702 54.8511H32.4225V56.0949H28.4474L27.0809 59.8262Z" fill="#036FF5"/>
<path d="M43.4295 37.4482L42.3115 37.075L44.0507 32.5974H48.7711V33.8412H44.796L43.4295 37.4482Z" fill="white"/>
<path d="M67.9006 49.3883H32L40.323 27.0002H59.4534L67.9006 49.3883ZM35.6025 46.9007H64.2981L57.7143 29.4878H42.0621L35.6025 46.9007Z" fill="white"/>
</svg>
